<svg xmlns="http://www.w3.org/2000/svg" width="1255" height="714" viewBox="0 0 1255 714">
  <g id="_404_4" data-name="404 4" transform="translate(-327 -196)">
    <path id="Rectangle_61" data-name="Rectangle 61" d="M477.7,196h949.6c25.792,0,46.7,16.708,46.7,37.317V872.683c0,20.61-20.909,37.317-46.7,37.317H477.7c-25.793,0-46.7-16.708-46.7-37.317V233.317C431,212.707,451.909,196,477.7,196Z" transform="translate(0)" fill="#fff"/>
    <path id="Rounded_Rectangle_1" data-name="Rounded Rectangle 1" d="M1405,335h120a18,18,0,0,1,18,18v-3a18,18,0,0,1-18,18H1405a18,18,0,0,1-18-18v3A18,18,0,0,1,1405,335Z" fill="#ff4e16"/>
    <path id="Rounded_Rectangle_1_copy_2" data-name="Rounded Rectangle 1 copy 2" d="M1444,401h120a18,18,0,0,1,18,18v-3a18,18,0,0,1-18,18H1444a18,18,0,0,1-18-18v3A18,18,0,0,1,1444,401Z" fill="#fdb03d"/>
    <path id="Rounded_Rectangle_1_copy" data-name="Rounded Rectangle 1 copy" d="M1184,374h120a18,18,0,0,1,18,18v-3a18,18,0,0,1-18,18H1184a18,18,0,0,1-18-18v3A18,18,0,0,1,1184,374Z" fill="#fff"/>
    <circle id="Ellipse_4" data-name="Ellipse 4" cx="14" cy="14" r="14" transform="translate(1328 376)" fill="#fff"/>
    <path id="Rounded_Rectangle_1_copy_3" data-name="Rounded Rectangle 1 copy 3" d="M345,677H465a18,18,0,0,1,18,18v-3a18,18,0,0,1-18,18H345a18,18,0,0,1-18-18v3A18,18,0,0,1,345,677Z" fill="#fdb03d"/>
    <path id="Rounded_Rectangle_1_copy_3-2" data-name="Rounded Rectangle 1 copy 3" d="M384,743H504a18,18,0,0,1,18,18v-3a18,18,0,0,1-18,18H384a18,18,0,0,1-18-18v3A18,18,0,0,1,384,743Z" fill="#ff4e16"/>
    <path id="Rounded_Rectangle_1_copy_3-3" data-name="Rounded Rectangle 1 copy 3" d="M604,705H724a18,18,0,0,1,18,18v-3a18,18,0,0,1-18,18H604a18,18,0,0,1-18-18v3A18,18,0,0,1,604,705Z" fill="#fff"/>
    <circle id="Ellipse_4_copy" data-name="Ellipse 4 copy" cx="14" cy="14" r="14" transform="translate(550 707)" fill="#fff"/>
  </g>
</svg>
