<svg width="55" height="56" viewBox="0 0 55 56" fill="none" xmlns="http://www.w3.org/2000/svg">
<path d="M43.9051 7.76295C31.0236 -4.85833 20.0513 0.881666 18.1421 10.4973C16.2328 20.1129 -1.50291 22.0328 0.686916 33.3903C2.87674 44.7477 26.7298 38.0043 26.7298 48.297C26.7298 58.5897 54.3087 58.2347 54.3087 44.7477C54.3087 31.2608 56.7867 20.3842 43.9051 7.76295Z" fill="#FFEFD8"/>
<path d="M46.2812 13.9217H46.009V12.8417C46.009 12.5435 45.7653 12.3018 45.4646 12.3018H43.287C42.9864 12.3018 42.7426 12.5435 42.7426 12.8417V13.9217H39.4763V12.8417C39.4763 12.5435 39.2325 12.3018 38.9319 12.3018H36.7543C36.4536 12.3018 36.2099 12.5435 36.2099 12.8417V13.9217H32.9435V12.8417C32.9435 12.5435 32.6997 12.3018 32.3991 12.3018H30.2215C29.9208 12.3018 29.6771 12.5435 29.6771 12.8417V13.9217H26.4107V12.8417C26.4107 12.5435 26.167 12.3018 25.8663 12.3018H23.6887C23.3881 12.3018 23.1443 12.5435 23.1443 12.8417V13.9217H19.8779V12.8417C19.8779 12.5435 19.6342 12.3018 19.3335 12.3018H17.1559C16.8553 12.3018 16.6116 12.5435 16.6116 12.8417V13.9217H16.3394C15.2875 13.9229 14.4351 14.7684 14.434 15.8117V39.5711C14.4351 40.6144 15.2875 41.4599 16.3394 41.461H21.5111V42.811C21.5123 43.8543 22.3647 44.6998 23.4165 44.701L39.2041 44.701C40.2559 44.6998 41.1083 43.8543 41.1094 42.811V41.461H46.2812C47.3331 41.4599 48.1855 40.6144 48.1866 39.5711L48.1866 15.8117C48.1855 14.7684 47.3331 13.9229 46.2812 13.9217ZM43.8314 13.3817H44.9202V15.5417H43.8314V13.3817ZM37.2987 13.3817H38.3875V15.5417H37.2987V13.3817ZM30.7659 13.3817H31.8547V15.5417H30.7659V13.3817ZM24.2331 13.3817H25.3219V15.5417H24.2331V13.3817ZM17.7003 13.3817H18.7891V15.5417H17.7003V13.3817ZM40.0207 42.811C40.0203 43.2582 39.6549 43.6206 39.2041 43.621H23.4165C22.9657 43.6206 22.6003 43.2582 22.5999 42.811L22.5999 27.1514C22.6003 26.7042 22.9657 26.3418 23.4165 26.3414H39.2041C39.6549 26.3418 40.0203 26.7042 40.0207 27.1514L40.0207 42.811ZM47.0978 39.5711C47.0975 40.0183 46.7321 40.3807 46.2812 40.3811L41.1094 40.3811V27.1514C41.1083 26.1081 40.2559 25.2626 39.2041 25.2614H23.4165C22.3647 25.2626 21.5123 26.1081 21.5111 27.1514L21.5111 40.3811H16.3394C15.8885 40.3807 15.5231 40.0183 15.5228 39.5711V18.2416H47.0978V39.5711ZM47.0978 17.1616H15.5228V15.8117C15.5231 15.3645 15.8885 15.0021 16.3394 15.0017H16.6116V16.0817C16.6116 16.3799 16.8553 16.6217 17.1559 16.6217H19.3335C19.6342 16.6217 19.8779 16.3799 19.8779 16.0817V15.0017H23.1443V16.0817C23.1443 16.3799 23.3881 16.6217 23.6887 16.6217H25.8663C26.167 16.6217 26.4107 16.3799 26.4107 16.0817V15.0017H29.6771V16.0817C29.6771 16.3799 29.9208 16.6217 30.2215 16.6217H32.3991C32.6997 16.6217 32.9435 16.3799 32.9435 16.0817V15.0017H36.2099V16.0817C36.2099 16.3799 36.4536 16.6217 36.7543 16.6217H38.9319C39.2325 16.6217 39.4763 16.3799 39.4763 16.0817V15.0017H42.7426V16.0817C42.7426 16.3799 42.9864 16.6217 43.287 16.6217H45.4646C45.7653 16.6217 46.009 16.3799 46.009 16.0817V15.0017H46.2812C46.7321 15.0021 47.0975 15.3645 47.0978 15.8117L47.0978 17.1616Z" fill="black"/>
<path d="M37.0769 28.0661C36.9371 27.9645 36.7571 27.9347 36.5917 27.9858L27.8813 30.6857C27.6541 30.7564 27.4995 30.9652 27.4995 31.2014V37.9721C27.169 37.7811 26.7932 37.6807 26.4107 37.6812C25.2081 37.6812 24.2332 38.6483 24.2332 39.8412C24.2332 41.0341 25.2081 42.0011 26.4107 42.0011C27.6134 42.0011 28.5883 41.0341 28.5883 39.8412V33.7582L36.2099 31.3958V35.2722C35.8794 35.0812 35.5036 34.9808 35.1211 34.9813C33.9185 34.9813 32.9435 35.9483 32.9435 37.1412C32.9435 38.3341 33.9185 39.3011 35.1211 39.3011C36.3238 39.3011 37.2987 38.3341 37.2987 37.1412V28.5014C37.2986 28.3296 37.2162 28.1681 37.0769 28.0661ZM26.4107 40.9211C25.8094 40.9211 25.3219 40.4376 25.3219 39.8412C25.3219 39.2447 25.8094 38.7612 26.4107 38.7612C27.0121 38.7612 27.4995 39.2447 27.4995 39.8412C27.4987 40.4373 27.0117 40.9203 26.4107 40.9211ZM35.1211 38.2212C34.5198 38.2212 34.0323 37.7377 34.0323 37.1412C34.0323 36.5448 34.5198 36.0613 35.1211 36.0613C35.7224 36.0613 36.2099 36.5448 36.2099 37.1412C36.2091 37.7374 35.7221 38.2204 35.1211 38.2212ZM36.2099 30.2645L28.5883 32.6269V31.5983L36.2099 29.2358V30.2645Z" fill="#FC4F22"/>
</svg>
