<svg width="31" height="31" viewBox="0 0 31 31" fill="none" xmlns="http://www.w3.org/2000/svg">
<path d="M30.0938 5.82448L23.172 0.0743198L21.2163 2.38978L28.138 8.13916L30.0938 5.82448ZM8.80256 2.31462L6.84605 0L0 5.82448L1.95567 8.13909L8.80256 2.31462ZM15.7993 9.18478H13.5422V18.1458L20.6894 22.4025L21.818 20.5355L15.7992 17.0257L15.7993 9.18478ZM15.0469 3.21082C7.52344 3.21082 1.50462 9.25917 1.50462 16.6522C1.50462 24.0455 7.52344 30.0938 15.0469 30.0938C22.4955 30.0938 28.5891 24.0455 28.5891 16.6522C28.5891 9.25924 22.4955 3.21082 15.0469 3.21082ZM15.0469 27.1069C9.25362 27.1069 4.51406 22.4025 4.51406 16.6522C4.51406 10.9023 9.25362 6.1979 15.0469 6.1979C20.8402 6.1979 25.5797 10.9022 25.5797 16.6522C25.5797 22.4769 20.8402 27.1069 15.0469 27.1069Z" fill="white"/>
</svg>
