<svg width="43" height="43" viewBox="0 0 43 43" fill="none" xmlns="http://www.w3.org/2000/svg">
<path d="M21.5 43C17.1398 43 12.9416 41.702 9.35931 39.2463C3.49886 35.2304 0 28.5963 0 21.5C0 15.757 2.23636 10.3578 6.29708 6.29708C10.3578 2.23636 15.757 0 21.5 0C27.243 0 32.6423 2.23636 36.7029 6.29708C40.7636 10.3578 43 15.757 43 21.5C43 28.5963 39.5011 35.2304 33.6405 39.2464C30.0584 41.702 25.8603 43 21.5 43ZM21.5 1.79167C10.6327 1.79167 1.79167 10.6327 1.79167 21.5C1.79167 28.005 4.99938 34.0867 10.3722 37.7684C13.6551 40.0188 17.503 41.2083 21.5 41.2083C25.497 41.2083 29.3449 40.0188 32.6277 37.7685C38.0006 34.0867 41.2083 28.005 41.2083 21.5C41.2083 10.6327 32.3673 1.79167 21.5 1.79167Z" fill="#FC4F22"/>
<path d="M21.5 43C21.0052 43 20.6042 42.5988 20.6042 42.1042V0.895833C20.6042 0.401065 21.0052 0 21.5 0C21.9947 0 22.3958 0.401065 22.3958 0.895833V42.1042C22.3958 42.5988 21.9947 43 21.5 43Z" fill="#FC4F22"/>
<path d="M9.85381 39.4167C9.64633 39.4167 9.43796 39.345 9.26865 39.1988C8.89419 38.8754 8.8528 38.3097 9.1762 37.9353L20.823 24.4966C21.147 24.1227 21.7127 24.0822 22.0867 24.4064C22.4605 24.7304 22.5009 25.2962 22.1769 25.67L10.5321 39.1063C10.355 39.3115 10.1051 39.4167 9.85381 39.4167Z" fill="#FC4F22"/>
<path d="M33.1463 39.4167C32.8949 39.4167 32.645 39.3115 32.4679 39.1063L20.823 25.6701C20.499 25.2962 20.5394 24.7305 20.9132 24.4064C21.2871 24.0823 21.853 24.123 22.1769 24.4967L33.8238 37.9354C34.1471 38.3099 34.1057 38.8755 33.7313 39.1989C33.562 39.345 33.3537 39.4167 33.1463 39.4167Z" fill="#FC4F22"/>
</svg>
