<svg width="136" height="41" viewBox="0 0 136 41" fill="none" xmlns="http://www.w3.org/2000/svg">
<path d="M134.605 35.7775C134.605 37.894 132.89 39.6085 130.769 39.6085H5.23171C3.11156 39.6085 1.39062 37.894 1.39062 35.7775V5.22628C1.39062 3.11072 3.11156 1.39026 5.23171 1.39026H130.768C132.89 1.39026 134.604 3.11072 134.604 5.22628L134.605 35.7775Z" fill="white"/>
<path d="M130.769 40.4997H5.23157C2.62315 40.4997 0.5 38.3821 0.5 35.7774V5.22726C0.5 2.62057 2.62315 0.5 5.23157 0.5H130.768C133.373 0.5 135.499 2.62057 135.499 5.22726V35.7774C135.501 38.3821 133.375 40.4997 130.769 40.4997Z" fill="black"/>
<path d="M134.605 35.7775C134.605 37.894 132.89 39.6085 130.769 39.6085H5.23171C3.11156 39.6085 1.39062 37.894 1.39062 35.7775V5.22628C1.39062 3.11072 3.11156 1.39026 5.23171 1.39026H130.768C132.89 1.39026 134.604 3.11072 134.604 5.22628L134.605 35.7775Z" fill="black"/>
<path d="M30.6443 20.2893C30.6153 17.0654 33.2848 15.497 33.4068 15.424C31.895 13.2204 29.5517 12.9193 28.7283 12.8953C26.7602 12.6883 24.8512 14.0726 23.8486 14.0726C22.8261 14.0726 21.2823 12.9153 19.6184 12.9493C17.4772 12.9823 15.4741 14.2217 14.3755 16.1462C12.1083 20.0702 13.7992 25.8368 15.9714 29.0086C17.058 30.563 18.3277 32.2965 19.9896 32.2355C21.6154 32.1695 22.2228 31.1992 24.1848 31.1992C26.1289 31.1992 26.6992 32.2355 28.3941 32.1965C30.1391 32.1695 31.2377 30.6361 32.2862 29.0686C33.5419 27.2892 34.0462 25.5337 34.0662 25.4447C34.0262 25.4307 30.6784 24.1533 30.6443 20.2893Z" fill="white"/>
<path d="M27.4428 10.8088C28.3173 9.71549 28.9156 8.22809 28.7495 6.71869C27.4838 6.7747 25.901 7.59392 24.9895 8.66321C24.183 9.60546 23.4627 11.1499 23.6488 12.6023C25.0705 12.7083 26.5303 11.8851 27.4428 10.8088Z" fill="white"/>
<path d="M54.1942 32.0124H51.922L50.6773 28.1024H46.351L45.1653 32.0124H42.9531L47.2404 18.7009H49.8879L54.1942 32.0124ZM50.3021 26.4619L49.1765 22.987C49.0574 22.6309 48.8333 21.7947 48.5051 20.4783H48.4651C48.333 21.0445 48.1219 21.8807 47.8328 22.987L46.7262 26.4619H50.3021Z" fill="white"/>
<path d="M65.1981 27.0951C65.1981 28.7276 64.7549 30.0179 63.8674 30.9652C63.073 31.8084 62.0854 32.2295 60.9078 32.2295C59.6361 32.2295 58.7216 31.7764 58.1663 30.8671V35.9045H56.0331V25.5697C56.0331 24.5434 56.0061 23.4922 55.9541 22.4139H57.8301L57.9492 23.9363H57.9892C58.7006 22.789 59.7802 22.2158 61.229 22.2158C62.3616 22.2158 63.3071 22.6629 64.0635 23.5582C64.8189 24.4554 65.1981 25.6337 65.1981 27.0951ZM63.0249 27.1731C63.0249 26.2389 62.8148 25.4687 62.3926 24.8625C61.9313 24.2314 61.312 23.9143 60.5356 23.9143C60.0093 23.9143 59.531 24.0903 59.1038 24.4384C58.6756 24.7875 58.3954 25.2446 58.2644 25.8118C58.1983 26.0749 58.1653 26.2899 58.1653 26.46V28.0624C58.1653 28.7586 58.3794 29.3477 58.8077 29.8299C59.2359 30.31 59.7922 30.5511 60.4766 30.5511C61.28 30.5511 61.9053 30.24 62.3526 29.6228C62.8008 29.0036 63.0249 28.1874 63.0249 27.1731Z" fill="white"/>
<path d="M76.2411 27.0951C76.2411 28.7276 75.7979 30.0179 74.9104 30.9652C74.115 31.8084 73.1284 32.2295 71.9498 32.2295C70.6791 32.2295 69.7646 31.7764 69.2083 30.8671V35.9045H67.0751V25.5697C67.0751 24.5434 67.0481 23.4922 66.9961 22.4139H68.8721L68.9912 23.9363H69.0312C69.7416 22.789 70.8212 22.2158 72.271 22.2158C73.4026 22.2158 74.3491 22.6629 75.1065 23.5582C75.8609 24.4554 76.2411 25.6337 76.2411 27.0951ZM74.0669 27.1731C74.0669 26.2389 73.8558 25.4687 73.4336 24.8625C72.9733 24.2314 72.355 23.9143 71.5786 23.9143C71.0523 23.9143 70.574 24.0903 70.1448 24.4384C69.7176 24.7875 69.4374 25.2446 69.3063 25.8118C69.2413 26.0749 69.2063 26.2899 69.2063 26.46V28.0624C69.2063 28.7586 69.4214 29.3477 69.8476 29.8299C70.2759 30.309 70.8322 30.5511 71.5185 30.5511C72.323 30.5511 72.9483 30.24 73.3946 29.6228C73.8428 29.0036 74.0669 28.1874 74.0669 27.1731Z" fill="white"/>
<path d="M88.5876 28.2794C88.5876 29.4117 88.1914 30.3329 87.4039 31.0441C86.5375 31.8213 85.3278 32.2094 83.777 32.2094C82.3442 32.2094 81.1956 31.9334 80.3291 31.3802L80.8224 29.6028C81.7579 30.1559 82.7854 30.433 83.904 30.433C84.7085 30.433 85.3338 30.2509 85.7801 29.8898C86.2283 29.5277 86.4534 29.0436 86.4534 28.4394C86.4534 27.8983 86.2673 27.4452 85.8991 27.0751C85.5299 26.708 84.9196 26.3639 84.0631 26.0498C81.7309 25.1806 80.5642 23.9082 80.5642 22.2368C80.5642 21.1445 80.9774 20.2503 81.7989 19.5511C82.6213 18.8529 83.7119 18.5038 85.0687 18.5038C86.2803 18.5038 87.2899 18.7148 88.0913 19.136L87.556 20.8744C86.8016 20.4663 85.9501 20.2623 84.9976 20.2623C84.2452 20.2623 83.6539 20.4473 83.2317 20.8154C82.8775 21.1445 82.6964 21.5456 82.6964 22.0217C82.6964 22.5469 82.9015 22.983 83.3107 23.3241C83.6649 23.6402 84.3113 23.9832 85.2458 24.3513C86.3924 24.8135 87.2338 25.3516 87.7741 25.9698C88.3164 26.5879 88.5876 27.3591 88.5876 28.2794Z" fill="white"/>
<path d="M95.6587 24.0143H93.3074V28.6745C93.3074 29.8598 93.7216 30.451 94.5521 30.451C94.9333 30.451 95.2494 30.419 95.4996 30.352L95.5586 31.9714C95.1384 32.1284 94.5851 32.2075 93.9007 32.2075C93.0573 32.2075 92.3999 31.9494 91.9236 31.4363C91.4494 30.9221 91.2123 30.0609 91.2123 28.8486V24.0103H89.8125V22.4098H91.2123V20.6524L93.3074 20.0202V22.4098H95.6587V24.0143Z" fill="white"/>
<path d="M106.246 27.1341C106.246 28.6095 105.825 29.8208 104.982 30.7681C104.1 31.7424 102.928 32.2295 101.466 32.2295C100.055 32.2295 98.9334 31.7624 98.097 30.8281C97.2605 29.8939 96.8423 28.7155 96.8423 27.2942C96.8423 25.8068 97.2755 24.5884 98.136 23.6412C98.9985 22.6939 100.161 22.2188 101.623 22.2188C103.033 22.2188 104.163 22.6879 105.021 23.6212C105.839 24.5284 106.246 25.6977 106.246 27.1341ZM104.034 27.1831C104.034 26.3039 103.845 25.5497 103.464 24.9185C103.017 24.1563 102.375 23.7762 101.547 23.7762C100.693 23.7762 100.036 24.1563 99.5908 24.9185C99.2076 25.5497 99.0185 26.3179 99.0185 27.2231C99.0185 28.1034 99.2076 28.8596 99.5908 29.4888C100.052 30.251 100.695 30.6321 101.53 30.6321C102.344 30.6321 102.984 30.242 103.447 29.4697C103.838 28.8236 104.034 28.0644 104.034 27.1831Z" fill="white"/>
<path d="M113.183 24.2894C112.972 24.2504 112.746 24.2314 112.511 24.2314C111.76 24.2314 111.18 24.5124 110.772 25.0806C110.417 25.5807 110.24 26.2129 110.24 26.9761V32.0124H108.106V25.4367C108.106 24.3314 108.085 23.3221 108.044 22.4149H109.902L109.98 24.2514H110.04C110.266 23.6202 110.62 23.1121 111.106 22.731C111.581 22.3869 112.095 22.2158 112.648 22.2158C112.845 22.2158 113.023 22.2308 113.181 22.2548L113.183 24.2894Z" fill="white"/>
<path d="M122.723 26.759C122.723 27.1411 122.698 27.4632 122.645 27.7263H116.247C116.27 28.6745 116.581 29.4007 117.174 29.9009C117.713 30.347 118.412 30.571 119.267 30.571C120.215 30.571 121.079 30.421 121.857 30.1169L122.191 31.5973C121.282 31.9924 120.209 32.1905 118.972 32.1905C117.483 32.1905 116.315 31.7524 115.464 30.8781C114.617 30.0029 114.19 28.8256 114.19 27.3532C114.19 25.9068 114.585 24.7015 115.376 23.7402C116.206 22.7139 117.325 22.2008 118.734 22.2008C120.118 22.2008 121.165 22.7139 121.876 23.7402C122.44 24.5534 122.723 25.5617 122.723 26.759ZM120.689 26.2059C120.704 25.5727 120.564 25.0286 120.275 24.5674C119.906 23.9723 119.337 23.6762 118.576 23.6762C117.877 23.6762 117.31 23.9653 116.877 24.5454C116.523 25.0066 116.312 25.5617 116.247 26.2039L120.689 26.2059Z" fill="white"/>
<path d="M49.2736 13.9366H48.1559L47.5446 12.0151H45.4185L44.8351 13.9366H43.7476L45.8547 7.39386H47.1554L49.2736 13.9366ZM47.3605 11.2089L46.8072 9.50042C46.7492 9.32538 46.6421 8.91827 46.477 8.26809H46.457C46.389 8.54917 46.2919 8.95728 46.1459 9.50042L45.6026 11.2089H47.3605Z" fill="white"/>
<path d="M54.5423 9.21936L52.7553 13.9366H51.7358L50.0068 9.21936H51.1334L51.9399 11.714C52.076 12.1311 52.192 12.5292 52.2791 12.9073H52.3081C52.3861 12.5683 52.5022 12.1701 52.6473 11.714L53.4437 9.21936H54.5423Z" fill="white"/>
<path d="M58.3462 13.9366L58.2681 13.3935H58.2391C57.9189 13.8306 57.4527 14.0436 56.8604 14.0436C56.0159 14.0436 55.4136 13.4515 55.4136 12.6553C55.4136 11.4909 56.4231 10.8888 58.1711 10.8888V10.8018C58.1711 10.1806 57.8409 9.86951 57.1905 9.86951C56.7243 9.86951 56.3161 9.98655 55.9579 10.2196L55.7448 9.53042C56.182 9.25835 56.7253 9.12231 57.3666 9.12231C58.5993 9.12231 59.2216 9.77249 59.2216 11.0738V12.8113C59.2216 13.2874 59.2416 13.6565 59.2897 13.9376L58.3462 13.9366ZM58.2001 11.587C57.0345 11.587 56.4521 11.869 56.4521 12.5382C56.4521 13.0334 56.7533 13.2754 57.1705 13.2754C57.7048 13.2754 58.2001 12.8683 58.2001 12.3152V11.587Z" fill="white"/>
<path d="M61.5569 8.44209C61.2077 8.44209 60.9355 8.17002 60.9355 7.81092C60.9355 7.45183 61.2167 7.18976 61.5769 7.18976C61.9361 7.18976 62.2272 7.45183 62.2172 7.81092C62.2172 8.19003 61.9461 8.44209 61.5569 8.44209ZM62.1012 13.9366H61.0526V9.2193H62.1012V13.9366Z" fill="white"/>
<path d="M65.0129 13.9366H63.9644V7.05475H65.0129V13.9366Z" fill="white"/>
<path d="M69.4692 13.9366L69.3902 13.3934H69.3622C69.042 13.8305 68.5757 14.0436 67.9834 14.0436C67.1389 14.0436 66.5366 13.4514 66.5366 12.6552C66.5366 11.4909 67.5462 10.8887 69.2941 10.8887V10.8017C69.2941 10.1806 68.9639 9.86948 68.3136 9.86948C67.8473 9.86948 67.4391 9.98651 67.0809 10.2196L66.8668 9.52939C67.304 9.25731 67.8473 9.12128 68.4887 9.12128C69.7214 9.12128 70.3447 9.77145 70.3447 11.0728V12.8103C70.3447 13.2864 70.3647 13.6555 70.4107 13.9366H69.4692ZM69.3231 11.5869C68.1575 11.5869 67.5752 11.869 67.5752 12.5382C67.5752 13.0333 67.8764 13.2754 68.2936 13.2754C68.8279 13.2754 69.3231 12.8683 69.3231 12.3151V11.5869Z" fill="white"/>
<path d="M74.5921 14.0436C73.9227 14.0436 73.4285 13.7615 73.1073 13.2084H73.0873L73.0273 13.9366H72.1348C72.1628 13.5585 72.1728 13.1304 72.1728 12.6652V7.05475H73.2234V9.90951H73.2424C73.5535 9.38537 74.0578 9.1233 74.7472 9.1233C75.8838 9.1233 76.6802 10.0946 76.6802 11.5109C76.6802 12.9753 75.7958 14.0436 74.5921 14.0436ZM74.379 9.94652C73.7757 9.94652 73.2234 10.4707 73.2234 11.1989V12.0241C73.2234 12.6742 73.7196 13.2084 74.36 13.2084C75.1454 13.2084 75.6137 12.5682 75.6137 11.5489C75.6126 10.5977 75.1264 9.94652 74.379 9.94652Z" fill="white"/>
<path d="M79.2785 13.9366H78.231V7.05475H79.2785V13.9366Z" fill="white"/>
<path d="M84.9869 11.83H81.8392C81.8602 12.7233 82.4505 13.2274 83.324 13.2274C83.7913 13.2274 84.2185 13.1494 84.5967 13.0043L84.7598 13.7325C84.3135 13.9266 83.7893 14.0236 83.1779 14.0236C81.7011 14.0236 80.8276 13.0914 80.8276 11.646C80.8276 10.1996 81.7221 9.1123 83.0609 9.1123C84.2635 9.1123 85.0229 10.0055 85.0229 11.3549C85.0259 11.539 85.0169 11.704 84.9869 11.83ZM84.0254 11.0828C84.0254 10.3546 83.6562 9.8405 82.9858 9.8405C82.3835 9.8405 81.9092 10.3646 81.8392 11.0828H84.0254Z" fill="white"/>
<path d="M91.3421 14.0436C89.9633 14.0436 89.0688 13.0144 89.0688 11.617C89.0688 10.1606 89.9823 9.12231 91.4211 9.12231C92.7779 9.12231 93.6934 10.1026 93.6934 11.54C93.6934 13.0144 92.7508 14.0436 91.3421 14.0436ZM91.3821 9.88852C90.6247 9.88852 90.1394 10.5967 90.1394 11.587C90.1394 12.5582 90.6347 13.2664 91.3721 13.2664C92.1095 13.2664 92.6048 12.5092 92.6048 11.567C92.6048 10.6067 92.1195 9.88852 91.3821 9.88852Z" fill="white"/>
<path d="M99.3306 13.9366H98.283V11.2278C98.283 10.3936 97.9628 9.9755 97.3315 9.9755C96.7101 9.9755 96.2819 10.5096 96.2819 11.1308V13.9366H95.2353V10.5677C95.2353 10.1506 95.2233 9.70343 95.1953 9.2183H96.1178L96.1668 9.9465H96.1959C96.476 9.44236 97.0503 9.12128 97.6917 9.12128C98.6802 9.12128 99.3306 9.87848 99.3306 11.1108V13.9366Z" fill="white"/>
<path d="M106.191 10.0055H105.037V12.2961C105.037 12.8793 105.241 13.1704 105.648 13.1704C105.832 13.1704 105.989 13.1504 106.114 13.1214L106.143 13.9176C105.939 13.9956 105.666 14.0346 105.328 14.0346C104.501 14.0346 104.009 13.5785 104.009 12.3842V10.0055H103.322V9.21932H104.009V8.35509L105.037 8.04401V9.21832H106.191V10.0055Z" fill="white"/>
<path d="M111.744 13.9366H110.695V11.2479C110.695 10.4036 110.373 9.97653 109.743 9.97653C109.2 9.97653 108.696 10.3456 108.696 11.0928V13.9366H107.646V7.05475H108.696V9.88851H108.716C109.045 9.37437 109.522 9.1213 110.133 9.1213C111.133 9.1213 111.744 9.89751 111.744 11.1308V13.9366Z" fill="white"/>
<path d="M117.102 11.83H113.955C113.975 12.7233 114.566 13.2274 115.44 13.2274C115.908 13.2274 116.334 13.1494 116.711 13.0043L116.875 13.7325C116.43 13.9266 115.904 14.0236 115.292 14.0236C113.816 14.0236 112.943 13.0914 112.943 11.646C112.943 10.1996 113.836 9.1123 115.175 9.1123C116.379 9.1123 117.137 10.0055 117.137 11.3549C117.141 11.539 117.131 11.704 117.102 11.83ZM116.141 11.0828C116.141 10.3546 115.772 9.8405 115.102 9.8405C114.499 9.8405 114.024 10.3646 113.955 11.0828H116.141Z" fill="white"/>
</svg>
