<svg width="32" height="43" viewBox="0 0 32 43" fill="none" xmlns="http://www.w3.org/2000/svg">
<path d="M30.764 6.1656L23.6147 0.551398C23.359 0.343798 23.0644 0.189537 22.7481 0.097724C22.4318 0.00591125 22.1003 -0.0215908 21.7732 0.016842C21.4461 0.0552749 21.1301 0.158863 20.8437 0.321489C20.5573 0.484115 20.3064 0.702481 20.1058 0.963691L3.5264 22.0169C3.32693 22.3161 3.19245 22.6538 3.13166 23.0082L0.70176 33.4208C0.594398 33.8764 0.619975 34.3533 0.775458 34.7949C0.930941 35.2365 1.20981 35.6242 1.57898 35.9121C1.94435 36.2074 2.38803 36.3897 2.85553 36.4364C3.32303 36.4832 3.79401 36.3924 4.21063 36.1752L13.7723 31.3944C14.0964 31.2294 14.3808 30.9959 14.6057 30.7102L31.2026 9.67447C31.4088 9.41717 31.5613 9.12111 31.651 8.80383C31.7407 8.48656 31.7659 8.1545 31.725 7.82733C31.6841 7.50015 31.578 7.18451 31.4129 6.89908C31.2479 6.61365 31.0272 6.36423 30.764 6.1656ZM11.4652 27.6487L5.93875 30.4119L7.28967 24.4117L16.9391 12.078L21.0795 15.3325L11.4652 27.6487ZM23.8779 11.8587L19.7023 8.63058L22.4305 5.18311L26.5622 8.43759L23.8779 11.8587Z" fill="#FC4F22"/>
<path d="M29.0096 38.6139H2.69305C1.48186 38.6139 0.5 39.5958 0.5 40.807C0.5 42.0181 1.48186 43 2.69305 43H29.0096C30.2208 43 31.2026 42.0181 31.2026 40.807C31.2026 39.5958 30.2208 38.6139 29.0096 38.6139Z" fill="#FC4F22"/>
</svg>
