<svg width="43" height="43" viewBox="0 0 43 43" fill="none" xmlns="http://www.w3.org/2000/svg">
<path d="M42.2833 39.4167H39.4167V37.7683C39.4167 35.045 38.4133 32.5367 36.55 30.53V27.8067L37.1233 27.6633C38.8433 27.305 40.4917 25.7283 40.9933 24.08L41.8533 20.9267C41.9967 20.3533 41.925 19.78 41.6383 19.2783C41.3517 18.7767 40.85 18.4183 40.3483 18.275H40.205C39.0583 17.9883 37.9117 18.705 37.625 19.78C37.195 21.6433 36.8367 22.79 35.26 23.2917C35.6183 22.7183 35.7617 22.145 35.7617 21.4283C35.7617 19.4217 34.185 17.845 32.1783 17.845C30.1717 17.845 28.595 19.4217 28.595 21.4283C28.595 22.0733 28.81 22.7183 29.0967 23.2917C27.52 22.79 27.2333 21.5717 26.7317 19.78C26.445 18.6333 25.2983 17.9883 24.1517 18.275H24.0083C23.435 18.4183 23.005 18.7767 22.7183 19.2783C22.4317 19.78 22.36 20.3533 22.5033 20.9267L23.3633 24.08C23.7933 25.7283 25.5133 27.305 27.2333 27.6633L27.8067 27.8067V30.53C25.9433 32.465 24.94 35.045 24.94 37.7683V39.4167H17.2V39.2017C17.2 36.4783 16.1967 33.97 14.3333 31.9633V28.5233C16.555 27.8783 18.275 26.1583 18.8483 23.9367L19.6367 20.9267C19.78 20.3533 19.7083 19.78 19.4217 19.2783C19.135 18.7767 18.6333 18.4183 18.1317 18.275H17.9883C16.8417 17.9883 15.695 18.705 15.4083 19.78C14.9783 21.6433 14.62 22.79 13.0433 23.2917C13.4017 22.7183 13.545 22.145 13.545 21.4283C13.545 19.4217 11.9683 17.845 9.96167 17.845C7.955 17.845 6.37833 19.4217 6.37833 21.4283C6.37833 22.575 6.95167 23.5783 7.81167 24.295L7.23833 24.51C5.94833 24.94 4.80167 25.8 4.01333 26.875L2.365 29.1683C2.00667 29.67 1.935 30.2433 2.00667 30.745C2.07833 31.3183 2.43667 31.82 2.93833 32.1067C3.79833 32.68 4.87333 32.5367 5.59 31.82L7.16667 30.2433V32.6083L3.87 39.4167H0.716667C0.286667 39.4167 0 39.7033 0 40.1333V42.2833C0 42.7133 0.286667 43 0.716667 43H42.2833C42.7133 43 43 42.7133 43 42.2833V40.1333C43 39.7033 42.7133 39.4167 42.2833 39.4167ZM32.25 19.35C33.4683 19.35 34.4 20.2817 34.4 21.5C34.4 22.7183 33.4683 23.65 32.25 23.65C31.0317 23.65 30.1 22.7183 30.1 21.5C30.1 20.2817 31.0317 19.35 32.25 19.35ZM26.5167 37.7683C26.5167 35.3317 27.4483 33.0383 29.1683 31.3183C29.3117 31.175 29.3833 31.0317 29.3833 30.8167V27.8067C29.3833 27.1617 28.8817 26.5167 28.2367 26.3733L27.6633 26.23C26.5167 26.015 25.2267 24.7967 24.94 23.65L24.08 20.4967C24.0083 20.3533 24.08 20.1383 24.1517 19.995C24.2233 19.8517 24.3667 19.7083 24.5817 19.7083H24.725C25.0833 19.6367 25.4417 19.8517 25.5133 20.21C26.1583 22.8617 26.7317 25.155 31.82 25.155H32.8233C37.9117 25.155 38.485 22.8617 39.13 20.21C39.2017 19.8517 39.56 19.6367 39.9183 19.7083H40.0617C40.205 19.78 40.42 19.8517 40.4917 19.995C40.5633 20.1383 40.635 20.3533 40.5633 20.4967L39.7033 23.65C39.4167 24.7967 38.1267 26.015 36.98 26.23L36.4067 26.3733C35.7617 26.5167 35.26 27.09 35.26 27.8067V30.8167C35.26 31.0317 35.3317 31.175 35.475 31.3183C37.195 33.0383 38.1267 35.3317 38.1267 37.7683V39.4167H36.55L35.475 35.5467C35.3317 34.4717 34.4 33.6833 33.325 33.6833H31.605C30.53 33.6833 29.5983 34.4717 29.455 35.5467L28.0933 39.4167H26.5167V37.7683ZM34.9017 39.4167H29.67L30.6733 35.8333V35.7617C30.745 35.4033 31.0317 35.1167 31.4617 35.1167H33.1817C33.54 35.1167 33.8983 35.4033 33.97 35.7617V35.8333L34.9017 39.4167ZM10.0333 19.35C11.2517 19.35 12.1833 20.2817 12.1833 21.5C12.1833 22.7183 11.2517 23.65 10.0333 23.65C8.815 23.65 7.88333 22.7183 7.88333 21.5C7.88333 20.2817 8.815 19.35 10.0333 19.35ZM8.52833 33.2533C8.6 33.1817 8.6 33.11 8.6 32.9667V28.6667C8.6 28.38 8.45667 28.0933 8.17 28.0217C7.88333 27.8783 7.59667 27.95 7.38167 28.165L4.58667 30.96C4.37167 31.175 4.01333 31.2467 3.72667 31.0317C3.58333 30.96 3.44 30.745 3.44 30.6017C3.44 30.3867 3.44 30.2433 3.58333 30.1L5.23167 27.8067C5.87667 26.9467 6.73667 26.3017 7.74 25.9433L10.1767 25.155H10.535C15.6233 25.155 16.1967 22.8617 16.8417 20.21C16.9133 19.8517 17.2717 19.6367 17.63 19.7083H17.7733C17.9167 19.78 18.1317 19.8517 18.2033 19.995C18.275 20.1383 18.3467 20.3533 18.275 20.4967L17.4867 23.5067C16.985 25.4417 15.4083 26.875 13.4733 27.2333C13.115 27.305 12.9 27.5917 12.9 27.95V32.25C12.9 32.465 12.9717 32.6083 13.115 32.7517C14.835 34.4717 15.7667 36.765 15.7667 39.2017V39.4167H14.2617L13.8317 36.2633C13.6883 35.1883 12.7567 34.4 11.6817 34.4C10.8933 34.4 10.1767 34.83 9.74667 35.475L7.45333 39.4167H5.44667L8.52833 33.2533ZM12.7567 39.4167H9.10167L10.8933 36.1917C11.0367 35.9767 11.2517 35.8333 11.5383 35.8333C11.8967 35.8333 12.255 36.12 12.3267 36.4783L12.7567 39.4167ZM41.5667 41.5667H1.43333V40.85H41.5667V41.5667Z" fill="#FC4F22"/>
<path d="M20.7833 0V1.505C17.9883 1.86333 15.7667 4.3 15.7667 7.16667C15.7667 10.32 18.3467 12.9 21.5 12.9C24.6533 12.9 27.2333 10.32 27.2333 7.16667C27.2333 4.22833 25.0117 1.86333 22.2167 1.505V0H20.7833ZM25.8 7.16667C25.8 9.53167 23.865 11.4667 21.5 11.4667C19.135 11.4667 17.2 9.53167 17.2 7.16667C17.2 4.80167 19.135 2.86667 21.5 2.86667C23.865 2.86667 25.8 4.80167 25.8 7.16667Z" fill="#FC4F22"/>
<path d="M30.8167 10.75H29.3833V12.1833H30.8167V10.75Z" fill="#FC4F22"/>
<path d="M29.3833 12.1833H27.95V13.6167H29.3833V12.1833Z" fill="#FC4F22"/>
<path d="M32.25 12.1833H30.8167V13.6167H32.25V12.1833Z" fill="#FC4F22"/>
<path d="M30.8167 13.6167H29.3833V15.05H30.8167V13.6167Z" fill="#FC4F22"/>
<path d="M18.3467 5.805L17.63 7.02333C18.6333 7.59667 19.8517 7.88333 21.5 7.88333C23.1483 7.88333 24.3667 7.59667 25.37 7.095L24.6533 5.87667C23.9367 6.30667 22.8617 6.52167 21.5 6.52167C20.1383 6.52167 19.0633 6.235 18.3467 5.805Z" fill="#FC4F22"/>
<path d="M20.3533 3.655L19.7083 4.945C20.2817 5.23167 20.855 5.375 21.4283 5.375C22.0017 5.375 22.6467 5.23167 23.1483 4.945L22.5033 3.655C21.93 4.01333 21.07 4.01333 20.3533 3.655Z" fill="#FC4F22"/>
<path d="M20.3533 9.03L19.7083 10.32C20.2817 10.6067 20.855 10.75 21.4283 10.75C22.0017 10.75 22.6467 10.6067 23.1483 10.32L22.5033 9.03C21.93 9.38833 21.07 9.38833 20.3533 9.03Z" fill="#FC4F22"/>
<path d="M13.6167 1.43333H12.1833V2.86667H13.6167V1.43333Z" fill="#FC4F22"/>
<path d="M12.1833 2.86667H10.75V4.3H12.1833V2.86667Z" fill="#FC4F22"/>
<path d="M15.05 2.86667H13.6167V4.3H15.05V2.86667Z" fill="#FC4F22"/>
<path d="M13.6167 4.3H12.1833V5.73333H13.6167V4.3Z" fill="#FC4F22"/>
<path d="M41.5667 5.01667H40.1333V6.45H41.5667V5.01667Z" fill="#FC4F22"/>
<path d="M40.1333 6.45H38.7V7.88333H40.1333V6.45Z" fill="#FC4F22"/>
<path d="M43 6.45H41.5667V7.88333H43V6.45Z" fill="#FC4F22"/>
<path d="M41.5667 7.88333H40.1333V9.31667H41.5667V7.88333Z" fill="#FC4F22"/>
<path d="M2.86667 13.6167H1.43333V15.05H2.86667V13.6167Z" fill="#FC4F22"/>
<path d="M1.43333 15.05H0V16.4833H1.43333V15.05Z" fill="#FC4F22"/>
<path d="M4.3 15.05H2.86667V16.4833H4.3V15.05Z" fill="#FC4F22"/>
<path d="M2.86667 16.4833H1.43333V17.9167H2.86667V16.4833Z" fill="#FC4F22"/>
</svg>
