<svg xmlns="http://www.w3.org/2000/svg" width="87.24" height="87.24" viewBox="0 0 87.24 87.24">
  <path id="Icon_awesome-check-circle" data-name="Icon awesome-check-circle" d="M87.8,44.183A43.62,43.62,0,1,1,44.183.562,43.62,43.62,0,0,1,87.8,44.183Zm-48.666,23.1L71.5,34.916a2.814,2.814,0,0,0,0-3.98l-3.98-3.98a2.814,2.814,0,0,0-3.98,0L37.147,53.35,24.825,41.027a2.814,2.814,0,0,0-3.98,0l-3.98,3.98a2.814,2.814,0,0,0,0,3.98L35.157,67.279a2.814,2.814,0,0,0,3.98,0Z" transform="translate(-0.563 -0.563)" fill="#fff"/>
</svg>
