<svg width="43" height="43" viewBox="0 0 43 43" fill="none" xmlns="http://www.w3.org/2000/svg">
<path d="M21.6342 5.05301C21.506 5.43918 21.4358 5.85157 21.4358 6.28073C21.4358 8.43513 23.1823 10.1812 25.3362 10.1812C27.4907 10.1812 29.2367 8.43513 29.2367 6.28073C29.2367 5.70666 29.1118 5.16221 28.889 4.67144C27.961 4.9567 26.7153 5.19674 25.1646 5.26615C23.7371 5.32998 22.5543 5.22689 21.6342 5.05301Z" fill="#FC4F22"/>
<path d="M25.0706 12.0614C25.5807 12.1413 25.7884 11.8481 25.8853 11.6058L24.4319 11.3229C24.4388 11.587 24.5235 11.9754 25.0706 12.0614Z" fill="#FC4F22"/>
<path d="M31.841 13.4309C30.9749 12.9251 30.0341 12.5945 29.286 12.3651C28.9026 12.2488 28.5723 12.1626 28.3371 12.1054C28.16 12.019 27.962 11.9693 27.7517 11.9693L27.51 11.9222C26.6173 12.682 25.7006 12.9666 25.7006 12.9666C25.7006 12.9666 26.0292 13.8103 25.9616 14.7045C25.8936 15.5989 25.19 16.3031 25.19 16.3031L24.6005 15.0553L23.6569 16.0624C23.6569 16.0624 23.2028 15.1765 23.4124 14.3043C23.6222 13.4323 24.1935 12.7299 24.1935 12.7299C24.1935 12.7299 23.3017 12.104 22.6726 10.9804L20.0809 10.4758C19.9665 10.4758 19.8559 10.4917 19.7499 10.5186C19.1151 10.5066 18.5348 10.9332 18.3778 11.5748H18.3775L18.3767 11.578C18.356 11.6691 17.8681 13.5041 16.6175 15.327C15.9822 16.2575 15.1569 17.182 14.1158 17.9067C13.0717 18.6321 11.8191 19.1696 10.2363 19.3448C9.47511 19.4283 8.92492 20.1131 9.00837 20.8747C9.08626 21.5847 9.68707 22.1109 10.3852 22.1109C10.4357 22.1109 10.4865 22.1082 10.5378 22.1026C12.6278 21.8757 14.3773 21.1232 15.7674 20.1366C17.3873 18.9869 18.5317 17.5483 19.3372 16.2232L20.3445 23.6718C20.3445 23.9091 20.4068 24.1317 20.5152 24.325C20.5419 24.3987 20.5724 24.4717 20.6079 24.5436L23.2069 29.8042L16.6991 33.0585C15.6284 33.5936 15.1946 34.8953 15.7296 35.9656C16.1093 36.7252 16.8749 37.1642 17.6699 37.1642C17.9956 37.1642 18.3262 37.0905 18.6374 36.9349L27.0735 32.7164C28.1382 32.1841 28.5743 30.8856 28.0475 29.8186L25.8237 25.3168L26.2305 25.3581L28.3584 29.6654C28.9693 30.9017 28.4622 32.4096 27.2286 33.0265L27.0051 33.1382L23.1373 39.7371C22.5321 40.7694 22.8785 42.0972 23.9113 42.7024C24.2553 42.904 24.6325 43 25.0046 43C25.7485 43 26.4729 42.6167 26.8761 41.9287L32.2617 32.7406C32.6534 32.0727 32.658 31.241 32.2737 30.5691L28.148 23.355L28.3314 21.4022C27.8172 21.605 27.2658 21.8089 26.6726 22.0149C26.4898 22.0786 26.2985 22.1111 26.1045 22.1111C25.3669 22.1111 24.7082 21.6421 24.4664 20.945C24.3148 20.5074 24.3425 20.0367 24.545 19.6198C24.7473 19.2035 25.1001 18.8906 25.5377 18.7389C26.7796 18.3093 27.8516 17.876 28.7014 17.4623L28.9176 15.1599C29.1865 15.251 29.4655 15.3548 29.7328 15.4711C30.2115 15.6751 30.6458 15.9261 30.8729 16.1259C30.9439 16.186 30.9935 16.2393 31.024 16.2771C30.97 16.3587 30.8382 16.5132 30.6073 16.7086C30.4206 16.8666 30.1702 17.0506 29.833 17.2483C29.8325 17.2486 29.832 17.2488 29.8315 17.2492C28.9666 17.7701 27.6039 18.391 25.6508 19.0663C24.9267 19.3172 24.5431 20.1071 24.794 20.8312C24.9929 21.4043 25.5299 21.7642 26.1045 21.7642C26.2552 21.7642 26.4084 21.7395 26.5589 21.6873C28.6285 20.9688 30.1409 20.2967 31.2594 19.627C31.2596 19.6269 31.2598 19.6269 31.2599 19.6267C31.6031 19.4195 31.9085 19.2128 32.1834 19.0005C32.529 18.7335 32.8252 18.4576 33.0753 18.1583C33.5188 17.6294 33.8268 16.9654 33.8246 16.2578C33.8264 15.7267 33.6502 15.2347 33.4105 14.855C32.9835 14.1858 32.4155 13.7753 31.841 13.4309Z" fill="#FC4F22"/>
<path d="M25.1543 4.84767C28.1908 4.71155 30.0605 3.92215 30.6571 3.41782C30.8191 3.28087 30.888 3.16474 30.8599 3.08873C30.728 2.73304 28.0947 3.51398 28.0947 3.51398C28.039 3.07314 27.8861 2.75387 27.6735 1.75639C27.5237 1.05248 26.478 -0.0658687 24.9374 0.00303995C23.3968 0.0721046 22.4554 1.27933 22.3689 1.99407C22.2463 3.00645 22.1226 3.3381 22.1065 3.78232C22.1065 3.78232 19.4137 3.23973 19.3145 3.60591C19.2934 3.68361 19.3716 3.79248 19.5433 3.91351C20.1796 4.36247 22.1133 4.98377 25.1543 4.84767Z" fill="#FC4F22"/>
</svg>
