<svg width="43" height="43" viewBox="0 0 43 43" fill="none" xmlns="http://www.w3.org/2000/svg">
<path d="M19.5257 10.3787C19.4227 10.8199 19.1342 11.1696 18.7625 11.3675L18.5795 12.1513C18.8154 12.3469 19.0043 12.6025 19.122 12.9038C19.3016 13.3634 19.2913 13.8656 19.0932 14.3176C18.8952 14.7695 18.5328 15.1174 18.0732 15.2969L17.822 15.395L17.525 16.6668L15.6727 16.2345L13.1167 17.2328V22.6799L12.0755 40.6541C12.0047 41.8772 12.9388 42.9254 14.1612 42.9962C15.3839 43.067 16.4329 42.1336 16.5037 40.9106L17.448 24.6077H18.4877L19.432 40.9106C19.5028 42.1336 20.5517 43.067 21.7744 42.9962C22.9968 42.9254 23.931 41.8772 23.8601 40.6541L22.8192 22.6831V13.0168C23.3445 13.5122 23.9283 14.4219 24.3321 16.095C24.4266 16.4866 24.6813 16.8204 25.034 17.0149C25.2484 17.1331 25.4872 17.1933 25.727 17.1933C25.8817 17.1933 26.0371 17.1683 26.1866 17.1177L32.4646 14.9951C33.2154 14.7413 33.6183 13.9269 33.3643 13.1761C33.1105 12.4253 32.296 12.0225 31.5454 12.2763L26.6701 13.9247C25.1446 9.81517 22.3403 9.54484 21.4498 9.56837C21.4442 9.5683 21.4386 9.56751 21.4329 9.56751H19.4889C19.5722 9.82149 19.5908 10.0999 19.5257 10.3787Z" fill="#FC4F22"/>
<path d="M18.2382 8.53541C20.3412 8.39625 22.0038 6.64765 22.0038 4.50956C22.0038 2.28055 20.1971 0.473702 17.9679 0.473702C15.7391 0.473702 13.9321 2.28055 13.9321 4.50956C13.9321 6.69201 15.6647 8.46861 17.8292 8.5419C17.9624 8.52165 18.0996 8.5183 18.2382 8.53541ZM16.8692 6.67764C16.8692 6.07086 17.3611 5.57899 17.9678 5.57899C18.5746 5.57899 19.0665 6.07086 19.0665 6.67764C19.0665 7.28442 18.5746 7.77629 17.9678 7.77629C17.3611 7.77629 16.8692 7.28442 16.8692 6.67764Z" fill="#FC4F22"/>
<path d="M17.2171 16.1713L17.3558 15.5771L16.3517 15.9693L17.2171 16.1713Z" fill="#FC4F22"/>
<path d="M17.7105 11.5066C17.5104 11.4599 17.329 11.3749 17.1719 11.2615L17.0553 11.7609C17.1689 11.7392 17.2843 11.7281 17.4007 11.7281C17.6893 11.7281 17.9649 11.7936 18.2114 11.9132L18.302 11.5254C18.1109 11.5574 17.9106 11.5534 17.7105 11.5066Z" fill="#FC4F22"/>
<path d="M18.66 11.0096C19.1982 10.6752 19.3634 9.96781 19.029 9.42962C18.6946 8.89144 17.9872 8.72626 17.449 9.06067C16.9108 9.39509 16.7456 10.1025 17.0801 10.6407C17.4145 11.1788 18.1219 11.344 18.66 11.0096Z" fill="#FC4F22"/>
<path d="M9.63322 17.4862C9.87355 17.6482 10.1535 17.7314 10.4357 17.7314C10.6117 17.7314 10.7888 17.699 10.9573 17.6331L11.0441 17.5992C11.0446 17.5991 11.045 17.599 11.0454 17.5988L17.923 14.9126C18.6613 14.6243 19.026 13.7921 18.7377 13.0539C18.4494 12.3156 17.6175 11.9511 16.879 12.2392L12.339 14.0124C12.464 13.7761 12.6075 13.5757 12.7607 13.4048C12.8751 13.2771 12.9948 13.166 13.1167 13.0697V13.2657L16.5978 11.9061L16.829 10.9161C16.5834 10.574 16.4795 10.1327 16.5825 9.69139C16.5924 9.64906 16.605 9.60809 16.6182 9.5675H14.5029C14.3953 9.5675 14.2911 9.58097 14.1905 9.60414C12.4011 9.83621 9.50607 11.2391 9.06038 15.1363C9.01805 15.5066 8.9957 15.8972 9.00069 16.3136C9.0063 16.7846 9.24261 17.2229 9.63322 17.4862Z" fill="#FC4F22"/>
<path d="M27.7656 4.70319C28.0241 4.55693 28.1715 4.30599 28.1526 4.08348V2.02442L30.5397 1.36792V2.66702C30.3657 2.60881 30.1431 2.63172 29.9406 2.74632C29.6133 2.93147 29.4629 3.28465 29.6046 3.53516C29.7463 3.78567 30.1265 3.83866 30.4538 3.65353C30.6907 3.51948 30.8342 3.29753 30.8421 3.0901H30.8423V3.08488C30.8426 3.07513 30.8427 3.06546 30.8423 3.05579V0L27.85 0.822956V3.71633C27.6761 3.65875 27.4543 3.68173 27.2523 3.79599C26.9251 3.98113 26.7746 4.33431 26.9163 4.58484C27.0581 4.83535 27.4383 4.88832 27.7656 4.70319ZM28.1526 1.05356L30.5397 0.397075V1.05411L28.1526 1.71061V1.05356Z" fill="#FC4F22"/>
<path d="M29.7736 8.04271C29.4177 8.16397 29.2044 8.48312 29.2971 8.75557C29.39 9.02804 29.7538 9.1506 30.1097 9.02936C30.3908 8.93358 30.5823 8.71433 30.6049 8.49216L31.099 5.87427L32.1247 6.27278L32.2343 5.99072L32.2273 5.98801L32.3141 5.80269L30.927 5.15377L30.3756 8.07525C30.2155 7.98644 29.9933 7.96788 29.7736 8.04271Z" fill="#FC4F22"/>
<path d="M23.9519 5.4189C23.6972 5.69548 23.6623 6.07779 23.874 6.27278C24.0857 6.4678 24.4638 6.40163 24.7186 6.12505C24.9198 5.90658 24.9832 5.62252 24.8969 5.41653L24.0801 2.88076L25.1716 2.74071L25.1331 2.44058L25.1257 2.44153L25.1133 2.23728L23.5847 2.32998L24.4963 5.15984C24.3132 5.15833 24.1091 5.24821 23.9519 5.4189Z" fill="#FC4F22"/>
</svg>
