<svg width="54" height="56" viewBox="0 0 54 56" fill="none" xmlns="http://www.w3.org/2000/svg">
<path d="M43.4051 7.76295C30.5236 -4.85833 19.5513 0.881666 17.6421 10.4973C15.7328 20.1129 -2.00291 22.0328 0.186916 33.3903C2.37674 44.7477 26.2298 38.0043 26.2298 48.297C26.2298 58.5897 53.8087 58.2347 53.8087 44.7477C53.8087 31.2608 56.2867 20.3842 43.4051 7.76295Z" fill="#FFEFD8"/>
<path d="M11.6667 16.1666C11.6667 14.3985 12.369 12.7028 13.6193 11.4526C14.8695 10.2024 16.5652 9.5 18.3333 9.5H42.3332C44.1013 9.5 45.797 10.2024 47.0472 11.4526C48.2974 12.7028 48.9998 14.3985 48.9998 16.1666V40.1665C48.9998 41.9346 48.2974 43.6303 47.0472 44.8805C45.797 46.1308 44.1013 46.8331 42.3332 46.8331H35.4399C35.2408 46.271 34.9183 45.7607 34.4959 45.3398L33.3225 44.1665H42.3332C43.394 44.1665 44.4114 43.7451 45.1616 42.9949C45.9117 42.2448 46.3331 41.2274 46.3331 40.1665V16.1666C46.3331 15.1058 45.9117 14.0884 45.1616 13.3382C44.4114 12.5881 43.394 12.1667 42.3332 12.1667H18.3333C17.2724 12.1667 16.255 12.5881 15.5049 13.3382C14.7547 14.0884 14.3333 15.1058 14.3333 16.1666V23.5159C13.392 23.8491 12.4962 24.2988 11.6667 24.8546V16.1666ZM39.6665 17.5C39.3129 17.5 38.9738 17.6404 38.7237 17.8905C38.4737 18.1405 38.3332 18.4797 38.3332 18.8333V37.4999C38.3332 37.8535 38.4737 38.1926 38.7237 38.4427C38.9738 38.6927 39.3129 38.8332 39.6665 38.8332C40.0201 38.8332 40.3593 38.6927 40.6093 38.4427C40.8594 38.1926 40.9998 37.8535 40.9998 37.4999V18.8333C40.9998 18.4797 40.8594 18.1405 40.6093 17.8905C40.3593 17.6404 40.0201 17.5 39.6665 17.5Z" fill="black"/>
<path fill-rule="evenodd" clip-rule="evenodd" d="M25.8078 40.4226C27.2219 38.5333 27.8677 36.1778 27.6125 33.8321C27.3599 31.4858 26.2271 29.323 24.4433 27.7781C23.3287 26.8126 22.011 26.1336 20.6021 25.7801C19.7584 25.5685 18.8834 25.4741 18.0006 25.506C15.6412 25.5906 13.4016 26.5652 11.735 28.2338C10.0657 29.9024 9.09177 32.1407 9.00583 34.4988C8.9225 36.8575 9.73499 39.1596 11.2793 40.9434C12.8235 42.7272 14.9876 43.8594 17.3313 44.1127C19.6777 44.3659 22.0344 43.7214 23.9224 42.308L30.7245 49.1081C30.8885 49.2734 31.0917 49.3906 31.313 49.4518C31.4276 49.4831 31.5474 49.5 31.6672 49.5C32.0213 49.5 32.3599 49.3594 32.6099 49.1094C32.8599 48.8594 33.0005 48.5195 33.0005 48.1667C33.0005 47.8125 32.8599 47.4727 32.6099 47.2227L25.8078 40.4226ZM18.3339 41.5C22.0162 41.5 25.0005 38.515 25.0005 34.8334C25.0005 31.1518 22.0162 28.1668 18.3339 28.1668C14.6516 28.1668 11.6673 31.1518 11.6673 34.8334C11.6673 38.515 14.6516 41.5 18.3339 41.5Z" fill="#FC4F22"/>
</svg>
