<svg width="44" height="43" viewBox="0 0 44 43" fill="none" xmlns="http://www.w3.org/2000/svg">
<path fill-rule="evenodd" clip-rule="evenodd" d="M20.4195 1.9111C10.5171 1.9111 2.4111 10.0171 2.4111 19.9195C2.4111 29.6824 10.2901 37.6991 20.0018 37.9232C17.9255 34.8432 16.2227 31.5724 14.9419 28.1567C14.9377 28.1457 14.9338 28.1346 14.9301 28.1234C14.509 26.8601 14.8853 25.4043 16.0277 24.5043C14.8594 23.3612 14.0909 21.7882 14.0909 19.9195C14.0909 16.3892 16.8892 13.5909 20.4195 13.5909C21.6214 13.5909 22.6822 13.95 23.5923 14.4475C24.2018 13.8263 25.0432 13.4328 25.9507 13.4328C26.4739 13.4328 26.975 13.5636 27.4225 13.7933C27.7152 12.2696 29.102 11.0623 30.6917 11.0623C32.2815 11.0623 33.6682 12.2696 33.961 13.7933C34.4084 13.5636 34.9096 13.4328 35.4327 13.4328C36.2494 13.4328 37.0125 13.7514 37.6012 14.2679C35.2286 7.11898 28.4168 1.9111 20.4195 1.9111ZM36.8477 16.7589C36.8477 16.0224 36.1692 15.3439 35.4327 15.3439C34.6962 15.3439 34.0178 16.0224 34.0178 16.7589V26.873C34.0178 27.4008 33.59 27.8286 33.0622 27.8286C32.5345 27.8286 32.1067 27.4008 32.1067 26.873V14.3884C32.1067 13.6519 31.4282 12.9734 30.6917 12.9734C29.9552 12.9734 29.2768 13.6519 29.2768 14.3884V26.873C29.2768 27.4008 28.849 27.8286 28.3212 27.8286C27.7935 27.8286 27.3657 27.4008 27.3657 26.873V16.7589C27.3657 16.0224 26.6872 15.3439 25.9507 15.3439C25.2142 15.3439 24.5358 16.0224 24.5358 16.7589V32.0881C24.5358 32.5224 24.2429 32.902 23.8229 33.0123C23.4029 33.1226 22.9613 32.9358 22.748 32.5576L19.2738 26.3989C19.2734 26.3982 19.2731 26.3975 19.2727 26.3969C19.0675 26.0399 18.6229 25.8028 18.1438 25.7695C18.0758 25.7764 18.0067 25.7759 17.9379 25.7679C17.7155 25.78 17.4921 25.8375 17.2873 25.9485C16.7362 26.3325 16.5649 26.9636 16.7383 27.5044C18.5932 32.4439 21.3764 37.0834 24.9398 41.2665C25.282 41.6683 25.2337 42.2714 24.832 42.6136C24.4303 42.9558 23.8272 42.9076 23.4849 42.5058C22.6589 41.5361 21.8725 40.5419 21.1278 39.525C20.953 39.7179 20.7004 39.8391 20.4195 39.8391C9.46161 39.8391 0.5 30.8775 0.5 19.9195C0.5 8.96161 9.46161 0 20.4195 0C29.9806 0 38.0138 6.7318 39.9599 15.6526C40.0307 15.6478 40.102 15.6453 40.1737 15.6453C41.9657 15.6453 43.4998 17.1793 43.4998 18.9713V28.4533C43.4998 33.1633 42.5262 38.0372 40.5728 42.4323C40.3585 42.9146 39.7938 43.1317 39.3115 42.9174C38.8293 42.7031 38.6121 42.1384 38.8264 41.6561C40.6659 37.5174 41.5887 32.9093 41.5887 28.4533V18.9713C41.5887 18.2348 40.9102 17.5564 40.1737 17.5564C40.084 17.5564 39.9952 17.5665 39.9083 17.5855C39.7696 17.7274 39.5856 17.8274 39.3745 17.8608C39.358 17.8634 39.3416 17.8655 39.3251 17.8673C38.9882 18.1343 38.7588 18.543 38.7588 18.9713V26.873C38.7588 27.4008 38.331 27.8286 37.8032 27.8286C37.2755 27.8286 36.8477 27.4008 36.8477 26.873V16.7589ZM18.3139 23.8695C19.3588 23.9474 20.3735 24.4713 20.9331 25.4507L20.9358 25.4553L22.6247 28.4493V16.7589C22.6247 16.5452 22.6465 16.3352 22.6879 16.131C21.9844 15.7443 21.2315 15.502 20.4195 15.502C17.9447 15.502 16.002 17.4447 16.002 19.9195C16.002 21.6514 16.9392 23.0453 18.3139 23.8695ZM6.82133 19.9195C6.82133 12.4383 12.9383 6.32133 20.4195 6.32133C20.9473 6.32133 21.3751 6.74915 21.3751 7.27688C21.3751 7.80462 20.9473 8.23243 20.4195 8.23243C13.9938 8.23243 8.73243 13.4938 8.73243 19.9195C8.73243 20.4473 8.30462 20.8751 7.77688 20.8751C7.24915 20.8751 6.82133 20.4473 6.82133 19.9195Z" fill="#FC4F22"/>
</svg>
