<svg width="259" height="225" viewBox="0 0 259 225" fill="none" xmlns="http://www.w3.org/2000/svg">
<g clip-path="url(#clip0_301_14000)">
<path d="M258.464 222.211L73.4432 225L0 211.983H114.655L258.464 222.211Z" fill="#E6E6E6"/>
<path d="M52.3583 213.531C52.3583 213.531 52.7912 204.459 61.6663 205.514L52.3583 213.531Z" fill="#3F3D56"/>
<path d="M49.8506 204.898C52.3038 204.898 54.2925 202.909 54.2925 200.456C54.2925 198.003 52.3038 196.014 49.8506 196.014C47.3974 196.014 45.4087 198.003 45.4087 200.456C45.4087 202.909 47.3974 204.898 49.8506 204.898Z" fill="#F9A826"/>
<path d="M50.3817 207.936H49.1278V216.712H50.3817V207.936Z" fill="#3F3D56"/>
<path d="M198.639 215.08C198.639 215.08 199.072 206.008 207.947 207.063L198.639 215.08Z" fill="#3F3D56"/>
<path d="M196.132 206.447C198.585 206.447 200.573 204.459 200.573 202.005C200.573 199.552 198.585 197.563 196.132 197.563C193.678 197.563 191.69 199.552 191.69 202.005C191.69 204.459 193.678 206.447 196.132 206.447Z" fill="#F9A826"/>
<path d="M196.663 209.485H195.409V218.262H196.663V209.485Z" fill="#3F3D56"/>
<path d="M220.024 216.63C220.024 216.63 220.456 207.558 229.332 208.613L220.024 216.63Z" fill="#3F3D56"/>
<path d="M217.516 207.997C219.969 207.997 221.958 206.008 221.958 203.555C221.958 201.102 219.969 199.113 217.516 199.113C215.063 199.113 213.074 201.102 213.074 203.555C213.074 206.008 215.063 207.997 217.516 207.997Z" fill="#F9A826"/>
<path d="M218.047 211.035H216.793V219.812H218.047V211.035Z" fill="#3F3D56"/>
<path d="M87.3789 209.192C87.3789 209.192 87.8119 200.12 96.6869 201.175L87.3789 209.192Z" fill="#3F3D56"/>
<path d="M84.8712 200.559C87.3244 200.559 89.3132 198.57 89.3132 196.117C89.3132 193.664 87.3244 191.675 84.8712 191.675C82.418 191.675 80.4293 193.664 80.4293 196.117C80.4293 198.57 82.418 200.559 84.8712 200.559Z" fill="#F9A826"/>
<path d="M85.4023 203.597H84.1485V212.374H85.4023V203.597Z" fill="#3F3D56"/>
<path d="M21.3665 210.741C21.3665 210.741 21.7994 201.67 30.6745 202.724L21.3665 210.741Z" fill="#3F3D56"/>
<path d="M18.8588 202.108C21.3121 202.108 23.3008 200.12 23.3008 197.667C23.3008 195.213 21.3121 193.225 18.8588 193.225C16.4056 193.225 14.4169 195.213 14.4169 197.667C14.4169 200.12 16.4056 202.108 18.8588 202.108Z" fill="#F9A826"/>
<path d="M19.3899 205.146H18.1361V213.923H19.3899V205.146Z" fill="#3F3D56"/>
<path d="M128.763 194.978C155.491 194.978 177.159 173.31 177.159 146.582C177.159 119.854 155.491 98.187 128.763 98.187C102.035 98.187 80.3681 119.854 80.3681 146.582C80.3681 173.31 102.035 194.978 128.763 194.978Z" fill="#3F3D56"/>
<path d="M98.2956 150.467C99.4975 149.028 101.001 147.871 102.699 147.076C104.397 146.282 106.249 145.871 108.124 145.871C109.999 145.871 111.851 146.282 113.549 147.076C115.248 147.871 116.751 149.028 117.953 150.467C120.01 148.504 121.431 145.969 122.034 143.191C122.637 140.412 122.395 137.517 121.337 134.877C120.279 132.238 118.456 129.976 116.101 128.382C113.746 126.789 110.968 125.938 108.124 125.938C105.281 125.938 102.503 126.789 100.148 128.382C97.7928 129.976 95.9691 132.238 94.9115 134.877C93.854 137.517 93.6111 140.412 94.2143 143.191C94.8174 145.969 96.2389 148.504 98.2956 150.467Z" fill="white"/>
<path d="M136.727 150.467C137.929 149.028 139.432 147.871 141.131 147.076C142.829 146.282 144.681 145.871 146.556 145.871C148.431 145.871 150.283 146.282 151.981 147.076C153.679 147.871 155.182 149.028 156.384 150.467C158.441 148.504 159.863 145.969 160.466 143.191C161.069 140.412 160.826 137.517 159.768 134.877C158.711 132.238 156.887 129.976 154.532 128.382C152.177 126.789 149.399 125.938 146.556 125.938C143.712 125.938 140.934 126.789 138.579 128.382C136.224 129.976 134.401 132.238 133.343 134.877C132.286 137.517 132.043 140.412 132.646 143.191C133.249 145.969 134.67 148.504 136.727 150.467Z" fill="white"/>
<path d="M103.269 140.221C105.973 140.221 108.165 138.029 108.165 135.325C108.165 132.62 105.973 130.428 103.269 130.428C100.564 130.428 98.3723 132.62 98.3723 135.325C98.3723 138.029 100.564 140.221 103.269 140.221Z" fill="#3F3D56"/>
<path d="M141.699 140.221C144.403 140.221 146.595 138.029 146.595 135.325C146.595 132.62 144.403 130.428 141.699 130.428C138.995 130.428 136.802 132.62 136.802 135.325C136.802 138.029 138.995 140.221 141.699 140.221Z" fill="#3F3D56"/>
<path d="M93.8903 164.375C97.0348 164.375 99.5839 161.826 99.5839 158.681C99.5839 155.537 97.0348 152.988 93.8903 152.988C90.7459 152.988 88.1968 155.537 88.1968 158.681C88.1968 161.826 90.7459 164.375 93.8903 164.375Z" fill="#FF6584"/>
<path d="M159.366 164.375C162.511 164.375 165.06 161.826 165.06 158.681C165.06 155.537 162.511 152.988 159.366 152.988C156.222 152.988 153.673 155.537 153.673 158.681C153.673 161.826 156.222 164.375 159.366 164.375Z" fill="#FF6584"/>
<path d="M116.796 160.386L127.058 157.505L135.774 159.722L127.058 154.689L116.796 160.386Z" fill="#FF6584"/>
<path d="M148.57 218.464L143.721 214.395L143.834 218.464H142.329L142.208 214.161L135.663 218.464H132.923L142.16 212.392L141.802 199.644L141.534 190.015L143.036 189.974L143.307 199.644L143.665 212.381L150.911 218.464H148.57Z" fill="#3F3D56"/>
<path d="M125.794 218.464L120.946 214.395L121.058 218.464H119.557L119.436 214.161L112.891 218.464H110.15L119.384 212.392L119.026 199.644L118.759 190.015L120.264 189.974L120.535 199.644L120.889 212.381L128.135 218.464H125.794Z" fill="#3F3D56"/>
<path d="M129.475 94.6286C128.147 94.6286 126.976 95.6601 126.193 97.2445C125.502 94.862 124.052 93.2052 122.358 93.2052C122.243 93.2167 122.129 93.2359 122.016 93.2627C121.365 90.719 119.852 88.9351 118.088 88.9351C115.73 88.9351 113.818 92.1214 113.818 96.052C113.818 99.9826 115.73 103.169 118.088 103.169C118.203 103.158 118.317 103.138 118.43 103.112C119.081 105.655 120.594 107.439 122.358 107.439C123.686 107.439 124.857 106.408 125.641 104.823C126.331 107.206 127.781 108.863 129.475 108.863C131.833 108.863 133.745 105.676 133.745 101.746C133.745 97.815 131.833 94.6286 129.475 94.6286Z" fill="#3F3D56"/>
<path d="M83.3382 164.922C81.469 164.922 79.6181 164.554 77.8911 163.839C76.1642 163.124 74.5951 162.075 73.2733 160.753C71.9516 159.432 70.9031 157.862 70.1878 156.136C69.4725 154.409 69.1043 152.558 69.1043 150.688V143.571C69.1043 139.796 70.6039 136.176 73.2733 133.507C75.9427 130.837 79.5631 129.338 83.3382 129.338V164.922Z" fill="#F9A826"/>
<path d="M174.189 129.337C176.058 129.337 177.909 129.706 179.636 130.421C181.363 131.136 182.932 132.185 184.253 133.506C185.575 134.828 186.624 136.397 187.339 138.124C188.054 139.851 188.422 141.702 188.422 143.571V150.688C188.422 152.557 188.054 154.408 187.339 156.135C186.624 157.862 185.575 159.431 184.253 160.753C182.932 162.075 181.363 163.123 179.636 163.839C177.909 164.554 176.058 164.922 174.189 164.922V129.337H174.189Z" fill="#F9A826"/>
<path d="M181.647 144.69H179.389C179.389 116.048 156.088 92.7467 127.446 92.7467C98.8046 92.7467 75.5031 116.048 75.5031 144.69H73.2447C73.2447 114.803 97.5593 90.4883 127.446 90.4883C157.333 90.4883 181.647 114.803 181.647 144.69Z" fill="#F9A826"/>
<path d="M162.268 208.556L162.268 208.556L161.207 208.114L156.73 206.221L155.126 205.543L155.003 205.854L152.847 211.296L158.914 213.864L158.945 213.893L158.537 214.857C158.481 214.945 158.433 215.038 158.394 215.135C158.108 215.858 158.648 216.577 159.16 216.78C159.671 216.982 160.318 216.56 160.604 215.837C160.887 215.124 160.61 214.218 160.112 213.999L160.113 213.998L159.052 213.556L155.422 212.145L157.496 206.909L157.189 206.787L155.114 212.026L154.665 211.851L156.748 206.593L156.803 206.616L161.069 208.421L161.101 208.45L160.692 209.414C160.636 209.502 160.588 209.595 160.55 209.692C160.263 210.415 160.804 211.135 161.315 211.337C161.827 211.54 162.473 211.118 162.76 210.395C163.042 209.681 162.766 208.775 162.268 208.556Z" fill="#3F3D56"/>
<path d="M75.7741 195.154C73.5719 193.895 74.0126 191.132 74.0126 191.132C73.9572 189.337 72.4742 189.591 72.4742 189.591L71.9345 189.715C71.6838 189.598 71.4077 189.547 71.1319 189.566L70.3109 189.704C72.1804 190.144 72.0268 191.708 72.0268 191.708L72.2887 193.536L67.3901 191.56L67.9525 190.234C68.0303 190.111 68.0966 189.982 68.1506 189.848C68.5484 188.843 67.7972 187.844 67.087 187.563C66.3769 187.282 65.4788 187.868 65.081 188.872C64.6888 189.863 65.0722 191.121 65.7642 191.425L65.7636 191.426L67.2372 192.04L67.2482 192.005L75.7741 195.154ZM73.2865 191.941L73.4436 193.692C72.8889 192.913 72.6283 191.964 72.7082 191.011C72.6952 190.673 72.5809 190.345 72.3801 190.072C72.6888 190.27 72.9368 190.549 73.0967 190.879C73.2567 191.209 73.3223 191.577 73.2865 191.941V191.941Z" fill="#3F3D56"/>
<path d="M212.14 173.757L212.14 173.756L210.667 173.142L204.508 170.748L206.062 169.365C206.367 168.96 206.816 168.688 207.316 168.606C207.816 168.524 208.328 168.639 208.746 168.926L208.263 168.209C208.263 168.209 207.357 167.008 206.087 168.279C206.087 168.279 204.517 170.594 202.049 170.004L210.475 173.57L210.519 173.61L209.952 174.949C209.874 175.071 209.807 175.2 209.753 175.335C209.356 176.339 210.107 177.338 210.817 177.619C211.527 177.901 212.425 177.315 212.823 176.31C213.215 175.32 212.832 174.061 212.14 173.757Z" fill="#3F3D56"/>
<path d="M40.6611 218.308L40.6621 218.305L38.1254 217.249L27.5232 213.128L30.1991 210.747C30.1991 210.747 31.979 208.277 34.8184 209.99L33.988 208.756C33.988 208.756 32.4269 206.689 30.2417 208.876C30.2417 208.876 27.538 212.862 23.291 211.846L37.7952 217.985L37.8713 218.054L36.8939 220.358C36.7601 220.569 36.646 220.792 36.5529 221.023C35.8682 222.752 37.1614 224.472 38.3838 224.956C39.6063 225.44 41.1523 224.431 41.837 222.702C42.5123 220.997 41.8523 218.831 40.6611 218.308Z" fill="#3F3D56"/>
<path d="M101.052 215.394L100.484 216.732C100.406 216.855 100.34 216.984 100.286 217.119C99.8879 218.123 100.639 219.122 101.349 219.403C102.059 219.684 102.958 219.098 103.355 218.094C103.748 217.103 103.364 215.845 102.672 215.541L102.673 215.54L101.199 214.926L96.1581 212.966L99.0384 205.694L98.6115 205.525L95.7301 212.8L95.1067 212.558L97.9994 205.254L98.0756 205.286L104.001 207.794L104.045 207.834L103.478 209.173C103.4 209.296 103.334 209.425 103.28 209.56C102.882 210.564 103.633 211.563 104.343 211.844C105.053 212.125 105.951 211.539 106.349 210.535C106.741 209.544 106.358 208.286 105.666 207.982L105.667 207.981L104.193 207.367L98.1708 204.821L98.1706 204.821L97.9753 204.739L95.7466 203.796L92.5817 211.787L101.007 215.354L101.052 215.394Z" fill="#3F3D56"/>
<path d="M199.751 213.09C194.486 210.079 195.54 203.473 195.54 203.473C195.407 199.182 191.862 199.789 191.862 199.789L190.571 200.084C189.972 199.805 189.312 199.683 188.652 199.729L186.689 200.059C191.159 201.109 190.792 204.849 190.792 204.849L191.418 209.221L179.706 204.496L181.051 201.325C181.237 201.032 181.395 200.723 181.524 200.401C182.475 198 180.679 195.612 178.982 194.939C177.284 194.267 175.136 195.668 174.185 198.069C173.247 200.438 174.164 203.446 175.819 204.173L175.817 204.176L179.34 205.643L179.367 205.56L199.751 213.09ZM193.804 205.408L194.181 209.607C191.969 206.671 192.421 203.184 192.421 203.184C192.39 202.374 192.117 201.592 191.637 200.939C194.177 202.459 193.804 205.408 193.804 205.408H193.804Z" fill="#3F3D56"/>
</g>
<defs>
<clipPath id="clip0_301_14000">
<rect width="258.464" height="225" fill="white"/>
</clipPath>
</defs>
</svg>
