<svg xmlns="http://www.w3.org/2000/svg" width="302" height="225.026" viewBox="0 0 302 225.026">
  <g id="Forgot_password-rafiki" data-name="Forgot password-rafiki" transform="translate(0 -55)">
    <g id="freepik--background-complete--inject-296" transform="translate(0 55)">
      <rect id="Retângulo_135" data-name="Retângulo 135" width="302" height="0.151" transform="translate(0 197.75)" fill="#ebebeb"/>
      <rect id="Retângulo_136" data-name="Retângulo 136" width="15.378" height="0.151" transform="translate(175.287 201.863)" fill="#ebebeb"/>
      <rect id="Retângulo_137" data-name="Retângulo 137" width="36.439" height="0.151" transform="translate(238.646 205.13)" fill="#ebebeb"/>
      <rect id="Retângulo_138" data-name="Retângulo 138" width="37.647" height="0.151" transform="translate(134.366 201.935)" fill="#ebebeb"/>
      <rect id="Retângulo_139" data-name="Retângulo 139" width="7.876" height="0.151" transform="translate(102.076 206.453)" fill="#ebebeb"/>
      <rect id="Retângulo_140" data-name="Retângulo 140" width="35.866" height="0.151" transform="translate(117.605 206.453)" fill="#ebebeb"/>
      <rect id="Retângulo_141" data-name="Retângulo 141" width="23.224" height="0.151" transform="translate(31.686 203.904)" fill="#ebebeb"/>
      <path id="Caminho_2048" data-name="Caminho 2048" d="M158.279,225.811H41.653a3.449,3.449,0,0,1-3.443-3.449V58.419A3.449,3.449,0,0,1,41.653,55H158.279a3.449,3.449,0,0,1,3.449,3.449V222.362A3.449,3.449,0,0,1,158.279,225.811ZM41.653,55.121a3.3,3.3,0,0,0-3.292,3.3V222.362a3.3,3.3,0,0,0,3.292,3.3H158.279a3.3,3.3,0,0,0,3.3-3.3V58.419a3.3,3.3,0,0,0-3.3-3.3Z" transform="translate(-15.131 -55)" fill="#ebebeb"/>
      <path id="Caminho_2049" data-name="Caminho 2049" d="M374.581,225.811H257.949a3.455,3.455,0,0,1-3.449-3.449V58.419A3.455,3.455,0,0,1,257.949,55H374.581a3.449,3.449,0,0,1,3.437,3.419V222.362A3.449,3.449,0,0,1,374.581,225.811ZM257.949,55.121a3.3,3.3,0,0,0-3.3,3.3V222.362a3.3,3.3,0,0,0,3.3,3.3H374.581a3.3,3.3,0,0,0,3.3-3.3V58.419a3.3,3.3,0,0,0-3.3-3.3Z" transform="translate(-100.782 -55)" fill="#ebebeb"/>
      <path id="Caminho_2050" data-name="Caminho 2050" d="M168.07,277.256H127.964L125.53,249.17h40.106Z" transform="translate(-49.71 -131.891)" fill="#e6e6e6"/>
      <path id="Caminho_2051" data-name="Caminho 2051" d="M171.51,277.256H131.4L128.97,249.17h40.106Z" transform="translate(-51.072 -131.891)" fill="#f0f0f0"/>
      <path id="Caminho_2052" data-name="Caminho 2052" d="M141.2,275.174,139.86,259.15H167.9l1.341,16.024Z" transform="translate(-55.385 -135.843)" fill="#fff"/>
      <rect id="Retângulo_142" data-name="Retângulo 142" width="4.705" height="52.385" transform="translate(122.672 145.365)" fill="#e6e6e6"/>
      <rect id="Retângulo_143" data-name="Retângulo 143" width="3.268" height="52.385" transform="translate(125.596 145.365)" fill="#f0f0f0"/>
      <rect id="Retângulo_144" data-name="Retângulo 144" width="45.548" height="5.78" transform="translate(128.863 151.145) rotate(180)" fill="#f0f0f0"/>
      <rect id="Retângulo_145" data-name="Retângulo 145" width="4.705" height="46.605" transform="translate(80.217 151.145)" fill="#e6e6e6"/>
      <rect id="Retângulo_146" data-name="Retângulo 146" width="3.268" height="46.605" transform="translate(83.141 151.145)" fill="#f0f0f0"/>
      <rect id="Retângulo_147" data-name="Retângulo 147" width="4.705" height="46.605" transform="translate(46.725 151.145)" fill="#e6e6e6"/>
      <rect id="Retângulo_148" data-name="Retângulo 148" width="3.268" height="46.605" transform="translate(49.649 151.145)" fill="#f0f0f0"/>
      <rect id="Retângulo_149" data-name="Retângulo 149" width="4.705" height="46.605" transform="translate(92.895 151.145)" fill="#e6e6e6"/>
      <rect id="Retângulo_150" data-name="Retângulo 150" width="3.268" height="46.605" transform="translate(95.813 151.145)" fill="#f0f0f0"/>
      <rect id="Retângulo_151" data-name="Retângulo 151" width="36.59" height="5.78" transform="translate(46.725 145.365)" fill="#e6e6e6"/>
      <rect id="Retângulo_152" data-name="Retângulo 152" width="141.535" height="78.798" transform="translate(78.224 14.744)" fill="#e0e0e0"/>
      <rect id="Retângulo_153" data-name="Retângulo 153" width="148.596" height="78.798" transform="translate(78.937 14.744)" fill="#f5f5f5"/>
      <rect id="Retângulo_154" data-name="Retângulo 154" width="73.942" height="143.74" transform="translate(225.105 17.172) rotate(90)" fill="#fff"/>
      <path id="Caminho_2053" data-name="Caminho 2053" d="M201.707,157.372,228.844,83.43H184.058L156.92,157.372Z" transform="translate(-62.14 -66.258)" fill="#f5f5f5"/>
      <path id="Caminho_2054" data-name="Caminho 2054" d="M280.288,157.372,307.426,83.43H273.638L246.5,157.372Z" transform="translate(-97.614 -66.258)" fill="#f5f5f5"/>
      <rect id="Retângulo_155" data-name="Retângulo 155" width="12.032" height="75.258" transform="translate(252.587 122.491)" fill="#e6e6e6"/>
      <path id="Caminho_2055" data-name="Caminho 2055" d="M430.7,378.6h3.165V372.81H427.38Z" transform="translate(-169.242 -180.853)" fill="#fafafa"/>
      <rect id="Retângulo_156" data-name="Retângulo 156" width="12.032" height="75.258" transform="translate(141.656 122.491)" fill="#e6e6e6"/>
      <rect id="Retângulo_157" data-name="Retângulo 157" width="113.691" height="73.694" transform="translate(150.928 122.491)" fill="#fafafa"/>
      <path id="Caminho_2056" data-name="Caminho 2056" d="M362.834,283.524H253.45V262.71H362.834Zm-108.78-.6H362.23V263.314H254.054Z" transform="translate(-100.366 -137.253)" fill="#e6e6e6"/>
      <path id="Caminho_2057" data-name="Caminho 2057" d="M351.915,274.526H283.161c-3.189,0-6.263-2.573-8.456-7.067l-.205-.429h86.07l-.205.429C358.154,271.953,355.134,274.526,351.915,274.526Zm-76.424-6.91c2.041,4,4.832,6.288,7.671,6.288h68.753c2.851,0,5.629-2.283,7.671-6.288Z" transform="translate(-108.702 -138.964)" fill="#e6e6e6"/>
      <path id="Caminho_2058" data-name="Caminho 2058" d="M253.045,378.6H249.88V372.81h6.481Z" transform="translate(-98.952 -180.853)" fill="#fafafa"/>
      <path id="Caminho_2059" data-name="Caminho 2059" d="M362.834,322.37H253.45V301.58H362.834Zm-108.78-.6H362.23V302.184H254.054Z" transform="translate(-100.366 -152.646)" fill="#e6e6e6"/>
      <path id="Caminho_2060" data-name="Caminho 2060" d="M351.915,313.392H283.161c-3.189,0-6.263-2.579-8.456-7.067l-.205-.435h86.07l-.205.435C358.154,310.788,355.134,313.392,351.915,313.392Zm-76.424-6.9c2.041,4,4.832,6.294,7.671,6.294h68.753c2.851,0,5.629-2.289,7.671-6.294Z" transform="translate(-108.702 -154.352)" fill="#e6e6e6"/>
      <path id="Caminho_2061" data-name="Caminho 2061" d="M362.834,361.254H253.45V340.44H362.834Zm-108.78-.6H362.23V341.044H254.054Z" transform="translate(-100.366 -168.034)" fill="#e6e6e6"/>
      <path id="Caminho_2062" data-name="Caminho 2062" d="M351.915,352.256H283.161c-3.189,0-6.263-2.573-8.456-7.061l-.205-.435h86.07l-.205.435C358.154,349.683,355.134,352.256,351.915,352.256Zm-76.424-6.892c2.041,4,4.832,6.288,7.671,6.288h68.753c2.851,0,5.629-2.283,7.671-6.288Z" transform="translate(-108.702 -169.745)" fill="#e6e6e6"/>
      <path id="Caminho_2063" data-name="Caminho 2063" d="M111.286,274.28v1.462h-.93l-.773,11.458H98.2l-.767-11.458H96.5V274.28Z" transform="translate(-38.214 -141.835)" fill="#e6e6e6"/>
      <path id="Caminho_2064" data-name="Caminho 2064" d="M90.842,218.561c-.93-6.825-10.141-8.77-21.829-9.024-11.12-.236-14.683-4.168-14.683-4.168s.036,15.927,16.06,21.7C85.605,232.544,91.778,225.4,90.842,218.561Z" transform="translate(-21.515 -114.547)" fill="#e6e6e6"/>
      <path id="Caminho_2065" data-name="Caminho 2065" d="M105.363,247.6c.193-2.8,4.675-7.961,15.456-5.617,7.792,1.7,10.691-2.344,10.691-2.344s-.725,11.4-12.442,14.828C107.936,257.724,105.018,252.541,105.363,247.6Z" transform="translate(-41.713 -128.117)" fill="#e6e6e6"/>
      <path id="Caminho_2066" data-name="Caminho 2066" d="M107.442,258.877a.417.417,0,0,0,.32-.145c.779-.924.139-3.135-.743-6.2-1.136-3.926-2.549-8.818-1.353-12.364a49.733,49.733,0,0,1,2.319-5.484c1.691-3.576,3.153-6.644,1.933-9.893a.417.417,0,1,0-.779.3c1.093,2.893-.229,5.7-1.909,9.247a51.693,51.693,0,0,0-2.356,5.569c-1.274,3.793.175,8.824,1.341,12.859.689,2.416,1.4,4.832.912,5.436a.411.411,0,0,0,.048.6A.4.4,0,0,0,107.442,258.877Z" transform="translate(-41.334 -122.132)" fill="#e6e6e6"/>
    </g>
    <g id="freepik--Shadow--inject-296" transform="translate(33.89 266.352)">
      <ellipse id="freepik--path--inject-296" cx="117.11" cy="6.837" rx="117.11" ry="6.837" fill="#f5f5f5"/>
    </g>
    <g id="freepik--Login--inject-296" transform="translate(60.515 97.636)">
      <path id="Caminho_2067" data-name="Caminho 2067" d="M190.651,270.615H104.883L100.19,132.68h85.768Z" transform="translate(-100.19 -128.398)" fill="#fc4f22"/>
      <path id="Caminho_2068" data-name="Caminho 2068" d="M197.737,263.525H111.969l-4.7-137.935h85.768Z" transform="translate(-102.994 -125.59)" fill="#fc4f22"/>
      <path id="Caminho_2069" data-name="Caminho 2069" d="M197.737,263.525H111.969l-4.7-137.935h85.768Z" transform="translate(-102.994 -125.59)" fill="#fff" opacity="0.3"/>
      <ellipse id="Elipse_83" data-name="Elipse 83" cx="23.719" cy="24.541" rx="23.719" ry="24.541" transform="matrix(0.701, -0.713, 0.713, 0.701, 14.378, 39.267)" fill="#fc4f22"/>
      <path id="Caminho_2070" data-name="Caminho 2070" d="M187.35,178.022a19.329,19.329,0,0,1-2.084,9.483,19.081,19.081,0,0,1-17.154,10.425A20.693,20.693,0,0,1,150.259,187.5a20.228,20.228,0,0,1-2.73-9.483A19.111,19.111,0,0,1,166.76,158.09,20.753,20.753,0,0,1,187.35,178.022Z" transform="translate(-118.929 -138.46)" fill="#fff"/>
      <path id="Caminho_2071" data-name="Caminho 2071" d="M187.048,203.309a19.08,19.08,0,0,1-17.154,10.425,20.693,20.693,0,0,1-17.854-10.425A30.556,30.556,0,0,1,169.375,198,32.3,32.3,0,0,1,187.048,203.309Z" transform="translate(-120.723 -154.264)" fill="#fc4f22" opacity="0.6"/>
      <ellipse id="Elipse_84" data-name="Elipse 84" cx="8.722" cy="9.024" rx="8.722" ry="9.024" transform="matrix(0.701, -0.713, 0.713, 0.701, 35.727, 32.633)" fill="#fc4f22" opacity="0.6"/>
      <path id="Caminho_2072" data-name="Caminho 2072" d="M192.409,264.132H137.7l-.368-10.872h54.71Z" transform="translate(-114.897 -176.147)" fill="#fff"/>
      <path id="Caminho_2073" data-name="Caminho 2073" d="M193.5,296.3H138.788l-.368-10.872h54.716Z" transform="translate(-115.329 -188.887)" fill="#fff"/>
      <path id="Caminho_2074" data-name="Caminho 2074" d="M185.482,287.9,172.3,289.716a.918.918,0,0,0-.8,1.087l1.734,8.836a1.063,1.063,0,0,0,1.172.828l13.185-1.812a.924.924,0,0,0,.791-1.093l-1.727-8.837A1.057,1.057,0,0,0,185.482,287.9Zm-3.787,8.951-2.416.32-.236-2.851a1.691,1.691,0,0,1-.985-1.208,1.5,1.5,0,0,1,1.3-1.812,1.727,1.727,0,0,1,1.909,1.347,1.48,1.48,0,0,1-.471,1.407Z" transform="translate(-128.422 -189.863)" fill="#fc4f22"/>
      <path id="Caminho_2075" data-name="Caminho 2075" d="M184.527,282.342h0a.942.942,0,0,1-1.039-.731l-.169-.864a4.971,4.971,0,0,0-5.206-3.962,4.228,4.228,0,0,0-3.9,5.068l.193,1a.809.809,0,0,1-.707.966h0a.93.93,0,0,1-1.039-.731l-.163-.84a5.949,5.949,0,0,1,4.832-7.1,6.765,6.765,0,0,1,7.731,5.237l.193.991a.809.809,0,0,1-.725.966Z" transform="translate(-128.772 -184.778)" fill="#fc4f22"/>
      <path id="Caminho_2076" data-name="Caminho 2076" d="M191.163,324H155.546l-.236-7.079h35.612Z" transform="translate(-122.018 -201.357)" fill="#fc4f22"/>
      <path id="Caminho_2077" data-name="Caminho 2077" d="M183.609,260.957a1.909,1.909,0,0,1-1.921,1.987,2.078,2.078,0,0,1-2.06-1.987,1.909,1.909,0,0,1,1.921-1.987A2.072,2.072,0,0,1,183.609,260.957Z" transform="translate(-131.647 -178.408)" fill="#263238"/>
      <path id="Caminho_2078" data-name="Caminho 2078" d="M169.393,260.957a1.9,1.9,0,0,1-1.921,1.987,2.072,2.072,0,0,1-2.054-1.987,1.909,1.909,0,0,1,1.921-1.987,2.066,2.066,0,0,1,2.054,1.987Z" transform="translate(-126.02 -178.408)" fill="#263238"/>
      <path id="Caminho_2079" data-name="Caminho 2079" d="M155.263,260.957a1.909,1.909,0,0,1-1.921,1.987,2.066,2.066,0,0,1-2.054-1.987,1.909,1.909,0,0,1,1.921-1.987A2.066,2.066,0,0,1,155.263,260.957Z" transform="translate(-120.425 -178.408)" fill="#263238"/>
      <path id="Caminho_2080" data-name="Caminho 2080" d="M197.784,260.969a1.909,1.909,0,0,1-1.921,1.987,2.066,2.066,0,0,1-2.054-1.987A1.9,1.9,0,0,1,195.736,259,2.066,2.066,0,0,1,197.784,260.969Z" transform="translate(-137.263 -178.42)" fill="#263238"/>
      <path id="Caminho_2081" data-name="Caminho 2081" d="M211.953,260.957a1.9,1.9,0,0,1-1.921,1.987,2.072,2.072,0,0,1-2.054-1.987,1.908,1.908,0,0,1,1.921-1.987,2.066,2.066,0,0,1,2.054,1.987Z" transform="translate(-142.874 -178.408)" fill="#263238"/>
    </g>
    <g id="freepik--Character--inject-296" transform="translate(166.898 98.82)">
      <path id="Caminho_2082" data-name="Caminho 2082" d="M330.295,174.28c.8,1.293,1.474,2.525,2.162,3.811s1.311,2.579,1.921,3.9a55.794,55.794,0,0,1,3.08,8.293c.109.356.187.737.278,1.105l.133.562.066.278.079.459a8.264,8.264,0,0,1-.187,3.117,17.664,17.664,0,0,1-1.884,4.5,35.767,35.767,0,0,1-5.364,7.025l-2.543-1.921a67.277,67.277,0,0,0,3.4-7.248,15.015,15.015,0,0,0,.924-3.4,2.693,2.693,0,0,0-.048-1.069l-.242-.737c-.1-.3-.187-.6-.3-.912a68.493,68.493,0,0,0-3.183-7.3c-1.208-2.416-2.507-4.832-3.805-7.139Z" transform="translate(-295.511 -146.055)" fill="#ff8b7b"/>
      <path id="Caminho_2083" data-name="Caminho 2083" d="M329.418,224.43,326.64,225.9l3.189,3.733a4.949,4.949,0,0,0,2.084-3.4Z" transform="translate(-296.247 -165.914)" fill="#ff8b7b"/>
      <path id="Caminho_2084" data-name="Caminho 2084" d="M320.47,229.161l3.413,2.712,3.5-1.28L324.2,226.86Z" transform="translate(-293.804 -166.877)" fill="#ff8b7b"/>
      <path id="Caminho_2085" data-name="Caminho 2085" d="M300.616,141.1c-.066.338-.3.574-.519.532s-.344-.356-.278-.689.3-.6.526-.532S300.682,140.763,300.616,141.1Z" transform="translate(-285.619 -132.639)" fill="#263238"/>
      <path id="Caminho_2086" data-name="Caminho 2086" d="M299.267,142.52a12.235,12.235,0,0,1-2.186,2.549,1.987,1.987,0,0,0,1.546.6Z" transform="translate(-284.541 -133.478)" fill="#ff5652"/>
      <path id="Caminho_2087" data-name="Caminho 2087" d="M298.9,159.542V155.58l5.243.6s-.085,3.407-3.02,4.409Z" transform="translate(-285.262 -138.65)" fill="#ff8b7b"/>
      <path id="Caminho_2088" data-name="Caminho 2088" d="M300.426,150.86l3.69,1.063.066,2.422-5.243-.634Z" transform="translate(-285.278 -136.781)" fill="#ff8b7b"/>
      <path id="Caminho_2089" data-name="Caminho 2089" d="M304.619,151.923l-3.69-1.063-.719,1.377a5.877,5.877,0,0,0,3.407,5.122,5.774,5.774,0,0,0,1.069-3.02Z" transform="translate(-285.781 -136.781)" opacity="0.2"/>
      <path id="Caminho_2090" data-name="Caminho 2090" d="M302.676,138.225a.205.205,0,0,0,.151-.338,2.005,2.005,0,0,0-1.715-.664.2.2,0,0,0-.163.23.205.205,0,0,0,.229.169h0a1.588,1.588,0,0,1,1.353.538.205.205,0,0,0,.145.066Z" transform="translate(-286.072 -131.376)" fill="#263238"/>
      <path id="Caminho_2091" data-name="Caminho 2091" d="M310.465,151.68c-.6,3.111-.978,7.417,1.208,9.489,0,0-.846,3.153-6.644,3.153-6.348,0-3.05-2.766-3.05-2.766,2.639-.821,2.615-3.823,2.011-6.239Z" transform="translate(-286.142 -137.105)" fill="#ff8b7b"/>
      <path id="Caminho_2092" data-name="Caminho 2092" d="M312.992,167.991c.568-.8.544-3.328-.06-3.775-.972-.719-5.146-.888-10.757.4a3.949,3.949,0,0,1-.695,3.733Z" transform="translate(-286.284 -141.85)" fill="#fc4f22"/>
      <path id="Caminho_2093" data-name="Caminho 2093" d="M351.017,407.649a1.383,1.383,0,0,1-1.063-.06.411.411,0,0,1-.1-.465.465.465,0,0,1,.26-.3c.574-.278,1.891.26,1.951.284a.1.1,0,0,1,.06.091.115.115,0,0,1-.054.1A5.942,5.942,0,0,1,351.017,407.649Zm-.695-.683a.5.5,0,0,0-.115.042.253.253,0,0,0-.157.169c-.054.181,0,.242.036.26.229.193,1.075,0,1.673-.223A3.318,3.318,0,0,0,350.323,406.967Z" transform="translate(-305.428 -238.113)" fill="#fc4f22"/>
      <path id="Caminho_2094" data-name="Caminho 2094" d="M352.48,406.551h-.048c-.483-.139-1.51-.87-1.522-1.347a.332.332,0,0,1,.26-.326.519.519,0,0,1,.441.036c.568.29.93,1.462.942,1.516a.1.1,0,0,1,0,.1A.084.084,0,0,1,352.48,406.551Zm-1.208-1.5h-.048c-.121.042-.121.1-.121.133,0,.284.689.858,1.208,1.087a2.515,2.515,0,0,0-.773-1.208.35.35,0,0,0-.26-.012Z" transform="translate(-305.858 -237.359)" fill="#fc4f22"/>
      <path id="Caminho_2095" data-name="Caminho 2095" d="M299,408.748c-.544,0-1.069-.078-1.244-.32a.38.38,0,0,1,0-.441.5.5,0,0,1,.32-.236c.707-.193,2.193.652,2.253.689a.091.091,0,0,1,.048.1.1.1,0,0,1-.079.085,7.362,7.362,0,0,1-1.3.121Zm-.67-.827a.6.6,0,0,0-.193,0,.309.309,0,0,0-.2.139c-.072.127-.042.187,0,.224.2.278,1.268.284,2.06.169A4.6,4.6,0,0,0,298.328,407.92Z" transform="translate(-284.78 -238.498)" fill="#fc4f22"/>
      <path id="Caminho_2096" data-name="Caminho 2096" d="M301.019,407.965h-.042c-.513-.229-1.528-1.148-1.45-1.631,0-.115.1-.254.375-.278a.724.724,0,0,1,.556.169,2.888,2.888,0,0,1,.664,1.637.121.121,0,0,1-.042.091A.114.114,0,0,1,301.019,407.965Zm-1.039-1.721h-.06c-.181,0-.193.085-.193.109-.048.29.64,1.015,1.166,1.329a2.337,2.337,0,0,0-.562-1.311.53.53,0,0,0-.356-.127Z" transform="translate(-285.509 -237.837)" fill="#fc4f22"/>
      <path id="Caminho_2097" data-name="Caminho 2097" d="M306.659,402.609h-4.246l-.423-9.839h4.246Z" transform="translate(-286.486 -232.577)" fill="#ff8b7b"/>
      <path id="Caminho_2098" data-name="Caminho 2098" d="M355.893,399.793l-4.15.9-4.174-9.163,4.156-.9Z" transform="translate(-304.535 -231.73)" fill="#ff8b7b"/>
      <path id="Caminho_2099" data-name="Caminho 2099" d="M349.852,405.933l4.669-1.009a.368.368,0,0,1,.411.205l1.619,3.515a.6.6,0,0,1-.447.87c-1.631.32-2.446.4-4.494.84-1.262.278-4.113.972-5.859,1.347s-2.344-1.3-1.661-1.607c3.05-1.4,4.319-2.621,5.146-3.763A1.033,1.033,0,0,1,349.852,405.933Z" transform="translate(-303.048 -237.387)" fill="#263238"/>
      <path id="Caminho_2100" data-name="Caminho 2100" d="M296.018,408.24h4.639a.375.375,0,0,1,.362.29l.84,3.775a.6.6,0,0,1-.6.761c-1.673-.03-4.089-.127-6.191-.127-2.464,0-4.584.133-7.471.133-1.746,0-2.229-1.764-1.5-1.927,3.322-.725,6.04-.8,8.909-2.573A1.975,1.975,0,0,1,296.018,408.24Z" transform="translate(-280.061 -238.703)" fill="#263238"/>
      <path id="Caminho_2101" data-name="Caminho 2101" d="M327.661,168.924c3.98.912,7.248,11.077,7.248,11.077l-7.955,6.082a17.473,17.473,0,0,1-4.228-7.852C321.319,172.9,323.59,167.981,327.661,168.924Z" transform="translate(-294.532 -143.888)" fill="#fc4f22"/>
      <path id="Caminho_2102" data-name="Caminho 2102" d="M327.661,168.924c3.98.912,7.248,11.077,7.248,11.077l-7.955,6.082a17.473,17.473,0,0,1-4.228-7.852C321.319,172.9,323.59,167.981,327.661,168.924Z" transform="translate(-294.532 -143.888)" opacity="0.4"/>
      <path id="Caminho_2103" data-name="Caminho 2103" d="M288.509,177.222c-.991,1.069-1.981,2.023-3.02,3.02-.513.483-1.033.966-1.564,1.431l-.8.707-.2.175-.344.278a4.835,4.835,0,0,1-1.166.689,3.8,3.8,0,0,1-1.474.3,3.623,3.623,0,0,1-1.268-.223,3.57,3.57,0,0,1-1.208-.767,3.624,3.624,0,0,1-.942-1.564,4.111,4.111,0,0,1-.175-.9,6.111,6.111,0,0,1,0-1.075c.03-.29.066-.544.115-.779a14.955,14.955,0,0,1,.7-2.416,21.625,21.625,0,0,1,.936-2.186c.387-.767.755-1.329,1.123-1.969a49.314,49.314,0,0,1,5.1-6.922,46.765,46.765,0,0,1,6.191-5.871l2.223,2.289c-1.558,2.09-3.092,4.331-4.512,6.535a70.814,70.814,0,0,0-3.866,6.795c-.26.568-.6,1.208-.767,1.667a16.207,16.207,0,0,0-.562,1.631,10.542,10.542,0,0,0-.344,1.522,2.354,2.354,0,0,0,0,.242v-.054a1.679,1.679,0,0,0-.078-.4,2.591,2.591,0,0,0-.695-1.123,2.96,2.96,0,0,0-1-.6,2.886,2.886,0,0,0-1.015-.187,2.464,2.464,0,0,0-.972.187,2.211,2.211,0,0,0-.3.151l.23-.211.731-.664,1.444-1.353c.954-.9,1.915-1.86,2.821-2.754Z" transform="translate(-276.321 -140.064)" fill="#ff8b7b"/>
      <path id="Caminho_2104" data-name="Caminho 2104" d="M324.364,181.36c2.162,2.138,2.869,6.04,3.02,9.422l-.35.272a17.474,17.474,0,0,1-4.228-7.852c-.079-.314-.151-.6-.205-.948Z" transform="translate(-294.647 -148.859)" opacity="0.2"/>
      <path id="Caminho_2105" data-name="Caminho 2105" d="M289.033,172.488c-.87,4.59-1.413,14.019,1.105,32.682h22.747c.157-3.485-2.035-20.506,1.329-36.941a59.8,59.8,0,0,0-7.61-.96,84.4,84.4,0,0,0-9.664,0c-1.063.1-2.114.254-3.02.417A6.04,6.04,0,0,0,289.033,172.488Z" transform="translate(-281.067 -143.224)" fill="#fc4f22"/>
      <path id="Caminho_2106" data-name="Caminho 2106" d="M289.033,172.488c-.87,4.59-1.413,14.019,1.105,32.682h22.747c.157-3.485-2.035-20.506,1.329-36.941a59.8,59.8,0,0,0-7.61-.96,84.4,84.4,0,0,0-9.664,0c-1.063.1-2.114.254-3.02.417A6.04,6.04,0,0,0,289.033,172.488Z" transform="translate(-281.067 -143.224)" opacity="0.4"/>
      <path id="Caminho_2107" data-name="Caminho 2107" d="M292.515,186.625l-4.107-.985c-.127,2.488-.139,5.569.042,9.38C290.341,192.87,292.757,189.512,292.515,186.625Z" transform="translate(-281.07 -150.554)" opacity="0.2"/>
      <path id="Caminho_2108" data-name="Caminho 2108" d="M301.99,392.77l.217,5.074h4.252l-.217-5.074Z" transform="translate(-286.486 -232.577)" opacity="0.2"/>
      <path id="Caminho_2109" data-name="Caminho 2109" d="M351.726,390.63l-4.156.9,2.15,4.723,4.156-.9Z" transform="translate(-304.535 -231.73)" opacity="0.2"/>
      <path id="Caminho_2110" data-name="Caminho 2110" d="M311.637,139.383c-1.087,4.071-1.522,6.511-4.035,8.2-3.775,2.573-8.486-.374-8.607-4.675-.133-3.884,1.673-9.894,6.04-10.715a5.75,5.75,0,0,1,6.6,7.188Z" transform="translate(-285.297 -129.35)" fill="#ff8b7b"/>
      <path id="Caminho_2111" data-name="Caminho 2111" d="M303.736,140.242c-.205-.544-1.142-4.753-.26-5.847s10.939-.3,12.424,1.16c2.47,2.416.755,4.59-1.945,7.387-2.029,2.1-2.108,4.47-3.135,4.832-1.812.6-4.578.036-5.134-1.878S303.736,140.242,303.736,140.242Z" transform="translate(-286.927 -130.059)" fill="#263238"/>
      <path id="Caminho_2112" data-name="Caminho 2112" d="M313.211,128.257c-3.552-1.51-10.214.163-13.813-.707a5.545,5.545,0,0,0,4.6,5.653,47.507,47.507,0,0,0,9.06.84C317,133.862,316.231,129.543,313.211,128.257Z" transform="translate(-285.458 -127.55)" fill="#263238"/>
      <path id="Caminho_2113" data-name="Caminho 2113" d="M323.19,136.389a6.771,6.771,0,0,0,3.763-.719C327.617,137.277,323.963,137.718,323.19,136.389Z" transform="translate(-294.881 -130.766)" fill="#263238"/>
      <path id="Caminho_2114" data-name="Caminho 2114" d="M305.186,143.533a4.777,4.777,0,0,1-1.208,2.821c-.93,1.021-1.9.381-2.06-.858-.145-1.123.157-3.02,1.293-3.564S305.264,142.271,305.186,143.533Z" transform="translate(-286.444 -133.181)" fill="#ff8b7b"/>
      <path id="Caminho_2115" data-name="Caminho 2115" d="M304.69,230.132s4.832,32.465,7.471,44.63c2.893,13.318,18.44,57.38,18.44,57.38l7.6-1.649s-10.872-35.914-13.288-54.535c-1.872-14.3-5.551-45.838-5.551-45.838Z" transform="translate(-287.555 -168.168)" fill="#fc4f22"/>
      <path id="Caminho_2116" data-name="Caminho 2116" d="M344.57,393.743c-.03,0,1.419,2.754,1.419,2.754l8.553-1.854-.719-2.573Z" transform="translate(-303.347 -232.3)" fill="#263238"/>
      <path id="Caminho_2117" data-name="Caminho 2117" d="M308.916,249.26c5.575,1.093,4.983,21.883,4.313,32.58-1.607-7.562-3.962-22.106-5.569-32.429A1.9,1.9,0,0,1,308.916,249.26Z" transform="translate(-288.731 -175.729)" opacity="0.3"/>
      <path id="Caminho_2118" data-name="Caminho 2118" d="M291.138,230.124s-.6,31.764-.121,44.7c.483,13.475,5.188,57.6,5.188,57.6h7.2s.26-43.337.6-56.571c.35-14.424,2.09-45.747,2.09-45.747Z" transform="translate(-282.066 -168.16)" fill="#fc4f22"/>
      <path id="Caminho_2119" data-name="Caminho 2119" d="M297.439,394.8c-.036,0,.4,2.984.4,2.984H306.6l.242-2.664Z" transform="translate(-284.683 -233.381)" fill="#263238"/>
      <path id="Caminho_2120" data-name="Caminho 2120" d="M294.342,174.3c2.035,5.49-9.93,11.959-9.93,11.959l-5.182-6.644s3.485-6.9,7.713-10C292.168,165.78,292.79,170.117,294.342,174.3Z" transform="translate(-277.473 -143.62)" fill="#fc4f22"/>
      <path id="Caminho_2121" data-name="Caminho 2121" d="M294.342,174.3c2.035,5.49-9.93,11.959-9.93,11.959l-5.182-6.644s3.485-6.9,7.713-10C292.168,165.78,292.79,170.117,294.342,174.3Z" transform="translate(-277.473 -143.62)" opacity="0.4"/>
    </g>
    <g id="freepik--Thinking--inject-296" transform="translate(198.571 60.031)">
      <ellipse id="Elipse_85" data-name="Elipse 85" cx="21.798" cy="13.892" rx="21.798" ry="13.892" transform="translate(10.28)" fill="#fc4f22"/>
      <path id="Caminho_2122" data-name="Caminho 2122" d="M364.868,89.889a6.106,6.106,0,0,1-6-5.068,6.173,6.173,0,0,1,4.657-6.958h0a6.076,6.076,0,0,1,6.535,2.73l13.995-2.887a2.186,2.186,0,0,1,2.561,1.5,2.108,2.108,0,0,1-1.613,2.6l-.362.072a.356.356,0,0,0-.254.187.381.381,0,0,0,0,.314l.248.64a.96.96,0,0,1-.375,1.166,1.148,1.148,0,0,0-.538.852.948.948,0,0,1-.731.84l-.284.06a.942.942,0,0,1-1-.483,1.178,1.178,0,0,0-2.18.453.936.936,0,0,1-.725.834l-.284.06a.948.948,0,0,1-1-.483,1.208,1.208,0,0,0-.84-.568.96.96,0,0,1-.846-.948v-.689a.374.374,0,0,0-.447-.35l-4.464.918a6.082,6.082,0,0,1-4.8,5.074,6.258,6.258,0,0,1-1.25.127ZM363.66,78.413a5.563,5.563,0,0,0-4.228,6.294,5.5,5.5,0,0,0,10.872-.314v-.217l4.923-1a.979.979,0,0,1,1.208.918v.689a.356.356,0,0,0,.29.344,1.757,1.757,0,0,1,1.274.864.35.35,0,0,0,.356.193l.278-.06a.338.338,0,0,0,.254-.314,1.782,1.782,0,0,1,3.322-.7.344.344,0,0,0,.35.193l.29-.06a.338.338,0,0,0,.248-.314,1.752,1.752,0,0,1,.827-1.3.369.369,0,0,0,.127-.435l-.248-.64a.972.972,0,0,1,.713-1.3l.368-.079a1.516,1.516,0,0,0,1.154-1.854,1.576,1.576,0,0,0-1.86-1.069l-14.387,2.99-.109-.187a5.436,5.436,0,0,0-5.992-2.627Zm1.208,9.229a3.714,3.714,0,1,1,.785-.048h0a3.85,3.85,0,0,1-.779.06Zm0-7.133a3.626,3.626,0,0,0-.67.066,3.276,3.276,0,0,0,1.365,6.408h0a3.268,3.268,0,0,0,1.135-5.925,3.213,3.213,0,0,0-1.806-.538Z" transform="translate(-340.654 -69.003)" fill="#fff"/>
      <ellipse id="Elipse_86" data-name="Elipse 86" cx="7.163" cy="4.566" rx="7.163" ry="4.566" transform="translate(7.176 26.799)" fill="#fc4f22" opacity="0.6"/>
      <ellipse id="Elipse_87" data-name="Elipse 87" cx="2.941" cy="1.872" rx="2.941" ry="1.872" transform="translate(0 34.06)" fill="#fc4f22" opacity="0.3"/>
    </g>
  </g>
</svg>
