<svg xmlns="http://www.w3.org/2000/svg" xmlns:xlink="http://www.w3.org/1999/xlink" width="259.722" height="252.046" viewBox="0 0 259.722 252.046">
  <defs>
    <clipPath id="clip-path">
      <path id="Caminho_2319" data-name="Caminho 2319" d="M102.988,206.269l-21.073-6.879-1.875-4.953-4.281-.134L67.99,192.83l.934,1.606,9.778,7.1,2.413,1.2,22.039,11.512Z" transform="translate(-67.99 -192.83)" fill="#fff" stroke="#263238" stroke-miterlimit="10" stroke-width="1.004"/>
    </clipPath>
    <clipPath id="clip-path-2">
      <path id="Caminho_2323" data-name="Caminho 2323" d="M83.432,194.663l-2.009-1.2-4.012,1.472.666.8Z" transform="translate(-77.41 -193.46)" fill="#fff" stroke="#263238" stroke-linejoin="round" stroke-width="1.004"/>
    </clipPath>
    <clipPath id="clip-path-3">
      <path id="Caminho_2327" data-name="Caminho 2327" d="M125.46,143.227a11.186,11.186,0,0,0,.486,4.729c.813,1.849,5.324,8.114,5.324,8.114l-8.422,6.751s-3.494-7.039-4.16-8.178a11.6,11.6,0,0,1,.7-9.554C121.563,141.576,124.686,140.629,125.46,143.227Z" transform="translate(-117.978 -141.747)" fill="#fff" stroke="#263238" stroke-miterlimit="10" stroke-width="1.004"/>
    </clipPath>
    <clipPath id="clip-path-4">
      <path id="Caminho_2331" data-name="Caminho 2331" d="M120.061,130.494c-.518-3.2-4.185-9.708-10-9.458a14.146,14.146,0,0,0-7.18,1.856,21.117,21.117,0,0,0-3.712,2.777c-2.841,3.411-3.84,4.345-3.289,6.956a7.833,7.833,0,0,0,.48,3.059,24.385,24.385,0,0,0,2.221,4.947c-.23,1.081-.832,3.936-.864,4.588s1.92.2,2.905-.051c1.83,4.1,5.183,6.937,6.227,7.263,1.817.57,4.691-2.419,6.214-4.735s.371-4.921.378-5.958,3.424-3.315,4.691-4.038S120.573,133.688,120.061,130.494Z" transform="translate(-95.733 -121.029)" fill="#fff" stroke="#263238" stroke-miterlimit="10" stroke-width="1"/>
    </clipPath>
    <clipPath id="clip-path-5">
      <path id="Caminho_2358" data-name="Caminho 2358" d="M116.125,171.54s4.537,3.091,4.64,10.392a72.433,72.433,0,0,1-1.024,11.429c-.736,5.241-5.305,22.308-8.863,24.381S101.8,215.9,101.8,215.9L75.087,198.168l-6.457-5.215-3.2-6.041,1-1.92,7.878,6.041L70.07,187.11l.832-1.056,1.536,1.069,4.48,1.677.979,6.4,1.382.947,25.552,9.337s-.32-13.752-.083-16.382.563-9.241,3.379-14.034" transform="translate(-65.43 -171.54)" fill="#fff" stroke="#263238" stroke-miterlimit="10" stroke-width="1.004"/>
    </clipPath>
  </defs>
  <g id="Mobile_login-bro" data-name="Mobile login-bro" transform="translate(-44.73 -43.816)">
    <g id="freepik--background-simple--inject-1--inject-252" transform="translate(44.73 43.816)">
      <path id="Caminho_2297" data-name="Caminho 2297" d="M277.921,81.69c-15.922-36.3-54.138-49.972-84.292-25.6-11.775,9.509-19.121,24.644-33.539,30.717-13.528,5.7-30.666,4.019-45.294,7.1C83.644,100.44,41.7,125.205,44.9,163.364c1.4,16.715,12.677,35.279,18.251,50.919,6.4,17.995,10.239,40.508,27.178,51.265,29.04,18.468,64.07,3.372,90.23-11.519,14.079-8.006,21.828-12.927,36.988-10.181,14.034,2.56,26.672,11.519,40.386.89,10.3-7.98,11.148-24.151,19.793-33.648,9.74-10.7,19.614-11.474,24.676-27.555,6.137-19.511-2.905-31.7-9.017-49.134S285.421,98.77,277.921,81.69Z" transform="translate(-44.73 -43.816)" fill="#fc4f22"/>
      <g id="Grupo_74" data-name="Grupo 74" opacity="0.7">
        <path id="Caminho_2298" data-name="Caminho 2298" d="M277.921,81.69c-15.922-36.3-54.138-49.972-84.292-25.6-11.775,9.509-19.121,24.644-33.539,30.717-13.528,5.7-30.666,4.019-45.294,7.1C83.644,100.44,41.7,125.205,44.9,163.364c1.4,16.715,12.677,35.279,18.251,50.919,6.4,17.995,10.239,40.508,27.178,51.265,29.04,18.468,64.07,3.372,90.23-11.519,14.079-8.006,21.828-12.927,36.988-10.181,14.034,2.56,26.672,11.519,40.386.89,10.3-7.98,11.148-24.151,19.793-33.648,9.74-10.7,19.614-11.474,24.676-27.555,6.137-19.511-2.905-31.7-9.017-49.134S285.421,98.77,277.921,81.69Z" transform="translate(-44.73 -43.816)" fill="#fff"/>
      </g>
    </g>
    <g id="freepik--Shadow--inject-1--inject-252" transform="translate(57.849 283.537)">
      <ellipse id="Elipse_88" data-name="Elipse 88" cx="98.921" cy="6.163" rx="98.921" ry="6.163" transform="translate(0)" fill="#fc4f22"/>
      <ellipse id="Elipse_89" data-name="Elipse 89" cx="98.921" cy="6.163" rx="98.921" ry="6.163" transform="translate(0)" fill="#fff" opacity="0.8"/>
    </g>
    <g id="freepik--Device--inject-1--inject-252" transform="translate(119.205 55.363)">
      <rect id="Retângulo_183" data-name="Retângulo 183" width="124.332" height="234.855" rx="19.43" fill="#263238"/>
      <rect id="Retângulo_184" data-name="Retângulo 184" width="113.281" height="183.276" transform="translate(5.523 25.789)" fill="#fff" stroke="#263238" stroke-miterlimit="10" stroke-width="1.337"/>
      <circle id="Elipse_90" data-name="Elipse 90" cx="24.554" cy="24.554" r="24.554" transform="translate(27.442 82.641) rotate(-45)" fill="#fc4f22"/>
      <path id="Caminho_2299" data-name="Caminho 2299" d="M271.734,369.308H207.267a1.1,1.1,0,0,1-1.107-1.1h0a1.1,1.1,0,0,1,1.107-1.107h64.467a1.1,1.1,0,0,1,1.1,1.107h0A1.1,1.1,0,0,1,271.734,369.308Z" transform="translate(-177.331 -171.767)" fill="#fc4f22"/>
      <rect id="Retângulo_185" data-name="Retângulo 185" width="73.803" height="13.227" rx="4.01" transform="translate(25.265 120.998)" fill="#fc4f22"/>
      <rect id="Retângulo_186" data-name="Retângulo 186" width="73.803" height="13.227" rx="4.01" transform="translate(25.265 145.738)" fill="#fc4f22"/>
      <path id="Caminho_2300" data-name="Caminho 2300" d="M262.039,192.66l-7.225-4.16v-3.436a11.3,11.3,0,0,0,2.221-4.332,2.329,2.329,0,0,0,.774.134c.9,0,1.465-2.777,1.561-4.761a2.949,2.949,0,0,0-.378-3.5s.589-.589.979-2.95-1.376-1.376-2.752-3.539-2.361-4.518-6.879-4.518a6.207,6.207,0,0,0-5.9,3.737,14.948,14.948,0,0,0-3.34.39c-1.382.39-1.773,4.915-.6,6.687a6.739,6.739,0,0,1,.819,3.155c-.314-.384-.64-.486-.819.384-.39,1.965,1.184,4.716,1.184,4.716l.813-.23a11.519,11.519,0,0,0,2.31,4.627V188.5l-7.225,4.16a5.555,5.555,0,0,0-2.777,4.806v2.381a24.541,24.541,0,0,0,30.006,0v-2.381A5.542,5.542,0,0,0,262.039,192.66Z" transform="translate(-187.647 -97.771)" fill="#263238"/>
      <path id="Caminho_2301" data-name="Caminho 2301" d="M213.928,301.378a.64.64,0,0,1-.442-.186.6.6,0,0,1-.2-.448.64.64,0,0,1,.1-.326l1.152-1.843-2.246.07a.6.6,0,0,1-.461-.173.64.64,0,0,1,0-.851.582.582,0,0,1,.461-.179l2.214.083-1.139-1.837a.64.64,0,0,1-.1-.333.6.6,0,0,1,.2-.448.64.64,0,0,1,.442-.186.576.576,0,0,1,.518.333l1.094,1.977,1.081-1.965a.64.64,0,0,1,.557-.358.582.582,0,0,1,.429.192.652.652,0,0,1,.1.768l-1.158,1.856,2.246-.083a.582.582,0,0,1,.461.179.6.6,0,0,1,.166.422.64.64,0,0,1-.166.429.6.6,0,0,1-.461.173l-2.259-.07,1.126,1.824a.642.642,0,0,1-.544.979.563.563,0,0,1-.512-.346l-1.069-1.92-1.062,1.92A.6.6,0,0,1,213.928,301.378Z" transform="translate(-179.314 -145.702)" fill="#263238"/>
      <path id="Caminho_2302" data-name="Caminho 2302" d="M230.143,301.378a.64.64,0,0,1-.442-.186.6.6,0,0,1-.2-.448.64.64,0,0,1,.1-.326l1.152-1.843-2.24.07a.64.64,0,0,1-.467-.173.608.608,0,0,1,.467-1.03l2.208.083-1.139-1.837a.64.64,0,0,1-.1-.333.6.6,0,0,1,.2-.448.64.64,0,0,1,.442-.186.576.576,0,0,1,.518.333l1.094,1.977,1.081-1.965a.64.64,0,0,1,.557-.358.569.569,0,0,1,.429.192.626.626,0,0,1,.1.768l-1.158,1.856,2.253-.07a.569.569,0,0,1,.454.179.6.6,0,0,1,.166.422.64.64,0,0,1-.166.429.589.589,0,0,1-.454.173l-2.265-.07,1.126,1.824a.642.642,0,0,1-.544.979.563.563,0,0,1-.512-.346l-1.069-1.92-1.062,1.92A.6.6,0,0,1,230.143,301.378Z" transform="translate(-185.149 -145.702)" fill="#263238"/>
      <path id="Caminho_2303" data-name="Caminho 2303" d="M246.373,301.378a.64.64,0,0,1-.448-.186.6.6,0,0,1-.2-.448.64.64,0,0,1,.1-.326l1.152-1.843-2.24.07a.6.6,0,1,1,0-1.2l2.208.083-1.139-1.837a.642.642,0,0,1,.55-.966.576.576,0,0,1,.512.333l1.094,1.977,1.081-1.965a.64.64,0,0,1,.557-.358.569.569,0,0,1,.429.192.626.626,0,0,1,.1.768l-1.158,1.856,2.253-.083a.582.582,0,0,1,.64.6.64.64,0,0,1-.16.429.6.6,0,0,1-.461.173l-2.259-.07,1.12,1.824a.622.622,0,0,1-.1.787.6.6,0,0,1-.435.192.557.557,0,0,1-.506-.346l-1.075-1.92-1.062,1.92A.6.6,0,0,1,246.373,301.378Z" transform="translate(-190.993 -145.702)" fill="#263238"/>
      <path id="Caminho_2304" data-name="Caminho 2304" d="M262.594,301.378a.645.645,0,0,1-.64-.634.6.6,0,0,1,.09-.326l1.152-1.843-2.24.07a.6.6,0,1,1,0-1.2l2.214.083-1.133-1.837a.642.642,0,0,1,.55-.966.576.576,0,0,1,.518.333l1.088,1.977,1.081-1.965a.64.64,0,0,1,.557-.358.569.569,0,0,1,.429.192.626.626,0,0,1,.1.768l-1.158,1.856,2.253-.083a.582.582,0,0,1,.64.6.64.64,0,0,1-.16.429.6.6,0,0,1-.461.173l-2.259-.07,1.12,1.824a.639.639,0,0,1,.1.339.6.6,0,0,1-.2.448.6.6,0,0,1-.435.192.557.557,0,0,1-.506-.346l-1.075-1.92-1.062,1.92a.6.6,0,0,1-.557.346Z" transform="translate(-196.835 -145.702)" fill="#263238"/>
      <path id="Caminho_2305" data-name="Caminho 2305" d="M278.814,301.378a.634.634,0,0,1-.544-.96l1.145-1.843-2.24.07a.6.6,0,1,1,0-1.2l2.214.083-1.139-1.837a.637.637,0,0,1,.544-.966.576.576,0,0,1,.518.333l1.088,1.977,1.082-1.965a.64.64,0,0,1,.557-.358.582.582,0,0,1,.435.192.636.636,0,0,1,.09.768l-1.158,1.856,2.253-.083a.582.582,0,0,1,.64.6.64.64,0,0,1-.16.429.6.6,0,0,1-.461.173l-2.259-.07,1.12,1.824a.64.64,0,0,1,.1.339.6.6,0,0,1-.2.448.6.6,0,0,1-.435.192.557.557,0,0,1-.506-.346l-1.075-1.92-1.062,1.92a.6.6,0,0,1-.544.346Z" transform="translate(-202.675 -145.702)" fill="#263238"/>
      <path id="Caminho_2306" data-name="Caminho 2306" d="M295.028,301.378a.64.64,0,0,1-.442-.186.6.6,0,0,1-.2-.448.64.64,0,0,1,.1-.326l1.146-1.843-2.24.07a.6.6,0,0,1-.467-1.024.582.582,0,0,1,.461-.179l2.214.083-1.139-1.837a.637.637,0,0,1,.544-.966.576.576,0,0,1,.518.333l1.088,1.977,1.088-1.965a.64.64,0,0,1,.55-.358.582.582,0,0,1,.435.192.652.652,0,0,1,.1.768l-1.158,1.856,2.246-.083a.582.582,0,0,1,.461.179.6.6,0,0,1,.166.422.64.64,0,0,1-.166.429.6.6,0,0,1-.461.173l-2.259-.07,1.12,1.824a.648.648,0,0,1-.538.979.557.557,0,0,1-.506-.346l-1.075-1.92-1.062,1.92A.6.6,0,0,1,295.028,301.378Z" transform="translate(-208.509 -145.702)" fill="#263238"/>
      <rect id="Retângulo_187" data-name="Retângulo 187" width="113.281" height="7.097" transform="translate(5.523 26.032)" fill="#fc4f22"/>
      <path id="Caminho_2307" data-name="Caminho 2307" d="M262.694,80.223H238.057a1.677,1.677,0,0,1-1.677-1.677h0a1.677,1.677,0,0,1,1.677-1.677h24.637a1.677,1.677,0,0,1,1.677,1.677h0A1.677,1.677,0,0,1,262.694,80.223Z" transform="translate(-188.212 -67.265)" fill="#fc4f22" stroke="#263238" stroke-linecap="round" stroke-linejoin="round" stroke-width="1.337"/>
      <path id="Caminho_2308" data-name="Caminho 2308" d="M261.189,400.956a6.719,6.719,0,1,0-6.713,6.713A6.719,6.719,0,0,0,261.189,400.956Z" transform="translate(-192.306 -181.536)" fill="#fc4f22"/>
      <rect id="Retângulo_188" data-name="Retângulo 188" width="6.809" height="6.809" transform="translate(58.765 216.015)" fill="#fc4f22" stroke="#263238" stroke-linecap="round" stroke-linejoin="round" stroke-width="1.337"/>
    </g>
    <g id="freepik--Plant--inject-1--inject-252" transform="translate(233.36 167.566)">
      <path id="Caminho_2309" data-name="Caminho 2309" d="M368.616,267.147s-8.921-22.666-.979-25.36c8.268-2.809,7.9,12.159,7.583,19.454-.672,15.589-2.393,18.488-3.68,14.68Zm-2.681,17.681c2.451,3.2,3.142-.115-1.28-15.083-2.073-7.039-6.578-21.278-13.49-15.934-6.636,5.119,9.157,23.677,9.157,23.677ZM361.2,297.819c2.336,2.073,2.381-.544-3.168-11.352-2.6-5.062-8.114-15.307-12.626-10.239C341.073,281.117,355.836,293,355.836,293Zm-5.119,15.448c2.336,2.08,2.381-.544-3.168-11.346-2.6-5.062-8.114-15.314-12.626-10.239-4.307,4.9,10.412,16.785,10.412,16.785Zm14.782-31.446c-3.737,1.459-.768,3.046,14.84,3,7.321,0,22.27-.333,19.083-8.466-3.053-7.814-25.284,2.137-25.284,2.137Zm-4.256,10.392c-3.955.685-1.357,2.835,13.951,5.894,7.174,1.44,21.886,4.1,20.382-4.479-1.44-8.268-25.207-2.931-25.207-2.931Zm-4.761,12.69c-3.366.486-1.216,2.361,11.653,5.305,6.035,1.382,18.417,3.974,17.342-3.34-1.024-7.039-21.246-3.059-21.246-3.059Zm-3.616,11.756c-3.3.838-.96,2.477,12.159,4.038,6.143.73,18.731,2,16.894-5.164-1.773-6.873-21.457-.787-21.457-.787Zm19.288-47.592c-1.92,4.3,2.067,3.648,15.621-8.178,6.348-5.548,19.083-17.157,9-22.935-9.682-5.555-20.094,21.246-20.094,21.246Zm-18.788,62.905c-2.029,1.184-.038,1.645,9.266-.211,4.364-.864,13.24-2.784,10.239-6.572-2.905-3.648-14.808,4.032-14.808,4.032Z" transform="translate(-339.496 -237.196)" fill="#fc4f22"/>
      <path id="Caminho_2310" data-name="Caminho 2310" d="M368.616,267.147s-8.921-22.666-.979-25.36c8.268-2.809,7.9,12.159,7.583,19.454-.672,15.589-2.393,18.488-3.68,14.68Zm-2.681,17.681c2.451,3.2,3.142-.115-1.28-15.083-2.073-7.039-6.578-21.278-13.49-15.934-6.636,5.119,9.157,23.677,9.157,23.677ZM361.2,297.819c2.336,2.073,2.381-.544-3.168-11.352-2.6-5.062-8.114-15.307-12.626-10.239C341.073,281.117,355.836,293,355.836,293Zm-5.119,15.448c2.336,2.08,2.381-.544-3.168-11.346-2.6-5.062-8.114-15.314-12.626-10.239-4.307,4.9,10.412,16.785,10.412,16.785Zm14.782-31.446c-3.737,1.459-.768,3.046,14.84,3,7.321,0,22.27-.333,19.083-8.466-3.053-7.814-25.284,2.137-25.284,2.137Zm-4.256,10.392c-3.955.685-1.357,2.835,13.951,5.894,7.174,1.44,21.886,4.1,20.382-4.479-1.44-8.268-25.207-2.931-25.207-2.931Zm-4.761,12.69c-3.366.486-1.216,2.361,11.653,5.305,6.035,1.382,18.417,3.974,17.342-3.34-1.024-7.039-21.246-3.059-21.246-3.059Zm-3.616,11.756c-3.3.838-.96,2.477,12.159,4.038,6.143.73,18.731,2,16.894-5.164-1.773-6.873-21.457-.787-21.457-.787Zm19.288-47.592c-1.92,4.3,2.067,3.648,15.621-8.178,6.348-5.548,19.083-17.157,9-22.935-9.682-5.555-20.094,21.246-20.094,21.246Zm-18.788,62.905c-2.029,1.184-.038,1.645,9.266-.211,4.364-.864,13.24-2.784,10.239-6.572-2.905-3.648-14.808,4.032-14.808,4.032Z" transform="translate(-339.496 -237.196)" fill="#fff" opacity="0.3"/>
      <path id="Caminho_2311" data-name="Caminho 2311" d="M378.094,283.224l-1.555-25.872m-3.366,34.409-9.829-22.25m35.2,15.781-23.556,3.379m-6.9,15.083L355.325,287.39m14.994,11.346,17.573.883m-21.732,11.666,13.439,1.331m-16.683,6.642-6.674-10.04m5.907,13.586,15.8.147m-19,29.494a.4.4,0,0,0,.371-.429c-1-15.09,4.831-39.8,14.194-60.09,5.983-12.965,29.437-38.447,29.686-38.7a.4.4,0,0,0,0-.57.4.4,0,0,0-.563,0c-.237.256-23.786,25.834-29.821,38.914-9.535,20.779-15.294,45.045-14.27,60.5a.41.41,0,0,0,.4.378Zm19.14-68.825a.4.4,0,0,0,.378-.422l-1.529-25.885a.4.4,0,0,0-.422-.378.4.4,0,0,0-.378.422l1.555,25.872a.4.4,0,0,0,.4.378Zm-4.774,8.5a.4.4,0,0,0,.2-.525l-9.836-22.25a.4.4,0,1,0-.729.32l9.829,22.25a.4.4,0,0,0,.365.243.4.4,0,0,0,.192-.038Zm1.7-3.072,23.543-3.366a.4.4,0,1,0-.109-.794l-23.543,3.366a.4.4,0,0,0,.051.793ZM368.3,304.073a.4.4,0,0,0,.07-.563l-12.76-16.4a.4.4,0,0,0-.64.493l12.786,16.421a.4.4,0,0,0,.314.154.4.4,0,0,0,.256-.109Zm19.94-4.435a.4.4,0,0,0-.384-.416l-17.541-.89a.4.4,0,0,0-.038.8l17.573.89h0a.4.4,0,0,0,.416-.384Zm-8.274,13.016a.4.4,0,0,0-.358-.442l-13.439-1.325a.4.4,0,0,0-.435.358.4.4,0,0,0,.358.435l13.439,1.331h.038a.4.4,0,0,0,.422-.358Zm-16.862,6.937a.4.4,0,0,0,.115-.557l-6.643-10.041a.41.41,0,0,0-.557-.109.4.4,0,0,0-.115.557l6.642,10.041a.416.416,0,0,0,.339.179.384.384,0,0,0,.243-.07Zm15.243,3.36a.41.41,0,0,0-.4-.4l-15.8-.147h0a.4.4,0,0,0-.4.4.39.39,0,0,0,.4.4l15.8.147h0a.4.4,0,0,0,.422-.4Zm-21.2,23.626a15.618,15.618,0,0,1,10.828-9.266.4.4,0,0,0,.307-.48.41.41,0,0,0-.48-.3c-8.543,1.869-11.378,9.708-11.41,9.785a.41.41,0,0,0,.25.512h.128a.4.4,0,0,0,.4-.25Zm1.8,5.868a.4.4,0,0,0,.371-.429c-1-15.09,4.831-39.8,14.194-60.09,5.983-12.965,29.437-38.447,29.686-38.7a.4.4,0,0,0,0-.57.4.4,0,0,0-.563,0c-.237.256-23.786,25.834-29.821,38.914-9.535,20.779-15.294,45.045-14.27,60.5a.41.41,0,0,0,.4.378Zm19.14-68.825a.4.4,0,0,0,.378-.422l-1.529-25.885a.4.4,0,0,0-.422-.378.4.4,0,0,0-.378.422l1.555,25.872a.4.4,0,0,0,.4.378Zm-4.774,8.5a.4.4,0,0,0,.2-.525l-9.836-22.25a.4.4,0,1,0-.73.32l9.829,22.25a.4.4,0,0,0,.365.243.4.4,0,0,0,.192-.038Zm1.7-3.072,23.543-3.366a.4.4,0,1,0-.109-.794l-23.543,3.366a.4.4,0,1,0,.051.793ZM368.3,304.073a.4.4,0,0,0,.07-.563l-12.76-16.4a.4.4,0,0,0-.64.493l12.786,16.421a.4.4,0,0,0,.314.154.4.4,0,0,0,.256-.109Zm19.94-4.435a.4.4,0,0,0-.384-.416l-17.541-.89a.4.4,0,0,0-.038.8l17.573.89h0a.4.4,0,0,0,.416-.384Zm-8.274,13.016a.4.4,0,0,0-.358-.442l-13.439-1.325a.4.4,0,0,0-.435.358.4.4,0,0,0,.358.435l13.439,1.331h.038a.4.4,0,0,0,.422-.358Zm-16.862,6.937a.4.4,0,0,0,.115-.557l-6.643-10.041a.41.41,0,0,0-.557-.109.4.4,0,0,0-.115.557l6.642,10.041a.416.416,0,0,0,.339.179.384.384,0,0,0,.243-.07Zm15.243,3.36a.41.41,0,0,0-.4-.4l-15.8-.147h0a.4.4,0,0,0-.4.4.39.39,0,0,0,.4.4l15.8.147h0a.4.4,0,0,0,.422-.4Zm-21.2,23.626a15.618,15.618,0,0,1,10.828-9.266.4.4,0,0,0,.307-.48.41.41,0,0,0-.48-.3c-8.543,1.869-11.378,9.708-11.41,9.785a.41.41,0,0,0,.25.512h.128a.4.4,0,0,0,.4-.25Z" transform="translate(-345.039 -242.72)" fill="#fc4f22"/>
      <path id="Caminho_2312" data-name="Caminho 2312" d="M378.094,283.224l-1.555-25.872m-3.366,34.409-9.829-22.25m35.2,15.781-23.556,3.379m-6.9,15.083L355.325,287.39m14.994,11.346,17.573.883m-21.732,11.666,13.439,1.331m-16.683,6.642-6.674-10.04m5.907,13.586,15.8.147m-19,29.494a.4.4,0,0,0,.371-.429c-1-15.09,4.831-39.8,14.194-60.09,5.983-12.965,29.437-38.447,29.686-38.7a.4.4,0,0,0,0-.57.4.4,0,0,0-.563,0c-.237.256-23.786,25.834-29.821,38.914-9.535,20.779-15.294,45.045-14.27,60.5a.41.41,0,0,0,.4.378Zm19.14-68.825a.4.4,0,0,0,.378-.422l-1.529-25.885a.4.4,0,0,0-.422-.378.4.4,0,0,0-.378.422l1.555,25.872a.4.4,0,0,0,.4.378Zm-4.774,8.5a.4.4,0,0,0,.2-.525l-9.836-22.25a.4.4,0,1,0-.729.32l9.829,22.25a.4.4,0,0,0,.365.243.4.4,0,0,0,.192-.038Zm1.7-3.072,23.543-3.366a.4.4,0,1,0-.109-.794l-23.543,3.366a.4.4,0,0,0,.051.793ZM368.3,304.073a.4.4,0,0,0,.07-.563l-12.76-16.4a.4.4,0,0,0-.64.493l12.786,16.421a.4.4,0,0,0,.314.154.4.4,0,0,0,.256-.109Zm19.94-4.435a.4.4,0,0,0-.384-.416l-17.541-.89a.4.4,0,0,0-.038.8l17.573.89h0a.4.4,0,0,0,.416-.384Zm-8.274,13.016a.4.4,0,0,0-.358-.442l-13.439-1.325a.4.4,0,0,0-.435.358.4.4,0,0,0,.358.435l13.439,1.331h.038a.4.4,0,0,0,.422-.358Zm-16.862,6.937a.4.4,0,0,0,.115-.557l-6.643-10.041a.41.41,0,0,0-.557-.109.4.4,0,0,0-.115.557l6.642,10.041a.416.416,0,0,0,.339.179.384.384,0,0,0,.243-.07Zm15.243,3.36a.41.41,0,0,0-.4-.4l-15.8-.147h0a.4.4,0,0,0-.4.4.39.39,0,0,0,.4.4l15.8.147h0a.4.4,0,0,0,.422-.4Zm-21.2,23.626a15.618,15.618,0,0,1,10.828-9.266.4.4,0,0,0,.307-.48.41.41,0,0,0-.48-.3c-8.543,1.869-11.378,9.708-11.41,9.785a.41.41,0,0,0,.25.512h.128a.4.4,0,0,0,.4-.25Zm1.8,5.868a.4.4,0,0,0,.371-.429c-1-15.09,4.831-39.8,14.194-60.09,5.983-12.965,29.437-38.447,29.686-38.7a.4.4,0,0,0,0-.57.4.4,0,0,0-.563,0c-.237.256-23.786,25.834-29.821,38.914-9.535,20.779-15.294,45.045-14.27,60.5a.41.41,0,0,0,.4.378Zm19.14-68.825a.4.4,0,0,0,.378-.422l-1.529-25.885a.4.4,0,0,0-.422-.378.4.4,0,0,0-.378.422l1.555,25.872a.4.4,0,0,0,.4.378Zm-4.774,8.5a.4.4,0,0,0,.2-.525l-9.836-22.25a.4.4,0,1,0-.73.32l9.829,22.25a.4.4,0,0,0,.365.243.4.4,0,0,0,.192-.038Zm1.7-3.072,23.543-3.366a.4.4,0,1,0-.109-.794l-23.543,3.366a.4.4,0,1,0,.051.793ZM368.3,304.073a.4.4,0,0,0,.07-.563l-12.76-16.4a.4.4,0,0,0-.64.493l12.786,16.421a.4.4,0,0,0,.314.154.4.4,0,0,0,.256-.109Zm19.94-4.435a.4.4,0,0,0-.384-.416l-17.541-.89a.4.4,0,0,0-.038.8l17.573.89h0a.4.4,0,0,0,.416-.384Zm-8.274,13.016a.4.4,0,0,0-.358-.442l-13.439-1.325a.4.4,0,0,0-.435.358.4.4,0,0,0,.358.435l13.439,1.331h.038a.4.4,0,0,0,.422-.358Zm-16.862,6.937a.4.4,0,0,0,.115-.557l-6.643-10.041a.41.41,0,0,0-.557-.109.4.4,0,0,0-.115.557l6.642,10.041a.416.416,0,0,0,.339.179.384.384,0,0,0,.243-.07Zm15.243,3.36a.41.41,0,0,0-.4-.4l-15.8-.147h0a.4.4,0,0,0-.4.4.39.39,0,0,0,.4.4l15.8.147h0a.4.4,0,0,0,.422-.4Zm-21.2,23.626a15.618,15.618,0,0,1,10.828-9.266.4.4,0,0,0,.307-.48.41.41,0,0,0-.48-.3c-8.543,1.869-11.378,9.708-11.41,9.785a.41.41,0,0,0,.25.512h.128a.4.4,0,0,0,.4-.25Z" transform="translate(-345.039 -242.72)" opacity="0.2"/>
      <path id="Caminho_2313" data-name="Caminho 2313" d="M367.366,391.03H349.25v3.75h1.581l3.27,20.459h8.415l3.27-20.459h1.581Z" transform="translate(-343.008 -292.587)" fill="#fc4f22"/>
      <path id="Caminho_2314" data-name="Caminho 2314" d="M367.366,391.03H349.25v3.75h1.581l3.27,20.459h8.415l3.27-20.459h1.581Z" transform="translate(-343.008 -292.587)" fill="#fff" opacity="0.3"/>
    </g>
    <g id="freepik--Character--inject-1--inject-252" transform="translate(54.7 88.748)">
      <path id="Caminho_2315" data-name="Caminho 2315" d="M102.988,206.269l-21.073-6.879-1.875-4.953-4.281-.134L67.99,192.83l.934,1.606,9.778,7.1,2.413,1.2,22.039,11.512Z" transform="translate(-63.076 -142.403)" fill="#fff" stroke="#263238" stroke-miterlimit="10" stroke-width="1.004"/>
      <path id="Caminho_2316" data-name="Caminho 2316" d="M83.432,194.663l-2.009-1.2-4.012,1.472.666.8Z" transform="translate(-66.467 -142.63)" fill="#fff" stroke="#263238" stroke-linejoin="round" stroke-width="1.004"/>
      <path id="Caminho_2317" data-name="Caminho 2317" d="M102.988,206.269l-21.073-6.879-1.875-4.953-4.281-.134L67.99,192.83l.934,1.606,9.778,7.1,2.413,1.2,22.039,11.512Z" transform="translate(-63.076 -142.403)" fill="#fff"/>
      <g id="Grupo_75" data-name="Grupo 75" transform="translate(4.914 50.427)" clip-path="url(#clip-path)">
        <path id="Caminho_2318" data-name="Caminho 2318" d="M102.988,206.269l-21.073-6.879-1.875-4.953-4.281-.134L67.99,192.83l.934,1.606,9.778,7.1,2.413,1.2,22.039,11.512Z" transform="translate(-67.99 -192.83)" fill="#fc4f22" stroke="#263238" stroke-miterlimit="10" stroke-width="1.004" opacity="0.5"/>
      </g>
      <path id="Caminho_2320" data-name="Caminho 2320" d="M102.988,206.269l-21.073-6.879-1.875-4.953-4.281-.134L67.99,192.83l.934,1.606,9.778,7.1,2.413,1.2,22.039,11.512Z" transform="translate(-63.076 -142.403)" fill="none" stroke="#263238" stroke-miterlimit="10" stroke-width="1.004"/>
      <path id="Caminho_2321" data-name="Caminho 2321" d="M83.432,194.663l-2.009-1.2-4.012,1.472.666.8Z" transform="translate(-66.467 -142.63)" fill="#fff"/>
      <g id="Grupo_76" data-name="Grupo 76" transform="translate(10.943 50.83)" clip-path="url(#clip-path-2)">
        <path id="Caminho_2322" data-name="Caminho 2322" d="M83.432,194.663l-2.009-1.2-4.012,1.472.666.8Z" transform="translate(-77.41 -193.46)" fill="#fc4f22" stroke="#263238" stroke-linejoin="round" stroke-width="1.004" opacity="0.5"/>
      </g>
      <path id="Caminho_2324" data-name="Caminho 2324" d="M83.432,194.663l-2.009-1.2-4.012,1.472.666.8Z" transform="translate(-66.467 -142.63)" fill="none" stroke="#263238" stroke-linejoin="round" stroke-width="1.004"/>
      <path id="Caminho_2325" data-name="Caminho 2325" d="M125.46,143.227a11.186,11.186,0,0,0,.486,4.729c.813,1.849,5.324,8.114,5.324,8.114l-8.422,6.751s-3.494-7.039-4.16-8.178a11.6,11.6,0,0,1,.7-9.554C121.563,141.576,124.686,140.629,125.46,143.227Z" transform="translate(-81.075 -124.01)" fill="#fff"/>
      <g id="Grupo_77" data-name="Grupo 77" transform="translate(36.904 17.737)" clip-path="url(#clip-path-3)">
        <path id="Caminho_2326" data-name="Caminho 2326" d="M121.8,158.52l3.654,7.577-1.945,2.771-3.673-6.559Z" transform="translate(-118.649 -147.786)" fill="#fc4f22" opacity="0.5"/>
      </g>
      <path id="Caminho_2328" data-name="Caminho 2328" d="M125.46,143.227a11.186,11.186,0,0,0,.486,4.729c.813,1.849,5.324,8.114,5.324,8.114l-8.422,6.751s-3.494-7.039-4.16-8.178a11.6,11.6,0,0,1,.7-9.554C121.563,141.576,124.686,140.629,125.46,143.227Z" transform="translate(-81.075 -124.01)" fill="none" stroke="#263238" stroke-miterlimit="10" stroke-width="1.004"/>
      <path id="Caminho_2329" data-name="Caminho 2329" d="M120.061,130.494c-.518-3.2-4.185-9.708-10-9.458a14.146,14.146,0,0,0-7.18,1.856,21.117,21.117,0,0,0-3.712,2.777c-2.841,3.411-3.84,4.345-3.289,6.956a7.833,7.833,0,0,0,.48,3.059,24.385,24.385,0,0,0,2.221,4.947c-.23,1.081-.832,3.936-.864,4.588s1.92.2,2.905-.051c1.83,4.1,5.183,6.937,6.227,7.263,1.817.57,4.691-2.419,6.214-4.735s.371-4.921.378-5.958,3.424-3.315,4.691-4.038S120.573,133.688,120.061,130.494Z" transform="translate(-73.065 -116.55)" fill="#fff"/>
      <g id="Grupo_78" data-name="Grupo 78" transform="translate(22.668 4.479)" clip-path="url(#clip-path-4)">
        <path id="Caminho_2330" data-name="Caminho 2330" d="M95.916,134.322a7.833,7.833,0,0,0,.48,3.059,24.385,24.385,0,0,0,2.221,4.947c-.23,1.081-.832,3.936-.864,4.588s1.92.2,2.905-.051c1.83,4.1,5.183,6.937,6.227,7.263,1.817.57,4.691-2.419,6.214-4.735a4.665,4.665,0,0,0,.723-1.92c-.083-.3-.141-.486-.141-.486s-.858,3.3-2.56,2.867-4.307-3.84-5.759-5.017-.858-2.726-1.145-4.48-4.588-3.3-4.876-4.3.717-5.164.717-5.164,1.632-2.176,1.28-1.28a6.092,6.092,0,0,0,.429,4.729,3.264,3.264,0,0,0,3.014,1.862l1.561-7.737-3.3-2.726-3.84,1.6C96.338,130.776,95.359,131.711,95.916,134.322Z" transform="translate(-95.745 -122.725)" fill="#fc4f22" opacity="0.5"/>
      </g>
      <path id="Caminho_2332" data-name="Caminho 2332" d="M120.061,130.494c-.518-3.2-4.185-9.708-10-9.458a14.146,14.146,0,0,0-7.18,1.856,21.117,21.117,0,0,0-3.712,2.777c-2.841,3.411-3.84,4.345-3.289,6.956a7.833,7.833,0,0,0,.48,3.059,24.385,24.385,0,0,0,2.221,4.947c-.23,1.081-.832,3.936-.864,4.588s1.92.2,2.905-.051c1.83,4.1,5.183,6.937,6.227,7.263,1.817.57,4.691-2.419,6.214-4.735s.371-4.921.378-5.958,3.424-3.315,4.691-4.038S120.573,133.688,120.061,130.494Z" transform="translate(-73.065 -116.55)" fill="none" stroke="#263238" stroke-miterlimit="10" stroke-width="1"/>
      <path id="Caminho_2333" data-name="Caminho 2333" d="M101.42,148.64l.64,1.83s1.376.454,3.052-1.376" transform="translate(-75.113 -126.492)" fill="none" stroke="#263238" stroke-linecap="round" stroke-miterlimit="10" stroke-width="1"/>
      <path id="Caminho_2334" data-name="Caminho 2334" d="M108.81,160.711s1.523-.154,2.137-2.291" transform="translate(-77.774 -130.013)" fill="none" stroke="#263238" stroke-linecap="round" stroke-miterlimit="10" stroke-width="1"/>
      <path id="Caminho_2335" data-name="Caminho 2335" d="M99.75,145.476s.454-1.376,3.2-1.376" transform="translate(-74.511 -124.857)" fill="none" stroke="#263238" stroke-linecap="round" stroke-miterlimit="10" stroke-width="1"/>
      <path id="Caminho_2336" data-name="Caminho 2336" d="M109.4,115.969a45.477,45.477,0,0,0-6.022-.461s-6.028-3.475-11.82.23-3.008,10.194-3.008,11.813-1.856,1.625-.7,3.712,5.075.934,5.075.934a5.567,5.567,0,0,1,2.093-4.064c2.086-1.619,3.75-1.971,4.441-1.5,0,0-.461,3.475.23,4.863a13.621,13.621,0,0,0,3.014,1.158c.7,0-.454.979,1.856,1.849a2.892,2.892,0,0,0,2.56-.3c.339-1.408,1.081-3.526,2.464-3.033,2.029.723,3.878,5.715,1.133,7.417,3.3.6,7.3-5.241,7.538-10.565S112.832,116.57,109.4,115.969Z" transform="translate(-70.092 -114.03)" fill="#263238"/>
      <path id="Caminho_2337" data-name="Caminho 2337" d="M106.37,130.03s1.7-.915,3.788,1.043a12.039,12.039,0,0,0,11.519,3.136" transform="translate(-76.895 -119.714)" fill="none" stroke="#fff" stroke-linecap="round" stroke-linejoin="round" stroke-width="0.5"/>
      <path id="Caminho_2338" data-name="Caminho 2338" d="M106,126.67a4.124,4.124,0,0,1,3.129-1.83c1.958,0,6.534,2.745,10.188,2.745" transform="translate(-76.762 -117.922)" fill="none" stroke="#fff" stroke-linecap="round" stroke-linejoin="round" stroke-width="0.5"/>
      <path id="Caminho_2339" data-name="Caminho 2339" d="M100.835,132.43s-2.221-2.739-4.307-.518a3.556,3.556,0,0,0-.762,4.32" transform="translate(-72.928 -120.156)" fill="none" stroke="#fff" stroke-linecap="round" stroke-linejoin="round" stroke-width="0.5"/>
      <path id="Caminho_2340" data-name="Caminho 2340" d="M90.05,131.355a6.783,6.783,0,0,0,2.214-4.441c.262-2.873,4.185-5.356,6.662-3" transform="translate(-71.019 -117.251)" fill="none" stroke="#fff" stroke-linecap="round" stroke-linejoin="round" stroke-width="0.5"/>
      <path id="Caminho_2341" data-name="Caminho 2341" d="M96.37,118.945s3.923-3.788,7.186,1.043" transform="translate(-73.294 -115.291)" fill="none" stroke="#fff" stroke-linecap="round" stroke-linejoin="round" stroke-width="0.5"/>
      <path id="Caminho_2342" data-name="Caminho 2342" d="M134.394,410.81s2.413,3.75,2.144,6.163l-.262,2.413s-8.85,2.425-10.725,2.425-11.8-.941-11.8-.941l-.429-1.7a.563.563,0,0,1,.307-.64l8.85-4.128,2.79-3.052Z" transform="translate(-79.392 -220.891)" fill="#fff" stroke="#263238" stroke-miterlimit="10" stroke-width="1.004"/>
      <path id="Caminho_2343" data-name="Caminho 2343" d="M126.971,423.8c2.4.186,6.956-1.28,9.6-2.214l-.186,1.677s-8.882,2.425-10.757,2.425-11.8-.941-11.8-.941l-.307-1.216C115.107,423.542,123.8,423.561,126.971,423.8Z" transform="translate(-79.469 -224.773)" fill="#fc4f22" stroke="#263238" stroke-miterlimit="10" stroke-width="1.004"/>
      <path id="Caminho_2344" data-name="Caminho 2344" d="M120.137,416.26l-12.882,5.606s-1.1,2.758,0,3.308,25.1,0,25.1,0,1.657-4.358-.96-7.282S120.137,416.26,120.137,416.26Z" transform="translate(-77.037 -222.751)" fill="#fff" stroke="#263238" stroke-miterlimit="10" stroke-width="1.004"/>
      <path id="Caminho_2345" data-name="Caminho 2345" d="M132.352,429.349s-24,.55-25.1,0c-.531-.269-.55-1.043-.429-1.779h25.949a9.76,9.76,0,0,1-.422,1.779Z" transform="translate(-77.037 -226.926)" fill="#fc4f22" stroke="#263238" stroke-miterlimit="10" stroke-width="1.004"/>
      <path id="Caminho_2346" data-name="Caminho 2346" d="M114.512,262.91s-3.366,14.917-4.64,24.247-2.022,28.023-1.753,30.166,13.669,38.063,13.669,38.063l1.337,3.2,9.381-1.875s-4.288-13.669-5.894-21.175-5.119-19.838-5.119-21.982,8.319-43.087,8.914-45.774,3.3-6.815,3.3-6.815l-17.963-.365Z" transform="translate(-77.505 -166.805)" fill="#fc4f22" stroke="#263238" stroke-miterlimit="10" stroke-width="1.004"/>
      <path id="Caminho_2347" data-name="Caminho 2347" d="M117.378,261.611s-1.971,13.624-1.158,23.1,2.56,29.635,2.56,32.637,4.844,20.926,5.119,26.557a67.974,67.974,0,0,1-.173,12.159l-.288,2.95s5.651.806,6.886,1.158a15.294,15.294,0,0,0,4.371.474,89.694,89.694,0,0,0,2.054-16.747c0-7.7-1.709-23.562-2.56-29.987s1.83-31.209,3.353-35.836,4.851-14.424,2.611-19.428S117.378,261.611,117.378,261.611Z" transform="translate(-80.371 -165.506)" fill="#fc4f22" stroke="#263238" stroke-miterlimit="10" stroke-width="1.004"/>
      <path id="Caminho_2348" data-name="Caminho 2348" d="M142.131,255.65l-.2,6.092s-3.648.723-8.562,1.574c-4.057.7-14.245-.186-17.675-.518a1.19,1.19,0,0,1-1.081-1.28l.333-5.5Z" transform="translate(-79.86 -165.023)" fill="#263238"/>
      <path id="Caminho_2349" data-name="Caminho 2349" d="M128.012,160.75s-5.759,6.227-7.929,10.1-3.027,9.8-3.84,14.475,1.389,15.64.768,20.676l-1.965,15.864s-.422,1.075.992,2.253,8.319,1.606,14.558,1.92c2.278.115,9.081-1.35,10.194-1.421,1.344-.083,1.389-1.792,1.446-3.136.269-6.316,1.408-23.153,2.157-30.486C145.936,176.038,137.5,161.6,128.012,160.75Z" transform="translate(-79.998 -130.852)" fill="#fff" stroke="#263238" stroke-miterlimit="10" stroke-width="1.004"/>
      <path id="Caminho_2350" data-name="Caminho 2350" d="M144.325,214.354c.256-3.321.512-6.335.736-8.5.064-.64.1-1.28.134-1.92l-15.3,2.56-13.144-4.48a72.818,72.818,0,0,0,.461,8.14l12.895,3.609Z" transform="translate(-80.632 -145.709)" fill="#fc4f22"/>
      <path id="Caminho_2351" data-name="Caminho 2351" d="M132.063,161.73c-.87.966-2.6,2.931-4.243,5.017l9.714,9.874,3.2-1.28Z" transform="translate(-84.618 -131.205)" fill="#fc4f22"/>
      <path id="Caminho_2352" data-name="Caminho 2352" d="M130,160.75s-5.759,6.227-7.929,10.1a19.639,19.639,0,0,0-1.555,3.7L132.1,161.166A10.878,10.878,0,0,0,130,160.75Z" transform="translate(-81.99 -130.852)" fill="#263238"/>
      <path id="Caminho_2353" data-name="Caminho 2353" d="M117.65,190.288l12.568,4.134,15.262-1.753a35.792,35.792,0,0,0-2.5-11.077l-12.306,4.934-11-4.985a57.9,57.9,0,0,0-2.022,8.748Z" transform="translate(-80.957 -138.338)" fill="#fc4f22"/>
      <path id="Caminho_2354" data-name="Caminho 2354" d="M138.49,244.315a38.914,38.914,0,0,1-19.032-1.555l-3.065-1.049-.953,7.679,3.494.979a52.685,52.685,0,0,0,20.433,1.574l2.822-.339a2.56,2.56,0,0,0,.243-.992c.077-1.709.211-4.192.384-7.039Z" transform="translate(-80.161 -160.003)" fill="#fc4f22"/>
      <path id="Caminho_2355" data-name="Caminho 2355" d="M140.937,227.809a38.767,38.767,0,0,1-19.032-1.561L118,224.91a25.213,25.213,0,0,1-.058,4.185l-.454,3.692,3.891,1.088a52.66,52.66,0,0,0,20.427,1.581l1.92-.23c.16-2.56.346-5.286.544-7.98Z" transform="translate(-80.899 -153.954)" fill="#fc4f22"/>
      <rect id="Retângulo_189" data-name="Retângulo 189" width="15.877" height="0.851" transform="matrix(-0.779, -0.627, 0.627, -0.779, 12.373, 56.741)" fill="#263238"/>
      <path id="Caminho_2356" data-name="Caminho 2356" d="M116.125,171.54s4.537,3.091,4.64,10.392a72.433,72.433,0,0,1-1.024,11.429c-.736,5.241-5.305,22.308-8.863,24.381S101.8,215.9,101.8,215.9L75.087,198.168l-6.457-5.215-3.2-6.041,1-1.92,7.878,6.041L70.07,187.11l.832-1.056,1.536,1.069,4.48,1.677.979,6.4,1.382.947,25.552,9.337s-.32-13.752-.083-16.382.563-9.241,3.379-14.034" transform="translate(-62.154 -134.737)" fill="#fff"/>
      <g id="Grupo_79" data-name="Grupo 79" transform="translate(3.276 36.803)" clip-path="url(#clip-path-5)">
        <path id="Caminho_2357" data-name="Caminho 2357" d="M104.68,202.658c0,4.748.16,10.393.16,10.393l-25.527-9.3-1.382-.947-.979-6.4-4.48-1.677-1.529-1.088-.832,1.056,4.23,3.9-7.878-6.041-.953,1.888,3.2,6.041,6.457,5.247,1.625,1.081,35.292,11.372Z" transform="translate(-65.459 -179.109)" fill="#fc4f22" opacity="0.5"/>
      </g>
      <path id="Caminho_2359" data-name="Caminho 2359" d="M116.125,171.54s4.537,3.091,4.64,10.392a72.433,72.433,0,0,1-1.024,11.429c-.736,5.241-5.305,22.308-8.863,24.381S101.8,215.9,101.8,215.9L75.087,198.168l-6.457-5.215-3.2-6.041,1-1.92,7.878,6.041L70.07,187.11l.832-1.056,1.536,1.069,4.48,1.677.979,6.4,1.382.947,25.552,9.337s-.32-13.752-.083-16.382.563-9.241,3.379-14.034" transform="translate(-62.154 -134.737)" fill="none" stroke="#263238" stroke-miterlimit="10" stroke-width="1.004"/>
      <path id="Caminho_2360" data-name="Caminho 2360" d="M125.919,204.432l9.753,7.039,2.528-4.48s1.747-1.376,2-2.413-.07-2.72.192-3.756,1.568-2.009,1.689-4.518,0-4.6,0-4.6,2.112-8.684,1.881-12.459-3.872-10.45-6.79-10.6a9.984,9.984,0,0,0-9.657,4.748c-2.944,4.454-2.342,17.457-2.8,18.27s.179,4.825.179,4.825a2.246,2.246,0,0,0-.9,1.619,13.175,13.175,0,0,0,1.075,3.609Z" transform="translate(-83.242 -133.687)" fill="#fff" stroke="#263238" stroke-miterlimit="10" stroke-width="1.004"/>
      <path id="Caminho_2361" data-name="Caminho 2361" d="M125.286,199.41a18.058,18.058,0,0,1-.25,3.334c-.41.73.058,4.025.16,4.7a37.987,37.987,0,0,0,16.965,1.28,6.33,6.33,0,0,0,.218-1.363,46,46,0,0,0,0-4.6s.186-.774.442-1.952A61.766,61.766,0,0,1,125.286,199.41Z" transform="translate(-83.557 -144.773)" fill="#fc4f22"/>
      <path id="Caminho_2362" data-name="Caminho 2362" d="M127.911,177.19a23.359,23.359,0,0,0-1.721,7.391,38.121,38.121,0,0,0,18.244,2.221,24.407,24.407,0,0,0,.326-4.48,12.466,12.466,0,0,0-.832-3.456,63.265,63.265,0,0,1-16.017-1.677Z" transform="translate(-84.032 -136.772)" fill="#fc4f22"/>
      <path id="Caminho_2363" data-name="Caminho 2363" d="M125.68,220.45l.826,2.643,9.753,7.039,2.528-4.479s1.747-1.376,2-2.413a2.839,2.839,0,0,0,.083-.55A59.634,59.634,0,0,1,125.68,220.45Z" transform="translate(-83.848 -152.348)" fill="#263238"/>
      <path id="Caminho_2364" data-name="Caminho 2364" d="M134.256,364.533s.218-5.542,1.28-13.643-1.491-19.608-1.92-21.527.218-6.182-.211-7.679a34.284,34.284,0,0,1-1.28-15.294c1.222-7.41,2.214-27,2.214-27a13.264,13.264,0,0,1-3.98-5.759c-.9-3.257-.211-4.281-.211-4.281" transform="translate(-85.365 -169.956)" fill="none" stroke="#263238" stroke-miterlimit="10" stroke-width="1.004"/>
      <line id="Linha_11" data-name="Linha 11" x1="1.184" y2="6.553" transform="translate(49.134 99.695)" fill="none" stroke="#263238" stroke-miterlimit="10" stroke-width="1.004"/>
    </g>
  </g>
</svg>
