<svg xmlns="http://www.w3.org/2000/svg" width="240.845" height="237.013" viewBox="0 0 240.845 237.013">
  <g id="Enter_OTP-bro" data-name="Enter OTP-bro" transform="translate(-12.784 -16.36)">
    <g id="freepik--background-simple--inject-236" transform="translate(13.421 19.323)">
      <path id="Caminho_2123" data-name="Caminho 2123" d="M248.643,151.679c-6.854,20.775-21.624,43.552-43.364,50.965C172.437,213.852,169.49,240.785,109.9,240.6a120.366,120.366,0,0,1-25.881-2.779,100.244,100.244,0,0,1-12.255-3.557c-35.311-12.737-54.644-43.029-57.413-75.4-3.633-42.577,25.338-64.053,44.2-76.72S98.959,22.475,157.56,22.2a116.212,116.212,0,0,1,26.6,2.84c19.9,4.573,40.372,15.583,52.672,32.365.92,1.26,1.8,2.54,2.657,3.872C256.1,87.1,257.992,123.349,248.643,151.679Z" transform="translate(-14.037 -22.191)" fill="#fc4f22"/>
      <path id="Caminho_2124" data-name="Caminho 2124" d="M248.643,151.679c-6.854,20.775-21.624,43.552-43.364,50.965C172.437,213.852,169.49,240.785,109.9,240.6a120.366,120.366,0,0,1-25.881-2.779,100.244,100.244,0,0,1-12.255-3.557c-35.311-12.737-54.644-43.029-57.413-75.4-3.633-42.577,25.338-64.053,44.2-76.72S98.959,22.475,157.56,22.2a116.212,116.212,0,0,1,26.6,2.84c19.9,4.573,40.372,15.583,52.672,32.365.92,1.26,1.8,2.54,2.657,3.872C256.1,87.1,257.992,123.349,248.643,151.679Z" transform="translate(-14.037 -22.191)" fill="#fff" opacity="0.7"/>
    </g>
    <g id="freepik--Window--inject-236" transform="translate(16.704 16.36)">
      <path id="Caminho_2125" data-name="Caminho 2125" d="M87.231,33.617H20.942a.254.254,0,0,1-.234-.147.259.259,0,0,1,.041-.274l3.7-4.293a.259.259,0,0,1,.361-.025.249.249,0,0,1,.025.356L21.5,33.119H86.977V29.054a.254.254,0,0,1,.508,0v4.3a.254.254,0,0,1-.254.259Z" transform="translate(-20.592 -22.48)" fill="#263238"/>
      <path id="Caminho_2126" data-name="Caminho 2126" d="M87.231,45.837H20.942a.254.254,0,0,1-.234-.147.249.249,0,0,1,.041-.269l3.7-4.3a.254.254,0,0,1,.386.33L21.5,45.329H86.977V41.264a.254.254,0,1,1,.508,0v4.314a.254.254,0,0,1-.254.259Z" transform="translate(-20.591 -28.486)" fill="#263238"/>
      <path id="Caminho_2127" data-name="Caminho 2127" d="M87.231,58.077H20.942a.253.253,0,0,1-.193-.422l3.7-4.3a.259.259,0,0,1,.361-.025.249.249,0,0,1,.025.356L21.5,57.569H86.977V53.5a.254.254,0,0,1,.508,0v4.3a.254.254,0,0,1-.254.269Z" transform="translate(-20.592 -34.507)" fill="#263238"/>
      <path id="Caminho_2128" data-name="Caminho 2128" d="M87.231,70.327H20.942a.254.254,0,0,1-.234-.147.259.259,0,0,1,.041-.274l3.7-4.3a.254.254,0,1,1,.386.33L21.5,69.819H86.977V65.754a.254.254,0,1,1,.508,0v4.3a.254.254,0,0,1-.254.269Z" transform="translate(-20.592 -40.533)" fill="#263238"/>
      <path id="Caminho_2129" data-name="Caminho 2129" d="M87.231,82.571H20.942a.259.259,0,0,1-.234-.152.249.249,0,0,1,.041-.269l3.7-4.3a.259.259,0,0,1,.361,0,.249.249,0,0,1,.025.356L21.5,82.089H86.977V78.024a.254.254,0,0,1,.508,0v4.3A.254.254,0,0,1,87.231,82.571Z" transform="translate(-20.591 -46.569)" fill="#263238"/>
      <path id="Caminho_2130" data-name="Caminho 2130" d="M87.231,94.777H20.942a.254.254,0,0,1-.234-.147.259.259,0,0,1,.041-.274l3.7-4.3a.256.256,0,0,1,.386.335L21.5,94.269H86.977V90.2a.254.254,0,1,1,.508,0v4.344A.254.254,0,0,1,87.231,94.777Z" transform="translate(-20.592 -52.561)" fill="#263238"/>
      <path id="Caminho_2131" data-name="Caminho 2131" d="M87.231,107.007H20.942a.254.254,0,0,1-.234-.147.249.249,0,0,1,.041-.269l3.7-4.3a.264.264,0,0,1,.361-.03.259.259,0,0,1,.025.361L21.5,106.5H86.977v-4.065a.254.254,0,1,1,.508,0v4.3a.254.254,0,0,1-.254.269Z" transform="translate(-20.591 -58.577)" fill="#263238"/>
      <path id="Caminho_2132" data-name="Caminho 2132" d="M87.231,119.247H20.942a.253.253,0,0,1-.193-.422l3.7-4.3a.259.259,0,0,1,.361-.025.249.249,0,0,1,.025.356L21.5,118.739H86.977v-4.065a.254.254,0,1,1,.508,0v4.3a.254.254,0,0,1-.254.269Z" transform="translate(-20.592 -64.598)" fill="#263238"/>
      <path id="Caminho_2133" data-name="Caminho 2133" d="M87.231,131.477H20.942a.254.254,0,0,1-.234-.147.249.249,0,0,1,.041-.269l3.7-4.3a.254.254,0,1,1,.386.33L21.5,130.969H86.977V126.9a.254.254,0,0,1,.508,0v4.3a.254.254,0,0,1-.254.269Z" transform="translate(-20.591 -70.614)" fill="#263238"/>
      <path id="Caminho_2134" data-name="Caminho 2134" d="M87.231,143.717H20.942a.259.259,0,0,1-.234-.152.249.249,0,0,1,.041-.269l3.7-4.3a.259.259,0,0,1,.361-.025.249.249,0,0,1,.025.356L21.5,143.209H86.977v-4.065a.254.254,0,0,1,.508,0v4.3a.254.254,0,0,1-.254.269Z" transform="translate(-20.591 -76.635)" fill="#263238"/>
      <path id="Caminho_2135" data-name="Caminho 2135" d="M87.231,155.947H20.942a.254.254,0,0,1-.234-.147.259.259,0,0,1,.041-.274l3.7-4.3a.256.256,0,1,1,.386.335L21.5,155.439H86.977v-4.065a.254.254,0,1,1,.508,0v4.3a.254.254,0,0,1-.254.269Z" transform="translate(-20.592 -82.652)" fill="#263238"/>
      <path id="Caminho_2136" data-name="Caminho 2136" d="M87.231,168.177H20.942a.254.254,0,0,1-.234-.147.249.249,0,0,1,.041-.269l3.7-4.3a.259.259,0,0,1,.361-.025.249.249,0,0,1,.025.356L21.5,167.669H86.977V163.6a.254.254,0,0,1,.508,0v4.3a.254.254,0,0,1-.254.269Z" transform="translate(-20.591 -88.668)" fill="#263238"/>
      <path id="Caminho_2137" data-name="Caminho 2137" d="M87.231,180.441H20.942a.253.253,0,0,1-.193-.422l3.7-4.3a.259.259,0,0,1,.361,0,.249.249,0,0,1,.025.356L21.5,179.959H86.977v-4.065a.254.254,0,1,1,.508,0v4.3a.254.254,0,0,1-.254.244Z" transform="translate(-20.592 -94.713)" fill="#263238"/>
      <path id="Caminho_2138" data-name="Caminho 2138" d="M87.231,192.632H20.942a.254.254,0,0,1-.234-.147.249.249,0,0,1,.041-.269l3.7-4.319a.254.254,0,1,1,.386.33L21.5,192.109H86.977v-4.065a.254.254,0,1,1,.508,0v4.3a.254.254,0,0,1-.254.285Z" transform="translate(-20.591 -100.69)" fill="#263238"/>
      <path id="Caminho_2139" data-name="Caminho 2139" d="M87.231,204.911H20.942a.253.253,0,0,1-.193-.422l3.7-4.3a.259.259,0,0,1,.361,0,.249.249,0,0,1,.025.356L21.5,204.429H86.977v-4.065a.254.254,0,1,1,.508,0v4.3a.254.254,0,0,1-.254.244Z" transform="translate(-20.592 -106.751)" fill="#263238"/>
      <path id="Caminho_2140" data-name="Caminho 2140" d="M87.231,217.117H20.942a.254.254,0,0,1-.234-.147.259.259,0,0,1,.041-.274l3.7-4.3a.256.256,0,1,1,.386.335L21.5,216.609H86.977v-4.065a.254.254,0,0,1,.508,0v4.3a.254.254,0,0,1-.254.269Z" transform="translate(-20.592 -112.742)" fill="#263238"/>
      <path id="Caminho_2141" data-name="Caminho 2141" d="M87.229,229.327H20.94a.249.249,0,0,1-.193-.417l3.7-4.3a.259.259,0,0,1,.361,0,.249.249,0,0,1,.025.356l-3.343,3.856H86.975v-4.065a.254.254,0,0,1,.508,0v4.3a.254.254,0,0,1-.254.274Z" transform="translate(-20.589 -118.749)" fill="#263238"/>
      <path id="Caminho_2142" data-name="Caminho 2142" d="M90.3,23.255H20.754A.254.254,0,0,1,20.5,23V16.614a.254.254,0,0,1,.254-.254H90.3a.254.254,0,0,1,.254.254V23A.254.254,0,0,1,90.3,23.255ZM21,22.747H90.046V16.868H21Z" transform="translate(-20.5 -16.36)" fill="#263238"/>
      <path id="Caminho_2143" data-name="Caminho 2143" d="M154.544,93.167a.254.254,0,0,1-.254-.254V29.754a.254.254,0,0,1,.508,0V92.908a.254.254,0,0,1-.254.259Z" transform="translate(-86.314 -22.824)" fill="#263238"/>
      <path id="Caminho_2144" data-name="Caminho 2144" d="M154.75,159.2h-2.266a.254.254,0,0,1-.254-.254v-4.451a.254.254,0,0,1,.254-.254h2.266a.254.254,0,0,1,.254.254v4.451A.254.254,0,0,1,154.75,159.2Zm-2.032-.508h1.758v-3.943h-1.758Z" transform="translate(-85.301 -84.186)" fill="#263238"/>
    </g>
    <g id="freepik--Plant--inject-236" transform="translate(12.784 118.373)">
      <path id="Caminho_2145" data-name="Caminho 2145" d="M64.5,278.814h0a.04.04,0,1,0-.061-.041A63.61,63.61,0,0,0,61.084,289.3a98.769,98.769,0,0,0-1.88,10.913l-.259,2.759c-.041.462-.091.92-.127,1.382l-.071,1.382c-.041.925-.1,1.844-.127,2.769l.025,2.769.03,1.387c.025.462.056.925.086,1.382.071.925.127,1.844.213,2.764.173,1.834.452,3.663.737,5.482a.041.041,0,0,0,.046.041.051.051,0,0,0,.051-.046h0c0-.925-.046-1.844-.066-2.759s-.107-1.834-.091-2.754,0-1.834-.03-2.749l-.025-1.377v-4.121l.076-2.744.025-1.372c0-.457.051-.915.076-1.372l.168-2.744A98.44,98.44,0,0,1,61.5,289.412a63.738,63.738,0,0,1,3.008-10.6Z" transform="translate(-35.332 -247.447)" fill="#263238"/>
      <path id="Caminho_2146" data-name="Caminho 2146" d="M67.353,307.088a.056.056,0,0,0-.03-.061.046.046,0,0,0-.061.03,63.6,63.6,0,0,0-3.109,14.14c-.244,2.4-.508,4.811-.549,7.225a60.59,60.59,0,0,0,.259,7.245.048.048,0,0,0,.1,0c.279-2.4.447-4.806.615-7.2s.193-4.8.351-7.2a63.626,63.626,0,0,1,.843-7.138,65.441,65.441,0,0,1,1.585-7.037Z" transform="translate(-37.774 -261.358)" fill="#263238"/>
      <path id="Caminho_2147" data-name="Caminho 2147" d="M77.007,317.076a.051.051,0,0,0-.071,0A24.241,24.241,0,0,0,71.6,321.7a21.035,21.035,0,0,0-2.083,2.9l-.427.808-.335.838a8.832,8.832,0,0,0-.295.849c-.086.285-.178.574-.259.859a34.411,34.411,0,0,0-1.1,7.022,40.106,40.106,0,0,0,.264,7.072.051.051,0,0,0,.041.046.056.056,0,0,0,.056-.046l.6-7a62.4,62.4,0,0,1,.889-6.9c.061-.279.142-.559.213-.833a7.411,7.411,0,0,1,.244-.828l.3-.808.366-.762a20.085,20.085,0,0,1,1.91-2.9,23.88,23.88,0,0,1,4.994-4.867h0A.056.056,0,0,0,77.007,317.076Z" transform="translate(-39.477 -266.295)" fill="#263238"/>
      <path id="Caminho_2148" data-name="Caminho 2148" d="M74.723,334.789A7.779,7.779,0,0,0,72.3,337.7a16.919,16.919,0,0,0-1.357,3.557,9.5,9.5,0,0,0-.239.925l-.218.93a15.749,15.749,0,0,0-.234,1.89c0,.635-.03,1.27,0,1.9a15.749,15.749,0,0,0,.249,1.89.056.056,0,0,0,.041.041.046.046,0,0,0,.056-.041,17.015,17.015,0,0,0,.335-1.86c.1-.615.193-1.23.269-1.839s.168-1.219.218-1.834a13,13,0,0,1,.264-1.829,16.387,16.387,0,0,1,1.016-3.531,7.779,7.779,0,0,1,2.032-3.048h0a.041.041,0,0,0,0-.061h-.015Z" transform="translate(-41.049 -275.016)" fill="#263238"/>
      <path id="Caminho_2149" data-name="Caminho 2149" d="M52.451,321.825c-.264-3.1-.777-6.183-1.26-9.257s-1.016-6.143-1.585-9.206-1.189-6.1-1.849-9.145a.051.051,0,0,0-.1,0c.533,3.048,1.016,6.138,1.468,9.211s.9,6.153,1.3,9.232.676,6.178,1.062,9.252l1.138,9.267a.046.046,0,0,0,.046.046.056.056,0,0,0,.051-.046c.036-.782.036-1.56.056-2.342s-.036-1.56-.046-2.337C52.7,324.935,52.568,323.385,52.451,321.825Z" transform="translate(-29.94 -255.04)" fill="#263238"/>
      <path id="Caminho_2150" data-name="Caminho 2150" d="M45.772,328.475c-.168-1.235-.391-2.459-.63-3.678l-.432-1.814c-.147-.6-.279-1.209-.457-1.809a51.113,51.113,0,0,0-2.378-7.067l-.381-.854-.417-.838c-.259-.564-.579-1.1-.884-1.641a13.623,13.623,0,0,0-2.241-2.977.047.047,0,1,0-.066.066h0a13.49,13.49,0,0,1,2.032,3.048c.274.549.559,1.092.788,1.666l.366.843.325.864a50.808,50.808,0,0,1,2.068,7.072c.285,1.194.473,2.413.706,3.617l.29,1.824c.107.6.234,1.2.32,1.814.193,1.214.417,2.429.63,3.643s.412,2.439.666,3.653a.051.051,0,0,0,.051.041.046.046,0,0,0,.046-.046q0-1.865-.086-3.724C46.066,330.944,45.9,329.71,45.772,328.475Z" transform="translate(-25.125 -261.731)" fill="#263238"/>
      <path id="Caminho_2151" data-name="Caminho 2151" d="M43.98,339.773c-.579-1.631-1.245-3.226-1.971-4.791a42.684,42.684,0,0,0-2.474-4.542.056.056,0,0,0-.066,0,.051.051,0,0,0,0,.066,43.031,43.031,0,0,1,2.114,4.684c.63,1.585,1.2,3.2,1.672,4.837s.838,3.308,1.27,4.954.828,3.3,1.336,4.964a.049.049,0,0,0,.1-.01,24.9,24.9,0,0,0-.483-5.172,32.7,32.7,0,0,0-1.494-4.989Z" transform="translate(-25.904 -272.871)" fill="#263238"/>
      <path id="Caminho_2152" data-name="Caminho 2152" d="M42.191,352.78a11.132,11.132,0,0,0-1.372-2.871,11.829,11.829,0,0,0-1.992-2.469,9.281,9.281,0,0,0-1.285-.96,5.254,5.254,0,0,0-1.438-.65.051.051,0,0,0-.056.03.046.046,0,0,0,0,.061h0a7.067,7.067,0,0,1,2.383,1.849,11.177,11.177,0,0,1,1.661,2.515c.473.894.716,1.88,1.128,2.8.178.473.361.945.569,1.418a12.126,12.126,0,0,0,.625,1.433h0a.051.051,0,0,0,.041.025.056.056,0,0,0,.056-.046,11.859,11.859,0,0,0-.061-1.59A8.6,8.6,0,0,0,42.191,352.78Z" transform="translate(-24.223 -280.447)" fill="#263238"/>
      <path id="Caminho_2153" data-name="Caminho 2153" d="M39.334,271.115a8.835,8.835,0,0,1-6.265-6.656c-1.179-5.487,2.612-3.135-.782-11.757s-2.612-10.573-1.438-13.058,1.829-1.7,2.871,1.57,4.842,8.358,6.27,17.889S39.334,271.115,39.334,271.115Z" transform="translate(-21.177 -227.493)" fill="#fc4f22"/>
      <path id="Caminho_2154" data-name="Caminho 2154" d="M64.9,251.5s-3.4-1.179-3.526-7.575,2.479-5.081,2.871-13.058.915-13.581,2.352-13.718,5.223,3.917,6.529,12.8-1.7,14.734-4.308,17.366S64.9,251.5,64.9,251.5Z" transform="translate(-36.685 -217.143)" fill="#fc4f22"/>
      <path id="Caminho_2155" data-name="Caminho 2155" d="M31.265,299.285s-.788-4.7-2.352-6.92-4.964-4.181-7.184-8.49-4.7-6.4-4.573-.259,2.871,9.267,6.27,11.361S31.265,299.285,31.265,299.285Z" transform="translate(-14.932 -247.956)" fill="#fc4f22"/>
      <path id="Caminho_2156" data-name="Caminho 2156" d="M27.679,318.843a47.079,47.079,0,0,0-7.7-10.446c-4.568-4.441-8.231-6.661-6.925-4.441s2.876,2.093,5.081,6.011,1.565,6.788,4.7,9.008S27.679,318.843,27.679,318.843Z" transform="translate(-12.784 -259.42)" fill="#fc4f22"/>
      <path id="Caminho_2157" data-name="Caminho 2157" d="M28.893,342.452c-.132-.391-.264-3.267-4.7-5.589s-8.637-1.438-8.1-.264,3.267,3.135,6.005,4.308A27.234,27.234,0,0,0,28.893,342.452Z" transform="translate(-14.389 -275.322)" fill="#fc4f22"/>
      <path id="Caminho_2158" data-name="Caminho 2158" d="M66.628,295.416s-1.931-2.479-.915-7.7,3.394-3.917,6.011-6.661,2.088-3.135,4.7-6.005,4.959-4.441,6.005-3.267-.508,4.832-2.088,6.92-4.065,3.135-5.223,5.746-.655,6.793-3.658,8.749A13.662,13.662,0,0,1,66.628,295.416Z" transform="translate(-38.676 -243.828)" fill="#fc4f22"/>
      <path id="Caminho_2159" data-name="Caminho 2159" d="M80.65,307.409s4.7-5.34,8.1-9.272,4.7-6.92,4.832-4.308,1.174,4.7-1.57,8.094S80.65,307.409,80.65,307.409Z" transform="translate(-46.169 -254.383)" fill="#fc4f22"/>
      <path id="Caminho_2160" data-name="Caminho 2160" d="M75.77,327.171s-.132-2.088,7.311-6.92,10.578-5.746,9.8-3.785-4.065,3.917-7.575,7.443S75.77,327.171,75.77,327.171Z" transform="translate(-43.768 -265.527)" fill="#fc4f22"/>
      <path id="Caminho_2161" data-name="Caminho 2161" d="M42.532,276.033a.259.259,0,0,1-.254-.208c0-.092-1.763-9.435-3.557-16s-2.993-10.67-3-10.705a.249.249,0,0,1,.173-.315.254.254,0,0,1,.315.173c0,.041,1.194,4.126,3,10.71s3.557,15.954,3.582,16.05a.254.254,0,0,1-.2.295Z" transform="translate(-24.06 -232.711)" fill="#263238"/>
      <path id="Caminho_2162" data-name="Caminho 2162" d="M67.477,256.169H67.4a.254.254,0,0,1-.163-.32,165.882,165.882,0,0,0,4.207-16.258,32.047,32.047,0,0,0-.473-12.468c-.066-.315-.127-.615-.178-.889a.259.259,0,1,1,.508-.1c.056.274.112.569.178.884a32.7,32.7,0,0,1,.478,12.656A160.352,160.352,0,0,1,67.731,256,.254.254,0,0,1,67.477,256.169Z" transform="translate(-39.565 -221.464)" fill="#263238"/>
      <path id="Caminho_2163" data-name="Caminho 2163" d="M33.018,302.934a.254.254,0,0,1-.224-.127,49.436,49.436,0,0,0-4.786-6.818c-.732-.869-1.412-1.621-2.073-2.347-1.885-2.088-3.379-3.739-4.364-6.209a.249.249,0,0,1,.142-.33.254.254,0,0,1,.33.142c.95,2.383,2.418,4,4.273,6.056.66.732,1.341,1.484,2.083,2.357a50.042,50.042,0,0,1,4.837,6.9.254.254,0,0,1-.1.346.269.269,0,0,1-.122.03Z" transform="translate(-17.097 -251.549)" fill="#263238"/>
      <path id="Caminho_2164" data-name="Caminho 2164" d="M67.555,298.174h-.041a.249.249,0,0,1-.208-.29c.041-.259,1.082-6.366,3.557-9.654.965-1.27,2.291-2.8,3.694-4.415a60.915,60.915,0,0,0,5.7-7.184.254.254,0,1,1,.432.259,60.887,60.887,0,0,1-5.746,7.255c-1.4,1.611-2.713,3.135-3.668,4.39-2.413,3.175-3.465,9.359-3.48,9.42a.249.249,0,0,1-.234.219Z" transform="translate(-39.603 -246.332)" fill="#263238"/>
      <path id="Caminho_2165" data-name="Caminho 2165" d="M33.189,344.708a.284.284,0,0,1-.137-.041c-.041-.03-4.415-2.876-7.5-4.415a.259.259,0,0,1-.112-.34.254.254,0,0,1,.34-.117c3.109,1.56,7.509,4.415,7.555,4.446a.254.254,0,0,1,.071.351.244.244,0,0,1-.213.117Z" transform="translate(-18.995 -277.466)" fill="#263238"/>
      <path id="Caminho_2166" data-name="Caminho 2166" d="M59.558,388c-.295-7.921-9.1-13.21-9.1-13.21H36.964s-8.8,5.284-9.1,13.21,9.979,36.978,9.979,36.978H49.579S59.847,395.926,59.558,388Z" transform="translate(-20.199 -294.693)" fill="#263238"/>
      <path id="Caminho_2167" data-name="Caminho 2167" d="M49.333,424.976H37.6a.254.254,0,0,1-.239-.168c-.422-1.189-10.283-29.189-9.994-37.09.295-7.967,9.145-13.362,9.222-13.413a.244.244,0,0,1,.132-.036H50.212a.244.244,0,0,1,.132.036c.086.051,8.922,5.447,9.217,13.413h0c.295,7.885-9.572,35.885-9.989,37.09a.254.254,0,0,1-.239.168Zm-11.554-.508H49.15c.843-2.393,10.162-29.24,9.908-36.714-.274-7.357-8.129-12.483-8.917-12.961H36.789c-.762.478-8.637,5.589-8.917,12.961-.274,7.474,9.064,34.321,9.908,36.714Z" transform="translate(-19.953 -294.438)" fill="#263238"/>
      <path id="Caminho_2168" data-name="Caminho 2168" d="M59.089,359.46H41.87l1.987,7.794H57.1Z" transform="translate(-27.092 -287.152)" fill="#263238"/>
      <path id="Caminho_2169" data-name="Caminho 2169" d="M56.855,367.262H43.61a.259.259,0,0,1-.249-.193l-1.987-7.789a.274.274,0,0,1,.046-.219.249.249,0,0,1,.2-.1H58.842a.259.259,0,0,1,.244.32L57.1,367.069A.249.249,0,0,1,56.855,367.262Zm-13.047-.508H56.657l1.854-7.265H41.948Z" transform="translate(-26.845 -286.906)" fill="#263238"/>
    </g>
    <g id="freepik--Device--inject-236" transform="translate(15.094 25.668)">
      <path id="Caminho_2170" data-name="Caminho 2170" d="M253.677,473.578H17.584a.254.254,0,1,1,0-.508H253.677a.254.254,0,1,1,0,.508Z" transform="translate(-17.33 -250.334)" fill="#263238"/>
      <path id="Caminho_2171" data-name="Caminho 2171" d="M214.335,50.053V224.638a8.678,8.678,0,0,1-8.678,8.678H130.218a8.678,8.678,0,0,1-8.678-8.678V50.048a8.673,8.673,0,0,1,8.673-8.673h32.38l.03.1c.813,2.906,2.662,4.791,4.725,4.791h1.169c2.063,0,3.917-1.89,4.725-4.8l.036-.1h32.38A8.678,8.678,0,0,1,214.335,50.053Z" transform="translate(-68.593 -37.971)" fill="#fff"/>
      <path id="Caminho_2172" data-name="Caminho 2172" d="M205.392,233.329H129.952A8.942,8.942,0,0,1,121,224.4V49.807a8.937,8.937,0,0,1,8.927-8.927H162.5l.081.285c.777,2.8,2.54,4.608,4.481,4.608h1.189c1.946,0,3.7-1.809,4.481-4.608l.091-.285h32.568a8.942,8.942,0,0,1,8.932,8.932V224.4a8.942,8.942,0,0,1-8.932,8.932ZM129.947,41.388a8.429,8.429,0,0,0-8.439,8.419V224.4a8.434,8.434,0,0,0,8.424,8.424h75.46a8.434,8.434,0,0,0,8.424-8.424V49.812a8.434,8.434,0,0,0-8.424-8.424H173.21c-.854,2.972-2.789,4.893-4.949,4.893h-1.179c-2.159,0-4.1-1.921-4.949-4.893Z" transform="translate(-68.328 -37.73)" fill="#263238"/>
      <rect id="Retângulo_158" data-name="Retângulo 158" width="31.831" height="9.918" rx="4.84" transform="translate(84.219 117.452)" fill="#263238"/>
      <path id="Caminho_2173" data-name="Caminho 2173" d="M212.191,275.776H185.263a2.718,2.718,0,0,1-2.713-2.713v-5a2.713,2.713,0,0,1,2.713-2.713h26.928a2.718,2.718,0,0,1,2.718,2.713v5A2.718,2.718,0,0,1,212.191,275.776Zm-26.928-9.918a2.205,2.205,0,0,0-2.205,2.205v5a2.21,2.21,0,0,0,2.205,2.205h26.928a2.21,2.21,0,0,0,2.21-2.205v-5a2.205,2.205,0,0,0-2.21-2.205Z" transform="translate(-98.606 -148.152)" fill="#263238"/>
      <path id="Caminho_2174" data-name="Caminho 2174" d="M121.54,312.26V357.9a8.678,8.678,0,0,0,8.678,8.678h75.439a8.678,8.678,0,0,0,8.678-8.678V312.26Z" transform="translate(-68.593 -171.228)" fill="#dbdbdb"/>
      <path id="Caminho_2175" data-name="Caminho 2175" d="M205.392,366.582H129.952A8.942,8.942,0,0,1,121,357.65V312.014a.254.254,0,0,1,.254-.254H214.07a.254.254,0,0,1,.254.254V357.65a8.942,8.942,0,0,1-8.932,8.932Zm-83.884-54.313V357.65a8.434,8.434,0,0,0,8.424,8.424h75.46a8.434,8.434,0,0,0,8.424-8.424V312.268Z" transform="translate(-68.328 -170.982)" fill="#263238"/>
      <rect id="Retângulo_159" data-name="Retângulo 159" width="25.439" height="8.546" rx="2.27" transform="translate(56.92 146.54)" fill="#fff"/>
      <rect id="Retângulo_160" data-name="Retângulo 160" width="25.439" height="8.546" rx="2.27" transform="translate(85.393 146.54)" fill="#fff"/>
      <rect id="Retângulo_161" data-name="Retângulo 161" width="25.439" height="8.546" rx="2.27" transform="translate(113.86 146.54)" fill="#fff"/>
      <rect id="Retângulo_162" data-name="Retângulo 162" width="25.439" height="8.546" rx="2.27" transform="translate(56.92 157.463)" fill="#fff"/>
      <rect id="Retângulo_163" data-name="Retângulo 163" width="25.439" height="8.546" rx="2.27" transform="translate(85.393 157.463)" fill="#fff"/>
      <rect id="Retângulo_164" data-name="Retângulo 164" width="25.439" height="8.546" rx="2.27" transform="translate(113.86 157.463)" fill="#fff"/>
      <rect id="Retângulo_165" data-name="Retângulo 165" width="25.439" height="8.546" rx="2.27" transform="translate(56.92 168.382)" fill="#fff"/>
      <rect id="Retângulo_166" data-name="Retângulo 166" width="25.439" height="8.546" rx="2.27" transform="translate(85.393 168.382)" fill="#fff"/>
      <rect id="Retângulo_167" data-name="Retângulo 167" width="25.439" height="8.546" rx="2.27" transform="translate(113.86 168.382)" fill="#fff"/>
      <rect id="Retângulo_168" data-name="Retângulo 168" width="25.439" height="8.546" rx="2.27" transform="translate(85.393 179.305)" fill="#fff"/>
      <path id="Caminho_2176" data-name="Caminho 2176" d="M266.777,396.136H250.9l-3.424-3.978,3.424-4.568h15.872Z" transform="translate(-130.546 -208.285)" fill="#fff"/>
      <path id="Caminho_2177" data-name="Caminho 2177" d="M197.987,119.033l-.229-.173-.229.173s-11.686,6.651-16.97,9.176c0,0,2.54,14.226,4.354,20.638s8.947,9.862,12.844,12.153c3.9-2.291,11.01-5.731,12.844-12.153s4.359-20.638,4.359-20.638C209.683,125.683,197.987,119.033,197.987,119.033Z" transform="translate(-97.627 -76.09)" fill="#fc4f22"/>
      <path id="Caminho_2178" data-name="Caminho 2178" d="M203.941,158.306l-7.753-6.646a1.778,1.778,0,1,1,2.312-2.7l5.081,4.359,8.708-9.9a1.778,1.778,0,0,1,2.672,2.347Z" transform="translate(-105.008 -87.871)" fill="#fff"/>
      <rect id="Retângulo_169" data-name="Retângulo 169" width="10.548" height="10.548" transform="translate(59.308 92.851)" fill="#fff"/>
      <path id="Caminho_2179" data-name="Caminho 2179" d="M144.621,227.986H133.56V216.93h11.061Zm-10.553-.508h10.045v-10.04H134.068Z" transform="translate(-74.506 -124.333)" fill="#263238"/>
      <rect id="Retângulo_170" data-name="Retângulo 170" width="10.548" height="10.548" transform="translate(73.529 92.851)" fill="#fff"/>
      <path id="Caminho_2180" data-name="Caminho 2180" d="M172.606,227.986H161.55V216.93h11.056Zm-10.548-.508H172.1v-10.04h-10.04Z" transform="translate(-88.275 -124.333)" fill="#263238"/>
      <rect id="Retângulo_171" data-name="Retângulo 171" width="10.548" height="10.548" transform="translate(87.75 92.851)" fill="#fff"/>
      <path id="Caminho_2181" data-name="Caminho 2181" d="M200.6,227.986H189.54V216.93H200.6Zm-10.548-.508h10.04v-10.04h-10.04Z" transform="translate(-102.044 -124.333)" fill="#263238"/>
      <rect id="Retângulo_172" data-name="Retângulo 172" width="10.548" height="10.548" transform="translate(101.966 92.851)" fill="#fff"/>
      <path id="Caminho_2182" data-name="Caminho 2182" d="M228.581,227.986H217.52V216.93h11.061Zm-10.553-.508h10.045v-10.04H218.028Z" transform="translate(-115.808 -124.333)" fill="#263238"/>
      <rect id="Retângulo_173" data-name="Retângulo 173" width="10.548" height="10.548" transform="translate(116.187 92.851)" fill="#fff"/>
      <path id="Caminho_2183" data-name="Caminho 2183" d="M256.566,227.986H245.51V216.93h11.056Zm-10.548-.508h10.04v-10.04h-10.04Z" transform="translate(-129.577 -124.333)" fill="#263238"/>
      <rect id="Retângulo_174" data-name="Retângulo 174" width="10.548" height="10.548" transform="translate(130.408 92.851)" fill="#fff"/>
      <path id="Caminho_2184" data-name="Caminho 2184" d="M284.556,227.986H273.5V216.93h11.056Zm-10.548-.508h10.04v-10.04h-10.04Z" transform="translate(-143.346 -124.333)" fill="#263238"/>
      <path id="Caminho_2185" data-name="Caminho 2185" d="M214.335,58.172V50.043a8.678,8.678,0,0,0-8.678-8.668H173.283l-.03.1c-.808,2.906-2.662,4.791-4.735,4.791h-1.169c-2.063,0-3.922-1.89-4.725-4.8l-.03-.1h-32.38a8.673,8.673,0,0,0-8.673,8.673v8.129Z" transform="translate(-68.593 -37.971)" fill="#dbdbdb"/>
      <path id="Caminho_2186" data-name="Caminho 2186" d="M214.084,58.18h-92.79a.254.254,0,0,1-.254-.254V49.8a8.937,8.937,0,0,1,8.927-8.927h32.38a.249.249,0,0,1,.244.188l.03.1c.777,2.8,2.54,4.608,4.481,4.608h1.169c1.946,0,3.7-1.809,4.481-4.608l.036-.107a.249.249,0,0,1,.239-.178h32.385a8.937,8.937,0,0,1,8.927,8.932v8.129A.254.254,0,0,1,214.084,58.18Zm-92.556-.508h92.3V49.807a8.429,8.429,0,0,0-8.419-8.424H173.23c-.854,2.972-2.789,4.893-4.949,4.893H167.1c-2.159,0-4.1-1.921-4.949-4.893H129.967a8.429,8.429,0,0,0-8.439,8.419Z" transform="translate(-68.347 -37.725)" fill="#263238"/>
      <path id="Caminho_2187" data-name="Caminho 2187" d="M216.033,88.706V71.269h-1.58V48.944A13.759,13.759,0,0,0,200.694,35.18H126.779A13.764,13.764,0,0,0,113,48.944v177.4A13.759,13.759,0,0,0,126.764,240.1h73.93a13.754,13.754,0,0,0,13.759-13.759V103.567h1.58v-10.3h-1.58V88.691Zm-5.9,127.8a13.764,13.764,0,0,1-13.764,13.764H131.1a13.764,13.764,0,0,1-13.764-13.764V52.089A13.764,13.764,0,0,1,131.1,38.33h27.289l.03.1c.813,2.906,2.662,4.791,4.725,4.791h1.169c2.063,0,3.917-1.89,4.725-4.8l.036-.1H196.36a13.764,13.764,0,0,1,13.764,13.759Z" transform="translate(-64.392 -34.926)" fill="#fc4f22"/>
      <path id="Caminho_2188" data-name="Caminho 2188" d="M200.463,240.106H126.548a14.033,14.033,0,0,1-14.018-14.013V48.7A14.038,14.038,0,0,1,126.548,34.68h73.915A14.033,14.033,0,0,1,214.476,48.7V70.769H215.8a.254.254,0,0,1,.254.254V88.46a.254.254,0,0,1-.254.254h-1.326v4.065H215.8a.254.254,0,0,1,.254.254v10.3a.254.254,0,0,1-.254.254h-1.326v122.5a14.028,14.028,0,0,1-14.013,14.013ZM126.548,35.188a13.525,13.525,0,0,0-13.51,13.51v177.4a13.52,13.52,0,0,0,13.51,13.5h73.915a13.52,13.52,0,0,0,13.5-13.5V103.321a.254.254,0,0,1,.254-.254h1.326v-9.8h-1.326a.259.259,0,0,1-.254-.254V88.445a.254.254,0,0,1,.254-.254h1.326V71.277h-1.326a.259.259,0,0,1-.254-.254V48.7a13.52,13.52,0,0,0-13.5-13.51Zm69.607,195.1H130.872a14.038,14.038,0,0,1-14.038-14.028V51.843A14.033,14.033,0,0,1,130.851,37.83H158.14a.244.244,0,0,1,.244.188l.03.1c.777,2.8,2.54,4.608,4.481,4.608h1.189c1.946,0,3.7-1.809,4.481-4.608l.036-.107a.249.249,0,0,1,.239-.178h27.289a14.033,14.033,0,0,1,14.018,14.013V216.262a14.038,14.038,0,0,1-14.008,14.018ZM130.872,38.338a13.52,13.52,0,0,0-13.53,13.5V216.262a13.525,13.525,0,0,0,13.51,13.51h65.288a13.525,13.525,0,0,0,13.51-13.51V51.843a13.52,13.52,0,0,0-13.51-13.5h-27.1c-.854,2.972-2.789,4.893-4.949,4.893h-1.179c-2.159,0-4.1-1.921-4.949-4.893Z" transform="translate(-64.161 -34.68)" fill="#263238"/>
      <path id="Caminho_2189" data-name="Caminho 2189" d="M201.151,38.91h-71.71A13.276,13.276,0,0,0,116.17,52.166v174.6a13.271,13.271,0,0,0,13.271,13.271h71.71a13.271,13.271,0,0,0,13.271-13.271V52.166A13.276,13.276,0,0,0,201.151,38.91Zm10.543,179.9a13.276,13.276,0,0,1-13.276,13.271H132.174A13.276,13.276,0,0,1,118.9,218.815V53.431a13.266,13.266,0,0,1,13.271-13.266h27.782l.03.1c.813,2.906,2.662,4.791,4.725,4.791h1.169c2.063,0,3.917-1.89,4.725-4.8l.036-.1h27.771a13.271,13.271,0,0,1,13.286,13.276Z" transform="translate(-65.952 -36.761)" fill="#263238"/>
      <path id="Caminho_2190" data-name="Caminho 2190" d="M200.9,240.031h-71.71a13.54,13.54,0,0,1-13.525-13.525V51.905A13.54,13.54,0,0,1,129.2,38.38H200.9A13.54,13.54,0,0,1,214.43,51.905v174.6a13.54,13.54,0,0,1-13.525,13.525ZM129.195,38.908a13.032,13.032,0,0,0-13.017,13v174.6a13.032,13.032,0,0,0,13.017,13.017H200.9a13.032,13.032,0,0,0,13.017-13.017V51.905A13.032,13.032,0,0,0,200.9,38.888ZM198.172,232.1H131.928a13.545,13.545,0,0,1-13.55-13.545V53.17A13.54,13.54,0,0,1,131.9,39.65h27.782a.244.244,0,0,1,.244.188l.03.1c.777,2.8,2.54,4.608,4.481,4.608h1.189c1.946,0,3.7-1.809,4.481-4.608l.036-.107a.249.249,0,0,1,.239-.178h27.777A13.545,13.545,0,0,1,211.7,53.175V218.554a13.545,13.545,0,0,1-13.53,13.545ZM131.923,40.158A13.027,13.027,0,0,0,118.886,53.17V218.554a13.037,13.037,0,0,0,13.022,13.017h66.263a13.037,13.037,0,0,0,13.022-13.017V53.175a13.032,13.032,0,0,0-13.022-13.017H170.588c-.854,2.972-2.789,4.893-4.949,4.893h-1.179c-2.159,0-4.1-1.921-4.949-4.893Z" transform="translate(-65.706 -36.5)" fill="#263238"/>
      <path id="Caminho_2191" data-name="Caminho 2191" d="M212.341,41.425a1.291,1.291,0,1,0-.376.916A1.291,1.291,0,0,0,212.341,41.425Z" transform="translate(-111.991 -37.366)" fill="#fff"/>
      <path id="Caminho_2192" data-name="Caminho 2192" d="M135.891,51.353c0,1.306-1.468,1.778-1.479,2.774v.061h1.428v.442h-1.9v-.371c0-1.4,1.468-1.672,1.468-2.9,0-.442-.152-.681-.508-.681s-.508.254-.508.64V51.7h-.452v-.351c0-.666.3-1.1.97-1.1S135.891,50.687,135.891,51.353Z" transform="translate(-74.693 -42.339)" fill="#263238"/>
      <path id="Caminho_2193" data-name="Caminho 2193" d="M140.546,51.347v.112a.869.869,0,0,1-.508.894.864.864,0,0,1,.508.9v.335c0,.66-.31,1.092-.981,1.092s-.97-.432-.97-1.092v-.3h.452v.33c0,.386.158.625.508.625s.508-.229.508-.671v-.335c0-.427-.183-.63-.549-.64h-.259V52.16h.285a.508.508,0,0,0,.508-.594v-.2c0-.447-.158-.676-.508-.676s-.508.244-.508.635v.218h-.452v-.2c0-.66.31-1.087.97-1.087A.951.951,0,0,1,140.546,51.347Z" transform="translate(-76.976 -42.344)" fill="#263238"/>
      <path id="Caminho_2194" data-name="Caminho 2194" d="M143.837,53.05v.6h-.467v-.6Zm0,2.363v.6h-.467v-.6Z" transform="translate(-79.332 -43.717)" fill="#263238"/>
      <path id="Caminho_2195" data-name="Caminho 2195" d="M145.733,52.108a.691.691,0,0,1,.64-.361c.559,0,.808.412.808,1.016v.848c0,.66-.315,1.092-.981,1.092s-.97-.432-.97-1.092v-.295h.452v.325c0,.386.163.625.508.625s.508-.239.508-.625v-.828c0-.391-.163-.625-.508-.625a.467.467,0,0,0-.508.462v.1h-.447l.117-2.413h1.707v.437h-1.275Z" transform="translate(-80.247 -42.384)" fill="#263238"/>
      <path id="Caminho_2196" data-name="Caminho 2196" d="M151.882,51.342v.081h-.452v-.112c0-.391-.158-.62-.508-.62s-.508.239-.508.7v.97a.706.706,0,0,1,.7-.462c.559,0,.808.4.808,1.016v.66a1.019,1.019,0,1,1-2.032,0V51.373c0-.686.31-1.113,1.016-1.113S151.882,50.682,151.882,51.342Zm-1.494,1.626v.65c0,.386.163.625.508.625s.508-.239.508-.625v-.65c0-.391-.168-.625-.508-.625S150.388,52.577,150.388,52.968Z" transform="translate(-82.539 -42.344)" fill="#263238"/>
      <rect id="Retângulo_175" data-name="Retângulo 175" width="1.224" height="3.059" transform="translate(115.455 9.191)" fill="#263238"/>
      <rect id="Retângulo_176" data-name="Retângulo 176" width="1.224" height="3.673" transform="translate(117.086 8.576)" fill="#263238"/>
      <rect id="Retângulo_177" data-name="Retângulo 177" width="1.224" height="4.11" transform="translate(118.717 8.139)" fill="#263238"/>
      <rect id="Retângulo_178" data-name="Retângulo 178" width="1.224" height="4.867" transform="translate(120.353 7.382)" fill="#263238"/>
      <path id="Caminho_2197" data-name="Caminho 2197" d="M279.332,54.281H272V49.79h7.342ZM272.4,53.87h6.529V50.2H272.4Z" transform="translate(-142.608 -42.113)" fill="#263238"/>
      <rect id="Retângulo_179" data-name="Retângulo 179" width="3.877" height="2.784" transform="translate(130.398 8.531)" fill="#263238"/>
      <rect id="Retângulo_180" data-name="Retângulo 180" width="0.925" height="1.057" transform="translate(136.469 9.394)" fill="#263238"/>
      <path id="Caminho_2198" data-name="Caminho 2198" d="M263.645,55.758a.279.279,0,0,1-.142-.036,2.176,2.176,0,0,0-2.54-.03.274.274,0,0,1-.386,0,.279.279,0,0,1,.025-.386,2.665,2.665,0,0,1,3.165-.03.274.274,0,0,1,.1.376A.269.269,0,0,1,263.645,55.758Z" transform="translate(-136.956 -44.57)" fill="#263238"/>
      <path id="Caminho_2199" data-name="Caminho 2199" d="M263.672,53.786a.229.229,0,0,1-.137-.041,3.106,3.106,0,0,0-3.633-.03.274.274,0,0,1-.386,0,.285.285,0,0,1,.025-.391,3.633,3.633,0,0,1,4.273,0,.274.274,0,0,1-.142.508Z" transform="translate(-136.434 -43.518)" fill="#263238"/>
      <path id="Caminho_2200" data-name="Caminho 2200" d="M263.689,51.534a.269.269,0,0,1-.137-.041c-2.739-1.626-4.573-.1-4.634-.03a.274.274,0,0,1-.391,0,.279.279,0,0,1,.025-.386,4.553,4.553,0,0,1,5.279-.03.279.279,0,0,1,.1.376A.285.285,0,0,1,263.689,51.534Z" transform="translate(-135.948 -42.333)" fill="#263238"/>
      <path id="Caminho_2201" data-name="Caminho 2201" d="M263.712,56.941a.686.686,0,1,1-.2-.488A.691.691,0,0,1,263.712,56.941Z" transform="translate(-137.851 -45.291)" fill="#263238"/>
      <path id="Caminho_2202" data-name="Caminho 2202" d="M266.555,392.744l2.474-2.474a.762.762,0,0,0-1.077-1.077l-2.474,2.474L263,389.192a.763.763,0,1,0-1.082,1.077l2.464,2.474-2.479,2.474a.763.763,0,1,0,1.082,1.077l2.474-2.474,2.474,2.474a.747.747,0,0,0,.539.224.737.737,0,0,0,.539-.224.757.757,0,0,0,0-1.077Z" transform="translate(-137.534 -208.962)" fill="#263238"/>
      <path id="Caminho_2203" data-name="Caminho 2203" d="M150.86,331.3v-5l-.178.071-.295.086-.295.081a1.059,1.059,0,0,0-.183.061v-.788l.264-.107.34-.158a2.733,2.733,0,0,0,.335-.193,1.4,1.4,0,0,0,.254-.224h.808V331.3Z" transform="translate(-82.549 -177.559)" fill="#263238"/>
      <path id="Caminho_2204" data-name="Caminho 2204" d="M207.8,331.234v-.742l1.524-2.358c.112-.173.218-.335.315-.508a2.3,2.3,0,0,0,.244-.508,1.565,1.565,0,0,0,.1-.564.95.95,0,0,0-.122-.508.427.427,0,0,0-.381-.183.508.508,0,0,0-.381.137.726.726,0,0,0-.188.356,2.4,2.4,0,0,0-.051.508v.264h-1.016v-.274a2.541,2.541,0,0,1,.168-.965,1.357,1.357,0,0,1,.508-.655,1.728,1.728,0,0,1,.909-.239,1.524,1.524,0,0,1,1.189.427,1.682,1.682,0,0,1,.4,1.189,2.119,2.119,0,0,1-.107.691,3,3,0,0,1-.285.589q-.173.285-.381.579l-1.265,1.921h1.875v.843Z" transform="translate(-111.027 -177.49)" fill="#263238"/>
      <path id="Caminho_2205" data-name="Caminho 2205" d="M264.77,331.325a1.809,1.809,0,0,1-.935-.213,1.26,1.26,0,0,1-.508-.62,2.474,2.474,0,0,1-.158-.93v-.213h1.016v.178a2.594,2.594,0,0,0,.056.508.589.589,0,0,0,.168.315.533.533,0,0,0,.351.107.478.478,0,0,0,.351-.117.615.615,0,0,0,.163-.335,3.151,3.151,0,0,0,.041-.508,1.6,1.6,0,0,0-.147-.742.63.63,0,0,0-.574-.29h-.178v-.879h.193a.7.7,0,0,0,.579-.224,1.214,1.214,0,0,0,.158-.7,1.357,1.357,0,0,0-.117-.61.467.467,0,0,0-.452-.218.442.442,0,0,0-.442.244,1.656,1.656,0,0,0-.117.63v.229H263.2v-.295a1.992,1.992,0,0,1,.183-.894,1.28,1.28,0,0,1,.549-.564,1.773,1.773,0,0,1,.869-.193,1.865,1.865,0,0,1,.884.188,1.27,1.27,0,0,1,.544.554,1.93,1.93,0,0,1,.188.884,1.616,1.616,0,0,1-.285.92.395.395,0,1,0-.163.721,1.275,1.275,0,0,1,.284.508,2.2,2.2,0,0,1,.107.732,2.864,2.864,0,0,1-.158.976,1.316,1.316,0,0,1-.508.661A1.662,1.662,0,0,1,264.77,331.325Z" transform="translate(-138.264 -177.489)" fill="#263238"/>
      <path id="Caminho_2206" data-name="Caminho 2206" d="M151,352.833v-1.524H149.16v-.9l1.606-3.76H152v3.821h.64v.838h-.63v1.524Zm-.96-2.352H151V347.8Z" transform="translate(-82.18 -188.145)" fill="#263238"/>
      <path id="Caminho_2207" data-name="Caminho 2207" d="M209.494,352.935a1.692,1.692,0,0,1-.955-.229,1.148,1.148,0,0,1-.467-.645,3.191,3.191,0,0,1-.132-.986h1.016a3.049,3.049,0,0,0,.041.554.666.666,0,0,0,.168.371.442.442,0,0,0,.366.127.417.417,0,0,0,.381-.173,1.113,1.113,0,0,0,.137-.478c0-.208.03-.447.03-.721a3.791,3.791,0,0,0-.041-.625.843.843,0,0,0-.163-.417.472.472,0,0,0-.381-.147.508.508,0,0,0-.366.147.929.929,0,0,0-.213.4h-.909l.061-3.44h2.774v.945h-1.885l-.061,1.489a.742.742,0,0,1,.33-.224,1.565,1.565,0,0,1,.508-.1,1.189,1.189,0,0,1,.793.2,1.326,1.326,0,0,1,.447.666,3.287,3.287,0,0,1,.147,1.016,5.5,5.5,0,0,1-.066.9,1.991,1.991,0,0,1-.239.711,1.214,1.214,0,0,1-.508.467A1.733,1.733,0,0,1,209.494,352.935Z" transform="translate(-111.095 -188.155)" fill="#263238"/>
      <path id="Caminho_2208" data-name="Caminho 2208" d="M264.84,352.887a1.393,1.393,0,0,1-1.438-1,3.14,3.14,0,0,1-.163-1.016v-2.164a3.979,3.979,0,0,1,.137-1.087,1.458,1.458,0,0,1,.508-.767,1.524,1.524,0,0,1,.981-.279,1.874,1.874,0,0,1,.884.178,1.108,1.108,0,0,1,.508.508,1.987,1.987,0,0,1,.158.843s0,.03,0,.051a.173.173,0,0,1,0,.051H265.4a1.525,1.525,0,0,0-.1-.62.422.422,0,0,0-.427-.2.432.432,0,0,0-.32.122.757.757,0,0,0-.178.4,3.668,3.668,0,0,0-.061.747v.737a.772.772,0,0,1,.325-.279,1.438,1.438,0,0,1,1.3.122,1.265,1.265,0,0,1,.417.63,3.213,3.213,0,0,1,.122.925,3.556,3.556,0,0,1-.152,1.077,1.4,1.4,0,0,1-1.489,1.026Zm0-.818a.412.412,0,0,0,.335-.137.823.823,0,0,0,.163-.381,3.107,3.107,0,0,0,.046-.569,4.35,4.35,0,0,0-.025-.6.879.879,0,0,0-.142-.422.447.447,0,0,0-.381-.152.6.6,0,0,0-.239.046.746.746,0,0,0-.193.127.842.842,0,0,0-.127.152v.97a2.335,2.335,0,0,0,.051.478.757.757,0,0,0,.178.356.442.442,0,0,0,.34.127Z" transform="translate(-138.298 -188.108)" fill="#263238"/>
      <path id="Caminho_2209" data-name="Caminho 2209" d="M150.132,374.383l1.25-5.365H149.71v-.808H152.4v.645l-1.245,5.528Z" transform="translate(-82.451 -198.751)" fill="#263238"/>
      <path id="Caminho_2210" data-name="Caminho 2210" d="M209.355,374.389a1.692,1.692,0,0,1-.945-.234,1.28,1.28,0,0,1-.508-.661,2.881,2.881,0,0,1-.152-.981,2.414,2.414,0,0,1,.046-.508,1.641,1.641,0,0,1,.147-.412,1.234,1.234,0,0,1,.234-.32,1.157,1.157,0,0,1,.31-.234,1.555,1.555,0,0,1-.462-.508,1.783,1.783,0,0,1-.193-.843,2.154,2.154,0,0,1,.163-.869,1.174,1.174,0,0,1,.508-.564,1.682,1.682,0,0,1,.854-.2,1.657,1.657,0,0,1,.854.2,1.2,1.2,0,0,1,.508.564,2,2,0,0,1,.157.869,1.793,1.793,0,0,1-.188.849,1.453,1.453,0,0,1-.452.508,1.183,1.183,0,0,1,.315.234,1.219,1.219,0,0,1,.229.32,1.64,1.64,0,0,1,.147.411,2.4,2.4,0,0,1,.051.508,2.652,2.652,0,0,1-.152.981,1.306,1.306,0,0,1-.508.66A1.7,1.7,0,0,1,209.355,374.389Zm0-.8a.452.452,0,0,0,.376-.152.767.767,0,0,0,.168-.386,2.932,2.932,0,0,0,.036-.478,2.3,2.3,0,0,0-.036-.508.894.894,0,0,0-.173-.391.457.457,0,0,0-.371-.152.437.437,0,0,0-.361.152.879.879,0,0,0-.178.386,2.648,2.648,0,0,0-.046.508,2.542,2.542,0,0,0,.041.483.773.773,0,0,0,.173.386.472.472,0,0,0,.371.178Zm0-2.952a.386.386,0,0,0,.3-.132.706.706,0,0,0,.158-.345,2.5,2.5,0,0,0,.046-.508,1.255,1.255,0,0,0-.112-.574.407.407,0,0,0-.391-.218.412.412,0,0,0-.391.218,1.1,1.1,0,0,0-.127.564,2.206,2.206,0,0,0,.051.508.706.706,0,0,0,.163.351.406.406,0,0,0,.3.137Z" transform="translate(-111.001 -198.676)" fill="#263238"/>
      <path id="Caminho_2211" data-name="Caminho 2211" d="M209.355,395.5a1.61,1.61,0,0,1-.894-.224,1.417,1.417,0,0,1-.533-.635,2.23,2.23,0,0,1-.178-.93v-2.739a2.378,2.378,0,0,1,.173-.945,1.321,1.321,0,0,1,.508-.635,1.925,1.925,0,0,1,1.819,0,1.357,1.357,0,0,1,.508.635,2.469,2.469,0,0,1,.173.945v2.739a2.23,2.23,0,0,1-.183.93,1.417,1.417,0,0,1-.533.635A1.611,1.611,0,0,1,209.355,395.5Zm0-.9a.432.432,0,0,0,.351-.142.808.808,0,0,0,.152-.356,2.148,2.148,0,0,0,.041-.4v-2.708a3.012,3.012,0,0,0-.036-.422.8.8,0,0,0-.147-.356.432.432,0,0,0-.361-.142.422.422,0,0,0-.356.142.808.808,0,0,0-.152.356,3,3,0,0,0-.03.422v2.708a1.794,1.794,0,0,0,.041.4.813.813,0,0,0,.158.356A.417.417,0,0,0,209.355,394.592Z" transform="translate(-111.001 -209.057)" fill="#263238"/>
      <path id="Caminho_2212" data-name="Caminho 2212" d="M264.625,374.394a1.865,1.865,0,0,1-.879-.183,1.113,1.113,0,0,1-.508-.533,2.032,2.032,0,0,1-.158-.854v-.081H264.1a1.463,1.463,0,0,0,.1.615.442.442,0,0,0,.437.208.417.417,0,0,0,.32-.122.823.823,0,0,0,.168-.406,4.062,4.062,0,0,0,.056-.737v-.742a.711.711,0,0,1-.32.274,1.3,1.3,0,0,1-.508.107,1.194,1.194,0,0,1-.788-.229,1.331,1.331,0,0,1-.417-.655,3.093,3.093,0,0,1-.127-.93,3.232,3.232,0,0,1,.157-1.067,1.474,1.474,0,0,1,.508-.727,1.57,1.57,0,0,1,.94-.264,1.524,1.524,0,0,1,.93.259,1.443,1.443,0,0,1,.508.7,3.049,3.049,0,0,1,.163,1.016v2.185a3.845,3.845,0,0,1-.142,1.092,1.473,1.473,0,0,1-.508.772A1.489,1.489,0,0,1,264.625,374.394Zm0-3.252a.508.508,0,0,0,.34-.107.941.941,0,0,0,.2-.229v-.96a2.328,2.328,0,0,0-.046-.483.752.752,0,0,0-.163-.351.432.432,0,0,0-.34-.137.406.406,0,0,0-.33.137.777.777,0,0,0-.168.381,3.166,3.166,0,0,0-.046.574,5.263,5.263,0,0,0,.031.594.813.813,0,0,0,.137.422.437.437,0,0,0,.386.158Z" transform="translate(-138.19 -198.68)" fill="#263238"/>
      <path id="Caminho_2213" data-name="Caminho 2213" d="M197.21,275.463V269.29H199.8v.793h-1.463v1.773h1.153v.788h-1.153v2.032h1.479v.777Z" transform="translate(-105.817 -150.09)" fill="#fc4f22"/>
      <path id="Caminho_2214" data-name="Caminho 2214" d="M203.63,275.463V269.29h.788l1.5,3.521V269.29h.95v6.173h-.747l-1.524-3.689v3.689Z" transform="translate(-108.975 -150.09)" fill="#fc4f22"/>
      <path id="Caminho_2215" data-name="Caminho 2215" d="M212.051,275.463v-5.345h-.981v-.828h3.079v.828h-.97v5.345Z" transform="translate(-112.635 -150.09)" fill="#fc4f22"/>
      <path id="Caminho_2216" data-name="Caminho 2216" d="M218.26,275.463V269.29h2.591v.793h-1.463v1.773h1.148v.788h-1.148v2.032h1.479v.777Z" transform="translate(-116.172 -150.09)" fill="#fc4f22"/>
      <path id="Caminho_2217" data-name="Caminho 2217" d="M224.68,275.462v-6.173h1.479a3.217,3.217,0,0,1,1.057.147,1.219,1.219,0,0,1,.655.508,1.849,1.849,0,0,1,.224.975,2.984,2.984,0,0,1-.071.671,1.275,1.275,0,0,1-.229.508,1.057,1.057,0,0,1-.457.325l.864,3.048h-1.128l-.747-2.83h-.508v2.83Zm1.128-3.557h.351a1.251,1.251,0,0,0,.508-.1.579.579,0,0,0,.274-.3,1.473,1.473,0,0,0,.086-.539,1.143,1.143,0,0,0-.173-.7.752.752,0,0,0-.65-.234h-.412Z" transform="translate(-119.33 -150.089)" fill="#fc4f22"/>
      <path id="Caminho_2218" data-name="Caminho 2218" d="M166.2,101.1l-1.077-5.35h.864l.706,3.785.66-3.785h.884l-1.077,5.35Z" transform="translate(-90.031 -64.722)" fill="#263238"/>
      <path id="Caminho_2219" data-name="Caminho 2219" d="M172.33,101.1V95.75h2.246v.686h-1.265V97.96h1.016v.681h-1.016v1.809h1.28v.671Z" transform="translate(-93.578 -64.722)" fill="#263238"/>
      <path id="Caminho_2220" data-name="Caminho 2220" d="M177.89,101.1v-5.35h1.285a2.8,2.8,0,0,1,.915.132,1.052,1.052,0,0,1,.569.437,1.605,1.605,0,0,1,.193.843,2.54,2.54,0,0,1-.061.584,1.118,1.118,0,0,1-.2.437.93.93,0,0,1-.4.285l.747,2.632h-.965l-.65-2.449h-.447V101.1Zm.981-3.048h.3a1.016,1.016,0,0,0,.452-.081.473.473,0,0,0,.239-.264,1.24,1.24,0,0,0,.071-.467,1.016,1.016,0,0,0-.147-.6.661.661,0,0,0-.564-.2h-.356Z" transform="translate(-96.313 -64.721)" fill="#263238"/>
      <path id="Caminho_2221" data-name="Caminho 2221" d="M185.21,101.1V95.75h.965v5.35Z" transform="translate(-99.914 -64.722)" fill="#263238"/>
      <path id="Caminho_2222" data-name="Caminho 2222" d="M188.74,101.1V95.75h2.2v.676h-1.224v1.56h1.016v.681h-1.016V101.1Z" transform="translate(-101.651 -64.722)" fill="#263238"/>
      <path id="Caminho_2223" data-name="Caminho 2223" d="M194.12,101.1V95.75h.955v5.35Z" transform="translate(-104.297 -64.722)" fill="#263238"/>
      <path id="Caminho_2224" data-name="Caminho 2224" d="M199.008,101.119a1.616,1.616,0,0,1-.925-.234,1.184,1.184,0,0,1-.462-.63,2.83,2.83,0,0,1-.132-.92v-1.91a2.963,2.963,0,0,1,.132-.95,1.108,1.108,0,0,1,.462-.62,1.661,1.661,0,0,1,.925-.218,1.7,1.7,0,0,1,.869.188,1.016,1.016,0,0,1,.442.539,2.21,2.21,0,0,1,.132.808v.452h-.935v-.462a3.373,3.373,0,0,0,0-.412.508.508,0,0,0-.127-.295.467.467,0,0,0-.351-.107.508.508,0,0,0-.366.117.579.579,0,0,0-.152.31,2.8,2.8,0,0,0-.03.437v2.327a2.084,2.084,0,0,0,.046.478.459.459,0,0,0,.5.381.442.442,0,0,0,.345-.117.508.508,0,0,0,.127-.3,2.785,2.785,0,0,0,.03-.432v-.508h.935v.432a2.7,2.7,0,0,1-.122.843,1.133,1.133,0,0,1-.442.574,1.6,1.6,0,0,1-.9.234Z" transform="translate(-105.954 -64.665)" fill="#263238"/>
      <path id="Caminho_2225" data-name="Caminho 2225" d="M204.13,101.1l1.067-5.35h1.047l1.067,5.35h-.9l-.208-1.235h-.935l-.213,1.235Zm1.235-1.854h.732L205.73,97Z" transform="translate(-109.221 -64.722)" fill="#263238"/>
      <path id="Caminho_2226" data-name="Caminho 2226" d="M211.174,101.1V96.471h-.854V95.75h2.667v.721h-.838V101.1Z" transform="translate(-112.266 -64.722)" fill="#263238"/>
      <path id="Caminho_2227" data-name="Caminho 2227" d="M216.59,101.1V95.75h.965v5.35Z" transform="translate(-115.351 -64.722)" fill="#263238"/>
      <path id="Caminho_2228" data-name="Caminho 2228" d="M221.523,101.1a1.667,1.667,0,0,1-.9-.213,1.184,1.184,0,0,1-.483-.61,2.713,2.713,0,0,1-.137-.92V97.325a2.662,2.662,0,0,1,.147-.93,1.153,1.153,0,0,1,.462-.594,1.717,1.717,0,0,1,.9-.2,1.742,1.742,0,0,1,.915.2,1.179,1.179,0,0,1,.483.589,2.662,2.662,0,0,1,.137.935v2.032a2.7,2.7,0,0,1-.147.93,1.219,1.219,0,0,1-.483.6A1.692,1.692,0,0,1,221.523,101.1Zm0-.721a.452.452,0,0,0,.513-.4,1.986,1.986,0,0,0,.041-.4V97.117a1.967,1.967,0,0,0-.041-.406.508.508,0,0,0-.152-.279.544.544,0,0,0-.361-.122.534.534,0,0,0-.351.1.508.508,0,0,0-.158.279,1.672,1.672,0,0,0-.041.406v2.464a2,2,0,0,0,.036.4.486.486,0,0,0,.513.412Z" transform="translate(-117.027 -64.646)" fill="#263238"/>
      <path id="Caminho_2229" data-name="Caminho 2229" d="M227.44,101.1V95.75h.681l1.3,3.048V95.75h.8v5.35h-.645l-1.306-3.191v3.2Z" transform="translate(-120.688 -64.722)" fill="#263238"/>
      <path id="Caminho_2230" data-name="Caminho 2230" d="M239.039,101.12a1.611,1.611,0,0,1-.92-.234,1.184,1.184,0,0,1-.462-.63,2.825,2.825,0,0,1-.137-.92v-1.91a2.952,2.952,0,0,1,.137-.95,1.108,1.108,0,0,1,.462-.62,1.651,1.651,0,0,1,.92-.218,1.672,1.672,0,0,1,.869.188,1.016,1.016,0,0,1,.447.539,2.209,2.209,0,0,1,.132.808v.452h-.935v-.462a3.373,3.373,0,0,0-.025-.412.508.508,0,0,0-.127-.295.467.467,0,0,0-.351-.107.508.508,0,0,0-.366.117.544.544,0,0,0-.152.31,2.8,2.8,0,0,0-.03.437v2.327a2.083,2.083,0,0,0,.046.478.459.459,0,0,0,.5.381.442.442,0,0,0,.345-.117.559.559,0,0,0,.127-.3,2.785,2.785,0,0,0,.03-.432v-.508h.935v.432a2.54,2.54,0,0,1-.127.843,1.1,1.1,0,0,1-.437.574,1.6,1.6,0,0,1-.884.234Z" transform="translate(-125.646 -64.665)" fill="#263238"/>
      <path id="Caminho_2231" data-name="Caminho 2231" d="M246.078,101.108a1.677,1.677,0,0,1-.9-.213,1.184,1.184,0,0,1-.483-.61,2.718,2.718,0,0,1-.142-.935V97.333a2.673,2.673,0,0,1,.142-.93,1.153,1.153,0,0,1,.483-.589,2.139,2.139,0,0,1,1.819,0,1.153,1.153,0,0,1,.483.589,2.54,2.54,0,0,1,.147.93v2.032a2.586,2.586,0,0,1-.147.93,1.189,1.189,0,0,1-.483.6,1.692,1.692,0,0,1-.915.208Zm0-.721a.508.508,0,0,0,.361-.107.574.574,0,0,0,.158-.29,2,2,0,0,0,.036-.4V97.124a1.987,1.987,0,0,0-.036-.406.564.564,0,0,0-.158-.279.671.671,0,0,0-.711,0,.508.508,0,0,0-.158.279,1.966,1.966,0,0,0-.041.406v2.464a2.459,2.459,0,0,0,.036.4.452.452,0,0,0,.513.391Z" transform="translate(-129.104 -64.653)" fill="#263238"/>
      <path id="Caminho_2232" data-name="Caminho 2232" d="M252,101.1v-5.35h1.26a2.408,2.408,0,0,1,1.016.178,1.077,1.077,0,0,1,.508.549,2.49,2.49,0,0,1,.152.94V99.37a2.652,2.652,0,0,1-.152.965,1.067,1.067,0,0,1-.508.574,2.129,2.129,0,0,1-.986.188Zm.975-.681h.3a.757.757,0,0,0,.483-.117.508.508,0,0,0,.178-.345,4.343,4.343,0,0,0,.03-.559V97.364a2.4,2.4,0,0,0-.046-.508.437.437,0,0,0-.188-.29.935.935,0,0,0-.473-.091h-.285Z" transform="translate(-132.77 -64.72)" fill="#263238"/>
      <path id="Caminho_2233" data-name="Caminho 2233" d="M259.26,101.1V95.75h2.246v.686h-1.27V97.96h1.016v.681h-1.016v1.809h1.285v.671Z" transform="translate(-136.341 -64.722)" fill="#263238"/>
    </g>
    <g id="freepik--Arrow--inject-236" transform="translate(166.744 19.698)">
      <path id="Caminho_2234" data-name="Caminho 2234" d="M401.544,46.3a.254.254,0,0,1-.254-.254v-2.54a.254.254,0,0,1,.508,0v2.54A.254.254,0,0,1,401.544,46.3Zm0-5.081a.254.254,0,0,1-.254-.254v-2.54a.254.254,0,0,1,.508,0v2.54A.254.254,0,0,1,401.544,41.221Zm0-5.081a.254.254,0,0,1-.254-.254v-2.54a.254.254,0,0,1,.508,0v2.54A.254.254,0,0,1,401.544,36.14Zm0-5.081a.254.254,0,0,1-.254-.254v-2.54a.254.254,0,0,1,.508,0v2.54A.254.254,0,0,1,401.544,31.059Zm0-5.081a.254.254,0,0,1-.254-.254v-2.54a.254.254,0,0,1,.508,0v2.54A.254.254,0,0,1,401.544,25.978Z" transform="translate(-357.86 -22.93)" fill="#263238"/>
      <path id="Caminho_2235" data-name="Caminho 2235" d="M351.081,190.344h-2.3a.254.254,0,0,1-.254-.254.259.259,0,0,1,.254-.254h2.54a.254.254,0,1,1,0,.508Zm-4.842,0H343.7a.254.254,0,0,1-.254-.254.259.259,0,0,1,.254-.254h2.54a.254.254,0,1,1-.015.508Zm-5.081,0h-2.54a.254.254,0,0,1-.254-.254.259.259,0,0,1,.254-.254h2.54a.254.254,0,1,1-.015.508Zm-5.081,0h-2.54a.254.254,0,0,1-.254-.254.259.259,0,0,1,.254-.254h2.54a.254.254,0,1,1-.015.508Zm-5.081,0h-2.54a.254.254,0,0,1-.254-.254.259.259,0,0,1,.254-.254H331a.254.254,0,1,1-.015.508Zm-5.081,0h-1.352a.254.254,0,0,1-.254-.254.259.259,0,0,1,.254-.254h1.352a.254.254,0,1,1-.015.508Zm27.944-.3a.256.256,0,0,1-.056-.508,12.108,12.108,0,0,0,2.358-.782.249.249,0,0,1,.335.127.254.254,0,0,1-.127.335,12.767,12.767,0,0,1-2.454.818Zm4.6-2.068a.254.254,0,0,1-.152-.457,12.8,12.8,0,0,0,1.865-1.646.254.254,0,0,1,.371.34,12.965,12.965,0,0,1-1.936,1.717.264.264,0,0,1-.183.046Zm3.424-3.7a.244.244,0,0,1-.132-.036.259.259,0,0,1-.086-.351,12.418,12.418,0,0,0,1.072-2.241.249.249,0,0,1,.325-.152.254.254,0,0,1,.152.325,12.913,12.913,0,0,1-1.113,2.332.254.254,0,0,1-.254.122Zm1.7-4.751h-.041a.259.259,0,0,1-.213-.29,12.653,12.653,0,0,0,.122-1.753v-.742a.254.254,0,1,1,.508,0v.742a12.839,12.839,0,0,1-.127,1.824.254.254,0,0,1-.285.218Zm.122-5.081a.259.259,0,0,1-.254-.254v-2.54a.254.254,0,0,1,.508,0v2.54a.254.254,0,0,1-.29.264Zm0-5.081a.259.259,0,0,1-.254-.254v-2.54a.254.254,0,1,1,.508,0v2.54a.254.254,0,0,1-.29.264Zm0-5.081a.259.259,0,0,1-.254-.254v-2.54a.254.254,0,1,1,.508,0v2.54a.254.254,0,0,1-.29.264Zm0-5.081a.259.259,0,0,1-.254-.254V156.4a.254.254,0,0,1,.508,0v2.54a.254.254,0,0,1-.29.264Z" transform="translate(-319.991 -88.464)" fill="#263238"/>
      <path id="Caminho_2236" data-name="Caminho 2236" d="M321.3,216.72l-5.487,3.165,5.487,3.17Z" transform="translate(-315.81 -118.26)" fill="#263238"/>
    </g>
    <g id="freepik--Envelope--inject-236" transform="translate(184.187 43.588)">
      <rect id="Retângulo_181" data-name="Retângulo 181" width="46.032" height="32.954" transform="matrix(0.979, 0.202, -0.202, 0.979, 9.275, 3.301)" fill="#263238"/>
      <rect id="Retângulo_182" data-name="Retângulo 182" width="46.032" height="32.954" transform="matrix(0.979, 0.202, -0.202, 0.979, 6.941, 0.296)" fill="#fff"/>
      <path id="Caminho_2237" data-name="Caminho 2237" d="M395.725,112.095l-45.585-9.379.051-.249,6.7-32.517,45.585,9.374-.051.249ZM350.74,102.32l44.589,9.176,6.564-31.775-44.614-9.176Z" transform="translate(-350.14 -69.95)" fill="#263238"/>
      <path id="Caminho_2238" data-name="Caminho 2238" d="M382.76,91.286a.264.264,0,0,1-.188-.081l-19.221-20.78a.254.254,0,1,1,.371-.34l19.1,20.643,25.7-11.427a.254.254,0,0,1,.335.127.249.249,0,0,1-.127.335l-25.866,11.5A.228.228,0,0,1,382.76,91.286Z" transform="translate(-356.594 -69.962)" fill="#263238"/>
    </g>
    <g id="freepik--Character--inject-236" transform="translate(95.389 139.026)">
      <path id="Caminho_2239" data-name="Caminho 2239" d="M283.556,398.426s-8.81-11.767-19.8-19.9-20.425-11.483-23.016-10.705a12.892,12.892,0,0,0-4.862,3.277l-30.723,30.85s-10.136,8-11.254,8.7-6.351,3.963-9.557,4.969-8.454.848-8.48,1.824.681,1.727,2.246,2.388a29.116,29.116,0,0,0,9.1,1.982,30.753,30.753,0,0,1,7.057.945c1.092.274,4.227,1.712,4.994.508s1.829-8.129,2.093-8.856,10-7.763,16.822-11.1,15.166-8.83,17.569-11.447,5.939-6.661,5.939-6.661,10.929,10.339,14.694,15.217,9.811,10.919,20.775,16.009,15,.94,15.75-3.2S283.556,398.426,283.556,398.426Z" transform="translate(-175.609 -311.865)" fill="#fff"/>
      <path id="Caminho_2240" data-name="Caminho 2240" d="M197.877,423.74a10.6,10.6,0,0,1-3.048-.716c-.351-.117-.65-.219-.859-.274a30.992,30.992,0,0,0-7-.935,29.047,29.047,0,0,1-9.2-2c-1.672-.7-2.439-1.524-2.4-2.632,0-.727,1.265-.909,3.856-1.214a27.944,27.944,0,0,0,4.8-.843,49.391,49.391,0,0,0,9.5-4.939c1.1-.686,11.132-8.612,11.234-8.688l30.7-30.845a13.147,13.147,0,0,1,4.969-3.343c2.627-.8,12.128,2.54,23.234,10.741,10.751,7.967,19.525,19.5,19.851,19.932.539.569,10.131,10.842,9.389,15.024a6.651,6.651,0,0,1-3.424,4.908c-2.932,1.524-7.189,1.016-12.666-1.524-8.866-4.12-15.694-9.379-20.872-16.086-3.435-4.451-13-13.606-14.475-15.009-.742.848-3.7,4.212-5.772,6.468-2.495,2.723-10.9,8.205-17.64,11.508-6.864,3.358-16.3,10.217-16.7,10.969-.076.208-.259,1.148-.467,2.236-.467,2.454-1.108,5.812-1.651,6.661a1.524,1.524,0,0,1-1.357.6Zm43.552-56.031a3.012,3.012,0,0,0-.864.107,12.809,12.809,0,0,0-4.745,3.2l-30.734,30.855c-.437.345-10.162,8.043-11.3,8.739a49.47,49.47,0,0,1-9.613,5,28.493,28.493,0,0,1-4.893.859c-1.275.152-3.4.406-3.409.727-.025.859.64,1.524,2.093,2.149a28.579,28.579,0,0,0,9.013,1.961,31.21,31.21,0,0,1,7.113.95c.234.061.544.163.9.285,1.24.422,3.313,1.128,3.821.34s1.148-4.207,1.58-6.483a19.292,19.292,0,0,1,.508-2.322c.345-.935,10.36-8.017,16.949-11.244s15.075-8.759,17.493-11.391,5.9-6.605,5.934-6.661a.249.249,0,0,1,.178-.086.234.234,0,0,1,.188.066c.112.107,10.99,10.416,14.734,15.242,5.126,6.641,11.894,11.853,20.689,15.933,5.243,2.439,9.471,2.967,12.194,1.524a6.254,6.254,0,0,0,3.16-4.547c.7-3.963-9.145-14.49-9.267-14.6h0c-.086-.122-8.917-11.813-19.754-19.815C253.425,371.1,244.787,367.709,241.429,367.709Z" transform="translate(-175.368 -311.608)" fill="#263238"/>
      <path id="Caminho_2241" data-name="Caminho 2241" d="M292.461,378.529c-11-8.129-20.425-11.483-23.016-10.705a12.892,12.892,0,0,0-4.862,3.277L234.22,401.586a10.026,10.026,0,0,0,5.589,5.782A78.256,78.256,0,0,1,246.9,403.3c6.818-3.343,15.166-8.835,17.569-11.452s5.939-6.661,5.939-6.661,10.929,10.339,14.694,15.217,13.967,18.53,25.658,21.6c21.517,5.665,20.785-5.3,21.517-9.44s-20-14.16-20-14.16S303.456,386.659,292.461,378.529Z" transform="translate(-204.318 -311.865)" fill="#263238"/>
      <path id="Caminho_2242" data-name="Caminho 2242" d="M320.84,423.583a41.663,41.663,0,0,1-10.39-1.59c-11.4-3-21.222-15.75-25.4-21.2l-.376-.508c-3.435-4.451-13-13.606-14.475-15.009-.742.849-3.7,4.212-5.772,6.468-2.495,2.723-10.9,8.205-17.64,11.508a78.052,78.052,0,0,0-7.067,4.034.249.249,0,0,1-.239,0,10.217,10.217,0,0,1-5.711-5.924.254.254,0,0,1,.061-.264l30.363-30.485a13.146,13.146,0,0,1,4.969-3.343c2.627-.8,12.128,2.54,23.234,10.741h0c10.538,7.809,19.18,19.053,19.815,19.9,2.383,1.153,20.831,10.243,20.084,14.409-.066.361-.117.772-.173,1.214-.31,2.418-.777,6.061-3.973,8.221A12.859,12.859,0,0,1,320.84,423.583Zm-50.676-38.909a.269.269,0,0,1,.173.066c.112.107,10.99,10.416,14.734,15.242l.381.508c4.161,5.406,13.906,18.067,25.14,21.024,8.129,2.144,13.962,2.1,17.275-.137,3-2.032,3.435-5.4,3.75-7.86.061-.457.112-.874.178-1.24.574-3.236-14.14-11.127-19.861-13.891a.331.331,0,0,1-.091-.076c-.086-.122-8.917-11.813-19.754-19.815h0c-10.974-8.129-20.288-11.417-22.792-10.67a12.659,12.659,0,0,0-4.745,3.2l-30.266,30.347a9.8,9.8,0,0,0,5.264,5.426,77.893,77.893,0,0,1,7-3.988c6.575-3.221,15.075-8.759,17.493-11.391s5.9-6.605,5.934-6.661a.249.249,0,0,1,.178-.086Z" transform="translate(-204.088 -311.588)" fill="#263238"/>
      <path id="Caminho_2243" data-name="Caminho 2243" d="M175.859,459.028c-.03.976.681,1.727,2.246,2.388a29.117,29.117,0,0,0,9.1,1.981,30.752,30.752,0,0,1,7.057.945c1.092.274,4.227,1.712,4.994.508.661-1.016,1.524-6.3,1.941-8.211a21.733,21.733,0,0,1-7.154-1.352,7.119,7.119,0,0,0-.152-3.048c-1.123.7-6.351,3.963-9.557,4.969S175.884,458.052,175.859,459.028Z" transform="translate(-175.609 -353.445)" fill="#fff"/>
      <path id="Caminho_2244" data-name="Caminho 2244" d="M197.877,465.338a10.6,10.6,0,0,1-3.048-.716c-.351-.117-.65-.218-.859-.274a30.989,30.989,0,0,0-7-.935,29.046,29.046,0,0,1-9.2-2c-1.672-.7-2.439-1.524-2.4-2.632h0c0-.727,1.265-.909,3.856-1.214a27.947,27.947,0,0,0,4.8-.843,49.389,49.389,0,0,0,9.5-4.939.264.264,0,0,1,.239,0,.254.254,0,0,1,.147.188,9.054,9.054,0,0,1,.193,2.942,21.1,21.1,0,0,0,6.854,1.26.254.254,0,0,1,.2.086.244.244,0,0,1,.051.218c-.086.417-.193.986-.32,1.636-.467,2.454-1.108,5.812-1.651,6.661a1.524,1.524,0,0,1-1.362.564Zm-22-6.544c-.025.859.64,1.524,2.093,2.149a28.614,28.614,0,0,0,9.013,1.961,31.213,31.213,0,0,1,7.113.95c.234.061.544.163.9.285,1.24.422,3.313,1.128,3.821.34s1.148-4.207,1.58-6.478c.1-.508.183-.965.259-1.336a22.284,22.284,0,0,1-6.93-1.372.254.254,0,0,1-.152-.315,6.641,6.641,0,0,0-.091-2.571,48.158,48.158,0,0,1-9.3,4.8,28.485,28.485,0,0,1-4.893.859c-1.275.152-3.4.406-3.409.727Z" transform="translate(-175.368 -353.206)" fill="#263238"/>
      <path id="Caminho_2245" data-name="Caminho 2245" d="M409.875,299.446a73.987,73.987,0,0,1-14.028-16.624c-4.573-7.794-3.323-10.283-6.752-16.416s-8.414-9.145-15.171-7.794a14.7,14.7,0,0,0-9.145,5.589c-.2.269-.4.508-.61.782-.986,1.153-4.105,5.431-6.437,15.451-2.81,12.052-2.7,17.971,1.555,20.775s7.276,1.56,8.52,2.911,1.661,3.013.625,3.013a2.083,2.083,0,0,1-1.56-.625s2.388,3.638,4.674,2.6,4.883-4.776,3.221-9.765-6.127-10.075-6.859-11.01-2.18-11.742-2.18-11.742.107-3.638,4.156-2.388,9.557,3.531,11.325,7.169,8.312,11.843,14.023,14.333,8,4.781,10.08,10.914,2.078,8.1,2.078,8.1,4.258-1.971,5.081-6.437S412.781,302.042,409.875,299.446Zm-50.183.2c-1.971-2.18-.727-6.127-.727-6.127-.625,5.589,5.817,8.729,5.817,8.729A9.268,9.268,0,0,1,359.692,299.649Z" transform="translate(-264.137 -258.038)" fill="#263238"/>
      <path id="Caminho_2246" data-name="Caminho 2246" d="M407.119,314.721a.244.244,0,0,1-.254-.249s-.036-2.032-2.068-8.023-4.141-8.231-9.938-10.761-12.417-10.863-14.15-14.46-7.011-5.757-11.178-7.037a3.179,3.179,0,0,0-2.835.147,2.825,2.825,0,0,0-.991,2.007c.559,4.11,1.631,10.939,2.129,11.579l.366.457c1.377,1.682,5.04,6.153,6.534,10.629,1.707,5.126-.94,8.978-3.358,10.08s-4.893-2.54-4.994-2.693a.254.254,0,0,1,.406-.3,1.844,1.844,0,0,0,1.367.533c.2,0,.264-.081.295-.152.178-.406-.224-1.479-1.108-2.434-.462-.508-1.24-.6-2.317-.742a13.21,13.21,0,0,1-6.153-2.129c-4.2-2.769-4.639-8.277-1.667-21.05,2.357-10.131,5.589-14.47,6.493-15.557.188-.218.376-.462.594-.762a15.021,15.021,0,0,1,9.318-5.69c6.569-1.311,11.767,1.351,15.44,7.921a29.62,29.62,0,0,1,2.8,7.047,35.529,35.529,0,0,0,3.938,9.364,75.022,75.022,0,0,0,13.992,16.558c2.972,2.657,3.521,4.522,2.678,9.069a9.712,9.712,0,0,1-5.233,6.6A.264.264,0,0,1,407.119,314.721Zm.254-.254Zm-39.3-41.032a5.492,5.492,0,0,1,1.616.274c4.253,1.311,9.7,3.638,11.477,7.3,1.7,3.511,8.129,11.686,13.9,14.226,5.96,2.6,8.155,4.974,10.217,11.061a40.657,40.657,0,0,1,2.063,7.774,9.349,9.349,0,0,0,4.618-6.1c.813-4.38.32-6.066-2.54-8.6a73.894,73.894,0,0,1-14.074-16.685,35.906,35.906,0,0,1-4-9.481,28.958,28.958,0,0,0-2.754-6.94c-3.557-6.351-8.566-8.932-14.9-7.662a14.454,14.454,0,0,0-9,5.482c-.224.315-.422.569-.62.8-.909,1.067-4.065,5.32-6.387,15.344-2.911,12.519-2.54,17.884,1.453,20.506a12.758,12.758,0,0,0,5.939,2.032,4.115,4.115,0,0,1,2.627.9c.981,1.067,1.484,2.317,1.194,2.982a.767.767,0,0,1-.757.457,2.656,2.656,0,0,1-.594-.066c.843.94,2.266,2.159,3.6,1.555,2.251-1.016,4.695-4.634,3.089-9.455-1.463-4.39-5.081-8.81-6.442-10.471-.168-.2-.295-.361-.376-.467-.747-.96-2.083-10.746-2.23-11.859a3.277,3.277,0,0,1,1.194-2.449A2.815,2.815,0,0,1,368.074,273.434Zm-3.557,28.823h-.036a9.332,9.332,0,0,1-5.243-2.678h0c-2.032-2.261-.833-6.209-.782-6.376a.254.254,0,0,1,.295-.173.264.264,0,0,1,.2.279c-.6,5.36,5.589,8.439,5.675,8.47a.251.251,0,0,1-.107.478Zm-4.9-3.023a8.088,8.088,0,0,0,3.313,2.093,10.3,10.3,0,0,1-4.349-5.762,5.157,5.157,0,0,0,1.016,3.668Z" transform="translate(-263.876 -257.791)" fill="#263238"/>
      <path id="Caminho_2247" data-name="Caminho 2247" d="M338.229,428.487s-13.794-2.444-17.214-1.219-12.331,15.872-13.921,17.579a6.715,6.715,0,0,1-4.761,2.444c-1.463,0-6.717-.975-9.77-.366s-6.839,2.566-6.468,4.395,2.073,2.688,7.692,3.557a24.806,24.806,0,0,0,13.185-2.078c1.585-.859,3.419-2.073,3.907-2.317s4.883-1.224,7.326-2.81a42.333,42.333,0,0,0,5.126-4.151s10.38,4.761,14.287,6.839a34.087,34.087,0,0,0,13.434,3.419c3.419,0,10.868-.981,12.7-1.834S369,447.794,369,444.014s.406-9.069-.838-9.3-2.337.264-3.557.142-7.941-3.907-9.653-4.644S338.229,428.487,338.229,428.487Z" transform="translate(-229.825 -340.991)" fill="#263238"/>
      <path id="Caminho_2248" data-name="Caminho 2248" d="M296.344,455.094a18.38,18.38,0,0,1-2.84-.208c-5.655-.859-7.5-1.733-7.9-3.739s3.678-4.1,6.666-4.695c2.2-.442,5.533-.071,7.738.173.93.107,1.666.188,2.083.188a6.5,6.5,0,0,0,4.573-2.363,47.564,47.564,0,0,0,2.866-4.065c3.44-5.081,8.637-12.7,11.152-13.6,3.419-1.224,16.594,1.077,17.331,1.2.793.051,15.08,1.016,16.8,1.727.615.269,1.849.909,3.282,1.656,2.342,1.219,5.553,2.891,6.29,2.967a6.605,6.605,0,0,0,1.575-.091,6.1,6.1,0,0,1,2-.046c1.133.2,1.163,2.86,1.077,7.2,0,.8-.03,1.6-.03,2.342,0,3.943-3.557,7.316-5.4,8.165s-9.318,1.86-12.8,1.86a34.335,34.335,0,0,1-13.55-3.45c-3.6-1.91-12.809-6.158-14.12-6.763a41.446,41.446,0,0,1-5.04,4.065,27.092,27.092,0,0,1-6.356,2.51c-.478.142-.889.259-.991.315-.188.091-.6.346-1.123.671-.772.478-1.824,1.128-2.779,1.641A24.731,24.731,0,0,1,296.344,455.094Zm-1.555-8.338a12.61,12.61,0,0,0-2.418.193c-3.155.63-6.58,2.54-6.27,4.1.345,1.743,2.093,2.54,7.479,3.343a25.193,25.193,0,0,0,13.027-2.032c.945-.508,1.992-1.153,2.754-1.626.554-.345.955-.594,1.163-.7a9.66,9.66,0,0,1,1.077-.345,25.778,25.778,0,0,0,6.224-2.449,42.7,42.7,0,0,0,5.081-4.121.259.259,0,0,1,.279-.051c.107.051,10.431,4.791,14.3,6.849a34.036,34.036,0,0,0,13.312,3.389c3.445,0,10.8-.97,12.59-1.809s5.106-3.988,5.106-7.708c0-.742,0-1.524.03-2.352.051-2.612.127-6.554-.66-6.7a5.623,5.623,0,0,0-1.844.051,6.885,6.885,0,0,1-1.692.091c-.772-.076-3.282-1.357-6.478-3.023-1.418-.737-2.642-1.377-3.247-1.636-1.321-.564-11.462-1.351-16.645-1.687h-.025c-.137,0-13.769-2.413-17.087-1.23-2.357.838-7.708,8.708-10.9,13.408-1.367,2.032-2.449,3.6-2.916,4.105a7.017,7.017,0,0,1-4.949,2.54c-.442,0-1.194-.086-2.139-.188A48.3,48.3,0,0,0,294.789,446.756Z" transform="translate(-229.582 -340.746)" fill="#263238"/>
      <path id="Caminho_2249" data-name="Caminho 2249" d="M346.442,431.489a.274.274,0,0,1-.173-.061.259.259,0,0,1,0-.361,52.048,52.048,0,0,1,4.187-4.38c1.56-1.255,11.864-.107,13.037.03a.254.254,0,0,1,.224.279.259.259,0,0,1-.285.224c-4.507-.508-11.6-.986-12.661-.137a48.061,48.061,0,0,0-4.12,4.319.244.244,0,0,1-.208.086Z" transform="translate(-259.402 -340.589)" fill="#fff"/>
      <path id="Caminho_2250" data-name="Caminho 2250" d="M342.176,439.665a.254.254,0,0,1-.193-.417s.508-.615,1.28-1.484a.256.256,0,0,1,.386.335c-.757.864-1.28,1.479-1.28,1.479A.264.264,0,0,1,342.176,439.665Z" transform="translate(-257.301 -346.281)" fill="#fff"/>
      <path id="Caminho_2251" data-name="Caminho 2251" d="M306.723,463a6.484,6.484,0,0,1-4.39,2.073c-1.468,0-6.717-.976-9.77-.366s-6.839,2.566-6.468,4.395,2.073,2.688,7.692,3.557a24.806,24.806,0,0,0,13.185-2.078c1.585-.859,3.323-2.032,3.866-2.3A7.825,7.825,0,0,1,306.723,463Z" transform="translate(-229.825 -358.738)" fill="#fff"/>
      <path id="Caminho_2252" data-name="Caminho 2252" d="M296.344,472.825a18.38,18.38,0,0,1-2.84-.208c-5.655-.859-7.5-1.733-7.9-3.739s3.678-4.1,6.666-4.695c2.2-.442,5.533-.071,7.738.173.93.107,1.666.188,2.083.188a6.26,6.26,0,0,0,4.212-2,.264.264,0,0,1,.249-.061.254.254,0,0,1,.178.178,7.611,7.611,0,0,0,3.973,5.106.254.254,0,0,1,0,.457c-.2.107-.594.346-1.087.65-.767.478-1.819,1.128-2.774,1.641A25.058,25.058,0,0,1,296.344,472.825Zm-1.555-8.338a12.61,12.61,0,0,0-2.418.193c-3.155.63-6.58,2.54-6.27,4.1.345,1.743,2.093,2.54,7.479,3.343a25.193,25.193,0,0,0,13.027-2.032c.945-.508,1.987-1.153,2.754-1.626.269-.168.508-.315.7-.432a8.1,8.1,0,0,1-3.714-4.817,6.554,6.554,0,0,1-4.258,1.86c-.442,0-1.194-.086-2.139-.188A48.3,48.3,0,0,0,294.789,464.488Z" transform="translate(-229.582 -358.478)" fill="#263238"/>
      <path id="Caminho_2253" data-name="Caminho 2253" d="M302.7,469.068c-.589-.96.066-2.032.681-2.688a4.77,4.77,0,0,1-1.047.122c-1.468,0-6.717-.975-9.77-.366s-6.839,2.566-6.468,4.395,2.073,2.688,7.692,3.557a24.806,24.806,0,0,0,13.185-2.078c.244-.127.508-.269.742-.412C306.17,471.369,303.553,470.449,302.7,469.068Z" transform="translate(-229.825 -360.182)" fill="#fff"/>
      <path id="Caminho_2254" data-name="Caminho 2254" d="M296.344,474.283a18.38,18.38,0,0,1-2.84-.208c-5.655-.859-7.5-1.733-7.9-3.739s3.678-4.1,6.666-4.695c2.2-.442,5.533-.071,7.738.173.93.107,1.666.188,2.083.188a4.5,4.5,0,0,0,.991-.117.254.254,0,0,1,.274.122.244.244,0,0,1-.03.295c-.574.64-1.153,1.57-.65,2.383h0c.793,1.3,3.353,2.195,4.832,2.4a.254.254,0,0,1,.213.2.259.259,0,0,1-.122.269c-.254.147-.508.285-.747.417A25.157,25.157,0,0,1,296.344,474.283Zm-1.555-8.338a12.61,12.61,0,0,0-2.418.193c-3.155.63-6.58,2.54-6.27,4.1.345,1.743,2.093,2.54,7.479,3.343a25.193,25.193,0,0,0,13.027-2.032l.127-.066c-1.605-.361-3.724-1.25-4.5-2.5a2.148,2.148,0,0,1,.29-2.464,4.276,4.276,0,0,1-.437,0c-.442,0-1.194-.086-2.139-.188A48.294,48.294,0,0,0,294.789,465.945Z" transform="translate(-229.582 -359.936)" fill="#263238"/>
      <path id="Caminho_2255" data-name="Caminho 2255" d="M382.149,330.154s-9.562.1-10.6,3.739-.107,21.507-.208,27.436-.1,9.765.625,11.223,4.984,4.156,5.3,4.258-.107,3.323-.107,3.323,7.377.935,11.533,1.042,7.9,1.661,11.737,4.674,6.341,4.984,6.341,4.984l2.388-2.6a128.8,128.8,0,0,0,1.976,12.885,5.449,5.449,0,0,0,5.589,4.258c1.016,0,4.466-.1,4.466-.1a91.7,91.7,0,0,1-4.781-10.289c-1.458-4.156-2.388-7.687-2.388-7.687a7.231,7.231,0,0,0,.727-3.633c0-2.49-.508-3.948-.412-6.442s4.573-13.4,2.7-25.556-1.245-15.588-5.818-17.976-14.546-3.846-17.351-4.065S382.149,330.154,382.149,330.154Z" transform="translate(-271.631 -293.111)" fill="#fc4f22"/>
      <path id="Caminho_2256" data-name="Caminho 2256" d="M416.519,405.393a5.708,5.708,0,0,1-5.858-4.451,122.266,122.266,0,0,1-1.921-12.362l-2.007,2.185a.254.254,0,0,1-.346.031s-2.495-1.976-6.336-4.989-7.581-4.517-11.589-4.618c-4.126-.1-11.488-1.016-11.559-1.042a.269.269,0,0,1-.168-.1.234.234,0,0,1-.051-.188,15.8,15.8,0,0,0,.188-3.089c-.691-.361-4.613-2.86-5.36-4.349s-.752-5.482-.65-11.34c.03-1.87-.036-4.883-.117-8.373-.173-7.393-.386-16.594.335-19.119,1.072-3.75,10.314-3.917,10.827-3.922s9-.721,11.772-.508c2.474.183,12.7,1.606,17.447,4.065,3.77,1.966,4.121,4.649,5.081,11.818.239,1.824.508,3.892.889,6.341,1.412,9.2-.8,17.783-1.992,22.355a21.3,21.3,0,0,0-.706,3.231,19.1,19.1,0,0,0,.193,3.4,24.664,24.664,0,0,1,.218,3.048,8.028,8.028,0,0,1-.706,3.668c.163.6,1.057,3.856,2.357,7.57a90.2,90.2,0,0,0,4.761,10.248.254.254,0,0,1,0,.249.249.249,0,0,1-.208.127C420.949,405.271,417.535,405.393,416.519,405.393Zm-7.6-17.651a.228.228,0,0,1,.081,0,.254.254,0,0,1,.173.213,126.985,126.985,0,0,0,1.966,12.844,5.132,5.132,0,0,0,5.365,4.065c.808,0,3.109-.061,4.065-.091a87.859,87.859,0,0,1-4.6-9.958c-1.438-4.115-2.383-7.672-2.393-7.708a.249.249,0,0,1,.03-.2,7.208,7.208,0,0,0,.686-3.5,23.831,23.831,0,0,0-.218-2.972,20.191,20.191,0,0,1-.193-3.48,20.83,20.83,0,0,1,.721-3.338c1.179-4.573,3.379-13.073,1.982-22.172-.376-2.449-.65-4.522-.894-6.351-.94-7.174-1.26-9.587-4.791-11.437-4.659-2.434-14.8-3.841-17.275-4.024-2.754-.2-11.615.508-11.686.508h0c-.091,0-9.379.142-10.355,3.557-.7,2.444-.508,11.6-.315,18.967.081,3.5.147,6.514.117,8.393-.1,5.589-.112,9.684.594,11.1s4.761,3.978,5.157,4.136c.183.061.508.163.1,3.343,1.331.163,7.591.915,11.254,1.016,4.126.1,7.906,1.605,11.889,4.73,3.236,2.54,5.513,4.329,6.153,4.842l2.23-2.429a.264.264,0,0,1,.163-.056ZM376.914,376.8Zm4.984-46.88Z" transform="translate(-271.396 -292.88)" fill="#263238"/>
      <path id="Caminho_2257" data-name="Caminho 2257" d="M367.888,296.5a6.829,6.829,0,0,1-.559-1.834,53.677,53.677,0,0,1-4.669-9.191c-.788-2.708-.183-7.86.229-10.568-1.407,2.236-3.5,6.473-5.177,13.718-2.81,12.052-2.7,17.971,1.555,20.775s7.276,1.56,8.52,2.911,1.661,3.013.625,3.013a2.083,2.083,0,0,1-1.56-.625s2.388,3.638,4.674,2.6,4.883-4.776,3.221-9.765S368.6,297.438,367.888,296.5Zm-8.205,11.32c-1.971-2.18-.727-6.127-.727-6.127-.625,5.589,5.817,8.729,5.817,8.729A9.268,9.268,0,0,1,359.682,307.823Z" transform="translate(-264.127 -266.212)" fill="#263238"/>
      <path id="Caminho_2258" data-name="Caminho 2258" d="M370.416,317.475c-2.088,0-3.932-2.764-4.024-2.9a.254.254,0,0,1,.406-.3,1.844,1.844,0,0,0,1.367.533c.2,0,.264-.081.295-.152.178-.406-.224-1.479-1.108-2.434-.462-.508-1.24-.6-2.317-.742a13.21,13.21,0,0,1-6.153-2.129c-4.2-2.769-4.639-8.277-1.667-21.05,1.677-7.2,3.76-11.462,5.208-13.769a.254.254,0,0,1,.467.173c-.417,2.769-1.016,7.814-.234,10.456a53.294,53.294,0,0,0,4.644,9.145.265.265,0,0,1,.031.076,5.861,5.861,0,0,0,.508,1.727h0l.366.457c1.377,1.682,5.04,6.153,6.534,10.629,1.707,5.127-.94,8.978-3.358,10.08A2.322,2.322,0,0,1,370.416,317.475Zm-2.845-2.225c.843.94,2.266,2.159,3.6,1.555,2.251-1.016,4.695-4.634,3.089-9.455-1.463-4.39-5.081-8.81-6.442-10.471-.168-.2-.295-.361-.376-.467h0a5.391,5.391,0,0,1-.6-1.89c-1.885-3.15-4.1-7.215-4.674-9.217-.686-2.368-.34-6.514.041-9.415a49.292,49.292,0,0,0-4.5,12.529c-2.911,12.519-2.54,17.884,1.453,20.506a12.759,12.759,0,0,0,5.939,2.032,4.115,4.115,0,0,1,2.627.9c.981,1.067,1.484,2.317,1.194,2.982a.767.767,0,0,1-.757.457A2.66,2.66,0,0,1,367.57,315.25Zm-3.048-4.817h-.036a9.332,9.332,0,0,1-5.243-2.678h0c-2.032-2.261-.833-6.209-.782-6.376a.254.254,0,0,1,.295-.173.264.264,0,0,1,.2.279c-.6,5.36,5.589,8.439,5.675,8.47a.251.251,0,0,1-.107.478Zm-4.9-3.023a8.129,8.129,0,0,0,3.308,2.088,10.28,10.28,0,0,1-4.344-5.756,5.156,5.156,0,0,0,1.016,3.668Z" transform="translate(-263.881 -265.967)" fill="#263238"/>
      <path id="Caminho_2259" data-name="Caminho 2259" d="M421.6,425.658h-.036l-2.967-.427a.254.254,0,0,1,.071-.5l2.967.427a.255.255,0,0,1-.036.508Z" transform="translate(-294.914 -339.91)" fill="#263238"/>
      <path id="Caminho_2260" data-name="Caminho 2260" d="M398.808,409.439h-.041c-10.126-1.479-15.512-2.373-15.994-2.652-.909-.508.285-8.561,1.077-13.307a.257.257,0,1,1,.508.081c-.981,5.858-1.733,12.25-1.306,12.8.188.1,2.154.579,15.8,2.571a.255.255,0,1,1-.036.508Z" transform="translate(-277.234 -324.433)" fill="#263238"/>
      <path id="Caminho_2261" data-name="Caminho 2261" d="M382.851,424.954h-.036a.249.249,0,0,1-.183-.3l1.016-4.248a.259.259,0,0,1,.31-.188.249.249,0,0,1,.183.3l-1.016,4.248A.254.254,0,0,1,382.851,424.954Z" transform="translate(-277.322 -337.687)" fill="#263238"/>
      <path id="Caminho_2262" data-name="Caminho 2262" d="M441.48,439.953a13,13,0,0,1-3.216-.635c-3.048-.879-9.323-3.023-9.389-3.048a.255.255,0,0,1,.168-.483c.061.025,6.3,2.164,9.359,3.048,2.779.793,3.343.6,3.363.589a.234.234,0,0,1,.335.066.274.274,0,0,1-.071.366A1.016,1.016,0,0,1,441.48,439.953Z" transform="translate(-299.99 -345.344)" fill="#263238"/>
      <path id="Caminho_2263" data-name="Caminho 2263" d="M412.968,350.585a.229.229,0,0,1-.127-.036l-4.684-2.657a.254.254,0,0,1,.249-.442l4.319,2.454.117-3.511a.244.244,0,0,1,.259-.244.254.254,0,0,1,.249.264l-.127,3.927a.269.269,0,0,1-.132.213A.254.254,0,0,1,412.968,350.585Z" transform="translate(-289.824 -301.256)" fill="#263238"/>
      <path id="Caminho_2264" data-name="Caminho 2264" d="M393.935,348.822a.254.254,0,0,1-.158-.452l.889-.7a.254.254,0,1,1,.31.4l-.884.7A.259.259,0,0,1,393.935,348.822Z" transform="translate(-282.762 -301.973)" fill="#263238"/>
      <path id="Caminho_2265" data-name="Caminho 2265" d="M384.025,362.526a.254.254,0,0,1-.254-.249l-.061-2.4a.254.254,0,0,1,.244-.264h0a.259.259,0,0,1,.254.249l.061,2.408a.254.254,0,0,1-.249.259Z" transform="translate(-277.856 -307.878)" fill="#263238"/>
      <path id="Caminho_2266" data-name="Caminho 2266" d="M374.751,283.88s-5.421,4.73-5.421,6.011,1.773,6.9,2.464,9.171a18.291,18.291,0,0,0,3.943,6.5c1.575,1.677,4.634,3.648,5.325,3.648a4.065,4.065,0,0,0,1.575-.508s.4,8.084,1.773,10.944,2.073,2.759,2.368,2.068S390.72,309.1,390.72,309.1l1.773-8.48-3.745-9.653s-5.223-4.634-8.775-5.817A22.674,22.674,0,0,0,374.751,283.88Z" transform="translate(-270.782 -270.625)" fill="#fff"/>
      <path id="Caminho_2267" data-name="Caminho 2267" d="M386.039,322.141c-.376,0-1.016-.29-2.134-2.617-1.23-2.54-1.677-9-1.778-10.67a3.592,3.592,0,0,1-1.341.351c-.864,0-4-2.124-5.508-3.724a18.469,18.469,0,0,1-4-6.605l-.269-.879c-.828-2.688-2.205-7.184-2.205-8.363,0-1.331,4.573-5.4,5.508-6.2a.244.244,0,0,1,.183-.061,22.985,22.985,0,0,1,5.289,1.29c3.541,1.179,8.637,5.68,8.861,5.868a.244.244,0,0,1,.071.1l3.745,9.653a.228.228,0,0,1,0,.142l-1.773,8.48c-.152.508-3.658,11.97-3.958,12.666-.193.452-.478.554-.681.559Zm-3.678-13.926a.244.244,0,0,1,.122.03.264.264,0,0,1,.132.213c0,.081.406,8.063,1.748,10.842,1.082,2.236,1.585,2.342,1.682,2.332s.183-.158.224-.249c.229-.539,2.672-8.475,3.932-12.6l1.758-8.383-3.7-9.532c-.508-.457-5.355-4.629-8.637-5.726a25.764,25.764,0,0,0-5.055-1.26c-2.068,1.814-5.253,4.913-5.253,5.751,0,1.1,1.418,5.726,2.18,8.211l.274.884a17.783,17.783,0,0,0,3.882,6.407c1.641,1.738,4.573,3.557,5.142,3.557a3.831,3.831,0,0,0,1.453-.462.254.254,0,0,1,.117-.02Z" transform="translate(-270.521 -270.373)" fill="#263238"/>
      <path id="Caminho_2268" data-name="Caminho 2268" d="M386.913,319.48a3.047,3.047,0,0,1-.96-.173c-.132-.041-.473-.152-.473-2.114a.259.259,0,0,1,.254-.254.254.254,0,0,1,.254.254,5.9,5.9,0,0,0,.168,1.651c.508.157,1.346.3,1.611-.366a.254.254,0,0,1,.33-.137.249.249,0,0,1,.142.325,1.316,1.316,0,0,1-1.326.813Zm-.742-.615Z" transform="translate(-278.727 -286.888)" fill="#263238"/>
      <path id="Caminho_2269" data-name="Caminho 2269" d="M388.461,323.432c-.351,0-.589-.03-.625-.03a.256.256,0,0,1,.066-.508c.03,0,2.789.346,3.684-1.524a.253.253,0,1,1,.457.219A3.8,3.8,0,0,1,388.461,323.432Z" transform="translate(-279.777 -288.995)" fill="#263238"/>
      <path id="Caminho_2270" data-name="Caminho 2270" d="M395.49,328a32.431,32.431,0,0,0,5.03-4.928s-1.971,4.634-2.566,5.817a17.785,17.785,0,0,0-.884,2.068Z" transform="translate(-283.651 -289.903)" fill="#263238"/>
      <path id="Caminho_2271" data-name="Caminho 2271" d="M396.825,330.964a.259.259,0,0,1-.229-.132l-1.575-2.957a.259.259,0,0,1,.066-.32,33.18,33.18,0,0,0,4.984-4.883.254.254,0,0,1,.33-.066.249.249,0,0,1,.107.315c-.081.193-1.982,4.659-2.571,5.833a18.449,18.449,0,0,0-.874,2.032.254.254,0,0,1-.218.173Zm-1.255-3.145,1.209,2.276c.152-.381.386-.93.7-1.57.361-.721,1.255-2.764,1.88-4.222a37.8,37.8,0,0,1-3.79,3.516Z" transform="translate(-283.406 -289.658)" fill="#263238"/>
      <path id="Caminho_2272" data-name="Caminho 2272" d="M393.142,307.838a5.685,5.685,0,0,1-1.468-.2.264.264,0,0,1,.142-.508c.025,0,2.495.711,3.46-.782a.259.259,0,0,1,.351-.076.249.249,0,0,1,.076.351A2.9,2.9,0,0,1,393.142,307.838Z" transform="translate(-281.679 -281.622)" fill="#263238"/>
      <path id="Caminho_2273" data-name="Caminho 2273" d="M389.427,302.747a.254.254,0,0,1-.127-.473c.127-.071,3.084-1.727,5.233-1.016a.249.249,0,0,1,.163.32.259.259,0,0,1-.32.163c-1.941-.65-4.8.945-4.822.965a.29.29,0,0,1-.127.041Z" transform="translate(-280.544 -279.087)" fill="#263238"/>
      <path id="Caminho_2274" data-name="Caminho 2274" d="M376.918,310.926a2.632,2.632,0,0,1-1.418-.406.259.259,0,0,1-.056-.356.254.254,0,0,1,.351-.056,2.195,2.195,0,0,0,2.652-.284.253.253,0,1,1,.32.391A2.9,2.9,0,0,1,376.918,310.926Z" transform="translate(-273.767 -283.358)" fill="#263238"/>
      <path id="Caminho_2275" data-name="Caminho 2275" d="M373.9,305.7a.249.249,0,0,1-.229-.142.259.259,0,0,1,.112-.34,3.944,3.944,0,0,1,3.9-.081.254.254,0,0,1-.279.422h0a3.471,3.471,0,0,0-3.394.117A.3.3,0,0,1,373.9,305.7Z" transform="translate(-272.907 -280.857)" fill="#263238"/>
      <path id="Caminho_2276" data-name="Caminho 2276" d="M425.76,346.111a19.391,19.391,0,0,0-.727,6.651c.417,2.7-.2,11.416-.2,11.843s-2.286,1.453-2.185,2.18a19.361,19.361,0,0,0,.508,2.078l-3.328-1.352-4.466,5.924a48.518,48.518,0,0,0,9.557,6.752c6.026,3.323,10.162,2.286,10.162,2.286s2.388-14.648,2.7-21.2,1.763-15.166-.508-21.294c-1.783-4.791-9.653-5.406-11.427,2.8" transform="translate(-293.425 -296.497)" fill="#fc4f22"/>
      <path id="Caminho_2277" data-name="Caminho 2277" d="M433.138,382.636a17.9,17.9,0,0,1-8.571-2.474,49.4,49.4,0,0,1-9.628-6.793.254.254,0,0,1,0-.335l4.466-5.924a.254.254,0,0,1,.3-.081l2.835,1.153a14.435,14.435,0,0,1-.376-1.611c-.081-.574.686-1.118,1.428-1.641a3.894,3.894,0,0,0,.757-.615c0-.03,0-.351.041-.838.137-2.383.508-8.714.163-10.929a19.3,19.3,0,0,1,.737-6.757.254.254,0,0,1,.32-.152.259.259,0,0,1,.173.315c0,.041-1.123,3.927-.721,6.539.351,2.266,0,8.637-.157,11.035-.031.472-.046.777-.046.848,0,.29-.315.508-.965.986-.442.31-1.26.889-1.219,1.158a18.081,18.081,0,0,0,.508,2.032.249.249,0,0,1-.335.3l-3.145-1.275-4.212,5.589a50.1,50.1,0,0,0,9.338,6.559c5.2,2.871,9.023,2.434,9.836,2.3.269-1.677,2.383-14.922,2.673-20.994.066-1.418.188-2.916.315-4.5.447-5.589.95-11.945-.818-16.7a5.218,5.218,0,0,0-5.259-3.343c-2.794.2-4.923,2.484-5.7,6.1a.26.26,0,1,1-.508-.107c.828-3.846,3.13-6.275,6.158-6.5a5.716,5.716,0,0,1,5.772,3.658c1.814,4.857,1.3,11.264.849,16.914-.127,1.58-.244,3.074-.31,4.486-.31,6.483-2.683,21.075-2.708,21.222a.239.239,0,0,1-.188.2,7.686,7.686,0,0,1-1.8.168Z" transform="translate(-293.187 -296.248)" fill="#263238"/>
      <path id="Caminho_2278" data-name="Caminho 2278" d="M446.474,387.361a.254.254,0,0,1-.234-.157.249.249,0,0,1,.137-.33l1.016-.422a.254.254,0,0,1,.33.137.249.249,0,0,1-.137.33l-1.016.422a.219.219,0,0,1-.1.02Z" transform="translate(-308.606 -321.073)" fill="#263238"/>
      <path id="Caminho_2279" data-name="Caminho 2279" d="M436.143,390.431a.259.259,0,0,1-.1-.508L440,388.277a.254.254,0,1,1,.2.467l-3.958,1.646A.209.209,0,0,1,436.143,390.431Z" transform="translate(-303.498 -321.968)" fill="#263238"/>
      <path id="Caminho_2280" data-name="Caminho 2280" d="M431.9,399.108a.254.254,0,0,1-.249-.193.249.249,0,0,1,.188-.3c3.048-.767,8.266-1.971,8.825-1.473a.34.34,0,0,1,.107.3c-.117.833-2.3,1.153-3.236,1.255a.254.254,0,0,1-.279-.224.249.249,0,0,1,.224-.279,7.3,7.3,0,0,0,2.683-.691,54.849,54.849,0,0,0-8.2,1.606Z" transform="translate(-301.436 -326.281)" fill="#263238"/>
      <path id="Caminho_2281" data-name="Caminho 2281" d="M441.321,404.886a.259.259,0,0,1-.234-.158c-1.072-2.54-7.316-3.267-7.377-3.272a.256.256,0,0,1,.056-.508c.269.031,6.605.777,7.794,3.582a.264.264,0,0,1-.137.335A.331.331,0,0,1,441.321,404.886Z" transform="translate(-302.34 -328.213)" fill="#263238"/>
      <path id="Caminho_2282" data-name="Caminho 2282" d="M447.7,413.978h-.061a4.571,4.571,0,0,1-1.28-.569.259.259,0,0,1-.091-.351.249.249,0,0,1,.356-.1,3.985,3.985,0,0,0,1.118.508.255.255,0,1,1-.046.508Z" transform="translate(-308.612 -334.104)" fill="#263238"/>
      <path id="Caminho_2283" data-name="Caminho 2283" d="M438.666,407.8a.228.228,0,0,1-.137-.041c-2.51-1.672-5.939-4.5-5.97-4.527a.249.249,0,0,1-.036-.356.254.254,0,0,1,.356-.036c.036.031,3.445,2.84,5.929,4.5a.254.254,0,0,1,.071.351A.244.244,0,0,1,438.666,407.8Z" transform="translate(-301.84 -329.119)" fill="#263238"/>
      <path id="Caminho_2284" data-name="Caminho 2284" d="M352.185,364.616s-2.342,5-1.458,5.828,6.209,5.95,6.717,6.2,1.961,4.69,2.723,6.4,1.2,5.7,2.657,6.27,4.573-2.4,4.624-3.922,0-2.093-1.392-4.065-4.573-8.3-4.573-8.3L352.8,363.6Z" transform="translate(-261.533 -309.841)" fill="#fff"/>
      <path id="Caminho_2285" data-name="Caminho 2285" d="M362.974,389.417a1.422,1.422,0,0,1-.508-.091c-1.1-.432-1.626-2.373-2.129-4.247a16.262,16.262,0,0,0-.671-2.154c-.264-.6-.61-1.524-.976-2.479a21.553,21.553,0,0,0-1.641-3.8c-.29-.213-2.307-2.032-5.589-5.116-.554-.508-.991-.94-1.194-1.128-.945-.879.833-4.908,1.4-6.1v-.031l.63-1.016a.264.264,0,0,1,.193-.117.259.259,0,0,1,.213.081l8.673,9.435a.225.225,0,0,1,.041.056c.03.066,3.175,6.341,4.542,8.266,1.453,2.032,1.524,2.678,1.438,4.212-.046,1.113-1.463,2.759-2.754,3.607a3.42,3.42,0,0,1-1.672.62Zm-10.827-24.9c-1.087,2.322-1.971,5.081-1.524,5.518l1.2,1.133c1.646,1.57,5.081,4.837,5.457,5.035s.864,1.387,1.88,4.065c.361.96.7,1.865.96,2.449a16.059,16.059,0,0,1,.7,2.23c.427,1.59.955,3.557,1.824,3.907a2.176,2.176,0,0,0,1.748-.508c1.285-.838,2.49-2.368,2.54-3.206.061-1.463,0-1.971-1.346-3.892s-4.293-7.758-4.573-8.3l-8.429-9.145Z" transform="translate(-261.271 -309.614)" fill="#263238"/>
      <path id="Caminho_2286" data-name="Caminho 2286" d="M345.81,353.38l9.816,15.964,7.54,1.011-7.347-14.506Z" transform="translate(-259.212 -304.813)" fill="#263238"/>
      <path id="Caminho_2287" data-name="Caminho 2287" d="M362.95,370.364h-.036l-7.535-1.016a.264.264,0,0,1-.183-.117l-9.816-15.964a.249.249,0,0,1,.274-.376l10.009,2.469a.239.239,0,0,1,.163.132l7.347,14.5a.259.259,0,0,1,0,.264A.264.264,0,0,1,362.95,370.364Zm-7.382-1.524,6.935.935L355.431,355.8l-9.293-2.291Z" transform="translate(-258.981 -304.569)" fill="#263238"/>
      <path id="Caminho_2288" data-name="Caminho 2288" d="M389.439,379.379s-11.218-7.906-14.13-9.867a40.86,40.86,0,0,1-4.156-3.12,7.366,7.366,0,0,0-1.016-2.8,2.9,2.9,0,0,0-2.8-.935,9.264,9.264,0,0,1-3.328,0c-.833-.315-2.388-2.906-2.6-1.763a2.517,2.517,0,0,0,.935,2.8,10.656,10.656,0,0,0,2.911,1.346c.417.2-.66.381-.66.381a11.519,11.519,0,0,1-5.218.569,19.577,19.577,0,0,1-5.055-1.362c-.727-.208-.625.828.208,1.453s1.346.935,1.346.935-2.6-.417-2.281.417,1.453,1.56,2.18,2.078a26.517,26.517,0,0,0,2.078,1.763c.625.31.727,1.768,1.768,2.393s.732.554,3.384.8a47.2,47.2,0,0,0,8.353-.071L384.968,385.3Z" transform="translate(-263.028 -308.365)" fill="#fff"/>
      <path id="Caminho_2289" data-name="Caminho 2289" d="M384.753,385.319a.259.259,0,0,1-.158-.056l-13.53-10.842a48.212,48.212,0,0,1-8.3.056l-.508-.046c-1.941-.173-1.982-.178-2.754-.65l-.224-.132a3.379,3.379,0,0,1-1.214-1.58,1.869,1.869,0,0,0-.508-.8,5.5,5.5,0,0,1-1.184-.965,10.3,10.3,0,0,0-.93-.823l-.249-.173a5.344,5.344,0,0,1-2.032-2.032.508.508,0,0,1,.071-.534c.239-.295.879-.345,1.463-.325l-.508-.376c-.625-.467-.95-1.2-.732-1.641a.574.574,0,0,1,.742-.259,1.968,1.968,0,0,1,.366.132,17.509,17.509,0,0,0,4.649,1.219,11.559,11.559,0,0,0,5.081-.549h.056l.213-.041-.137-.046a8.062,8.062,0,0,1-2.444-1.189,2.759,2.759,0,0,1-1.016-3.048.549.549,0,0,1,.356-.483c.391-.107.793.3,1.473,1.047a4.634,4.634,0,0,0,1.108,1.016,5.863,5.863,0,0,0,2.424.056l.793-.071a3.139,3.139,0,0,1,3.013,1.016,6.95,6.95,0,0,1,1.087,2.845,42.5,42.5,0,0,0,4.065,3.048c2.881,1.956,14.023,9.8,14.135,9.872a.279.279,0,0,1,.107.173.249.249,0,0,1-.051.188l-4.466,5.924a.234.234,0,0,1-.173.1ZM371.142,373.9a.238.238,0,0,1,.157.056L384.708,384.7l4.151-5.508c-1.57-1.1-11.259-7.916-13.911-9.714a41.192,41.192,0,0,1-4.187-3.14.274.274,0,0,1-.076-.147,7.021,7.021,0,0,0-.981-2.678,2.6,2.6,0,0,0-2.591-.848l-.788.071a6.258,6.258,0,0,1-2.647-.086,4.532,4.532,0,0,1-1.3-1.138,5.161,5.161,0,0,0-.94-.889.507.507,0,0,0,0,.066,2.267,2.267,0,0,0,.843,2.566,7.5,7.5,0,0,0,2.291,1.1,5.049,5.049,0,0,1,.574.218.351.351,0,0,1,.234.371c0,.107-.051.335-.935.478a11.807,11.807,0,0,1-5.289.579,18.335,18.335,0,0,1-4.781-1.25c-.158-.061-.264-.107-.32-.122s-.137-.025-.147,0c-.061.127.056.62.579,1.016.808.6,1.321.92,1.326.92a.249.249,0,0,1,.107.3.244.244,0,0,1-.274.163,3.859,3.859,0,0,0-2.032.041,4.983,4.983,0,0,0,1.854,1.819l.249.178a9.647,9.647,0,0,1,.986.869,5.274,5.274,0,0,0,1.057.879,2.032,2.032,0,0,1,.767,1.016,3.018,3.018,0,0,0,1.016,1.362l.229.137c.671.412.671.412,2.54.579l.508.046a47.634,47.634,0,0,0,8.3-.071Z" transform="translate(-262.809 -308.128)" fill="#263238"/>
      <path id="Caminho_2290" data-name="Caminho 2290" d="M366.488,374.475h-5.614a18.093,18.093,0,0,1-3.12-1.27.254.254,0,1,1,.218-.457,19.4,19.4,0,0,0,2.906,1.219h5.589a.259.259,0,0,1,.254.254A.254.254,0,0,1,366.488,374.475Z" transform="translate(-265.008 -314.325)" fill="#263238"/>
      <path id="Caminho_2291" data-name="Caminho 2291" d="M363.98,379.057a16.831,16.831,0,0,1-1.961-.076,20.176,20.176,0,0,1-3.557-.879,6.509,6.509,0,0,0-1.661-.4.254.254,0,0,1-.213-.29.259.259,0,0,1,.29-.213,6.82,6.82,0,0,1,1.87.483,21.536,21.536,0,0,0,3.374.8c.7.117,3.216.056,3.242.056a.254.254,0,1,1,0,.508C365.3,379.042,364.686,379.057,363.98,379.057Z" transform="translate(-264.512 -316.529)" fill="#263238"/>
      <path id="Caminho_2292" data-name="Caminho 2292" d="M365.838,383.194a3.992,3.992,0,0,1-.65-.036c-.564-.127-3.206-1.418-3.506-1.565a.254.254,0,0,1-.117-.34.259.259,0,0,1,.34-.117,36.02,36.02,0,0,0,3.394,1.524,26.835,26.835,0,0,0,3.455-.127.254.254,0,0,1,.274.234.259.259,0,0,1-.234.274C368.541,383.087,366.854,383.194,365.838,383.194Z" transform="translate(-266.95 -318.455)" fill="#263238"/>
      <path id="Caminho_2293" data-name="Caminho 2293" d="M418.87,304.935a107.314,107.314,0,0,1-10.283-12.885s-1.143,16.309,1.346,23.27,11.64,4.065,14.856,2.286,4.364-3.115,6.341-2.8A61.926,61.926,0,0,1,418.87,304.935Z" transform="translate(-289.964 -274.644)" fill="#263238"/>
      <path id="Caminho_2294" data-name="Caminho 2294" d="M416.5,319.72a9.029,9.029,0,0,1-3.211-.508,6.392,6.392,0,0,1-3.851-4.065c-2.479-6.93-1.407-22.706-1.362-23.372a.254.254,0,0,1,.462-.122A108.018,108.018,0,0,0,418.8,304.5a62.167,62.167,0,0,0,12.194,9.826.254.254,0,0,1-.168.473c-1.306-.208-2.251.386-3.816,1.367-.666.422-1.423.894-2.363,1.407a18.479,18.479,0,0,1-8.145,2.149Zm-7.962-27.182c-.183,3.267-.767,16.441,1.377,22.432a5.934,5.934,0,0,0,3.557,3.745c3.485,1.321,8.454-.234,10.944-1.6.93-.508,1.677-.981,2.332-1.392a7.854,7.854,0,0,1,3.2-1.468,63.605,63.605,0,0,1-11.508-9.42,107.366,107.366,0,0,1-9.9-12.28Z" transform="translate(-289.711 -274.395)" fill="#263238"/>
      <path id="Caminho_2295" data-name="Caminho 2295" d="M380.937,280.583c-3.628-4.309-1.524.828-1.524.828s6.945,6.63,14,7.113C393.4,288.509,384.575,284.892,380.937,280.583Z" transform="translate(-275.444 -268.156)" fill="#263238"/>
      <path id="Caminho_2296" data-name="Caminho 2296" d="M393.17,288.517h0c-7.062-.462-14.089-7.113-14.16-7.164a.213.213,0,0,1-.056-.091c-.457-1.118-.889-2.54-.366-2.835.351-.208.879,0,2.347,1.753,3.557,4.207,12.26,7.814,12.346,7.85a.259.259,0,0,1,.152.295A.254.254,0,0,1,393.17,288.517Zm-13.784-7.5c.508.508,6.056,5.523,12.031,6.747-2.749-1.275-8.185-4.065-10.888-7.266-1.138-1.352-1.565-1.585-1.687-1.621a5.924,5.924,0,0,0,.544,2.139Z" transform="translate(-275.219 -267.91)" fill="#263238"/>
    </g>
  </g>
</svg>
