<svg width="108" height="110" viewBox="0 0 108 110" fill="none" xmlns="http://www.w3.org/2000/svg">
<path d="M86.8103 14.5259C61.0472 -10.7167 39.1027 0.763332 35.2842 19.9946C31.4657 39.2258 -4.00582 43.0656 0.373833 65.7806C4.75348 88.4955 52.4595 75.0085 52.4595 95.5939C52.4595 116.179 107.617 115.469 107.617 88.4955C107.617 61.5215 112.573 39.7685 86.8103 14.5259Z" fill="#FFEFD8"/>
<path d="M81.1107 40.7022C81.1107 51.6792 72.1394 60.5778 61.0727 60.5778C50.0061 60.5778 41.0348 51.6792 41.0348 40.7022C41.0348 29.7252 50.0061 20.8267 61.0727 20.8267C72.1394 20.8267 81.1107 29.7252 81.1107 40.7022Z" stroke="#333333" stroke-width="3" stroke-linecap="round" stroke-linejoin="round"/>
<path d="M51.7523 86.1323H61.0728C64.233 86.1323 66.7979 83.5883 66.7979 80.4536C66.7979 77.3189 64.233 74.7749 61.0728 74.7749H46.7599C46.7599 74.7749 38.1723 69.0961 32.4471 69.0961C26.722 69.0961 20.9969 74.7749 20.9969 74.7749V100.329H66.7979L101.149 80.4536C101.149 76.4018 96.9922 73.6533 93.2193 75.2121L66.7979 86.1323H43.8974" stroke="#333333" stroke-width="3" stroke-linecap="round" stroke-linejoin="round"/>
<path d="M60.1451 51.2897H59.9118C59.2702 51.2897 58.6967 51.2703 58.1912 51.2315C57.6857 51.1927 57.1997 51.1249 56.7331 51.028C56.2859 50.9504 55.8388 50.8438 55.3916 50.7081C54.9445 50.5724 54.4779 50.4077 53.9918 50.2138C54.0501 49.6516 54.1571 49.0895 54.3126 48.5273C54.4681 47.9458 54.6528 47.3448 54.8667 46.7245C55.6832 47.0541 56.4512 47.2867 57.1705 47.4224C57.8899 47.5387 58.6578 47.5968 59.4743 47.5968C60.6992 47.5968 61.6421 47.3933 62.3031 46.9862C62.9835 46.5597 63.3238 45.8813 63.3238 44.9508C63.3238 44.4855 63.2266 44.1075 63.0322 43.8168C62.8572 43.5066 62.6239 43.2546 62.3323 43.0607C62.0601 42.8669 61.749 42.7021 61.3991 42.5664C61.0491 42.4307 60.7089 42.2853 60.3784 42.1303L58.8328 41.4615C58.1912 41.1901 57.608 40.909 57.083 40.6182C56.5581 40.3081 56.1012 39.9494 55.7124 39.5424C55.343 39.1159 55.0514 38.6216 54.8375 38.0594C54.6431 37.4972 54.5459 36.8091 54.5459 35.9949C54.5459 34.2503 55.0417 32.8739 56.0332 31.8659C57.0247 30.8579 58.3953 30.2473 60.1451 30.034V26.9518C60.5534 26.8355 60.9713 26.7773 61.3991 26.7773C61.8073 26.7773 62.235 26.8355 62.6822 26.9518V29.9468C63.4599 30.0049 64.2084 30.1213 64.9277 30.2957C65.647 30.4508 66.4053 30.664 67.2024 30.9354C67.0857 32.0598 66.7747 33.1647 66.2692 34.2503C65.9775 34.134 65.6762 34.0176 65.3651 33.9013C65.0735 33.785 64.7527 33.6881 64.4028 33.6106C64.0723 33.533 63.6932 33.4749 63.2655 33.4361C62.8377 33.3779 62.3517 33.3489 61.8073 33.3489C61.4768 33.3489 61.1366 33.3779 60.7866 33.4361C60.4561 33.4749 60.1548 33.5718 59.8826 33.7269C59.6104 33.8819 59.3869 34.1049 59.2119 34.3956C59.0369 34.667 58.9494 35.0257 58.9494 35.4715C58.9494 35.8592 59.0175 36.1888 59.1536 36.4602C59.2896 36.7315 59.4743 36.9642 59.7076 37.158C59.9409 37.3325 60.2034 37.4876 60.495 37.6233C60.7866 37.7589 61.0783 37.8849 61.3699 38.0013L63.1196 38.7282C63.8584 39.0384 64.5292 39.3485 65.1318 39.6587C65.7345 39.9688 66.24 40.3468 66.6483 40.7927C67.076 41.2192 67.4065 41.7523 67.6398 42.392C67.8731 43.0123 67.9898 43.7974 67.9898 44.7472C67.9898 46.3368 67.5329 47.6841 66.6191 48.789C65.7248 49.8746 64.4125 50.6112 62.6822 50.9989V54.3719C62.2739 54.4882 61.8559 54.5464 61.4282 54.5464C61.0005 54.5464 60.5728 54.4882 60.1451 54.3719V51.2897Z" fill="#FF4E16"/>
</svg>
