<svg width="43" height="43" viewBox="0 0 43 43" fill="none" xmlns="http://www.w3.org/2000/svg">
<path d="M8.44643 21.8319L6.91071 22.5998V32.1074H8.44643V21.8319Z" fill="#FC4F22"/>
<path d="M5.375 33.6431H0V36.7145H5.375V33.6431Z" fill="#FC4F22"/>
<path d="M0 32.1074H5.375V22.8931H0V32.1074ZM2.30357 24.4288C2.45544 24.4288 2.6039 24.4738 2.73017 24.5582C2.85645 24.6425 2.95486 24.7625 3.01298 24.9028C3.07109 25.0431 3.08631 25.1975 3.05668 25.3465C3.02705 25.4954 2.95392 25.6322 2.84653 25.7396C2.73914 25.847 2.60233 25.9202 2.45337 25.9497C2.30443 25.9794 2.15003 25.9642 2.00972 25.9061C1.86942 25.848 1.7495 25.7495 1.66512 25.6233C1.58075 25.497 1.53571 25.3485 1.53571 25.1967C1.53571 24.993 1.61662 24.7977 1.76061 24.6537C1.90461 24.5097 2.09993 24.4288 2.30357 24.4288ZM2.30357 29.0359C2.45544 29.0359 2.6039 29.081 2.73017 29.1653C2.85645 29.2497 2.95486 29.3697 3.01298 29.51C3.07109 29.6502 3.08631 29.8047 3.05668 29.9536C3.02705 30.1026 2.95392 30.2394 2.84653 30.3468C2.73914 30.4542 2.60233 30.5273 2.45337 30.5569C2.30443 30.5865 2.15003 30.5714 2.00972 30.5132C1.86942 30.4551 1.7495 30.3567 1.66512 30.2304C1.58075 30.1041 1.53571 29.9556 1.53571 29.8038C1.53571 29.6001 1.61662 29.4048 1.76061 29.2608C1.90461 29.1168 2.09993 29.0359 2.30357 29.0359Z" fill="#FC4F22"/>
<path d="M28.5423 24.4288H14.4577C14.3425 24.7523 14.1567 25.0462 13.9139 25.2891C13.671 25.5319 13.3771 25.7177 13.0536 25.8329V27.6318C13.3771 27.747 13.671 27.9328 13.9139 28.1756C14.1567 28.4185 14.3425 28.7124 14.4577 29.0359H28.5423C28.6575 28.7124 28.8433 28.4185 29.0861 28.1756C29.329 27.9328 29.6229 27.747 29.9464 27.6318V25.8329C29.6229 25.7177 29.329 25.5319 29.0861 25.2891C28.8433 25.0462 28.6575 24.7523 28.5423 24.4288Z" fill="#FC4F22"/>
<path d="M33.0179 21.3574H9.98214V32.1074H33.0179V21.3574ZM31.4821 28.2681C31.4821 28.4718 31.4012 28.6671 31.2573 28.8111C31.1133 28.955 30.918 29.0359 30.7143 29.0359C30.5107 29.0361 30.3156 29.1171 30.1716 29.2611C30.0276 29.4051 29.9466 29.6002 29.9464 29.8038C29.9464 30.0075 29.8655 30.2028 29.7215 30.3468C29.5776 30.4907 29.3822 30.5717 29.1786 30.5717H13.8214C13.6178 30.5717 13.4224 30.4907 13.2785 30.3468C13.1345 30.2028 13.0536 30.0075 13.0536 29.8038C13.0534 29.6002 12.9724 29.4051 12.8284 29.2611C12.6844 29.1171 12.4893 29.0361 12.2857 29.0359C12.082 29.0359 11.8867 28.955 11.7427 28.8111C11.5988 28.6671 11.5179 28.4718 11.5179 28.2681V25.1967C11.5179 24.993 11.5988 24.7977 11.7427 24.6537C11.8867 24.5097 12.082 24.4288 12.2857 24.4288C12.4893 24.4286 12.6844 24.3476 12.8284 24.2036C12.9724 24.0596 13.0534 23.8645 13.0536 23.6609C13.0536 23.4573 13.1345 23.2619 13.2785 23.118C13.4224 22.974 13.6178 22.8931 13.8214 22.8931H29.1786C29.3822 22.8931 29.5776 22.974 29.7215 23.118C29.8655 23.2619 29.9464 23.4573 29.9464 23.6609C29.9466 23.8645 30.0276 24.0596 30.1716 24.2036C30.3156 24.3476 30.5107 24.4286 30.7143 24.4288C30.918 24.4288 31.1133 24.5097 31.2573 24.6537C31.4012 24.7977 31.4821 24.993 31.4821 25.1967V28.2681Z" fill="#FC4F22"/>
<path d="M34.5536 32.1074H36.0893V22.5998L34.5536 21.8319V32.1074Z" fill="#FC4F22"/>
<path d="M43 33.6431H37.625V36.7145H43V33.6431Z" fill="#FC4F22"/>
<path d="M37.625 22.8931V32.1074H43V22.8931H37.625ZM40.6964 30.5717C40.5446 30.5717 40.3961 30.5266 40.2698 30.4423C40.1436 30.3579 40.0451 30.2379 39.987 30.0976C39.9289 29.9574 39.9137 29.8029 39.9434 29.654C39.9729 29.505 40.0461 29.3682 40.1535 29.2608C40.2609 29.1534 40.3976 29.0803 40.5466 29.0507C40.6956 29.0211 40.85 29.0362 40.9902 29.0944C41.1306 29.1525 41.2505 29.2509 41.3349 29.3772C41.4193 29.5035 41.4643 29.6519 41.4643 29.8038C41.4643 30.0075 41.3834 30.2028 41.2394 30.3468C41.0954 30.4907 40.9001 30.5717 40.6964 30.5717ZM40.6964 25.9645C40.5446 25.9645 40.3961 25.9195 40.2698 25.8351C40.1436 25.7508 40.0451 25.6308 39.987 25.4905C39.9289 25.3502 39.9137 25.1958 39.9434 25.0468C39.9729 24.8979 40.0461 24.7611 40.1535 24.6537C40.2609 24.5463 40.3976 24.4731 40.5466 24.4436C40.6956 24.4139 40.85 24.4291 40.9902 24.4872C41.1306 24.5453 41.2505 24.6438 41.3349 24.77C41.4193 24.8963 41.4643 25.0448 41.4643 25.1967C41.4643 25.4003 41.3834 25.5956 41.2394 25.7396C41.0954 25.8836 40.9001 25.9645 40.6964 25.9645Z" fill="#FC4F22"/>
<path d="M6.91071 36.7145H36.0893V33.6431H6.91071V36.7145ZM33.0179 34.4109H34.5536V35.9466H33.0179V34.4109ZM29.9464 34.4109H31.4821V35.9466H29.9464V34.4109ZM26.875 34.4109H28.4107V35.9466H26.875V34.4109ZM23.8036 34.4109H25.3393V35.9466H23.8036V34.4109ZM20.7321 34.4109H22.2679V35.9466H20.7321V34.4109ZM17.6607 34.4109H19.1964V35.9466H17.6607V34.4109ZM14.5893 34.4109H16.125V35.9466H14.5893V34.4109ZM11.5179 34.4109H13.0536V35.9466H11.5179V34.4109ZM8.44643 34.4109H9.98214V35.9466H8.44643V34.4109Z" fill="#FC4F22"/>
<path d="M23.8036 11.3752C23.3479 11.3752 22.9026 11.5103 22.5237 11.7635C22.145 12.0166 21.8497 12.3763 21.6754 12.7973C21.501 13.2182 21.4554 13.6814 21.5442 14.1282C21.6331 14.5751 21.8525 14.9855 22.1747 15.3077C22.4969 15.6298 22.9073 15.8492 23.3542 15.9381C23.801 16.027 24.2642 15.9814 24.6851 15.807C25.106 15.6327 25.4658 15.3374 25.7189 14.9586C25.972 14.5798 26.1071 14.1344 26.1071 13.6788V6.76808C26.1071 6.65139 26.0806 6.53624 26.0294 6.43138C25.9782 6.32651 25.9039 6.23469 25.8118 6.16287C25.7199 6.09107 25.6127 6.04116 25.4986 6.01695C25.3845 5.99274 25.2662 5.99487 25.1531 6.02316L19.0102 7.55888C18.8441 7.60041 18.6967 7.69627 18.5913 7.83124C18.4859 7.96622 18.4286 8.13255 18.4286 8.30379V12.1431H17.6607C17.2051 12.1431 16.7597 12.2782 16.3809 12.5313C16.0021 12.7844 15.7068 13.1442 15.5325 13.5652C15.3581 13.986 15.3125 14.4492 15.4014 14.896C15.4903 15.3429 15.7097 15.7534 16.0318 16.0756C16.354 16.3977 16.7644 16.6171 17.2113 16.706C17.6581 16.7949 18.1213 16.7493 18.5422 16.5749C18.9632 16.4006 19.3229 16.1052 19.576 15.7265C19.8291 15.3476 19.9643 14.9023 19.9643 14.4466V11.2069L24.5714 10.0551V11.3752H23.8036ZM19.9643 9.62393V8.9033L24.5714 7.75151V8.47215L19.9643 9.62393Z" fill="#FC4F22"/>
<path d="M9.21429 16.7502V11.9287L10.9928 11.3359C11.186 11.2715 11.3458 11.133 11.4368 10.9508C11.5279 10.7686 11.5429 10.5578 11.4785 10.3645C11.4141 10.1713 11.2756 10.0116 11.0934 9.92054C10.9113 9.82945 10.7004 9.81447 10.5072 9.87887L8.20359 10.6467C8.05069 10.6977 7.91776 10.7955 7.8235 10.9262C7.72925 11.057 7.67857 11.2141 7.67857 11.3752V14.4466H6.91071C6.45512 14.4466 6.00974 14.5818 5.63092 14.8349C5.25209 15.088 4.95684 15.4477 4.78249 15.8687C4.60814 16.2896 4.56252 16.7528 4.65141 17.1996C4.74029 17.6465 4.95969 18.0569 5.28184 18.3791C5.604 18.7013 6.01446 18.9207 6.46131 19.0095C6.90812 19.0984 7.37133 19.0528 7.79221 18.8784C8.21319 18.7041 8.57293 18.4089 8.82604 18.03C9.07914 17.6512 9.21429 17.2058 9.21429 16.7502Z" fill="#FC4F22"/>
</svg>
