<svg width="44" height="43" viewBox="0 0 44 43" fill="none" xmlns="http://www.w3.org/2000/svg">
<path d="M38.544 10.1992L39.2683 9.61707C39.6633 9.29957 39.715 8.82455 39.3975 8.42952C39.08 8.0345 38.6049 7.98282 38.2099 8.30032L37.4857 8.88241C29.5364 -0.333635 15.8925 -1.93824 6.67525 5.47017C5.81936 6.1581 6.8777 7.47485 7.73359 6.78693C11.3288 4.11399 15.5622 9.381 12.1786 12.3173C11.3227 13.0052 12.3811 14.322 13.237 13.634C14.6854 12.4699 16.8759 12.7683 18.093 14.2825C19.3101 15.7968 19.1305 18.0002 17.682 19.1644C16.8261 19.8523 17.8845 21.1691 18.7404 20.4812C19.9913 19.4757 21.7197 19.6037 23.0014 20.5242L12.1382 29.2556C11.8336 28.7418 11.2786 28.3209 10.686 28.7972L0.547037 36.9464C0.152011 37.2639 0.100329 37.7389 0.417832 38.134L2.00535 40.1091C2.32285 40.5041 2.79787 40.5558 3.1929 40.2383L13.3319 32.089C13.7269 31.7715 13.7786 31.2965 13.4611 30.9015L13.1965 30.5723L24.0597 21.841C24.7489 23.2377 24.4363 25.0061 23.1854 26.0115C22.3295 26.6995 23.3879 28.0162 24.2438 27.3283C25.6922 26.1641 27.8827 26.4625 29.0998 27.9768C30.3169 29.4911 30.1372 31.6945 28.6888 32.8587C27.8329 33.5466 28.8913 34.8633 29.7472 34.1754C33.3424 31.5025 37.5758 36.7695 34.1922 39.7058C33.3363 40.3937 34.3947 41.7105 35.2506 41.0225C44.4678 33.6141 45.8349 19.9444 38.544 10.1992ZM2.79293 38.3924L2.26376 37.734L11.086 30.6431C11.2448 30.8406 11.4564 31.1039 11.6152 31.3015L2.79293 38.3924ZM35.92 33.7656C34.7558 32.3171 33.0261 31.6483 31.3906 31.7708C32.5966 28.4173 29.4216 24.4671 25.8872 24.9236C27.0932 21.5702 23.9182 17.6199 20.3838 18.0765C21.5898 14.7231 18.4148 10.7728 14.8805 11.2294C15.8243 8.62848 13.9697 5.24244 11.1584 4.57609C30.9374 -4.92755 50.6227 19.5641 37.0878 36.8366C37.0854 35.7548 36.6608 34.6873 35.92 33.7656Z" fill="#FC4F22"/>
</svg>
