<svg width="136" height="40" viewBox="0 0 136 40" fill="none" xmlns="http://www.w3.org/2000/svg">
<path d="M134.605 35.2775C134.605 37.394 132.89 39.1085 130.769 39.1085H5.23171C3.11156 39.1085 1.39062 37.394 1.39062 35.2775V4.72628C1.39062 2.61072 3.11156 0.890259 5.23171 0.890259H130.768C132.89 0.890259 134.604 2.61072 134.604 4.72628L134.605 35.2775Z" fill="white"/>
<path d="M130.769 39.9997H5.23157C2.62315 39.9997 0.5 37.8821 0.5 35.2774V4.72726C0.5 2.12057 2.62315 0 5.23157 0H130.768C133.373 0 135.499 2.12057 135.499 4.72726V35.2774C135.501 37.8821 133.375 39.9997 130.769 39.9997Z" fill="black"/>
<path d="M134.605 35.2775C134.605 37.394 132.89 39.1085 130.769 39.1085H5.23171C3.11156 39.1085 1.39062 37.394 1.39062 35.2775V4.72628C1.39062 2.61072 3.11156 0.890259 5.23171 0.890259H130.768C132.89 0.890259 134.604 2.61072 134.604 4.72628L134.605 35.2775Z" fill="black"/>
<path d="M47.3775 6.73779C48.288 6.73779 48.9183 7.1479 49.3286 7.56802L48.6882 8.28721C48.358 7.96712 47.9978 7.74806 47.3885 7.74806C46.2279 7.74806 45.4485 8.6473 45.4485 10.1167C45.4485 11.6071 46.1478 12.5063 47.4585 12.5063C47.8177 12.5063 48.1779 12.4063 48.3881 12.2163V10.8069H47.1584V9.85763H49.4276V12.7364C48.9784 13.1565 48.208 13.5166 47.3175 13.5166C45.5785 13.5166 44.2578 12.3163 44.2578 10.1477C44.2578 8.00713 45.6186 6.73779 47.3775 6.73779Z" fill="#E1E1E1"/>
<path d="M52.7011 8.36725C54.0309 8.36725 54.7312 9.32751 54.7312 10.6969C54.7312 10.9169 54.7112 11.117 54.6812 11.237H51.5615C51.6606 12.1263 52.2209 12.6264 53.0113 12.6264C53.4305 12.6264 53.7907 12.4964 54.1509 12.2663L54.5411 12.9865C54.0709 13.2966 53.4816 13.5166 52.8612 13.5166C51.5015 13.5166 50.4409 12.5664 50.4409 10.9469C50.4409 9.34751 51.5505 8.36725 52.7011 8.36725ZM53.7307 10.5068C53.7307 9.72761 53.4015 9.25749 52.7312 9.25749C52.1508 9.25749 51.6506 9.6876 51.5505 10.5068H53.7307Z" fill="#E1E1E1"/>
<path d="M55.8542 9.39749H55.1538V8.53726L55.9142 8.48725L56.0543 7.14789H57.0138V8.48725H58.2635V9.39749H57.0138V11.7361C57.0138 12.3163 57.2339 12.5963 57.7042 12.5963C57.8743 12.5963 58.0734 12.5463 58.2145 12.4863L58.4136 13.3365C58.1444 13.4256 57.8042 13.5166 57.414 13.5166C56.2744 13.5166 55.8542 12.7964 55.8542 11.7361V9.39749Z" fill="#E1E1E1"/>
<path d="M61.2168 6.97786C61.2168 6.58776 61.517 6.31769 61.9272 6.31769C62.3374 6.31769 62.6366 6.58776 62.6366 6.97786C62.6366 7.35797 62.3374 7.62804 61.9272 7.62804C61.517 7.62804 61.2168 7.35797 61.2168 6.97786ZM61.3469 8.48727H62.4965V13.3966H61.3469V8.48727Z" fill="#E1E1E1"/>
<path d="M64.1384 9.39749H63.438V8.53726L64.1984 8.48725L64.3385 7.14789H65.299V8.48725H66.5487V9.39749H65.299V11.7361C65.299 12.3163 65.5181 12.5963 65.9884 12.5963C66.1585 12.5963 66.3586 12.5463 66.4986 12.4863L66.6988 13.3365C66.4286 13.4256 66.0884 13.5166 65.6982 13.5166C64.5586 13.5166 64.1384 12.7964 64.1384 11.7361V9.39749Z" fill="#E1E1E1"/>
<path d="M71.6408 8.36725C72.8715 8.36725 73.9811 9.3075 73.9811 10.9469C73.9811 12.5764 72.8715 13.5166 71.6408 13.5166C70.4212 13.5166 69.3105 12.5764 69.3105 10.9469C69.3105 9.3075 70.4212 8.36725 71.6408 8.36725ZM71.6408 12.5764C72.3612 12.5764 72.8014 11.9262 72.8014 10.9469C72.8014 9.95767 72.3612 9.3075 71.6408 9.3075C70.9214 9.3075 70.4912 9.95767 70.4912 10.9469C70.4912 11.9262 70.9214 12.5764 71.6408 12.5764Z" fill="#E1E1E1"/>
<path d="M75.1245 8.48728H76.074L76.1541 9.14746H76.1931C76.6333 8.71734 77.1336 8.36725 77.804 8.36725C78.8545 8.36725 79.3138 9.07744 79.3138 10.3178V13.3966H78.1632V10.4668C78.1632 9.65759 77.935 9.35751 77.3937 9.35751C76.9635 9.35751 76.6844 9.56757 76.2731 9.96668V13.3966H75.1245V8.48728Z" fill="#E1E1E1"/>
<path d="M101.803 30.6482C101.282 30.6482 100.807 30.5532 100.376 30.3611C99.9461 30.1691 99.5839 29.873 99.2927 29.4749H99.2037C99.2627 29.942 99.2927 30.3841 99.2927 30.8012V34.0931H98.0811V22.505H99.0676L99.2347 23.5993H99.2927C99.6049 23.1612 99.9661 22.8471 100.381 22.6511C100.794 22.458 101.269 22.36 101.803 22.36C102.866 22.36 103.683 22.7221 104.26 23.4463C104.836 24.1705 105.124 25.1887 105.124 26.4971C105.124 27.8104 104.831 28.8297 104.246 29.5589C103.658 30.2841 102.845 30.6482 101.803 30.6482ZM101.627 23.3873C100.812 23.3873 100.219 23.6133 99.855 24.0674C99.4898 24.5196 99.3027 25.2388 99.2927 26.227V26.4971C99.2927 27.6204 99.4798 28.4236 99.855 28.9087C100.229 29.3929 100.83 29.6349 101.657 29.6349C102.348 29.6349 102.891 29.3549 103.282 28.7947C103.674 28.2376 103.869 27.4653 103.869 26.4821C103.869 25.4858 103.674 24.7206 103.282 24.1875C102.891 23.6533 102.338 23.3873 101.627 23.3873Z" fill="white"/>
<path d="M107.929 30.5021H106.718V19.1491H107.929V30.5021Z" fill="white"/>
<path d="M114.895 30.5021L114.655 29.3638H114.596C114.198 29.867 113.798 30.2051 113.402 30.3821C113.006 30.5592 112.511 30.6482 111.916 30.6482C111.124 30.6482 110.503 30.4441 110.052 30.036C109.603 29.6269 109.376 29.0467 109.376 28.2915C109.376 26.6781 110.669 25.8299 113.253 25.7529L114.612 25.7089V25.2117C114.612 24.5846 114.476 24.1204 114.206 23.8223C113.936 23.5243 113.502 23.3732 112.91 23.3732C112.243 23.3732 111.49 23.5783 110.649 23.9874L110.275 23.0591C110.669 22.8471 111.101 22.679 111.57 22.556C112.039 22.434 112.511 22.374 112.984 22.374C113.936 22.374 114.643 22.586 115.103 23.0101C115.562 23.4322 115.792 24.1104 115.792 25.0447V30.5021H114.895ZM112.159 29.6489C112.913 29.6489 113.506 29.4419 113.936 29.0297C114.366 28.6146 114.581 28.0355 114.581 27.2913V26.5711L113.369 26.6201C112.406 26.6551 111.71 26.8041 111.287 27.0702C110.861 27.3353 110.649 27.7484 110.649 28.3065C110.649 28.7437 110.78 29.0778 111.045 29.3058C111.311 29.5349 111.681 29.6489 112.159 29.6489Z" fill="white"/>
<path d="M116.497 22.505H117.795L119.548 27.0672C119.93 28.1075 120.171 28.8587 120.262 29.3218H120.321C120.384 29.0718 120.517 28.6486 120.719 28.0465C120.921 27.4463 121.582 25.5978 122.7 22.505H124L120.563 31.6114C120.221 32.5127 119.825 33.1498 119.37 33.528C118.914 33.9061 118.355 34.0931 117.695 34.0931C117.325 34.0931 116.958 34.0501 116.598 33.9681V32.9968C116.866 33.0578 117.165 33.0858 117.497 33.0858C118.329 33.0858 118.921 32.6177 119.278 31.6855L119.723 30.5472L116.497 22.505Z" fill="white"/>
<path d="M79.3576 23.2482C79.7438 23.5663 80.5452 24.2355 80.5452 25.5058C80.5452 26.7442 79.8438 27.3303 79.1414 27.8825C78.9243 28.0975 78.6712 28.3346 78.6712 28.7027C78.6712 29.0708 78.9243 29.2708 79.1074 29.4209L79.7107 29.889C80.4461 30.5092 81.1145 31.0763 81.1145 32.2326C81.1145 33.804 79.5917 35.3935 76.7151 35.3935C74.2878 35.3935 73.1182 34.2392 73.1182 33.0008C73.1182 32.3987 73.4173 31.5464 74.4069 30.9593C75.4424 30.3231 76.8502 30.2411 77.6016 30.1901C77.3665 29.889 77.1003 29.5719 77.1003 29.0548C77.1003 28.7687 77.1844 28.6006 77.2674 28.3996C77.0823 28.4166 76.8982 28.4326 76.7301 28.4326C74.9582 28.4326 73.9536 27.1113 73.9536 25.8079C73.9536 25.0377 74.3058 24.1845 75.0242 23.5663C75.9777 22.7801 77.1153 22.6461 78.0198 22.6461H81.4667L80.3951 23.2482H79.3576ZM78.1709 30.6762C78.0368 30.6582 77.9528 30.6582 77.7867 30.6582C77.6366 30.6582 76.7301 30.6922 76.0287 30.9283C75.6605 31.0613 74.591 31.4624 74.591 32.6497C74.591 33.835 75.7446 34.6913 77.5346 34.6913C79.1414 34.6913 79.9939 33.9211 79.9939 32.8838C79.9939 32.0306 79.4426 31.5784 78.1709 30.6762ZM78.6552 27.4964C79.0404 27.1113 79.0734 26.5781 79.0734 26.277C79.0734 25.0717 78.354 23.1972 76.9663 23.1972C76.53 23.1972 76.0618 23.4163 75.7936 23.7514C75.5105 24.1024 75.4274 24.5526 75.4274 24.9887C75.4274 26.109 76.0798 27.9665 77.5185 27.9665C77.9368 27.9665 78.388 27.7654 78.6552 27.4964Z" fill="white"/>
<path d="M68.8262 30.4091C66.1698 30.4091 64.75 28.3365 64.75 26.466C64.75 24.2795 66.536 22.408 69.0764 22.408C71.5317 22.408 73.0685 24.3285 73.0685 26.351C73.0685 28.3205 71.5497 30.4091 68.8262 30.4091ZM70.9133 29.0557C71.3146 28.5216 71.4146 27.8524 71.4146 27.2012C71.4146 25.7308 70.7142 22.9261 68.6411 22.9261C68.0908 22.9261 67.5395 23.1442 67.1393 23.4943C66.488 24.0784 66.3699 24.8136 66.3699 25.5328C66.3699 27.1852 67.1893 29.906 69.2104 29.906C69.8618 29.906 70.5311 29.5889 70.9133 29.0557Z" fill="white"/>
<path d="M59.771 30.4091C57.1136 30.4091 55.6948 28.3365 55.6948 26.466C55.6948 24.2795 57.4828 22.408 60.0222 22.408C62.4775 22.408 64.0133 24.3285 64.0133 26.351C64.0133 28.3205 62.4935 30.4091 59.771 30.4091ZM61.8602 29.0557C62.2604 28.5216 62.3604 27.8524 62.3604 27.2012C62.3604 25.7308 61.6591 22.9261 59.5869 22.9261C59.0356 22.9261 58.4843 23.1442 58.0841 23.4943C57.4308 24.0784 57.3147 24.8136 57.3147 25.5328C57.3147 27.1852 58.1331 29.906 60.1552 29.906C60.8066 29.906 61.474 29.5889 61.8602 29.0557Z" fill="white"/>
<path d="M54.4184 30.147L52.0171 30.7002C51.0416 30.8522 50.1691 30.9853 49.2466 30.9853C44.6111 30.9853 42.8472 27.5774 42.8472 24.9066C42.8472 21.6508 45.3495 18.629 49.6318 18.629C50.5403 18.629 51.4118 18.763 52.2002 18.9811C53.4619 19.3332 54.0492 19.7703 54.4184 20.0213L53.0247 21.3477L52.4374 21.4817L52.8576 20.8095C52.2863 20.2574 51.2437 19.2321 49.2626 19.2321C46.6092 19.2321 44.6111 21.2477 44.6111 24.1865C44.6111 27.3423 46.8944 30.3151 50.5553 30.3151C51.6309 30.3151 52.1852 30.095 52.6885 29.894V27.1923L50.1531 27.3253L51.4959 26.6021H55.0568L54.6195 27.0232C54.5015 27.1232 54.4855 27.1562 54.4515 27.2913C54.4344 27.4423 54.4184 27.9305 54.4184 28.0965V30.147Z" fill="white"/>
<path d="M84.6675 29.6629C84.1122 29.6129 83.9972 29.5129 83.9972 28.8567V28.6717V19.3532C84.0002 19.3172 84.0032 19.2802 84.0052 19.2451C84.0732 18.657 84.2403 18.557 84.7636 18.2549H82.3603L81.1006 18.859H82.3833V18.866V18.861V28.6717V29.2268C82.3833 29.5619 82.3162 29.6129 81.93 30.1151H84.9016L85.525 29.748C85.2388 29.7119 84.9527 29.6969 84.6675 29.6629Z" fill="white"/>
<path d="M91.5024 29.8169C91.3183 29.917 91.1352 30.034 90.9531 30.116C90.4008 30.3681 89.8335 30.4351 89.3322 30.4351C88.8009 30.4351 87.9655 30.4001 87.115 29.7829C85.9304 28.9497 85.4131 27.5163 85.4131 26.265C85.4131 23.6803 87.5172 22.413 89.2332 22.413C89.8335 22.413 90.4498 22.564 90.9531 22.8811C91.7845 23.4302 92.0017 24.1464 92.1187 24.5305L88.1996 26.115L86.9139 26.216C87.3311 28.3335 88.7659 29.5669 90.3508 29.5669C91.2012 29.5669 91.8186 29.2658 92.3859 28.9837L91.5024 29.8169ZM89.9335 24.8466C90.2507 24.7316 90.4168 24.6306 90.4168 24.3985C90.4168 23.7323 89.6674 22.9641 88.7659 22.9641C88.0975 22.9641 86.8479 23.4813 86.8479 25.2817C86.8479 25.5648 86.8809 25.8649 86.8989 26.165L89.9335 24.8466Z" fill="white"/>
<path d="M93.1111 22.528V23.6273H92.978V22.528H92.6128V22.413H93.4763V22.528H93.1111Z" fill="white"/>
<path d="M94.6108 23.6273V22.518H94.6068L94.2667 23.6273H94.1616L93.8194 22.518H93.8164V23.6273H93.6943V22.413H93.9025L94.2126 23.3952H94.2156L94.5218 22.413H94.7319V23.6273H94.6108Z" fill="white"/>
<path d="M11.5386 5.55811V18.795V32.033L25.4607 18.795L11.5386 5.55811Z" fill="url(#paint0_linear_70_1294)"/>
<path d="M29.1996 15.2399L23.5803 12.1288L11.5386 5.46149V5.55812L25.4607 18.7951L29.1996 15.2399Z" fill="url(#paint1_linear_70_1294)"/>
<path d="M11.5386 32.033V32.1277L23.5803 25.4609L29.1996 22.3507L25.4607 18.795L11.5386 32.033Z" fill="url(#paint2_linear_70_1294)"/>
<path d="M29.1998 15.2399L25.4609 18.795L29.1998 22.3507L35.6216 18.795L29.1998 15.2399Z" fill="url(#paint3_linear_70_1294)"/>
<defs>
<linearGradient id="paint0_linear_70_1294" x1="15.0191" y1="12.1768" x2="15.0191" y2="12.1768" gradientUnits="userSpaceOnUse">
<stop stop-color="#207CB0"/>
<stop offset="0.375698" stop-color="#3BB2BE"/>
<stop offset="0.796092" stop-color="#57E9CE"/>
<stop offset="1" stop-color="#63FFD4"/>
</linearGradient>
<linearGradient id="paint1_linear_70_1294" x1="29.1996" y1="12.1283" x2="11.5386" y2="12.1283" gradientUnits="userSpaceOnUse">
<stop stop-color="#4BC3AE"/>
<stop offset="1" stop-color="#DEE999"/>
</linearGradient>
<linearGradient id="paint2_linear_70_1294" x1="15.9538" y1="22.1282" x2="15.9538" y2="22.1282" gradientUnits="userSpaceOnUse">
<stop stop-color="#EC403D"/>
<stop offset="0.384001" stop-color="#C83A75"/>
<stop offset="0.798779" stop-color="#A635AC"/>
<stop offset="1" stop-color="#9934C2"/>
</linearGradient>
<linearGradient id="paint3_linear_70_1294" x1="30.5413" y1="-898.498" x2="30.5413" y2="-898.498" gradientUnits="userSpaceOnUse">
<stop stop-color="#FF8877"/>
<stop offset="0.612061" stop-color="#FFB175"/>
<stop offset="1" stop-color="#FFC774"/>
</linearGradient>
</defs>
</svg>
