<svg width="43" height="43" viewBox="0 0 43 43" fill="none" xmlns="http://www.w3.org/2000/svg">
<path d="M31.5161 16.4186C30.8003 16.3866 30.0895 16.5507 29.4602 16.8932C28.8309 17.2356 28.3071 17.7435 27.9452 18.3617L27.7059 18.7692C27.2409 19.5618 26.5714 20.2147 25.7674 20.6598C24.9635 21.1049 24.0548 21.3256 23.1363 21.299C22.2178 21.2725 21.3233 20.9995 20.5465 20.5087C19.7696 20.0179 19.139 19.3273 18.7206 18.5092C17.1654 15.4578 14.994 12.7622 12.3436 10.5929L7.73756 6.81426C7.36197 6.90416 7.01022 7.07407 6.70632 7.31238C6.40242 7.55068 6.15355 7.85178 5.97668 8.19511C5.79982 8.53839 5.69915 8.91582 5.68154 9.30162C5.66393 9.68742 5.7298 10.0725 5.87464 10.4305L6.12073 11.0385C6.19017 11.1844 6.20976 11.3492 6.17651 11.5073C6.14326 11.6655 6.059 11.8083 5.93667 11.914C5.66694 12.1451 5.44582 12.4277 5.28616 12.745C5.1265 13.0624 5.03146 13.4084 5.00659 13.7627C4.9817 14.1171 5.02747 14.4729 5.14122 14.8096C5.25497 15.1461 5.43445 15.4567 5.66922 15.7234L6.33655 16.4811C6.42694 16.5837 6.48696 16.7095 6.50987 16.8443C6.5328 16.9791 6.51771 17.1177 6.46631 17.2444L6.37327 17.5947C6.19179 18.267 6.27996 18.9837 6.61899 19.592C6.95802 20.2003 7.52114 20.6522 8.18842 20.8516L8.45534 20.9323C8.6382 20.9876 8.79245 21.1118 8.88568 21.2785C8.97891 21.4453 9.00376 21.6418 8.95498 21.8265L8.86884 22.1505C8.77828 22.491 8.75573 22.8459 8.80239 23.1952C8.84905 23.5444 8.96409 23.8809 9.14079 24.1856C9.31759 24.4905 9.55264 24.7573 9.83251 24.9713C10.1125 25.1852 10.4317 25.3419 10.7722 25.4324L11.0961 25.5185C11.1895 25.5433 11.2771 25.5863 11.354 25.645C11.4308 25.7037 11.4953 25.777 11.5438 25.8606C11.5923 25.9443 11.6239 26.0366 11.6367 26.1325C11.6495 26.2283 11.6433 26.3258 11.6185 26.4192L11.5323 26.7432C11.4418 27.0837 11.4192 27.4387 11.4659 27.7879C11.5126 28.1371 11.6276 28.4736 11.8044 28.7784C11.9811 29.0831 12.2161 29.3501 12.4961 29.564C12.7761 29.7779 13.0953 29.9346 13.4358 30.0251L13.5794 30.0633C13.6895 30.0926 13.7914 30.147 13.8769 30.2223C13.9624 30.2976 14.0292 30.3918 14.0722 30.4973C14.115 30.6029 14.1329 30.7169 14.1243 30.8305C14.1157 30.9441 14.0808 31.0542 14.0225 31.152L13.5444 31.9534C13.0145 32.8403 12.2389 33.5545 11.3114 34.0096C10.3839 34.4647 9.34437 34.6413 8.31865 34.5177L5.90179 34.2254C5.8532 34.6153 5.90423 35.0112 6.05011 35.376C6.19599 35.7409 6.43195 36.0629 6.73597 36.3118L6.828 36.3877C6.97139 36.5053 7.06507 36.6728 7.09034 36.8565C7.11561 37.0403 7.0706 37.2267 6.9643 37.3788L5.7654 39.0937L7.63522 39.809C7.77047 39.8607 7.88745 39.9512 7.97156 40.069C8.05567 40.1868 8.10316 40.3269 8.10808 40.4716C8.12538 41.0102 8.29404 41.533 8.59476 41.9802C8.89543 42.4274 9.31602 42.7808 9.8083 43L11.5259 40.4856C12.0148 39.7696 12.6707 39.1835 13.437 38.778C14.2033 38.3725 15.0569 38.1598 15.9239 38.1585L18.3719 38.1539C21.6831 38.1446 24.89 36.9955 27.4537 34.8999L27.7765 34.6354C30.649 32.2911 32.4994 28.9235 32.9379 25.2418C32.9484 25.1549 32.9742 25.0706 33.0144 24.9928L34.6497 21.8209C34.9952 21.1464 35.1265 20.3824 35.0261 19.6312C34.9256 18.8801 34.5982 18.1774 34.0876 17.6174C33.7595 17.2574 33.3633 16.9662 32.9219 16.7605C32.4805 16.5547 32.0026 16.4385 31.5161 16.4186ZM32.9313 19.5304C32.8663 19.7004 32.7523 19.8472 32.6038 19.9525C32.4553 20.0577 32.2789 20.1165 32.097 20.1216C31.9149 20.1266 31.7357 20.0774 31.5816 19.9805C31.4275 19.8836 31.3057 19.7431 31.2314 19.5769C31.1572 19.4107 31.1339 19.2262 31.1645 19.0468C31.1951 18.8674 31.2783 18.7011 31.4034 18.5689C31.5285 18.4367 31.69 18.3445 31.8675 18.3042C32.045 18.2638 32.2305 18.277 32.4005 18.342C32.6284 18.4291 32.8123 18.6033 32.9119 18.8261C33.0115 19.0489 33.0185 19.3021 32.9313 19.5301V19.5304Z" fill="#FC4F22"/>
<path d="M34.427 21.9803L34.4205 21.993L36.1244 21.9509L34.9267 20.8913C34.8235 21.2802 34.6546 21.6485 34.427 21.9803Z" fill="#FC4F22"/>
<path d="M36.3226 11.2851C36.8827 11.1507 37.3756 10.8188 37.7107 10.3503C38.0457 9.88177 38.2006 9.30813 38.1467 8.73459L37.9966 7.13562L36.5037 7.72748C36.1542 7.8659 35.8423 8.08466 35.5933 8.36609C35.3442 8.64743 35.165 8.98363 35.0702 9.34725C34.758 8.746 34.4171 8.15939 34.0474 7.58731L34.2999 7.52666C34.86 7.3923 35.3527 7.06043 35.6878 6.59189C36.0229 6.12339 36.1778 5.54975 36.1239 4.97628L35.9738 3.37731L34.4809 3.96908C34.0609 4.13558 33.6967 4.41753 33.4303 4.78234C33.1639 5.14716 33.0063 5.57993 32.9755 6.0306L32.382 5.18639C32.3778 5.18023 32.3733 5.17424 32.3689 5.16799L31.724 4.30822L31.7625 3.96107C31.8471 3.20091 31.6548 2.43573 31.2205 1.80602C30.7864 1.17632 30.1397 0.724368 29.3991 0.533143L27.334 0L27.4002 2.13147C27.4239 2.89595 27.7227 3.62621 28.2415 4.18818C28.7603 4.75015 29.4645 5.10611 30.2247 5.19072L30.5738 5.22955L31.1834 6.04303L31.5133 6.51239C31.1385 6.40908 30.7443 6.39867 30.3646 6.48206C29.9849 6.56545 29.6312 6.74013 29.3343 6.99096L28.1073 8.02714L29.4456 8.91488C29.9256 9.23331 30.5043 9.36786 31.0755 9.29396C31.6467 9.22006 32.1721 8.94258 32.5552 8.51242L32.75 8.29366C33.2171 9.00774 33.6381 9.7509 34.0104 10.5186C33.5884 10.2932 33.1085 10.1997 32.6327 10.2498C32.1569 10.3001 31.7071 10.4918 31.3415 10.8003L30.1144 11.8364L31.4527 12.7243C31.9327 13.0427 32.5114 13.1773 33.0826 13.1034C33.6539 13.0294 34.1792 12.7519 34.5623 12.3217L34.7147 12.1506C36.0684 15.7008 36.3976 19.5598 35.6648 23.2879C35.6459 23.3828 35.646 23.4805 35.6649 23.5753C35.6838 23.6701 35.7212 23.7603 35.775 23.8406C35.8287 23.921 35.8978 23.99 35.9783 24.0437C36.0586 24.0974 36.1489 24.1346 36.2437 24.1535C36.3386 24.1723 36.4361 24.1723 36.531 24.1533C36.6258 24.1345 36.716 24.097 36.7963 24.0433C36.8768 23.9895 36.9457 23.9205 36.9994 23.84C37.0531 23.7596 37.0904 23.6694 37.1092 23.5745C37.9135 19.4816 37.5249 15.2437 35.9893 11.3653L36.3226 11.2851Z" fill="#FC4F22"/>
</svg>
