<svg width="109" height="84" viewBox="0 0 109 84" fill="none" xmlns="http://www.w3.org/2000/svg">
<path d="M52.3232 29.4677C52.3232 29.891 52.2385 30.3144 52.1538 30.7378L48.0046 44.4556C48.0046 44.4556 47.5813 61.8144 43.178 69.3507V83.9998H17.4361V67.1491C15.5732 64.27 5.32728 50.2983 5.32728 50.2983C2.78696 48.012 -1.70094 46.8265 0.670028 44.2862C1.94019 42.9314 3.63373 42.2539 5.32728 42.2539C6.85147 42.2539 8.37566 42.762 9.56114 43.8628L16.42 50.0442L11.5087 25.1491C10.2386 18.9677 15.3192 15.8346 18.4523 22.4394L22.5168 38.7822L23.9563 18.2903C24.6337 13.5483 30.3071 11.262 31.3232 18.2903V38.9515L35.3877 22.6935C36.4885 18.3749 41.4845 15.9193 41.1458 24.0483L39.7909 41.3225L46.5651 28.1975C47.3272 25.9112 52.7466 23.7096 52.3232 29.4677Z" fill="white"/>
<path d="M54.9477 44.4556L59.6897 53.6008L58.7582 41.6612C58.5042 35.9879 61.976 37.6814 62.738 40.7298L65.6171 51.9919V38.5282C66.2945 33.6169 70.1897 35.2258 70.6977 38.5282L71.7139 51.9072L74.1695 40.9838C76.2864 36.3266 79.8429 38.6129 78.9961 42.8467L76.0324 59.7822L80.7743 55.4636C81.6211 54.7016 82.6372 54.3628 83.738 54.3628C84.9235 54.3628 86.109 54.8709 86.9558 55.8024C88.5646 57.5806 85.5162 58.3427 83.738 59.9515C83.738 59.9515 76.6251 69.6894 75.355 71.637V83.2378H57.3187V73.0765C54.609 66.641 53.9316 55.8024 53.9316 55.8024L51.0526 46.2338C50.9679 45.9798 50.9679 45.6411 50.8832 45.387C50.6292 41.3225 54.4397 42.8467 54.9477 44.4556ZM97.3711 5.75806C97.3711 5.75806 97.7945 30.3992 96.2703 30.3992C94.5767 30.3992 92.5445 31.2459 90.9356 32.6008C89.3267 33.8709 88.1412 35.6491 88.1412 37.3427C88.1412 38.4435 88.6493 39.375 89.4114 40.0524C90.1735 40.7298 91.2743 41.0685 92.4598 41.0685C94.3227 41.0685 96.4396 40.3064 98.1332 39.0362C99.8267 37.7661 100.928 35.9879 100.928 34.125V17.1048C103.298 17.2742 107.702 21 107.702 21L108.464 18.7137C108.464 18.7137 105.246 15.2419 103.553 13.2097C101.351 10.5 101.266 7.87499 101.012 5.67338H97.3711V5.75806ZM58.4195 0C58.4195 0 58.6736 15.5806 57.7421 15.5806C56.6413 15.5806 55.3711 16.0887 54.355 16.9355C53.3389 17.7822 52.5768 18.883 52.5768 19.9838C52.5768 20.6613 52.9155 21.254 53.4236 21.6774C53.9316 22.1008 54.609 22.3548 55.3711 22.3548C56.5566 22.3548 57.9115 21.8467 58.9276 21.0846C59.9437 20.2379 60.7058 19.1371 60.7058 17.9516V7.28225C62.23 7.36693 64.9397 9.73789 64.9397 9.73789L65.4477 8.29838C65.4477 8.29838 63.4155 6.09677 62.3147 4.82661C60.8752 3.13306 60.8752 1.43952 60.7058 0.0846767H58.4195V0Z" fill="white"/>
</svg>
