<svg xmlns="http://www.w3.org/2000/svg" width="23.275" height="22.534" viewBox="0 0 23.275 22.534">
  <path id="Icon_ionic-ios-heart" data-name="Icon ionic-ios-heart" d="M19.653,3.938H19.6a6.093,6.093,0,0,0-5.087,2.784A6.093,6.093,0,0,0,9.426,3.938H9.372a6.054,6.054,0,0,0-6,6.051,13.034,13.034,0,0,0,2.559,7.105,44.853,44.853,0,0,0,8.578,8.262,44.853,44.853,0,0,0,8.578-8.262A13.034,13.034,0,0,0,25.65,9.988,6.054,6.054,0,0,0,19.653,3.938Z" transform="translate(-2.875 -3.438)" stroke="#fff" stroke-width="1"/>
</svg>
