<svg width="43" height="43" viewBox="0 0 43 43" fill="none" xmlns="http://www.w3.org/2000/svg">
<path fill-rule="evenodd" clip-rule="evenodd" d="M14.429 30.3299H11.1731C8.53853 30.3299 6.39505 28.1862 6.39505 25.5519V15.0187C6.39505 12.3841 8.53853 10.2407 11.1731 10.2407H14.429C17.0635 10.2407 19.207 12.3841 19.207 15.0187V25.5521C19.207 28.1862 17.0638 30.3299 14.429 30.3299ZM11.1731 11.2485C9.09411 11.2485 7.40291 12.9397 7.40291 15.0187V25.5521C7.40291 27.6308 9.09411 29.322 11.1731 29.322H14.429C16.508 29.322 18.1992 27.6308 18.1992 25.5521V15.0187C18.1992 12.9397 16.508 11.2485 14.429 11.2485H11.1731Z" fill="#FC4F22"/>
<path fill-rule="evenodd" clip-rule="evenodd" d="M10.2771 13.7921C9.99892 13.7921 9.77316 13.5663 9.77316 13.2882V10.8393C9.77316 10.1759 10.781 10.1759 10.781 10.8393V13.2882C10.781 13.5669 10.5555 13.7921 10.2771 13.7921Z" fill="#FC4F22"/>
<path fill-rule="evenodd" clip-rule="evenodd" d="M12.8335 13.7921C12.5554 13.7921 12.3296 13.5663 12.3296 13.2882V10.7441C12.3296 10.0807 13.3375 10.0807 13.3375 10.7441V13.2882C13.3375 13.5669 13.1117 13.7921 12.8335 13.7921Z" fill="#FC4F22"/>
<path fill-rule="evenodd" clip-rule="evenodd" d="M15.39 13.7921C15.1118 13.7921 14.8861 13.5663 14.8861 13.2882V10.8539C14.8861 10.1905 15.8939 10.1905 15.8939 10.8539V13.2882C15.8939 13.5663 15.6687 13.7921 15.39 13.7921Z" fill="#FC4F22"/>
<path fill-rule="evenodd" clip-rule="evenodd" d="M14.341 32.8367H11.3714C7.26005 32.8367 3.9152 29.4916 3.9152 25.3805L3.91546 21.0999C3.91546 20.4365 4.92332 20.4365 4.92332 21.0999V25.3803C4.92332 28.9358 7.81589 31.8283 11.3716 31.8283H14.341C17.8965 31.8283 20.7891 28.9358 20.7891 25.3803V21.0999C20.7891 20.4365 21.797 20.4365 21.797 21.0999V25.3803C21.797 29.4916 18.4521 32.8367 14.341 32.8367ZM20.3588 20.6698C19.3053 20.6698 18.1994 20.8822 18.1994 20.1658C18.1994 19.4498 19.3053 19.6619 20.3588 19.6619C21.0219 19.6619 21.0222 20.6698 20.3588 20.6698ZM6.89873 20.6698C5.908 20.6698 4.84949 20.8731 4.84949 20.1658C4.84949 19.4586 5.908 19.6619 6.89873 19.6619C7.56191 19.6619 7.56216 20.6698 6.89873 20.6698Z" fill="#FC4F22"/>
<path fill-rule="evenodd" clip-rule="evenodd" d="M21.293 21.6038C19.4005 21.6038 19.4003 18.7279 21.293 18.7279C23.1856 18.7279 23.1856 21.6038 21.293 21.6038ZM21.293 19.736C20.7269 19.736 20.7271 20.5962 21.293 20.5962C21.8587 20.5962 21.8592 19.736 21.293 19.736Z" fill="#FC4F22"/>
<path fill-rule="evenodd" clip-rule="evenodd" d="M4.41939 21.6038C2.52687 21.6038 2.52687 18.7279 4.41939 18.7279C6.31216 18.7279 6.3119 21.6038 4.41939 21.6038ZM4.41939 19.736C3.85322 19.736 3.85372 20.5962 4.41939 20.5962C4.9853 20.5962 4.98555 19.736 4.41939 19.736Z" fill="#FC4F22"/>
<path fill-rule="evenodd" clip-rule="evenodd" d="M19.809 43H5.90372C5.24029 43 5.24029 41.9921 5.90372 41.9921H19.809C20.4721 41.9921 20.4724 43 19.809 43Z" fill="#FC4F22"/>
<path fill-rule="evenodd" clip-rule="evenodd" d="M18.7031 25.5015H6.89898C6.23556 25.5015 6.23556 24.4936 6.89898 24.4936H18.7031C19.3663 24.4936 19.3665 25.5015 18.7031 25.5015Z" fill="#FC4F22"/>
<path fill-rule="evenodd" clip-rule="evenodd" d="M14.1858 43C13.9077 43 13.6819 42.774 13.6819 42.4961V32.3325C13.6819 31.6691 14.6898 31.6693 14.6898 32.3325V42.4961C14.6898 42.7742 14.4645 43 14.1858 43ZM11.5268 43C11.2487 43 11.0229 42.774 11.0229 42.4961V32.3325C11.0229 31.6691 12.0308 31.6693 12.0308 32.3325V42.4961C12.0308 42.7742 11.805 43 11.5268 43Z" fill="#FC4F22"/>
<path fill-rule="evenodd" clip-rule="evenodd" d="M28.7981 13.0287C25.8813 13.0287 23.5086 10.6559 23.5086 7.73939C23.5086 4.82263 25.8816 2.44986 28.7981 2.44986C31.7144 2.44986 34.0876 4.82263 34.0876 7.73939C34.0881 10.6559 31.7149 13.0287 28.7981 13.0287ZM28.7981 3.45722C26.4372 3.45722 24.5167 5.37796 24.5167 7.73888C24.5167 10.0998 26.4372 12.0205 28.7981 12.0205C31.1588 12.0205 33.0792 10.0998 33.0792 7.73888C33.0798 5.37796 31.1588 3.45722 28.7981 3.45722Z" fill="#FC4F22"/>
<path fill-rule="evenodd" clip-rule="evenodd" d="M27.5073 6.94015C26.8504 6.94015 26.0081 7.09309 26.0081 6.43622C26.0081 5.77934 26.8509 5.93229 27.5073 5.93229C28.1707 5.93229 28.1707 6.94015 27.5073 6.94015Z" fill="#FC4F22"/>
<path fill-rule="evenodd" clip-rule="evenodd" d="M31.0847 6.94015C30.4278 6.94015 29.5855 7.09309 29.5855 6.43622C29.5855 5.77934 30.4283 5.93229 31.0847 5.93229C31.7481 5.93229 31.7479 6.94015 31.0847 6.94015Z" fill="#FC4F22"/>
<path fill-rule="evenodd" clip-rule="evenodd" d="M28.7981 9.8501C27.6746 9.8501 26.5233 8.92614 27.1538 8.38215C27.7225 7.89132 27.8704 8.84224 28.7978 8.84224C29.7251 8.84224 29.8735 7.89157 30.4417 8.38215C31.0723 8.92614 29.9214 9.8501 28.7981 9.8501Z" fill="#FC4F22"/>
<path fill-rule="evenodd" clip-rule="evenodd" d="M20.9826 18.1098C20.6223 18.1098 20.3764 17.7397 20.5198 17.4066L22.092 13.7513C19.6245 12.2917 18.1656 10.0713 18.1656 7.73913C18.1656 3.47159 22.9356 0 28.7986 0C34.6618 0 39.4318 3.47159 39.4318 7.73913C39.4318 12.0062 34.6618 15.478 28.7986 15.478C28.0394 15.478 27.2823 15.4196 26.5453 15.3044C26.2938 15.3452 21.354 18.1098 20.9826 18.1098ZM28.7981 1.00761C19.6447 1.00761 15.6535 9.17584 22.9709 13.0899C23.2017 13.2136 23.2994 13.493 23.1966 13.7334L22.0008 16.5138L26.2308 14.3331C26.4838 14.2018 27.765 14.4707 28.7984 14.4707C34.1055 14.4707 38.4234 11.4511 38.4234 7.73964C38.4234 4.02818 34.1055 1.00761 28.7981 1.00761Z" fill="#FC4F22"/>
</svg>
