<svg width="81" height="80" viewBox="0 0 81 80" fill="none" xmlns="http://www.w3.org/2000/svg">
<rect x="0.5" width="80" height="80" rx="8" fill="#FB4F21"/>
<path d="M62.5 26.516L52.3797 18.1087L49.5203 21.4941L59.6405 29.9003L62.5 26.516ZM31.3702 21.3842L28.5096 18L18.5 26.516L21.3594 29.9001L31.3702 21.3842ZM41.6001 31.429H38.3V44.531L48.7499 50.7546L50.4 48.0249L41.6 42.8932L41.6001 31.429ZM40.5 22.6945C29.5 22.6945 20.6999 31.5378 20.6999 42.3471C20.6999 53.1568 29.5 62 40.5 62C51.3906 62 60.3001 53.1568 60.3001 42.3471C60.3001 31.5379 51.3906 22.6945 40.5 22.6945ZM40.5 57.6329C32.0297 57.6329 25.1 50.7547 25.1 42.3472C25.1 33.9402 32.0297 27.0619 40.5 27.0619C48.9704 27.0619 55.9 33.9401 55.9 42.3472C55.9 50.8634 48.9704 57.6329 40.5 57.6329Z" fill="#FFFBFA"/>
</svg>
