<svg xmlns="http://www.w3.org/2000/svg" xmlns:xlink="http://www.w3.org/1999/xlink" width="48.25" height="47.241" viewBox="0 0 48.25 47.241">
  <defs>
    <filter id="Icon_ionic-ios-heart" x="0" y="0" width="48.25" height="47.241" filterUnits="userSpaceOnUse">
      <feOffset dy="3" input="SourceAlpha"/>
      <feGaussianBlur stdDeviation="3" result="blur"/>
      <feFlood flood-opacity="0.161"/>
      <feComposite operator="in" in2="blur"/>
      <feComposite in="SourceGraphic"/>
    </filter>
  </defs>
  <g transform="matrix(1, 0, 0, 1, 0, 0)" filter="url(#Icon_ionic-ios-heart)">
    <path id="Icon_ionic-ios-heart-2" data-name="Icon ionic-ios-heart" d="M24.75,3.938h-.07A8,8,0,0,0,18,7.594a8,8,0,0,0-6.68-3.656h-.07a7.949,7.949,0,0,0-7.875,7.945,17.115,17.115,0,0,0,3.361,9.33C10.969,27,18,32.063,18,32.063S25.031,27,29.264,21.213a17.115,17.115,0,0,0,3.361-9.33A7.949,7.949,0,0,0,24.75,3.938Z" transform="translate(6.13 2.56)" fill="#fc4f22" stroke="#fff" stroke-width="1"/>
  </g>
</svg>
