<svg width="81" height="80" viewBox="0 0 81 80" fill="none" xmlns="http://www.w3.org/2000/svg">
<rect x="0.5" width="80" height="80" rx="8" fill="#FB4F21"/>
<path d="M38.6477 21.2653C39.2877 19.5773 41.7097 19.5773 42.3517 21.2653L46.4917 32.7333C46.6361 33.1068 46.8904 33.4278 47.2211 33.6539C47.5517 33.8799 47.9431 34.0003 48.3437 33.9993L58.5177 33.9993C60.3977 33.9993 61.2177 36.3393 59.7397 37.4853L52.4997 43.9993C52.1753 44.2486 51.9383 44.5942 51.8226 44.9866C51.7069 45.379 51.7185 45.7979 51.8557 46.1833L54.4997 57.3893C55.1437 59.1893 53.0597 60.7353 51.4837 59.6273L41.6497 53.3873C41.3129 53.1506 40.9113 53.0236 40.4997 53.0236C40.088 53.0236 39.6864 53.1506 39.3497 53.3873L29.5157 59.6273C27.9417 60.7353 25.8557 59.1873 26.4997 57.3893L29.1437 46.1833C29.2808 45.7979 29.2924 45.3789 29.1767 44.9866C29.061 44.5942 28.824 44.2486 28.4997 43.9993L21.2597 37.4853C19.7797 36.3393 20.6037 33.9993 22.4797 33.9993L32.6537 33.9993C33.0542 34.0006 33.4458 33.8803 33.7765 33.6542C34.1072 33.4281 34.3615 33.107 34.5057 32.7333L38.6457 21.2653L38.6477 21.2653Z" stroke="#FFFBFA" stroke-width="4" stroke-linecap="round" stroke-linejoin="round"/>
</svg>
