<svg width="44" height="40" viewBox="0 0 44 40" fill="none" xmlns="http://www.w3.org/2000/svg">
<path d="M34.5495 8.48949C35.161 8.48949 35.6568 7.99369 35.6568 7.38217C35.6568 6.77065 35.161 6.27484 34.5495 6.27484C33.938 6.27484 33.4421 6.77065 33.4421 7.38217C33.4421 7.99369 33.938 8.48949 34.5495 8.48949Z" fill="#FC4F22"/>
<path d="M2.03498 36.0332C8.41282 38.4543 15.1778 39.6955 21.9998 39.6958C28.8216 39.6948 35.5866 38.4538 41.9646 36.0332C42.5536 35.8084 43.0296 35.3596 43.2888 34.785C43.5481 34.2104 43.5695 33.5565 43.3482 32.9662C43.1269 32.3759 42.6811 31.8971 42.108 31.6344C41.5349 31.3718 40.8812 31.3465 40.2896 31.5643C38.4454 32.2472 36.5643 32.8262 34.6554 33.2985L31.9633 24.6836L34.1084 24.3525C34.2826 24.3255 34.4414 24.2372 34.5562 24.1034C34.6709 23.9696 34.734 23.7992 34.734 23.6229V17.7172C34.734 17.6107 34.711 17.5055 34.6665 17.4088C34.622 17.3121 34.5571 17.2261 34.4763 17.1568C34.3956 17.0875 34.3007 17.0366 34.1983 17.0073C34.0959 16.9781 33.9884 16.9714 33.8832 16.9877L33.8113 16.9987V12.6393C33.8113 12.4755 33.8597 12.3155 33.9507 12.1793C34.0417 12.0432 34.1709 11.9371 34.3222 11.8744C34.4735 11.8117 34.6399 11.7953 34.8006 11.8273C34.9611 11.8593 35.1086 11.9382 35.2244 12.054C35.9659 12.7971 36.8514 13.3809 37.8266 13.7697L37.957 13.8218C38.6271 14.0899 39.3693 14.1184 40.058 13.9026C40.7468 13.6867 41.34 13.2398 41.7373 12.6373C42.1346 12.0347 42.3117 11.3134 42.2388 10.5953C42.1658 9.87724 41.8473 9.20639 41.3369 8.69601L37.5023 4.86178V0.738199C37.5023 0.626018 37.4768 0.515313 37.4276 0.414491C37.3783 0.313669 37.3068 0.225387 37.2184 0.156355C37.13 0.0873133 37.027 0.0393383 36.9173 0.016066C36.8075 -0.00721552 36.6939 -0.00516687 36.5851 0.0220364L35.925 0.187028C32.7986 0.96867 29.964 2.63518 27.7607 4.98684C25.5574 7.33852 24.079 10.2756 23.5024 13.4462C23.5004 13.4574 23.4986 13.4688 23.4972 13.4801L22.8452 18.3447C19.8096 18.4525 16.7704 18.2824 13.7658 17.8365L12.9115 13.7568C12.9095 13.7476 12.9075 13.7384 12.9051 13.7292C12.7162 12.9701 12.2786 12.2961 11.6621 11.8147C11.0455 11.3334 10.2856 11.0723 9.50335 11.0732H4.28257C4.15674 11.0732 4.03299 11.1054 3.92309 11.1667C3.81319 11.228 3.72077 11.3163 3.65462 11.4233C3.58847 11.5304 3.55078 11.6526 3.54512 11.7783C3.53948 11.904 3.56605 12.0291 3.62233 12.1416L4.4914 13.8798C4.72927 14.3562 5.06753 14.7754 5.48289 15.1085C5.89825 15.4417 6.38086 15.681 6.89752 15.8099C7.24162 15.8956 7.55787 16.0685 7.81579 16.3118C8.0738 16.5552 8.26481 16.8608 8.37047 17.1993C8.23445 17.3374 8.15823 17.5234 8.15823 17.7172V23.6229C8.15823 23.7951 8.21839 23.9619 8.3283 24.0944C8.43829 24.2269 8.5911 24.3168 8.76034 24.3485L9.16451 24.4243L6.62641 32.5476C5.64705 32.2489 4.67506 31.9211 3.71046 31.5643C3.11883 31.3465 2.46509 31.3718 1.89201 31.6344C1.31892 31.8971 0.873057 32.3759 0.651804 32.9662C0.430542 33.5565 0.451868 34.2104 0.711111 34.785C0.970354 35.3596 1.44647 35.8084 2.03544 36.0332H2.03498ZM33.2132 33.6332C32.542 33.7794 31.8688 33.9124 31.1936 34.0323L28.442 25.2273C28.8538 25.1683 30.4875 24.9113 30.4875 24.9113L33.2132 33.6332ZM21.072 25.76C23.038 25.7592 25.0024 25.6456 26.9554 25.4199L29.7215 34.2717C23.6583 35.1695 17.4849 35.0031 11.4789 33.78L14.1333 25.2859C16.4328 25.6003 18.7511 25.7588 21.072 25.76ZM24.9582 13.6939C25.4784 10.8505 26.7943 8.21294 28.7534 6.08752C30.7125 3.96201 33.2342 2.43581 36.0259 1.68607V5.1675C36.0259 5.26444 36.045 5.36044 36.0821 5.45C36.1192 5.53958 36.1735 5.62097 36.2421 5.68953L40.2925 9.74049C40.5625 10.0104 40.731 10.3652 40.7697 10.745C40.8083 11.1248 40.7146 11.5063 40.5044 11.8249C40.2943 12.1437 39.9805 12.3801 39.6162 12.4942C39.252 12.6084 38.8595 12.5932 38.505 12.4514L38.3746 12.3993C37.5853 12.0845 36.8686 11.6119 36.2684 11.0104C35.9462 10.6882 35.5356 10.4687 35.0887 10.3798C34.6417 10.2909 34.1785 10.3365 33.7575 10.5108C33.3365 10.6851 32.9766 10.9804 32.7233 11.3593C32.4701 11.7381 32.3349 12.1835 32.3348 12.6393V17.2267L29.4452 17.6726C27.7338 17.9578 26.0338 18.1562 24.3451 18.2681L24.9582 13.6939ZM29.6791 19.1307L33.2576 18.578V22.9899L29.4452 23.5784C23.5632 24.5756 17.5504 24.5137 11.6902 23.3957L9.63466 23.0102V18.6067L11.4181 18.9411C17.4452 20.0913 23.6294 20.1554 29.6791 19.1303V19.1307ZM7.25574 14.3784C6.94574 14.301 6.65616 14.1575 6.40694 13.9576C6.15771 13.7576 5.95474 13.506 5.81197 13.2203L5.47701 12.5497H9.50335C9.95394 12.5492 10.3919 12.6988 10.748 12.975C11.1041 13.2512 11.3579 13.6382 11.4696 14.0747L12.2044 17.5836C12.0331 17.5532 9.88501 17.1515 9.88501 17.1515L9.83684 16.9588C9.68154 16.3347 9.35922 15.7647 8.90447 15.31C8.44973 14.8552 7.87974 14.5329 7.25565 14.3776L7.25574 14.3784ZM10.6257 24.6982C10.6257 24.6982 12.2437 24.9967 12.6558 25.0643L10.0315 33.4631C9.36706 33.3081 8.70479 33.1399 8.04482 32.9587L10.6257 24.6982ZM2.06737 33.3951C2.16744 33.1944 2.33818 33.0378 2.54675 32.9554C2.75532 32.873 2.987 32.8706 3.19721 32.9487C4.41416 33.3994 5.64267 33.8047 6.88276 34.1644C6.88626 34.1655 6.88949 34.1671 6.893 34.1682C6.89651 34.1693 6.90223 34.17 6.90675 34.1713C14.6559 36.419 22.8092 36.9076 30.7714 35.6016C30.7867 35.5998 30.8018 35.5972 30.8175 35.5942C34.2227 35.0329 37.5663 34.147 40.8027 32.9486C41.0129 32.8705 41.2446 32.8729 41.4532 32.9553C41.6618 33.0377 41.8325 33.1943 41.9326 33.3951C41.9894 33.5088 42.0218 33.6333 42.0276 33.7604C42.0334 33.8875 42.0125 34.0143 41.9662 34.1328C41.9199 34.2514 41.8493 34.3588 41.7589 34.4484C41.6686 34.5379 41.5604 34.6075 41.4415 34.6526C28.9168 39.4079 15.0835 39.4079 2.55884 34.6526C2.43988 34.6075 2.33169 34.5379 2.24128 34.4484C2.15085 34.3589 2.08021 34.2514 2.0339 34.1329C1.98759 34.0144 1.96663 33.8876 1.9724 33.7605C1.97817 33.6333 2.01052 33.5088 2.06737 33.3951Z" fill="#FC4F22"/>
</svg>
