<svg xmlns="http://www.w3.org/2000/svg" xmlns:xlink="http://www.w3.org/1999/xlink" width="48" height="49" viewBox="0 0 48 49">
  <defs>
    <filter id="Elipse_8" x="0" y="0" width="48" height="49" filterUnits="userSpaceOnUse">
      <feOffset dy="3" input="SourceAlpha"/>
      <feGaussianBlur stdDeviation="3" result="blur"/>
      <feFlood flood-opacity="0.161"/>
      <feComposite operator="in" in2="blur"/>
      <feComposite in="SourceGraphic"/>
    </filter>
  </defs>
  <g id="Instagram" transform="translate(9 6)">
    <g transform="matrix(1, 0, 0, 1, -9, -6)" filter="url(#Elipse_8)">
      <ellipse id="Elipse_8-2" data-name="Elipse 8" cx="15" cy="15.5" rx="15" ry="15.5" transform="translate(9 6)" fill="#fc4f22"/>
    </g>
    <path id="Icon_awesome-instagram" data-name="Icon awesome-instagram" d="M6.494,5.4A3.331,3.331,0,1,0,9.826,8.735,3.326,3.326,0,0,0,6.494,5.4Zm0,5.5A2.166,2.166,0,1,1,8.66,8.735,2.17,2.17,0,0,1,6.494,10.9Zm4.245-5.634a.777.777,0,1,1-.777-.777A.775.775,0,0,1,10.739,5.267Zm2.206.789A3.845,3.845,0,0,0,11.9,3.333a3.871,3.871,0,0,0-2.723-1.05c-1.073-.061-4.288-.061-5.361,0A3.865,3.865,0,0,0,1.09,3.33,3.858,3.858,0,0,0,.04,6.053c-.061,1.073-.061,4.288,0,5.361a3.845,3.845,0,0,0,1.05,2.723,3.876,3.876,0,0,0,2.723,1.05c1.073.061,4.288.061,5.361,0a3.845,3.845,0,0,0,2.723-1.05,3.871,3.871,0,0,0,1.05-2.723c.061-1.073.061-4.285,0-5.358ZM11.56,12.565A2.193,2.193,0,0,1,10.325,13.8a14.32,14.32,0,0,1-3.83.261,14.432,14.432,0,0,1-3.83-.261,2.193,2.193,0,0,1-1.235-1.235,14.32,14.32,0,0,1-.261-3.83A14.432,14.432,0,0,1,1.429,4.9,2.193,2.193,0,0,1,2.664,3.669a14.32,14.32,0,0,1,3.83-.261,14.432,14.432,0,0,1,3.83.261A2.193,2.193,0,0,1,11.56,4.9a14.32,14.32,0,0,1,.261,3.83A14.312,14.312,0,0,1,11.56,12.565Z" transform="translate(9.293 6.816)" fill="#fff"/>
  </g>
</svg>
