<svg width="43" height="43" viewBox="0 0 43 43" fill="none" xmlns="http://www.w3.org/2000/svg">
<path fill-rule="evenodd" clip-rule="evenodd" d="M4.52107 0.000101537H2.95555C2.42782 0.000101537 2 0.427917 2 0.955655C2 1.48339 2.42782 1.91121 2.95555 1.91121H4.02449L5.9533 4.80441C6.75623 6.00882 7.99781 6.65222 9.27691 6.65222C10.4875 6.65222 11.482 7.64671 11.482 8.85735V30.666C11.482 37.5151 16.9669 43 23.816 43C30.1818 43 35.5179 37.8403 35.5179 31.2981C35.5179 29.763 35.8566 28.2441 36.5171 26.937C37.6396 26.905 38.698 26.5461 39.504 25.7402C40.7201 24.5241 40.9182 22.7328 40.5113 21.0146C40.1002 19.279 39.0476 17.4513 37.4925 15.8962C35.9374 14.3411 34.1097 13.2885 32.3742 12.8774C30.6559 12.4705 28.8646 12.6686 27.6485 13.8848C26.6049 14.9283 26.3109 16.3954 26.5057 17.8764L26.3502 18.1096C24.9755 20.0076 24.1247 22.5667 24.1247 24.9768V30.9821C24.1247 32.1927 23.1302 33.1872 21.9196 33.1872C20.709 33.1872 19.7145 32.1927 19.7145 30.9821V28.777H20.3393C20.867 28.777 21.2948 28.3491 21.2948 27.8214C21.2948 27.2937 20.867 26.8659 20.3393 26.8659H19.7145V24.0359H20.3393C20.867 24.0359 21.2948 23.6081 21.2948 23.0804C21.2948 22.5527 20.867 22.1248 20.3393 22.1248H19.7145V19.2949H20.3393C20.867 19.2949 21.2948 18.8671 21.2948 18.3394C21.2948 17.8116 20.867 17.3838 20.3393 17.3838H19.7145V14.5539H20.3393C20.867 14.5539 21.2948 14.1261 21.2948 13.5984C21.2948 13.0706 20.867 12.6428 20.3393 12.6428H19.7145V10.1216C19.7145 4.5368 15.1778 0.000101537 9.59297 0.000101537H4.54896C4.53967 -3.37888e-05 4.53037 -3.39027e-05 4.52107 0.000101537ZM17.8034 12.6428V10.1216C17.8034 5.59227 14.1223 1.91121 9.59297 1.91121H6.32136L7.54343 3.74432C8.00477 4.43632 8.6596 4.74112 9.27691 4.74112C11.543 4.74112 13.3931 6.59124 13.3931 8.85735V30.666C13.3931 36.4596 18.0224 41.0889 23.816 41.0889C29.1447 41.0889 33.6068 36.7666 33.6068 31.2981C33.6068 29.7199 33.91 28.1292 34.5279 26.684C32.868 26.2343 31.1404 25.2093 29.6599 23.7288C28.6054 22.6743 27.782 21.4944 27.233 20.303C26.4839 21.7163 26.0358 23.3979 26.0358 24.9768V30.9821C26.0358 33.2482 24.1857 35.0983 21.9196 35.0983C19.6535 35.0983 17.8034 33.2482 17.8034 30.9821V28.777H17.1786C16.6509 28.777 16.223 28.3491 16.223 27.8214C16.223 27.2937 16.6509 26.8659 17.1786 26.8659H17.8034V24.0359H17.1786C16.6509 24.0359 16.223 23.6081 16.223 23.0804C16.223 22.5527 16.6509 22.1248 17.1786 22.1248H17.8034V19.2949H17.1786C16.6509 19.2949 16.223 18.8671 16.223 18.3394C16.223 17.8116 16.6509 17.3838 17.1786 17.3838H17.8034V14.5539H17.1786C16.6509 14.5539 16.223 14.1261 16.223 13.5984C16.223 13.0706 16.6509 12.6428 17.1786 12.6428H17.8034ZM36.3198 25.03C36.1437 24.9638 35.9561 24.9529 35.7798 24.9917C35.6001 24.9683 35.413 24.9339 35.2187 24.8879C33.8805 24.5709 32.3568 23.723 31.0113 22.3774C29.6658 21.0319 28.8178 19.5082 28.5008 18.17C28.1798 16.8145 28.4263 15.8097 28.9999 15.2361C29.5735 14.6625 30.5782 14.4161 31.9337 14.7371C33.2719 15.054 34.7956 15.902 36.1412 17.2475C37.4867 18.5931 38.3347 20.1168 38.6516 21.455C38.9727 22.8105 38.7262 23.8152 38.1526 24.3889C37.7474 24.7941 37.127 25.036 36.3198 25.03Z" fill="#FC4F22"/>
</svg>
