<svg xmlns="http://www.w3.org/2000/svg" xmlns:xlink="http://www.w3.org/1999/xlink" width="48" height="49" viewBox="0 0 48 49">
  <defs>
    <filter id="Elipse_9" x="0" y="0" width="48" height="49" filterUnits="userSpaceOnUse">
      <feOffset dy="3" input="SourceAlpha"/>
      <feGaussianBlur stdDeviation="3" result="blur"/>
      <feFlood flood-opacity="0.161"/>
      <feComposite operator="in" in2="blur"/>
      <feComposite in="SourceGraphic"/>
    </filter>
  </defs>
  <g id="Linkedin" transform="translate(9 6)">
    <g transform="matrix(1, 0, 0, 1, -9, -6)" filter="url(#Elipse_9)">
      <ellipse id="Elipse_9-2" data-name="Elipse 9" cx="15" cy="15.5" rx="15" ry="15.5" transform="translate(9 6)" fill="#fc4f22"/>
    </g>
    <path id="Icon_awesome-linkedin-in" data-name="Icon awesome-linkedin-in" d="M2.908,12.99H.215V4.318H2.908ZM1.56,3.135A1.567,1.567,0,1,1,3.119,1.56,1.573,1.573,0,0,1,1.56,3.135ZM12.986,12.99H10.3V8.768c0-1.006-.02-2.3-1.4-2.3-1.4,0-1.615,1.093-1.615,2.224V12.99H4.594V4.318H7.177V5.5h.038A2.83,2.83,0,0,1,9.763,4.1c2.725,0,3.226,1.795,3.226,4.126V12.99Z" transform="translate(7.81 8.231)" fill="#fff"/>
  </g>
</svg>
