<svg width="45" height="45" viewBox="0 0 45 45" fill="none" xmlns="http://www.w3.org/2000/svg">
<path fill-rule="evenodd" clip-rule="evenodd" d="M40.1648 0.292893C40.5553 0.683417 40.5553 1.31658 40.1648 1.70711L35.1558 6.71604L38.2808 9.84104L43.2898 4.8321C43.6803 4.44158 44.3134 4.44158 44.704 4.8321C45.0945 5.22263 45.0945 5.85579 44.704 6.24632L39.5316 11.4187C43.2797 16.4109 42.1397 23.6307 36.5696 26.5939C34.9128 27.4989 33.5803 28.9993 33.0002 30.5944L32.9938 30.6117L30.472 37.1683L30.4699 37.1737C27.1473 45.6648 16.3364 47.369 9.67574 40.8884L9.66592 40.8789L9.66599 40.8788L3.94995 35.1628C-2.55047 28.6623 -0.829515 17.6789 7.65503 14.3589L7.66045 14.3567L7.66045 14.3568L14.2039 11.84C16.0117 11.0839 17.3417 9.89444 18.2349 8.25908C21.236 2.6179 28.603 1.52071 33.6003 5.44319L38.7506 0.292893C39.1411 -0.0976311 39.7742 -0.0976311 40.1648 0.292893ZM33.2026 7.75939C29.0819 3.63868 22.5043 4.48558 19.9984 9.20262L19.9932 9.21235L19.9932 9.21232C18.8711 11.2695 17.1798 12.7668 14.9607 13.6914C14.9522 13.6949 14.9436 13.6984 14.935 13.7017L8.38118 16.2224C1.40103 18.9559 -0.239268 28.1451 5.36416 33.7485L11.0752 39.4596C16.8548 45.0773 25.8761 43.4193 28.6063 36.4477C28.6067 36.4468 28.607 36.4458 28.6074 36.4449L31.1239 29.902C31.8898 27.8037 33.5795 25.9466 35.6164 24.8356L35.6261 24.8303L35.6261 24.8304C40.3432 22.3244 41.1901 15.7468 37.0694 11.6261L33.2026 7.75939ZM25.84 15.2814C23.6997 15.2814 21.9646 17.0165 21.9646 19.1568C21.9646 21.2972 23.6997 23.0323 25.84 23.0323C27.9804 23.0323 29.7155 21.2972 29.7155 19.1568C29.7155 17.0165 27.9804 15.2814 25.84 15.2814ZM19.9646 19.1568C19.9646 15.9119 22.5951 13.2814 25.84 13.2814C29.085 13.2814 31.7155 15.9119 31.7155 19.1568C31.7155 22.4018 29.085 25.0323 25.84 25.0323C22.5951 25.0323 19.9646 22.4018 19.9646 19.1568ZM10.8428 26.5194C11.2333 26.1289 11.8665 26.1289 12.257 26.5194L18.4774 32.7398C18.868 33.1304 18.868 33.7635 18.4774 34.154C18.0869 34.5446 17.4537 34.5446 17.0632 34.154L10.8428 27.9336C10.4523 27.5431 10.4523 26.91 10.8428 26.5194Z" fill="#FC4F22"/>
</svg>
