<svg width="45" height="45" viewBox="0 0 45 45" fill="none" xmlns="http://www.w3.org/2000/svg">
<path fill-rule="evenodd" clip-rule="evenodd" d="M18.2708 8.55017C20.4137 3.37832 25.5763 0 31.1 0C38.7638 0 45 6.23618 45 13.9V44C45 44.5523 44.5523 45 44 45H1C0.447715 45 0 44.5523 0 44V28.7846C0 23.7669 3.92079 19.8462 8.93846 19.8462C11.6757 19.8462 14.2778 18.1079 15.2834 15.5222C15.2875 15.5116 15.2918 15.5011 15.2962 15.4907L18.2708 8.55017ZM2 35.0769V43H43V35.0769H40.0385V39.0385C40.0385 39.5907 39.5907 40.0385 39.0385 40.0385C38.4862 40.0385 38.0385 39.5907 38.0385 39.0385V35.0769H35.0769V39.0385C35.0769 39.5907 34.6292 40.0385 34.0769 40.0385C33.5246 40.0385 33.0769 39.5907 33.0769 39.0385V35.0769H28.4615V39.0385C28.4615 39.5907 28.0138 40.0385 27.4615 40.0385C26.9093 40.0385 26.4615 39.5907 26.4615 39.0385V35.0769H23.5V39.0385C23.5 39.5907 23.0523 40.0385 22.5 40.0385C21.9477 40.0385 21.5 39.5907 21.5 39.0385V35.0769H18.5385V39.0385C18.5385 39.5907 18.0907 40.0385 17.5385 40.0385C16.9862 40.0385 16.5385 39.5907 16.5385 39.0385V35.0769H11.9231V39.0385C11.9231 39.5907 11.4754 40.0385 10.9231 40.0385C10.3708 40.0385 9.92308 39.5907 9.92308 39.0385V35.0769H6.96154V39.0385C6.96154 39.5907 6.51382 40.0385 5.96154 40.0385C5.40925 40.0385 4.96154 39.5907 4.96154 39.0385V35.0769H2ZM2 33.0769V28.7846C2 24.8715 5.02536 21.8462 8.93846 21.8462C12.4801 21.8462 15.8267 19.6224 17.141 16.2634L20.1115 9.33238L20.1163 9.32081C21.9441 4.9037 26.372 2 31.1 2C37.6593 2 43 7.34075 43 13.9V33.0769H2Z" fill="#FC4F22"/>
</svg>
