<svg width="334" height="334" viewBox="0 0 334 334" fill="none" xmlns="http://www.w3.org/2000/svg">
<circle cx="159.943" cy="165.927" r="71.7747" fill="#F1F1F1"/>
<circle cx="159.356" cy="166.05" r="41.9195" fill="#F1F1F1" stroke="#C4C4C4" stroke-width="2"/>
<circle cx="159.356" cy="166.05" r="29.6568" fill="#FFFEFF" stroke="#C4C4C4" stroke-width="2"/>
<path d="M159.356 143.511C159.356 143.061 158.991 142.695 158.541 142.71C152.908 142.907 147.526 145.135 143.398 148.999C139.269 152.863 136.69 158.086 136.122 163.694C136.076 164.142 136.418 164.53 136.867 164.56C137.316 164.59 137.703 164.249 137.749 163.802C138.29 158.607 140.686 153.771 144.512 150.189C148.338 146.608 153.322 144.537 158.541 144.342C158.991 144.325 159.356 143.961 159.356 143.511Z" fill="#C4C4C4"/>
<rect x="192.033" y="211.563" width="14" height="42" rx="7" transform="rotate(-45 192.033 211.563)" fill="#F1F1F1" stroke="#C4C4C4" stroke-width="2"/>
<rect x="206.809" y="214.934" width="1.94836" height="16.3364" rx="0.974179" transform="rotate(-45 206.809 214.934)" fill="white"/>
<rect x="190.611" y="201.656" width="2" height="8" transform="rotate(-45 190.611 201.656)" fill="#C4C4C4"/>
<rect x="211.831" y="161.013" width="20" height="2" rx="1" fill="#C4C4C4"/>
<rect x="88.1686" y="177.558" width="20" height="2" rx="1" fill="#C4C4C4"/>
<rect x="235.831" y="161.013" width="10" height="2" rx="1" fill="#C4C4C4"/>
<rect x="216.831" y="168.352" width="10" height="2" rx="1" fill="#C4C4C4"/>
<rect x="93.1686" y="184.896" width="10" height="2" rx="1" fill="#C4C4C4"/>
</svg>
