<svg width="88" height="83" viewBox="0 0 88 83" fill="none" xmlns="http://www.w3.org/2000/svg">
<path d="M45.6562 56.9635V78.6421C45.6562 80.8827 47.4725 82.6992 49.7133 82.6992C51.954 82.6992 53.7705 80.8827 53.7705 78.6421V59.2914C53.6599 59.2943 53.5495 59.2979 53.4381 59.2979C50.769 59.2978 48.0762 58.4666 45.6562 56.9635Z" fill="white"/>
<path d="M69.8232 57.8775L64.7409 48.6322C64.4571 52.0493 62.9366 55.0008 60.4493 56.9493C60.3572 57.0215 60.2631 57.0904 60.1689 57.1594L62.2593 60.9621L63.1001 78.833C63.2023 81.0062 64.9964 82.6995 67.1496 82.6995C67.2138 82.6995 67.2784 82.698 67.3434 82.6949C69.5815 82.5897 71.3106 80.6896 71.2053 78.4516L70.3204 59.6414C70.2913 59.0231 70.1212 58.4196 69.8232 57.8775Z" fill="white"/>
<circle cx="54.6457" cy="7.00698" r="7.00698" fill="white"/>
<path d="M79.7954 29.291L73.3916 34.3079C73.4209 34.4158 73.4478 34.5239 73.4741 34.6319L83.232 29.6707C82.0354 29.9627 80.8208 29.8001 79.7954 29.291Z" fill="white"/>
<path d="M86.184 20.1623L86.5138 19.904C87.4898 19.1394 87.6609 17.7286 86.8965 16.7526C86.8955 16.7514 86.8944 16.7503 86.8935 16.7491C86.1369 15.7875 84.7244 15.6028 83.7451 16.37L83.4152 16.6284C82.9741 16.0654 81.9814 14.3441 80.3705 15.3764C79.4748 15.9507 79.2735 17.1656 79.9241 17.9963L80.5879 18.8435L80.0225 19.2864C79 17.9812 79.5014 18.6212 79.354 18.4338C78.7373 17.653 77.6066 17.5307 76.8377 18.1332C76.0538 18.7473 75.9277 19.8835 76.5315 20.6543L77.1951 21.5015L66.7469 29.6872C66.7429 29.6837 66.7388 29.6807 66.7348 29.6774C63.3112 26.7703 58.4116 26.3843 56.0652 29.9517C55.4656 30.8634 55.2547 32.177 53.5738 33.1984L56.3026 35.1253C56.7183 35.4189 57.0922 35.7549 57.4237 36.1246C57.4432 36.1086 57.4606 36.0908 57.4807 36.0751C58.7549 35.0769 60.5969 35.3006 61.5951 36.5746C62.5933 37.8487 62.3696 39.6907 61.0954 40.6889C60.4952 41.1591 59.7694 41.3549 59.0647 41.3008C58.94 42.3912 58.544 43.4392 57.8934 44.3605C56.8679 45.8126 55.3058 46.7787 53.5798 47.0705L54.2647 47.9447C54.8763 48.7253 54.7393 49.854 53.9585 50.4657C53.1782 51.0771 52.0493 50.9405 51.4375 50.1595L47.4996 45.1332L40.6321 40.2838C39.9219 43.9038 41.2279 47.8044 43.5225 50.7334C43.5226 50.7336 43.5229 50.734 43.523 50.7342C47.2079 55.437 53.8704 57.9796 58.4466 54.3944C61.5647 51.9517 61.4187 48.3726 61.6479 47.4613C62.1139 45.6092 63.6457 44.117 65.6463 43.7965C66.8703 43.6003 67.9991 43.0432 68.8811 42.1227C71.0976 39.8098 70.9585 36.1061 69.5155 33.2209L79.9638 25.0353L80.6275 25.8825C81.2376 26.6612 82.3698 26.7988 83.1486 26.1887C83.916 25.5874 84.0749 24.4592 83.4548 23.6675L82.7911 22.8205L83.3565 22.3777L84.0201 23.2249C84.6304 24.0038 85.7594 24.1435 86.5413 23.5311C87.3329 22.9108 87.4494 21.7783 86.8475 21.0099L86.184 20.1623Z" fill="white"/>
<path d="M55.2431 42.4884C56.3201 40.9631 55.9569 38.8534 54.4315 37.7764C54.1067 37.5471 48.6099 33.6656 44.2624 30.5956C44.3047 25.3384 44.2871 27.5112 44.3135 24.2422C44.3154 23.8722 44.6163 23.5737 44.986 23.5746C45.3557 23.5756 45.6549 23.8757 45.6549 24.2454V27.6054L49.7922 30.5269C49.7922 30.5269 50.9253 30.6723 51.0183 30.6723C51.6939 30.6723 52.3007 30.2699 52.5644 29.647C53.1741 28.2069 54.0922 26.9997 55.293 26.0589C56.8914 24.8065 58.862 24.1448 60.9914 24.1449C61.8492 24.1449 62.7114 24.2525 63.5629 24.4596V24.418C63.5629 24.0625 63.8247 23.7614 64.1768 23.7119C64.5288 23.6625 64.8635 23.8799 64.9614 24.2215C65.0191 24.4224 65.0527 24.6565 65.0518 24.9288C65.584 25.1353 66.108 25.3799 66.6195 25.6637L71.245 22.04C69.9762 18.4757 67.1512 16.2473 63.7388 16.2473H45.5523C41.1627 16.2473 37.5735 19.8184 37.5515 24.1978L37.5322 26.6141L37.4864 32.3098C37.4776 33.4115 38.0161 34.4625 38.9171 35.0986C40.1974 36.0027 49.2799 42.416 50.5311 43.2996C52.0619 44.3809 54.1725 44.0046 55.2431 42.4884Z" fill="white"/>
<path d="M18.7334 9.28742L18.7794 9.28761C20.7241 9.29928 22.4943 10.0518 23.8238 11.2754C24.8281 10.0904 25.4348 8.5579 25.4348 6.8828C25.4348 3.12727 22.3904 0.0828857 18.6349 0.0828857C14.8795 0.0828857 11.835 3.12727 11.835 6.8828C11.835 8.60861 12.4791 10.1831 13.5386 11.3822C14.8916 10.0866 16.7229 9.28742 18.7334 9.28742Z" fill="white"/>
<path d="M27.4146 15.85H26.1943C26.4968 18.211 25.6814 20.4917 24.0897 22.0987C24.0868 22.5603 24.0786 23.9398 24.0756 24.4199C24.7008 26.0644 24.6501 27.821 24.0457 29.3639L24.0143 34.5423C23.9965 37.4948 21.58 39.8969 18.6273 39.8969H18.6162H18.6053H18.5944C16.2581 39.8828 14.2743 38.3751 13.5421 36.287L9.86523 37.9648L9.86677 78.7624C9.86677 80.9368 11.6295 82.6996 13.8039 82.6996C15.9783 82.6996 17.7411 80.9368 17.7411 78.7624V48.1421C17.7411 47.6726 18.1215 47.2922 18.591 47.2922C19.0604 47.2922 19.4408 47.6726 19.4408 48.1421V78.7622C19.4408 80.9366 21.2036 82.6993 23.378 82.6993C25.5524 82.6993 27.3151 80.9366 27.3151 78.7622L27.2453 23.6628C27.2449 23.2939 27.536 22.9905 27.9046 22.9758C28.2733 22.9611 28.5882 23.2401 28.6169 23.6079C28.6169 23.6081 28.6169 23.6083 28.6169 23.6085L28.738 47.7125C28.7472 49.5189 30.2143 50.9769 32.0186 50.9769C32.0239 50.9769 32.0298 50.9769 32.0354 50.9769C33.8475 50.9677 35.3088 49.4915 35.2998 47.6796L35.1787 23.5758C35.1576 19.3156 31.6746 15.85 27.4146 15.85Z" fill="white"/>
<path d="M18.6163 36.3053C18.6199 36.3053 18.6237 36.3053 18.6274 36.3053C19.6139 36.3053 20.4171 35.5084 20.423 34.5204L20.4314 33.1434L16.8535 34.776C16.9817 35.6368 17.7191 36.2999 18.6163 36.3053Z" fill="white"/>
<path d="M18.734 12.8789C16.5736 12.8789 14.8158 14.6237 14.8028 16.787C14.7946 18.1559 15.4885 19.363 16.5455 20.0734C17.8617 19.8591 19.241 20.029 20.5075 20.6093L20.5092 20.319C21.7813 19.6742 22.6572 18.3587 22.6664 16.8346C22.6794 14.6631 20.9299 12.8921 18.7583 12.8791C18.7501 12.8789 18.7421 12.8789 18.734 12.8789Z" fill="white"/>
<path d="M20.3302 24.9654C19.4219 23.6765 17.7156 23.2202 16.2901 23.8728L8.30535 27.516L9.53991 23.0179C11.1773 22.2547 10.4394 22.5946 12.8446 21.4973C11.6192 19.9607 11.0051 17.945 11.2747 15.85L7.15978 15.8439V15.8519C5.70094 15.8716 4.42734 16.852 4.04019 18.2627L1.76513 26.5526C1.73815 26.651 0.143998 32.459 0.11778 32.557C-0.602362 35.2158 2.11267 37.5547 4.64666 36.3981C11.5042 33.2691 8.80771 34.4994 19.0139 29.8425C20.863 28.9992 21.5314 26.6682 20.3302 24.9654Z" fill="white"/>
</svg>
