<svg width="43" height="43" viewBox="0 0 43 43" fill="none" xmlns="http://www.w3.org/2000/svg">
<path d="M43 21.5C43 19.1368 41.1537 17.2152 38.8326 17.0522C38.3497 15.1754 37.5784 13.4169 36.5545 11.8295C37.2165 11.0537 37.625 10.0575 37.625 8.95833C37.625 6.48852 35.6156 4.47917 33.1458 4.47917C31.9338 4.47917 30.8391 4.9674 30.031 5.75125C28.7571 5.05877 27.3829 4.5356 25.9469 4.16562C25.783 1.84452 23.8623 0 21.5 0C19.1377 0 17.2179 1.84452 17.0531 4.16383C15.6162 4.53292 14.2402 5.05519 12.9663 5.74946C12.1582 4.9665 11.0644 4.47917 9.85417 4.47917C7.38435 4.47917 5.375 6.48852 5.375 8.95833C5.375 10.0557 5.78171 11.0501 6.44194 11.825C5.4171 13.4133 4.64579 15.1745 4.16383 17.0522C1.84362 17.2188 0 19.1377 0 21.5C0 23.8623 1.84362 25.7812 4.16294 25.9478C4.64579 27.8255 5.4171 29.5858 6.44104 31.1741C5.78171 31.9499 5.375 32.9443 5.375 34.0417C5.375 36.5115 7.38435 38.5208 9.85417 38.5208C11.0644 38.5208 12.1582 38.0335 12.9654 37.2505C14.2402 37.9439 15.6153 38.4662 17.0522 38.8362C17.2179 41.1555 19.1377 43 21.5 43C23.8623 43 25.783 41.1555 25.9478 38.8344C27.3838 38.4653 28.758 37.9421 30.0319 37.2479C30.8391 38.0326 31.9338 38.5208 33.1458 38.5208C35.6156 38.5208 37.625 36.5115 37.625 34.0417C37.625 32.9416 37.2156 31.9445 36.5527 31.1687C37.5748 29.5822 38.3461 27.8246 38.829 25.9478C41.1528 25.7866 43 23.8641 43 21.5ZM41.2083 21.5C41.2083 22.7452 40.3537 23.7853 39.2035 24.089C39.3289 23.2388 39.4149 22.3752 39.4158 21.491C39.4149 20.614 39.3289 19.7567 39.2061 18.9128C40.3546 19.2165 41.2083 20.2557 41.2083 21.5ZM33.1458 6.27083C34.6275 6.27083 35.8333 7.47662 35.8333 8.95833C35.8333 9.45015 35.6855 9.89985 35.4517 10.294C34.3615 8.93862 33.0813 7.74537 31.6489 6.75548C32.078 6.45985 32.5859 6.27083 33.1458 6.27083ZM21.5 1.79167C22.7434 1.79167 23.7817 2.6436 24.0881 3.79206C23.2397 3.66933 22.3797 3.58333 21.4982 3.58333C20.6185 3.58333 19.7594 3.66933 18.9128 3.79117C19.2183 2.6436 20.2566 1.79167 21.5 1.79167ZM7.16667 8.95833C7.16667 7.47662 8.37246 6.27083 9.85417 6.27083C10.4132 6.27083 10.9184 6.45806 11.3475 6.75279C9.91419 7.74179 8.63494 8.93504 7.54471 10.2877C7.31269 9.89627 7.16667 9.44835 7.16667 8.95833ZM1.79167 21.5C1.79167 20.2575 2.6436 19.2192 3.79027 18.9128C3.66754 19.7603 3.58244 20.6194 3.58244 21.5C3.58244 22.3797 3.66754 23.2397 3.79117 24.0872C2.6436 23.7808 1.79167 22.7425 1.79167 21.5ZM9.85417 36.7292C8.37246 36.7292 7.16667 35.5234 7.16667 34.0417C7.16667 33.5516 7.31269 33.1037 7.54471 32.7122C8.63494 34.0659 9.91508 35.2582 11.3475 36.2472C10.9184 36.5419 10.4132 36.7292 9.85417 36.7292ZM21.5 41.2083C20.2566 41.2083 19.2183 40.3564 18.9128 39.2088C19.7594 39.3307 20.6185 39.4167 21.4982 39.4167C22.3797 39.4167 23.2397 39.3307 24.0881 39.2079C23.7817 40.3564 22.7434 41.2083 21.5 41.2083ZM35.8333 34.0417C35.8333 35.5234 34.6275 36.7292 33.1458 36.7292C32.585 36.7292 32.0771 36.5401 31.648 36.2445C33.0813 35.2537 34.3606 34.0596 35.4508 32.7042C35.6855 33.0984 35.8333 33.549 35.8333 34.0417ZM21.4982 37.625C12.6071 37.625 5.37321 30.392 5.37321 21.5C5.37321 12.608 12.6071 5.375 21.4982 5.375C30.3813 5.375 37.6151 12.6044 37.6241 21.5081C37.6151 30.3956 30.3813 37.625 21.4982 37.625Z" fill="#FC4F22"/>
</svg>
