<svg width="43" height="43" viewBox="0 0 43 43" fill="none" xmlns="http://www.w3.org/2000/svg">
<path fill-rule="evenodd" clip-rule="evenodd" d="M28.7205 14.2158C30.4074 15.9026 31.2508 18.1144 31.2508 20.3227C31.2508 22.5345 30.4074 24.7428 28.7205 26.4297C28.2866 26.8637 27.8141 27.2451 27.3172 27.5671C24.8989 27.3921 22.2111 25.6108 20.0028 23.287C17.721 20.8862 15.9712 17.9359 15.5407 15.5561C15.5302 15.5037 15.5232 15.4547 15.5162 15.4022C15.8067 14.9857 16.1356 14.5867 16.5101 14.2158C18.197 12.5289 20.4088 11.6855 22.6171 11.6855C24.8254 11.6855 27.0337 12.5289 28.7205 14.2158ZM38.0507 13.1589H39.5906V13.6733C43.4438 14.5552 43.8847 16.4066 41.6484 19.3218C41.8864 16.4276 41.5959 15.8081 39.5906 15.6716V22.986C39.5941 23.0245 39.5976 23.063 39.5976 23.1015C39.5976 24.0534 38.6002 24.9948 37.3683 25.2083C36.1364 25.4218 35.139 24.8233 35.139 23.8714C35.139 22.573 36.9203 21.4496 38.0507 21.8451V13.1589ZM33.2422 29.8279C34.2641 29.8279 35.09 30.6538 35.09 31.6757C35.09 32.6977 34.2641 33.5236 33.2422 33.5236C32.2202 33.5236 31.3943 32.6977 31.3943 31.6757C31.3943 30.6538 32.2202 29.8279 33.2422 29.8279ZM25.4413 3.74817H26.1693V3.98965C27.9856 4.40612 28.1956 5.27754 27.1422 6.65292C27.2542 5.28804 27.1177 4.99407 26.1693 4.93107V8.38177C26.1728 8.39927 26.1728 8.41677 26.1728 8.43777C26.1728 8.88573 25.7003 9.33019 25.1229 9.43168C24.5419 9.53317 24.073 9.24969 24.073 8.80173C24.073 8.18929 24.9129 7.65733 25.4448 7.84632V3.74817H25.4413ZM11.1941 7.66083C11.4636 7.61534 11.7155 7.62234 11.9395 7.67483V2.43579L6.39949 4.02815V10.1106C6.40299 10.1421 6.40299 10.1771 6.40299 10.2121C6.40299 11.031 5.54207 11.843 4.48516 12.0285C3.42475 12.2104 2.56733 11.696 2.56733 10.8771C2.56733 10.0581 3.42825 9.24619 4.48516 9.06071C4.88412 8.99072 5.25509 9.02221 5.56306 9.13071V1.64486H5.60856L12.7759 0V8.43427C12.7899 8.49726 12.7934 8.56025 12.7934 8.62325C12.7934 9.30569 12.076 9.98813 11.1906 10.1386C10.3052 10.2926 9.58771 9.86214 9.58771 9.1762C9.58771 8.49376 10.3087 7.81482 11.1941 7.66083ZM2.35034 41.6709C1.94438 42.0488 1.47892 42.3428 0.967965 42.5598C-0.0679447 43.0043 -0.218431 43.0813 0.261027 42.0383C0.513005 41.4924 0.831477 40.9919 1.23044 40.5475C0.785981 40.0715 0.558501 39.6236 0.492007 39.1091C0.425512 38.5806 0.541002 38.0487 0.771982 37.3732C1.52792 35.1754 7.72938 27.5916 11.593 22.8705C12.5835 21.6596 13.4129 20.6447 13.9868 19.9203C14.0288 19.0173 14.2108 18.1214 14.5328 17.2675C15.3797 19.5738 17.0176 22.0901 19.0194 24.1934C20.8672 26.1392 23.0405 27.7526 25.2104 28.561C24.4544 28.799 23.6705 28.932 22.8831 28.9565C22.2566 29.4499 21.3607 30.1744 20.2723 31.0563C15.5197 34.906 7.21842 41.6254 5.46507 42.1573C4.83863 42.3463 4.31717 42.4513 3.80622 42.3918C3.28476 42.3288 2.8228 42.1118 2.35034 41.6709ZM14.1233 21.9011C13.6929 22.4295 13.1889 23.049 12.6359 23.7244C8.83528 28.3685 2.73181 35.8299 2.05287 37.8107C1.88489 38.3007 1.79739 38.6576 1.83239 38.9341C1.86389 39.1756 2.01087 39.4171 2.31535 39.718L3.21477 40.6175C3.48775 40.8904 3.72223 41.0164 3.9672 41.0444C4.25768 41.0794 4.62165 40.9989 5.08711 40.8589C6.58848 40.4075 14.7533 33.7931 19.4324 30.0064C19.9888 29.5549 20.4963 29.1455 20.9372 28.7885C19.3169 28.4665 17.77 27.6791 16.5136 26.4227C15.2257 25.1453 14.4313 23.5599 14.1233 21.9011Z" fill="#FC4F22"/>
</svg>
