<svg width="108" height="110" viewBox="0 0 108 110" fill="none" xmlns="http://www.w3.org/2000/svg">
<path d="M86.8103 14.5259C61.0472 -10.7167 39.1027 0.763332 35.2842 19.9946C31.4657 39.2258 -4.00582 43.0656 0.373833 65.7806C4.75348 88.4955 52.4595 75.0085 52.4595 95.5939C52.4595 116.179 107.617 115.469 107.617 88.4955C107.617 61.5215 112.573 39.7685 86.8103 14.5259Z" fill="#FFEFD8"/>
<path d="M22.0288 54.0274L25.2908 50.8142L22.0288 47.6011C21.7398 47.2519 21.5921 46.8085 21.6144 46.3572C21.6368 45.9059 21.8276 45.479 22.1497 45.1595C22.4718 44.8401 22.9021 44.6508 23.3571 44.6287C23.8121 44.6065 24.2591 44.753 24.6112 45.0396L27.8506 48.2752L31.0899 45.0396C31.442 44.753 31.889 44.6065 32.344 44.6287C32.799 44.6508 33.2294 44.8401 33.5515 45.1595C33.8736 45.479 34.0643 45.9059 34.0867 46.3572C34.109 46.8085 33.9613 47.2519 33.6724 47.6011L30.4103 50.8142L33.6724 54.0274C34.0127 54.3682 34.2036 54.8284 34.2036 55.3081C34.2036 55.7878 34.0127 56.2481 33.6724 56.5889C33.326 56.9211 32.863 57.1068 32.3811 57.1068C31.8993 57.1068 31.4363 56.9211 31.0899 56.5889L27.8506 53.3533L24.6112 56.5889C24.2648 56.9211 23.8018 57.1068 23.32 57.1068C22.8381 57.1068 22.3752 56.9211 22.0288 56.5889C21.6885 56.2481 21.4976 55.7878 21.4976 55.3081C21.4976 54.8284 21.6885 54.3682 22.0288 54.0274ZM71.1668 77.8296C71.5071 78.1704 71.698 78.6307 71.698 79.1104C71.698 79.59 71.5071 80.0503 71.1668 80.3911C70.8204 80.7233 70.3574 80.909 69.8756 80.909C69.3938 80.909 68.9308 80.7233 68.5844 80.3911L65.345 77.1555L62.1057 80.3911C61.7593 80.7233 61.2963 80.909 60.8144 80.909C60.3326 80.909 59.8696 80.7233 59.5232 80.3911C59.1829 80.0503 58.992 79.59 58.992 79.1104C58.992 78.6307 59.1829 78.1704 59.5232 77.8296L62.7852 74.6165L59.5232 71.4034C59.2342 71.0541 59.0866 70.6107 59.1089 70.1594C59.1312 69.7082 59.322 69.2813 59.6441 68.9618C59.9662 68.6423 60.3966 68.4531 60.8516 68.4309C61.3065 68.4087 61.7535 68.5552 62.1057 68.8419L65.345 72.0774L68.5844 68.8419C68.9365 68.5552 69.3835 68.4087 69.8385 68.4309C70.2934 68.4531 70.7238 68.6423 71.0459 68.9618C71.368 69.2813 71.5588 69.7082 71.5811 70.1594C71.6035 70.6107 71.4558 71.0541 71.1668 71.4034L67.9048 74.6165L71.1668 77.8296Z" fill="black"/>
<path d="M51.1011 30.5897C49.4882 30.5897 47.9115 31.0641 46.5704 31.9529C45.2293 32.8417 44.1841 34.1051 43.5668 35.5831C42.9496 37.0612 42.7881 38.6876 43.1027 40.2567C43.4174 41.8258 44.1941 43.2671 45.3346 44.3984C46.4751 45.5296 47.9282 46.3 49.5101 46.6122C51.092 46.9243 52.7318 46.7641 54.2219 46.1519C55.712 45.5396 56.9857 44.5028 57.8818 43.1726C58.7779 41.8424 59.2561 40.2785 59.2561 38.6786C59.2561 36.5333 58.3969 34.4758 56.8676 32.9589C55.3382 31.4419 53.2639 30.5897 51.1011 30.5897ZM51.1011 43.1725C50.205 43.1725 49.3291 42.9089 48.584 42.4151C47.839 41.9213 47.2583 41.2195 46.9154 40.3984C46.5725 39.5772 46.4828 38.6736 46.6576 37.8019C46.8324 36.9302 47.2639 36.1295 47.8975 35.501C48.5311 34.8725 49.3384 34.4445 50.2172 34.2711C51.0961 34.0977 52.007 34.1867 52.8349 34.5268C53.6627 34.867 54.3703 35.443 54.8681 36.182C55.366 36.921 55.6317 37.7898 55.6317 38.6786C55.6257 39.8687 55.1465 41.0083 54.2981 41.8497C53.4498 42.6912 52.3008 43.1666 51.1011 43.1725Z" fill="#FF4E16"/>
<path d="M37.9626 74.5781C42.7415 75.9398 48.6745 74.33 52.428 70.6678C56.1165 67.0721 57.3166 61.9995 55.8188 56.3938L55.6085 55.6766L59.6694 58.0022C60.0857 58.2405 60.5803 58.3051 61.0446 58.1817C61.5088 58.0583 61.9047 57.7571 62.145 57.3442C62.3853 56.9313 62.4504 56.4407 62.326 55.9802C62.2016 55.5197 61.8979 55.1271 61.4817 54.8887L53.6345 50.3948C53.2182 50.1565 52.7236 50.0919 52.2593 50.2153C51.795 50.3386 51.3992 50.6399 51.1589 51.0528L46.6283 58.8364C46.388 59.2493 46.3229 59.7399 46.4473 60.2004C46.5717 60.6609 46.8754 61.0535 47.2916 61.2919C47.7079 61.5303 48.2025 61.5949 48.6668 61.4715C49.1311 61.3481 49.5269 61.0468 49.7672 60.6339L52.1118 56.6059L52.2912 57.3313C53.795 62.8367 51.7932 66.2308 49.8825 68.1203C47.069 70.842 42.4861 72.1093 38.984 71.1156C38.5212 70.9857 38.0254 71.0412 37.6034 71.2703C37.1814 71.4993 36.867 71.8836 36.7279 72.3403C36.6139 72.7277 36.6348 73.1419 36.787 73.5162C36.9393 73.8905 37.2141 74.2031 37.5672 74.4036L37.9626 74.5781Z" fill="#FF4E16"/>
<path d="M13.998 98.3455H76.9744V18.8433H13.998V98.3455Z" stroke="#333333" stroke-width="3" stroke-linecap="round" stroke-linejoin="round"/>
<path d="M94.1493 58.5944L89.8554 69.9519L85.5616 58.5944V23.1023C85.5616 20.7513 87.4852 18.8433 89.8554 18.8433C92.2256 18.8433 94.1493 20.7513 94.1493 23.1023V58.5944Z" stroke="#333333" stroke-width="3" stroke-linecap="round" stroke-linejoin="round"/>
<path d="M85.5615 30.7501H94.1492" stroke="#333333" stroke-width="3" stroke-linecap="round" stroke-linejoin="round"/>
</svg>
