<svg width="43" height="43" viewBox="0 0 43 43" fill="none" xmlns="http://www.w3.org/2000/svg">
<path d="M36.264 6.1656L29.1147 0.551398C28.859 0.343798 28.5644 0.189537 28.2481 0.097724C27.9318 0.00591125 27.6003 -0.0215908 27.2732 0.016842C26.9461 0.0552749 26.6301 0.158863 26.3437 0.321489C26.0573 0.484115 25.8064 0.702481 25.6058 0.963691L9.0264 22.0169C8.82693 22.3161 8.69245 22.6538 8.63166 23.0082L6.20176 33.4208C6.0944 33.8764 6.11998 34.3533 6.27546 34.7949C6.43094 35.2365 6.70981 35.6242 7.07898 35.9121C7.44435 36.2074 7.88803 36.3897 8.35553 36.4364C8.82303 36.4832 9.29401 36.3924 9.71063 36.1752L19.2723 31.3944C19.5964 31.2294 19.8808 30.9959 20.1057 30.7102L36.7026 9.67447C36.9088 9.41717 37.0613 9.12111 37.151 8.80383C37.2407 8.48656 37.2659 8.1545 37.225 7.82733C37.1841 7.50015 37.078 7.18451 36.9129 6.89908C36.7479 6.61365 36.5272 6.36423 36.264 6.1656ZM16.9652 27.6487L11.4388 30.4119L12.7897 24.4117L22.4391 12.078L26.5795 15.3325L16.9652 27.6487ZM29.3779 11.8587L25.2023 8.63058L27.9305 5.18311L32.0622 8.43759L29.3779 11.8587Z" fill="#FC4F22"/>
<path d="M34.5096 38.6139H8.19305C6.98186 38.6139 6 39.5958 6 40.807C6 42.0181 6.98186 43 8.19305 43H34.5096C35.7208 43 36.7026 42.0181 36.7026 40.807C36.7026 39.5958 35.7208 38.6139 34.5096 38.6139Z" fill="#FC4F22"/>
</svg>
