<svg width="40" height="34" viewBox="0 0 40 34" fill="none" xmlns="http://www.w3.org/2000/svg">
<path d="M37.9783 20.8034L31.4728 19.5268C30.935 14.8692 29.629 11.6704 27.583 10.0073C26.4582 9.09288 25.3914 8.87451 24.7597 8.83687C24.7032 8.83071 24.6458 8.82769 24.5879 8.82673C23.5202 10.1785 21.8613 11.0496 20.0001 11.0496C18.1389 11.0496 16.48 10.1785 15.4122 8.82673C15.3548 8.82767 15.2978 8.83059 15.2418 8.83668C14.6104 8.87409 13.5429 9.09223 12.4171 10.0072C10.3711 11.6704 9.06513 14.8692 8.52721 19.5268L2.02171 20.8034C0.999131 21.0039 0.334018 21.9892 0.536202 23.0038C0.714083 23.8959 1.50293 24.5138 2.38589 24.5138C2.50731 24.5138 2.63059 24.5019 2.75421 24.4777L10.6386 22.9307C11.4693 22.7677 12.089 22.0759 12.1543 21.238C12.4104 17.9572 12.9949 15.8575 13.6187 14.5472V25.6193L20 27.0546L26.3816 25.6192V14.5768C26.9765 15.8241 27.5836 17.8791 27.8457 21.238C27.911 22.0759 28.5307 22.7677 29.3613 22.9307L37.2458 24.4777C37.3695 24.5019 37.4927 24.5138 37.6141 24.5138C38.4969 24.5136 39.286 23.8959 39.4638 23.0038C39.666 21.9892 39.0009 21.0039 37.9783 20.8034Z" fill="#FC4F22"/>
<path d="M16.9197 27.7475L18.8262 27.3187L9.83047 25.2952C8.25885 24.9417 6.69673 25.9195 6.34054 27.4784C5.98445 29.0369 6.96883 30.5874 8.54047 30.941L14.4676 32.2742C14.4127 32.1295 14.3637 31.9816 14.3283 31.8267C13.9094 29.9931 15.0719 28.1631 16.9197 27.7475Z" fill="#FC4F22"/>
<path d="M21.6756 33.8955C22.7245 34.1314 23.767 33.7723 24.4518 33.0455L21.1742 33.7827L21.6756 33.8955Z" fill="#FC4F22"/>
<path d="M17.0345 28.2497C15.4628 28.6033 14.4784 30.1538 14.8346 31.7127C15.1907 33.2712 16.7528 34.249 18.3245 33.8955L31.4596 30.941C33.0313 30.5874 34.0157 29.0369 33.6595 27.4784C33.3034 25.9195 31.7413 24.9417 30.1696 25.2952L17.0345 28.2497Z" fill="#FC4F22"/>
<path d="M20.0002 10.5346C22.9322 10.5346 25.309 8.17635 25.309 5.2673C25.309 2.35825 22.9322 0 20.0002 0C17.0682 0 14.6914 2.35825 14.6914 5.2673C14.6914 8.17635 17.0682 10.5346 20.0002 10.5346Z" fill="#FC4F22"/>
</svg>
