<svg width="43" height="43" viewBox="0 0 43 43" fill="none" xmlns="http://www.w3.org/2000/svg">
<path d="M42.8196 17.1278C42.5082 15.2593 41.4183 13.7023 39.7055 12.6123C36.9027 10.7438 34.5671 8.09679 33.01 5.13834L32.3872 3.89268C32.0758 3.26985 31.2973 2.95843 30.6744 3.11414C30.0516 3.11414 29.5845 3.73697 29.5845 4.51551V29.1173C28.3388 28.3388 26.626 27.8717 24.9132 27.8717C20.5534 27.8717 17.1279 30.6744 17.1279 34.1C17.1279 37.5256 20.5534 40.3283 24.9132 40.3283C29.2731 40.3283 32.6986 37.5256 32.6986 34.1V10.121C34.2557 11.9895 35.9685 13.7023 37.9927 15.1036C38.9269 15.7265 39.5498 16.6607 39.7055 17.7507C39.8612 18.8406 39.7055 19.9306 39.0826 20.8648C38.6155 21.6434 38.7712 22.5776 39.5498 23.0447C40.3283 23.5119 41.2626 23.3561 41.7297 22.5776C42.8196 20.8648 43.2868 18.9963 42.8196 17.1278Z" fill="#FC4F22"/>
<path d="M12.4566 35.6571H1.55708C0.622831 35.6571 0 36.2799 0 37.2141C0 38.1484 0.622831 38.7712 1.55708 38.7712H12.4566C13.3909 38.7712 14.0137 38.1484 14.0137 37.2141C14.0137 36.2799 13.3909 35.6571 12.4566 35.6571Z" fill="#FC4F22"/>
<path d="M12.4566 27.8717H1.55708C0.622831 27.8717 0 28.4945 0 29.4288C0 30.363 0.622831 30.9858 1.55708 30.9858H12.4566C13.3909 30.9858 14.0137 30.363 14.0137 29.4288C14.0137 28.4945 13.3909 27.8717 12.4566 27.8717Z" fill="#FC4F22"/>
<path d="M1.55708 23.2004H23.3562C24.2904 23.2004 24.9132 22.5776 24.9132 21.6434C24.9132 20.7091 24.2904 20.0863 23.3562 20.0863H1.55708C0.622831 20.0863 0 20.7091 0 21.6434C0 22.5776 0.622831 23.2004 1.55708 23.2004Z" fill="#FC4F22"/>
<path d="M1.55708 15.4151H23.3562C24.2904 15.4151 24.9132 14.7922 24.9132 13.858C24.9132 12.9237 24.2904 12.3009 23.3562 12.3009H1.55708C0.622831 12.3009 0 12.9237 0 13.858C0 14.7922 0.622831 15.4151 1.55708 15.4151Z" fill="#FC4F22"/>
<path d="M1.55708 7.62967H23.3562C24.2904 7.62967 24.9132 7.00684 24.9132 6.07259C24.9132 5.13834 24.2904 4.51551 23.3562 4.51551H1.55708C0.622831 4.51551 0 5.13834 0 6.07259C0 7.00684 0.622831 7.62967 1.55708 7.62967Z" fill="#FC4F22"/>
</svg>
