<svg width="44" height="43" viewBox="0 0 44 43" fill="none" xmlns="http://www.w3.org/2000/svg">
<path d="M21.5596 41.6299C21.1206 41.6293 20.6997 41.4552 20.3887 41.1454L3.90987 24.6665C1.53825 22.263 0.171034 19.0464 0.0862257 15.6709C0.00141713 12.2953 1.20538 9.01414 3.45331 6.49453C5.70125 3.97492 8.8244 2.40602 12.1878 2.10682C15.5511 1.80762 18.9022 2.80059 21.5596 4.88382C24.2144 2.77955 27.5732 1.76976 30.9483 2.06122C34.3234 2.35268 37.4593 3.92333 39.7141 6.45158C41.9689 8.97983 43.1719 12.2744 43.0768 15.6607C42.9817 19.047 41.5956 22.2688 39.2025 24.6665L22.7304 41.1454C22.4194 41.4552 21.9985 41.6293 21.5596 41.6299ZM13.2898 5.29428C11.3143 5.28896 9.38178 5.87134 7.73812 6.96734C6.09446 8.06335 4.81392 9.62346 4.05936 11.4493C3.30481 13.275 3.11034 15.284 3.50069 17.2206C3.89104 19.1572 4.84857 20.934 6.2515 22.3249L21.5596 37.6666L36.8676 22.3249C38.737 20.4511 39.7854 17.9114 39.7822 15.2646C39.7791 12.6178 38.7246 10.0806 36.8508 8.21122C34.977 6.34186 32.4373 5.29344 29.7905 5.29659C27.1436 5.29975 24.6065 6.35422 22.7371 8.22804C22.4098 8.51966 21.9964 8.69681 21.5596 8.73271C21.3387 8.73739 21.1191 8.69817 20.9135 8.61731C20.7078 8.53645 20.5203 8.41558 20.3618 8.26169C19.4348 7.32997 18.3328 6.59057 17.1192 6.08595C15.9055 5.58133 14.6042 5.32144 13.2898 5.3212V5.29428Z" fill="#FC4F22"/>
</svg>
