<svg width="40" height="43" viewBox="0 0 40 43" fill="none" xmlns="http://www.w3.org/2000/svg">
<path fill-rule="evenodd" clip-rule="evenodd" d="M3.02107 0.000101537H1.45555C0.927816 0.000101537 0.5 0.427917 0.5 0.955655C0.5 1.48339 0.927816 1.91121 1.45555 1.91121H2.52449L4.4533 4.80441C5.25623 6.00882 6.49781 6.65222 7.77691 6.65222C8.98754 6.65222 9.98203 7.64671 9.98203 8.85735V30.666C9.98203 37.5151 15.4669 43 22.316 43C28.6818 43 34.0179 37.8403 34.0179 31.2981C34.0179 29.763 34.3566 28.2441 35.0171 26.937C36.1396 26.905 37.198 26.5461 38.004 25.7402C39.2201 24.5241 39.4182 22.7328 39.0113 21.0146C38.6002 19.279 37.5476 17.4513 35.9925 15.8962C34.4374 14.3411 32.6097 13.2885 30.8742 12.8774C29.1559 12.4705 27.3646 12.6686 26.1485 13.8848C25.1049 14.9283 24.8109 16.3954 25.0057 17.8764L24.8502 18.1096C23.4755 20.0076 22.6247 22.5667 22.6247 24.9768V30.9821C22.6247 32.1927 21.6302 33.1872 20.4196 33.1872C19.209 33.1872 18.2145 32.1927 18.2145 30.9821V28.777H18.8393C19.367 28.777 19.7948 28.3491 19.7948 27.8214C19.7948 27.2937 19.367 26.8659 18.8393 26.8659H18.2145V24.0359H18.8393C19.367 24.0359 19.7948 23.6081 19.7948 23.0804C19.7948 22.5527 19.367 22.1248 18.8393 22.1248H18.2145V19.2949H18.8393C19.367 19.2949 19.7948 18.8671 19.7948 18.3394C19.7948 17.8116 19.367 17.3838 18.8393 17.3838H18.2145V14.5539H18.8393C19.367 14.5539 19.7948 14.1261 19.7948 13.5984C19.7948 13.0706 19.367 12.6428 18.8393 12.6428H18.2145V10.1216C18.2145 4.5368 13.6778 0.000101537 8.09297 0.000101537H3.04896C3.03967 -3.37888e-05 3.03037 -3.39027e-05 3.02107 0.000101537ZM16.3034 12.6428V10.1216C16.3034 5.59227 12.6223 1.91121 8.09297 1.91121H4.82136L6.04343 3.74432C6.50477 4.43632 7.1596 4.74112 7.77691 4.74112C10.043 4.74112 11.8931 6.59124 11.8931 8.85735V30.666C11.8931 36.4596 16.5224 41.0889 22.316 41.0889C27.6447 41.0889 32.1068 36.7666 32.1068 31.2981C32.1068 29.7199 32.41 28.1292 33.0279 26.684C31.368 26.2343 29.6404 25.2093 28.1599 23.7288C27.1054 22.6743 26.282 21.4944 25.733 20.303C24.9839 21.7163 24.5358 23.3979 24.5358 24.9768V30.9821C24.5358 33.2482 22.6857 35.0983 20.4196 35.0983C18.1535 35.0983 16.3034 33.2482 16.3034 30.9821V28.777H15.6786C15.1509 28.777 14.723 28.3491 14.723 27.8214C14.723 27.2937 15.1509 26.8659 15.6786 26.8659H16.3034V24.0359H15.6786C15.1509 24.0359 14.723 23.6081 14.723 23.0804C14.723 22.5527 15.1509 22.1248 15.6786 22.1248H16.3034V19.2949H15.6786C15.1509 19.2949 14.723 18.8671 14.723 18.3394C14.723 17.8116 15.1509 17.3838 15.6786 17.3838H16.3034V14.5539H15.6786C15.1509 14.5539 14.723 14.1261 14.723 13.5984C14.723 13.0706 15.1509 12.6428 15.6786 12.6428H16.3034ZM34.8198 25.03C34.6437 24.9638 34.4561 24.9529 34.2798 24.9917C34.1001 24.9683 33.913 24.9339 33.7187 24.8879C32.3805 24.5709 30.8568 23.723 29.5113 22.3774C28.1658 21.0319 27.3178 19.5082 27.0008 18.17C26.6798 16.8145 26.9263 15.8097 27.4999 15.2361C28.0735 14.6625 29.0782 14.4161 30.4337 14.7371C31.7719 15.054 33.2957 15.902 34.6412 17.2475C35.9867 18.5931 36.8347 20.1168 37.1516 21.455C37.4727 22.8105 37.2262 23.8153 36.6526 24.3889C36.2474 24.7941 35.627 25.036 34.8198 25.03Z" fill="#FC4F22"/>
</svg>
