<svg xmlns="http://www.w3.org/2000/svg" width="543.536" height="435.13" viewBox="0 0 543.536 435.13">
  <g id="Prancheta_2" data-name="Prancheta 2" transform="translate(-380.86 -557.11)">
    <g id="Grupo_10618" data-name="Grupo 10618" transform="translate(836.856 557.11)">
      <path id="Caminho_100" data-name="Caminho 100" d="M1496.349,723.35h-44.9a5.741,5.741,0,0,0,0,11.483h44.9a5.741,5.741,0,0,0,0-11.483Z" transform="translate(-1414.551 -647.297)" fill="#fdb03d"/>
      <path id="Caminho_101" data-name="Caminho 101" d="M1383.341,557.11h0a5.742,5.742,0,0,0-5.741,5.741v44.9a5.742,5.742,0,0,0,5.741,5.741h0a5.742,5.742,0,0,0,5.742-5.741v-44.9A5.742,5.742,0,0,0,1383.341,557.11Z" transform="translate(-1377.6 -557.11)" fill="#fdb03d"/>
      <path id="Caminho_102" data-name="Caminho 102" d="M1447.386,627.4a5.749,5.749,0,0,0,8.125,0l31.745-31.745a5.745,5.745,0,0,0-8.125-8.125l-31.745,31.745a5.749,5.749,0,0,0,0,8.125Z" transform="translate(-1414.548 -572.702)" fill="#fdb03d"/>
    </g>
    <g id="Grupo_10619" data-name="Grupo 10619" transform="translate(380.86 613.674)">
      <rect id="Ret창ngulo_17174" data-name="Ret창ngulo 17174" width="486.936" height="189.702" rx="94.851" transform="translate(0 0)" fill="#fdb03d"/>
      <path id="Caminho_103" data-name="Caminho 103" d="M600.017,848.705H583.85l8.084-14a5.742,5.742,0,0,0-2.1-7.846h0a5.742,5.742,0,0,0-7.846,2.1l-8.084,14-8.084-14a5.75,5.75,0,0,0-7.846-2.1h0a5.75,5.75,0,0,0-2.1,7.846l8.084,14H547.781a5.742,5.742,0,0,0-5.741,5.741h0a5.746,5.746,0,0,0,5.741,5.746h16.168l-8.084,14a5.742,5.742,0,0,0,2.1,7.846h0a5.742,5.742,0,0,0,7.846-2.1l8.084-14,8.084,14a5.744,5.744,0,0,0,9.95-5.742l-8.084-14h16.168a5.742,5.742,0,0,0,5.742-5.741h0a5.742,5.742,0,0,0-5.742-5.741Z" transform="translate(-468.302 -759.596)" fill="#fff"/>
      <path id="Caminho_104" data-name="Caminho 104" d="M800.927,848.705H784.76l8.084-14a5.742,5.742,0,0,0-2.1-7.846h0a5.742,5.742,0,0,0-7.846,2.1l-8.084,14-8.084-14a5.75,5.75,0,0,0-7.846-2.1h0a5.75,5.75,0,0,0-2.1,7.846l8.084,14H748.691a5.742,5.742,0,0,0-5.741,5.741h0a5.746,5.746,0,0,0,5.741,5.746h16.168l-8.084,14a5.744,5.744,0,1,0,9.95,5.742l8.084-14,8.084,14a5.744,5.744,0,1,0,9.95-5.742l-8.084-14h16.168a5.742,5.742,0,0,0,5.741-5.741h0a5.742,5.742,0,0,0-5.741-5.741Z" transform="translate(-577.298 -759.596)" fill="#fff"/>
      <path id="Caminho_105" data-name="Caminho 105" d="M1001.827,848.705H985.66l8.084-14a5.742,5.742,0,0,0-2.1-7.846h0a5.742,5.742,0,0,0-7.846,2.1l-8.084,14-8.084-14a5.75,5.75,0,0,0-7.846-2.1h0a5.75,5.75,0,0,0-2.1,7.846l8.084,14H949.592a5.742,5.742,0,0,0-5.741,5.741h0a5.746,5.746,0,0,0,5.741,5.746h16.168l-8.084,14a5.744,5.744,0,1,0,9.95,5.742l8.084-14,8.084,14a5.744,5.744,0,1,0,9.95-5.742l-8.084-14h16.168a5.746,5.746,0,0,0,5.746-5.741h0a5.743,5.743,0,0,0-5.746-5.741Z" transform="translate(-686.289 -759.596)" fill="#fff"/>
      <rect id="Ret창ngulo_17175" data-name="Ret창ngulo 17175" width="5.87" height="73.39" transform="translate(349.475 58.156)" fill="#fff"/>
    </g>
    <g id="Grupo_10620" data-name="Grupo 10620" transform="translate(674.014 733.883)">
      <path id="Caminho_106" data-name="Caminho 106" d="M1268.858,1147.343c0,.673-.014,1.29-.046,1.917a52.839,52.839,0,0,1-30.99,46.234,67.97,67.97,0,0,1-18.647,5.279,130.7,130.7,0,0,1-18.505,1.089c-3.5,0-7.1-.078-10.586-.142-3.559-.078-7.173-.146-10.774-.146a143.72,143.72,0,0,1-19.965-1.4,46.813,46.813,0,0,1-32.45-20.194l-.188-.274c-2.777-4.2-5.911-8.958-9.168-13.51l-24.055-33.525A66.268,66.268,0,0,0,1074.2,1114.6a62.652,62.652,0,0,0-13.935-6.368l-27.829-8.77a15.279,15.279,0,0,1-9.927-10.234c-.1-.275-.2-.636-.293-.984a18.724,18.724,0,0,1-.522-3.514,18.94,18.94,0,0,1,.869-6.6l.11-.343a31.11,31.11,0,0,1,7.6-12.6,27.743,27.743,0,0,1,10.989-6.826,24.34,24.34,0,0,1,11.323-.9l19.26,3.088a126.9,126.9,0,0,1,39.559,13.317V968.319a25.051,25.051,0,0,1,.371-4.319,24.411,24.411,0,0,1,5.069-11.186,23.222,23.222,0,0,1,1.83-2.045l.21-.21c.393-.393.814-.769,1.235-1.121a24.679,24.679,0,0,1,16.081-5.929l.412.009a24.811,24.811,0,0,1,16.136,5.961c.4.343.823.727,1.29,1.19a24.138,24.138,0,0,1,1.995,2.21,24.631,24.631,0,0,1,4.868,10.307,25.4,25.4,0,0,1,.521,5.133v64.689a24.814,24.814,0,0,1,10.833-2.48h.412a24.777,24.777,0,0,1,20.052,10.248,24.713,24.713,0,0,1,15.573-5.531h.421a24.779,24.779,0,0,1,19.471,9.452,23,23,0,0,1,15.893-5.966c.663,0,1.336.014,2,.073l.169.009c10.577,1.244,21.726,9.616,21.607,22.682,0,.526,0,.933-.014,1.276v.133c-.009.65-.018,1.08.009,2.05.279,9.474.938,34.444.993,61.537l.027,20.848Z" transform="translate(-1021.665 -943.51)" fill="#fff"/>
      <path id="Caminho_107" data-name="Caminho 107" d="M1268.823,1126.5c-.055-27.088-.714-52.062-.993-61.537-.032-.97-.018-1.4-.009-2.05v-.133c.009-.343.014-.75.014-1.276.124-13.07-11.03-21.438-21.607-22.682l-.169-.009c-.668-.055-1.34-.073-2-.073a23,23,0,0,0-15.893,5.966,24.772,24.772,0,0,0-19.471-9.452h-.421a24.678,24.678,0,0,0-15.573,5.531,24.777,24.777,0,0,0-20.052-10.248h-.412a24.8,24.8,0,0,0-10.833,2.48V968.329a25.4,25.4,0,0,0-.522-5.133,24.5,24.5,0,0,0-4.868-10.307,24.164,24.164,0,0,0-1.995-2.21c-.467-.462-.892-.846-1.29-1.189a24.819,24.819,0,0,0-16.135-5.961l-.412-.009a24.679,24.679,0,0,0-16.081,5.929,16.672,16.672,0,0,0-1.235,1.121l-.21.21a23.223,23.223,0,0,0-1.83,2.045,24.408,24.408,0,0,0-5.069,11.186,25.05,25.05,0,0,0-.371,4.319v105.551a127.138,127.138,0,0,0-39.559-13.317l-19.26-3.088a24.335,24.335,0,0,0-11.323.9,27.777,27.777,0,0,0-10.989,6.826,31.11,31.11,0,0,0-7.6,12.6l-.11.343a18.409,18.409,0,0,0-.348,10.11c.1.343.2.709.293.984a15.3,15.3,0,0,0,9.927,10.234l27.829,8.77a63.066,63.066,0,0,1,13.935,6.368,66.329,66.329,0,0,1,19.283,18.075l24.055,33.525c3.262,4.552,6.4,9.31,9.168,13.51l.188.274a46.822,46.822,0,0,0,32.45,20.194,142.959,142.959,0,0,0,19.965,1.4c3.6,0,7.215.069,10.774.146,3.491.064,7.1.142,10.586.142a130.7,130.7,0,0,0,18.505-1.089,68.082,68.082,0,0,0,18.647-5.279,52.838,52.838,0,0,0,30.99-46.234c.032-.627.046-1.244.046-1.917l-.027-20.848Zm-8.582,22.412a44.348,44.348,0,0,1-25.995,38.8c-10.755,4.913-22.563,5.586-33.721,5.586-3.381,0-6.734-.064-10.289-.142s-7.21-.142-10.943-.142a132.963,132.963,0,0,1-18.771-1.322,38.184,38.184,0,0,1-26.511-16.451l-.114-.16c-3.417-5.188-6.3-9.5-9.41-13.853l-24.055-33.534a74.788,74.788,0,0,0-21.763-20.381,71.112,71.112,0,0,0-15.838-7.247L1035,1091.3a6.9,6.9,0,0,1-4.364-4.712c-.046-.146-.1-.311-.124-.43a9.663,9.663,0,0,1-.284-1.839,10.381,10.381,0,0,1,.471-3.55l.124-.366a22.572,22.572,0,0,1,5.5-9.154,19.088,19.088,0,0,1,7.558-4.712,16.106,16.106,0,0,1,4.923-.8,14.73,14.73,0,0,1,2.411.2l19.26,3.088a118.315,118.315,0,0,1,43.018,15.921,4.2,4.2,0,0,0,2.214.627,4.264,4.264,0,0,0,4.255-4.255V968.329a16.057,16.057,0,0,1,3.578-10.165,14.151,14.151,0,0,1,1.171-1.322l.1-.1c.243-.242.508-.485.837-.759a16.161,16.161,0,0,1,10.541-3.889h.412a16.22,16.22,0,0,1,10.577,3.921c.265.224.535.476.855.787a17.538,17.538,0,0,1,1.281,1.423,16.039,16.039,0,0,1,3.523,10.11v19.535l-.009,9.456-.009,67.823a4.6,4.6,0,0,0,4.593,4.593h.133a4.59,4.59,0,0,0,4.593-4.593v-22.495a16.2,16.2,0,0,1,10.11-3.55h.412a16.169,16.169,0,0,1,14.882,9.818v21.424a4.6,4.6,0,0,0,4.589,4.589h.133a4.6,4.6,0,0,0,4.593-4.589v-21.767a16.082,16.082,0,0,1,11.433-4.744h.421a16.054,16.054,0,0,1,14.717,9.429l.009.009v20.953a4.6,4.6,0,0,0,4.593,4.589h.133a4.6,4.6,0,0,0,4.589-4.589v-21.68c.769-1.011,1.071-1.349,1.185-1.473a14.374,14.374,0,0,1,10.184-3.756c.421,0,.846.018,1.222.046,6.913.837,14.017,6.336,13.949,14.091-.009.508-.009.883-.018,1.212v.133c-.014.7-.027,1.276.009,2.434.284,9.443.938,34.325.993,61.3l.032,20.8c-.009.535-.018,1.071-.046,1.6Z" transform="translate(-1021.652 -943.515)" fill="#212121"/>
    </g>
  </g>
</svg>
