<svg id="senha" xmlns="http://www.w3.org/2000/svg" width="455.047" height="362.865" viewBox="0 0 455.047 362.865">
  <rect id="Retângulo_17173" data-name="Retângulo 17173" width="455.047" height="208.457" transform="translate(0 154.408)" fill="#fdb03d"/>
  <g id="Grupo_10616" data-name="Grupo 10616" transform="translate(119.171)">
    <g id="Grupo_10609" data-name="Grupo 10609" transform="translate(0.001 0.505)">
      <path id="Caminho_85" data-name="Caminho 85" d="M888,192.761,782.79,87.553,888,23.36,993.205,87.553Z" transform="translate(-779.646 -20.215)" fill="#f2f2f2"/>
      <path id="Caminho_86" data-name="Caminho 86" d="M871.02,178.924A3.146,3.146,0,0,1,868.8,178L763.589,72.8a3.146,3.146,0,0,1,.588-4.91L869.383,3.693a3.144,3.144,0,0,1,3.277,0L977.867,67.886a3.146,3.146,0,0,1,.588,4.91L873.247,178a3.146,3.146,0,0,1-2.225.922ZM770.864,71.174,871.02,171.33,971.176,71.174,871.02,10.064Z" transform="translate(-762.668 -3.232)" fill="#3a374c"/>
    </g>
    <path id="Caminho_87" data-name="Caminho 87" d="M1021.53,79.929v55.56l53.744,53.744h33.912l60.762-60.76V84.211L1092.231,36.79Z" transform="translate(-981.08 -31.041)" opacity="0.1"/>
    <g id="Grupo_10613" data-name="Grupo 10613" transform="translate(33.48)">
      <g id="Grupo_10610" data-name="Grupo 10610">
        <path id="Caminho_88" data-name="Caminho 88" d="M1142.053,50.373v121h-145v-121a30.243,30.243,0,0,1,30.243-30.243h38.433Z" transform="translate(-993.905 -16.985)" fill="#fff"/>
        <path id="Caminho_89" data-name="Caminho 89" d="M1125.068,157.533h-145a3.146,3.146,0,0,1-3.145-3.145v-121A33.427,33.427,0,0,1,1010.31,0h38.433a3.141,3.141,0,0,1,1.16.222l76.327,30.243a3.145,3.145,0,0,1,1.988,2.925v121a3.146,3.146,0,0,1-3.146,3.145Zm-141.858-6.292h138.712V35.527L1048.142,6.292H1010.31a27.13,27.13,0,0,0-27.1,27.1v117.85Z" transform="translate(-976.92)" fill="#3a374c"/>
      </g>
      <g id="Grupo_10611" data-name="Grupo 10611" transform="translate(30.243 0.002)">
        <path id="Caminho_90" data-name="Caminho 90" d="M1190.592,20.13H1300.9a30.243,30.243,0,0,1,30.243,30.243H1220.833A30.243,30.243,0,0,0,1190.59,20.13Z" transform="translate(-1187.446 -16.986)" fill="#fff"/>
        <path id="Caminho_91" data-name="Caminho 91" d="M1314.172,36.544H1203.859a3.146,3.146,0,0,1-3.145-3.145,27.13,27.13,0,0,0-27.1-27.1,3.145,3.145,0,1,1,0-6.291h110.312A33.428,33.428,0,0,1,1317.318,33.4a3.146,3.146,0,0,1-3.145,3.145Zm-107.312-6.292h103.986A27.139,27.139,0,0,0,1283.928,6.3H1193.1A33.4,33.4,0,0,1,1206.859,30.252Z" transform="translate(-1170.47 -0.01)" fill="#3a374c"/>
      </g>
      <g id="Grupo_10612" data-name="Grupo 10612" transform="translate(41.983 75.019)">
        <circle id="Elipse_257" data-name="Elipse 257" cx="7.153" cy="7.153" r="7.153" fill="#3a374c"/>
        <circle id="Elipse_258" data-name="Elipse 258" cx="7.153" cy="7.153" r="7.153" transform="translate(51.138)" fill="#3a374c"/>
        <path id="Caminho_92" data-name="Caminho 92" d="M1365.485,632.842a2.834,2.834,0,0,1-2.833-2.833,14.163,14.163,0,1,0-28.326,0,2.833,2.833,0,1,1-5.666,0,19.829,19.829,0,0,1,39.658,0A2.834,2.834,0,0,1,1365.485,632.842Z" transform="translate(-1315.681 -589.854)" fill="#3a374c"/>
      </g>
    </g>
    <path id="Caminho_93" data-name="Caminho 93" d="M888,505.244,787.885,405.13l-5.1,3.108L888,513.446,993.205,408.238l-5.094-3.108Z" transform="translate(-779.645 -341.826)" opacity="0.1"/>
    <g id="Grupo_10614" data-name="Grupo 10614" transform="translate(0 65.381)">
      <path id="Caminho_94" data-name="Caminho 94" d="M888.006,543.075,783.483,438.55H782.8V564.523a16.125,16.125,0,0,0,16.126,16.126H977.088a16.126,16.126,0,0,0,16.126-16.126V438.55h-.683Z" transform="translate(-779.653 -435.405)" fill="#f2f2f2"/>
      <path id="Caminho_95" data-name="Caminho 95" d="M960.095,566.811H781.931A19.294,19.294,0,0,1,762.66,547.54V421.565a3.146,3.146,0,0,1,3.145-3.145h.683a3.146,3.146,0,0,1,2.225.922l102.3,102.3,102.3-102.3a3.146,3.146,0,0,1,2.225-.922h.683a3.146,3.146,0,0,1,3.146,3.145V547.538a19.293,19.293,0,0,1-19.271,19.271ZM768.952,428.477V547.538a13,13,0,0,0,12.979,12.98H960.095a12.994,12.994,0,0,0,12.979-12.98V428.477l-99.837,99.837a3.146,3.146,0,0,1-4.45,0Z" transform="translate(-762.66 -418.42)" fill="#3a374c"/>
    </g>
    <path id="Caminho_96" data-name="Caminho 96" d="M928.256,951.41l-64.906,59.173,5.557.178,61.867-56.4m50.2.28,62.46,57.181,5.038-.674-64.648-59.182" transform="translate(-847.617 -802.746)" opacity="0.1"/>
    <g id="Grupo_10615" data-name="Grupo 10615" transform="translate(19.614 133.619)">
      <path id="Caminho_97" data-name="Caminho 97" d="M1079.5,949.253H908.31l77.466-70.623a12.3,12.3,0,0,1,16.6.017l77.127,70.606Z" transform="translate(-905.165 -872.247)" fill="#f2f2f2"/>
      <path id="Caminho_98" data-name="Caminho 98" d="M1062.517,935.275H891.327a3.146,3.146,0,0,1-2.119-5.471l77.466-70.623a15.373,15.373,0,0,1,20.84.022l77.127,70.606a3.146,3.146,0,0,1-2.124,5.466Zm-163.069-6.292h154.974l-71.156-65.14a9.114,9.114,0,0,0-12.354-.013l-71.466,65.153Z" transform="translate(-888.182 -855.122)" fill="#3a374c"/>
    </g>
    <path id="Caminho_99" data-name="Caminho 99" d="M977.079,1225.876H798.916a16.125,16.125,0,0,1-16.126-16.126v5.469a16.125,16.125,0,0,0,16.126,16.126H977.079a16.126,16.126,0,0,0,16.126-16.126v-5.469A16.125,16.125,0,0,1,977.079,1225.876Z" transform="translate(-779.645 -1020.719)" opacity="0.1"/>
  </g>
</svg>
