<svg width="44" height="43" viewBox="0 0 44 43" fill="none" xmlns="http://www.w3.org/2000/svg">
<path fill-rule="evenodd" clip-rule="evenodd" d="M29.2205 14.2158C30.9074 15.9026 31.7508 18.1144 31.7508 20.3227C31.7508 22.5345 30.9074 24.7428 29.2205 26.4297C28.7866 26.8637 28.3141 27.2451 27.8172 27.5671C25.3989 27.3921 22.7111 25.6108 20.5028 23.287C18.221 20.8862 16.4712 17.9359 16.0407 15.5561C16.0302 15.5037 16.0232 15.4547 16.0162 15.4022C16.3067 14.9857 16.6356 14.5867 17.0101 14.2158C18.697 12.5289 20.9088 11.6855 23.1171 11.6855C25.3254 11.6855 27.5337 12.5289 29.2205 14.2158ZM38.5507 13.1589H40.0906V13.6733C43.9438 14.5552 44.3847 16.4066 42.1484 19.3218C42.3864 16.4276 42.0959 15.8081 40.0906 15.6716V22.986C40.0941 23.0245 40.0976 23.063 40.0976 23.1015C40.0976 24.0534 39.1002 24.9948 37.8683 25.2083C36.6364 25.4218 35.639 24.8233 35.639 23.8714C35.639 22.573 37.4203 21.4496 38.5507 21.8451V13.1589ZM33.7422 29.8279C34.7641 29.8279 35.59 30.6538 35.59 31.6757C35.59 32.6977 34.7641 33.5236 33.7422 33.5236C32.7202 33.5236 31.8943 32.6977 31.8943 31.6757C31.8943 30.6538 32.7202 29.8279 33.7422 29.8279ZM25.9413 3.74817H26.6693V3.98965C28.4856 4.40612 28.6956 5.27754 27.6422 6.65292C27.7542 5.28804 27.6177 4.99407 26.6693 4.93107V8.38177C26.6728 8.39927 26.6728 8.41677 26.6728 8.43777C26.6728 8.88573 26.2003 9.33019 25.6229 9.43168C25.0419 9.53317 24.573 9.24969 24.573 8.80173C24.573 8.18929 25.4129 7.65733 25.9448 7.84632V3.74817H25.9413ZM11.6941 7.66083C11.9636 7.61534 12.2155 7.62234 12.4395 7.67483V2.43579L6.89949 4.02815V10.1106C6.90299 10.1421 6.90299 10.1771 6.90299 10.2121C6.90299 11.031 6.04207 11.843 4.98516 12.0285C3.92475 12.2104 3.06733 11.696 3.06733 10.8771C3.06733 10.0581 3.92825 9.24619 4.98516 9.06071C5.38412 8.99072 5.75509 9.02221 6.06306 9.1307V1.64486H6.10856L13.2759 0V8.43427C13.2899 8.49726 13.2934 8.56026 13.2934 8.62325C13.2934 9.30569 12.576 9.98813 11.6906 10.1386C10.8052 10.2926 10.0877 9.86214 10.0877 9.1762C10.0877 8.49376 10.8087 7.81482 11.6941 7.66083ZM2.85034 41.6709C2.44438 42.0488 1.97892 42.3428 1.46797 42.5598C0.432055 43.0043 0.281568 43.0812 0.761027 42.0383C1.013 41.4924 1.33148 40.9919 1.73044 40.5475C1.28598 40.0715 1.0585 39.6236 0.992007 39.1091C0.925512 38.5806 1.041 38.0487 1.27198 37.3732C2.02792 35.1754 8.22938 27.5916 12.093 22.8705C13.0835 21.6596 13.9129 20.6447 14.4868 19.9203C14.5288 19.0173 14.7108 18.1214 15.0328 17.2675C15.8797 19.5738 17.5176 22.0901 19.5194 24.1934C21.3672 26.1392 23.5405 27.7526 25.7104 28.561C24.9544 28.799 24.1705 28.932 23.3831 28.9565C22.7566 29.4499 21.8607 30.1744 20.7723 31.0563C16.0197 34.906 7.71842 41.6254 5.96507 42.1573C5.33863 42.3463 4.81717 42.4513 4.30622 42.3918C3.78476 42.3288 3.3228 42.1118 2.85034 41.6709ZM14.6233 21.9011C14.1929 22.4295 13.6889 23.049 13.1359 23.7244C9.33528 28.3685 3.23181 35.8299 2.55287 37.8107C2.38489 38.3007 2.29739 38.6576 2.33239 38.9341C2.36389 39.1756 2.51087 39.4171 2.81535 39.718L3.71477 40.6175C3.98775 40.8904 4.22223 41.0164 4.4672 41.0444C4.75768 41.0794 5.12165 40.9989 5.58711 40.8589C7.08848 40.4075 15.2533 33.7931 19.9324 30.0064C20.4888 29.5549 20.9963 29.1455 21.4372 28.7885C19.8169 28.4665 18.27 27.6791 17.0136 26.4227C15.7257 25.1453 14.9313 23.5599 14.6233 21.9011Z" fill="#FC4F22"/>
</svg>
