<svg width="43" height="43" viewBox="0 0 43 43" fill="none" xmlns="http://www.w3.org/2000/svg">
<path d="M38.0171 31.3544C38.0311 31.3231 38.0405 31.2898 38.0504 31.2565C38.5788 29.6196 38.8671 27.8763 38.8671 26.0664C38.8671 17.542 32.5343 10.472 24.3275 9.30535V6.58135C24.3275 6.16927 23.9935 5.83572 23.5819 5.83572H22.6767V0.745622C22.6767 0.333542 22.3432 0 21.9311 0C21.519 0 21.1855 0.333542 21.1855 0.745622V5.83572H20.2843C19.8722 5.83572 19.5386 6.16927 19.5386 6.58135V9.30535C13.2794 10.1956 8.11173 14.5182 6.01156 20.3028C6.0056 20.3172 6.00212 20.3321 5.99665 20.347C5.35293 22.1345 5 24.0597 5 26.0664C5 27.8554 5.28085 29.5798 5.79782 31.1998C5.80925 31.258 5.82963 31.3126 5.85399 31.3653C8.08339 38.1132 14.445 42.9985 21.9306 43H21.9311H21.9336C22.0474 43 22.1597 42.9935 22.2726 42.9916C22.2964 42.994 22.3203 43 22.3442 43C22.373 43 22.4013 42.9906 22.4297 42.9876C29.7039 42.7763 35.8399 37.9591 38.0171 31.3544ZM6.49124 26.0664C6.49124 24.4196 6.75321 22.8334 7.23239 21.3442H12.7649C12.3563 22.7713 12.1098 24.2993 12.1098 25.9193C12.1098 27.4791 12.3126 28.9416 12.6536 30.3065H7.08824C6.7025 28.9585 6.49124 27.5368 6.49124 26.0664ZM13.601 25.9193C13.601 24.2983 13.8799 22.7678 14.3347 21.3442H21.185V30.3065H14.2054C13.8282 28.947 13.601 27.4826 13.601 25.9193ZM29.3848 19.8529H22.6767V11.0929C24.1794 12.349 27.5327 15.492 29.3848 19.8529ZM21.1855 11.4458V19.8529H14.8869C16.583 15.8574 19.5446 12.8828 21.1855 11.4458ZM21.1855 31.7978V40.7278C19.4859 39.2883 16.3484 36.19 14.6916 31.7978H21.1855ZM22.6767 41.0659V31.7978H29.5792C27.7748 36.5713 24.2231 39.8192 22.6767 41.0659ZM22.6767 30.3065V21.3442H29.9386C30.3939 22.7683 30.6737 24.2983 30.6737 25.9193C30.6737 27.4821 30.4461 28.9465 30.0673 30.3065H22.6767ZM31.5093 21.3442H36.6342C37.1139 22.8334 37.3754 24.4196 37.3754 26.0664C37.3754 27.5368 37.1646 28.9585 36.7789 30.3065H31.6212C31.9622 28.9416 32.165 27.4791 32.165 25.9193C32.165 24.2988 31.9179 22.7713 31.5093 21.3442ZM36.0661 19.8529H31.0133C29.444 15.746 26.6121 12.6338 24.7088 10.8786C29.8024 11.8072 34.03 15.24 36.0661 19.8529ZM21.0294 9.13386V7.32697H22.8363V9.13386H22.3655C22.363 9.13386 22.3601 9.13386 22.3576 9.13386H21.9723C21.9594 9.13386 21.947 9.13286 21.9341 9.13286C21.9211 9.13286 21.9087 9.13386 21.8958 9.13386H21.0294ZM19.6599 10.7926C17.7576 12.5304 14.8571 15.6759 13.261 19.8529H7.80105C9.90371 15.0894 14.3431 11.581 19.6599 10.7926ZM7.59874 31.7978H13.094C14.6265 36.3008 17.6139 39.5572 19.5913 41.3313C14.1269 40.4962 9.59999 36.785 7.59874 31.7978ZM24.7838 41.2408C26.7612 39.4474 29.6741 36.2248 31.1808 31.7978H36.2684C34.3298 36.6294 30.0191 40.2591 24.7838 41.2408Z" fill="#FC4F22"/>
</svg>
