<svg width="108" height="111" viewBox="0 0 108 111" fill="none" xmlns="http://www.w3.org/2000/svg">
<path d="M86.8103 15.0259C61.0472 -10.2167 39.1027 1.26333 35.2842 20.4946C31.4657 39.7258 -4.00582 43.5656 0.373833 66.2806C4.75348 88.9955 52.4595 75.5085 52.4595 96.0939C52.4595 116.679 107.617 115.969 107.617 88.9955C107.617 62.0215 112.573 40.2685 86.8103 15.0259Z" fill="#FFEFD8"/>
<path d="M91.9 56.302C91.9 33.793 74.434 18.5 55 18.5C35.771 18.5 18.1 33.465 18.1 56.548C15.64 57.942 14 60.566 14 63.6V71.8C14 76.31 17.69 80 22.2 80H26.3V54.99C26.3 39.123 39.133 26.29 55 26.29C70.867 26.29 83.7 39.123 83.7 54.99V84.1H50.9V92.3H83.7C88.21 92.3 91.9 88.61 91.9 84.1V79.098C94.319 77.827 96 75.326 96 72.374V62.944C96 60.074 94.319 57.573 91.9 56.302Z" fill="#483733"/>
<path d="M79.6 51.423C78.6224 45.659 75.637 40.4267 71.1722 36.6523C66.7075 32.8779 61.0514 30.8048 55.205 30.8C42.782 30.8 29.416 41.091 30.482 57.245C35.5379 55.1761 40.0032 51.8883 43.4799 47.6747C46.9567 43.4611 49.3368 38.4527 50.408 33.096C55.779 43.879 66.808 51.3 79.6 51.423Z" fill="#FB4F21"/>
<path d="M42.6996 63.5999C44.964 63.5999 46.7996 61.7643 46.7996 59.4999C46.7996 57.2355 44.964 55.3999 42.6996 55.3999C40.4352 55.3999 38.5996 57.2355 38.5996 59.4999C38.5996 61.7643 40.4352 63.5999 42.6996 63.5999Z" fill="#483733"/>
<path d="M67.2996 63.5999C69.564 63.5999 71.3996 61.7643 71.3996 59.4999C71.3996 57.2355 69.564 55.3999 67.2996 55.3999C65.0352 55.3999 63.1996 57.2355 63.1996 59.4999C63.1996 61.7643 65.0352 63.5999 67.2996 63.5999Z" fill="#483733"/>
</svg>
