<svg width="43" height="43" viewBox="0 0 43 43" fill="none" xmlns="http://www.w3.org/2000/svg">
<path d="M12.2692 28.3119L10.4874 29.7925L10.4963 29.8545C10.5767 30.4119 10.4392 30.9699 10.1092 31.4261L6.36799 36.5943C6.57194 36.6736 6.78782 36.7163 7.00519 36.7163C7.39968 36.7163 7.79654 36.5837 8.12378 36.3119L15.6546 30.054C16.3152 29.5049 16.4803 28.5577 16.0441 27.8175L15.5939 27.0534C14.4518 27.3754 13.2366 27.6173 11.9563 27.7809L12.2692 28.3119Z" fill="#FC4F22"/>
<path d="M6.28165 28.0002L6.52862 29.7105L1.33287 36.8879C0.765618 37.6717 0.940964 38.7669 1.72478 39.3341C2.0351 39.5587 2.39434 39.667 2.75049 39.667C3.29312 39.667 3.82819 39.4155 4.17085 38.9424L9.7828 31.1899C10.0497 30.8211 10.1626 30.3628 10.0976 29.9122L9.8182 27.9776C9.1709 28.0146 8.50943 28.0335 7.8337 28.0336C7.29717 28.0336 6.77779 28.0213 6.28165 28.0002Z" fill="#FC4F22"/>
<path d="M17.4966 19.6808C17.4062 19.5529 17.3358 19.4154 17.282 19.2725L16.2155 19.2334C16.3168 19.9139 16.9033 20.427 17.6001 20.427C17.6201 20.427 17.6403 20.4266 17.6605 20.4258L18.5327 20.3888C18.1133 20.2845 17.7485 20.0375 17.4966 19.6808Z" fill="#FC4F22"/>
<path d="M9.17517 18.9753C8.75092 18.9596 8.34773 18.7671 8.06906 18.4471C7.81725 18.1579 6.77486 16.9257 5.80428 15.2831C5.75116 15.6236 5.66992 15.925 5.57351 16.205L5.53802 16.213C4.39816 17.2608 3.61936 19.1062 3.06678 20.9956C2.34173 23.4747 2.00656 26.0298 1.75985 26.9589C1.75834 26.9646 1.76141 26.9697 1.76712 26.9709C3.34754 27.3097 10.7069 28.3692 16.9825 26.051C16.9883 26.0496 16.9917 26.0437 16.9898 26.038C16.5973 24.8654 15.5372 22.7715 14.5117 20.6031C14.2823 20.1179 14.0552 19.6294 13.8371 19.1463L9.17517 18.9753Z" fill="#FC4F22"/>
<path d="M36.5142 30.9143C36.5125 30.9113 36.5124 30.9077 36.514 30.9046L40.746 22.8245C40.8169 22.6893 40.8712 22.5499 40.911 22.4086C41.0137 22.1677 41.0478 21.8947 40.9937 21.6184C40.9937 21.6184 38.6744 11.4094 32.8088 9.36306C32.6241 9.63668 32.4077 9.89164 32.1598 10.1219C30.8638 11.3255 28.9886 11.6248 27.3825 10.8843C27.3825 10.8843 27.3824 10.8842 27.3825 10.8843C27.3209 10.8559 27.2626 10.8216 27.2026 10.7904C26.9397 10.9742 26.7377 11.2482 26.65 11.5828L25.148 17.303L22.4918 17.4156L27.4299 18.2659L28.0193 17.4034L28.5521 15.3739C28.7537 15.5048 28.9421 15.646 29.1175 15.7963L31.7706 11.9138C32.1073 11.4214 32.6646 11.1274 33.2616 11.1274C33.6255 11.1274 33.977 11.2362 34.2783 11.442C35.0997 12.0034 35.3113 13.1283 34.7502 13.9498L31.1454 19.2248C31.6216 20.9701 31.515 22.5209 31.515 22.5209C31.5158 22.5252 31.5138 22.5296 31.51 22.5318L26.3006 25.4443C25.654 25.8058 25.2382 26.4741 25.1996 27.2139L24.6808 37.164C24.6207 38.3167 25.4744 39.3309 26.6242 39.4309C26.6917 39.4368 26.7584 39.44 26.8246 39.44C27.9584 39.4399 28.9059 38.5512 28.9657 37.4058L29.4238 28.6205C29.4239 28.617 29.4259 28.6138 29.429 28.6121L34.2649 25.9083C34.2738 25.9034 34.2837 25.913 34.279 25.922L32.1745 29.9399C31.8374 30.5836 31.8472 31.3539 32.2005 31.9888L37.7154 41.8973C38.1079 42.6024 38.8389 43 39.5924 43C39.9903 42.9999 40.3945 42.8891 40.7584 42.6539C41.7181 42.0337 41.9842 40.7421 41.4285 39.7438L36.5142 30.9143Z" fill="#FC4F22"/>
<path d="M8.37287 18.1824C8.57969 18.4199 8.87529 18.561 9.18988 18.5726L17.1794 18.8656C17.1577 18.6909 17.1616 18.5121 17.1923 18.3338C17.3219 17.5813 17.9007 17.0083 18.6253 16.8688C18.4403 16.7188 18.2078 16.6244 17.9515 16.615L9.78073 16.3154C8.82413 15.1269 7.25222 12.8276 6.77915 10.8621L7.17343 10.7896C7.60566 12.5363 8.99264 14.6632 9.98071 15.9196L12.5792 16.0148C12.4272 15.5472 12.3112 15.1155 12.2447 14.7354C12.2446 14.7348 12.2445 14.7343 12.2445 14.7337C12.2193 14.0247 12.3814 13.1329 12.6137 12.2423L13.3618 14.8988C13.4225 15.1147 13.5457 15.3077 13.7157 15.4539L14.4483 16.0833L17.9662 16.2122C18.014 16.214 18.0609 16.2186 18.1074 16.2246L15.4606 13.9506L13.6639 7.57042C13.5639 7.21554 13.3059 6.94857 12.9879 6.82187C12.0563 8.51986 10.0267 9.39162 8.10516 8.79938C7.06039 8.47737 6.23355 7.7793 5.72575 6.89976C5.42086 6.96211 5.14222 7.1471 4.97194 7.43645C4.28933 8.59618 4.24629 9.9379 4.54124 11.2731C5.2552 14.5055 7.95257 17.6998 8.37287 18.1824Z" fill="#FC4F22"/>
<path d="M10.561 0.831227C11.7073 1.18453 12.5913 1.99056 13.0792 2.99236C14.1064 3.54285 15.2105 4.05344 16.2529 3.82498C19.0844 3.20449 18.7806 0.553861 18.3642 1.30925C17.9478 2.06462 16.9564 2.71745 14.2783 0.994398C12.0424 -0.444138 10.5329 -0.103939 9.50395 0.649837C9.85501 0.664166 10.2098 0.722971 10.561 0.831227Z" fill="#FC4F22"/>
<path d="M8.2694 8.35188C10.2543 8.9735 12.3674 7.86833 12.989 5.88341C13.6106 3.89848 12.5055 1.78543 10.5205 1.16381C8.5356 0.54216 6.42256 1.64735 5.80093 3.63227C5.1793 5.6172 6.28447 7.73023 8.2694 8.35188ZM7.99771 6.28966C7.82044 5.60259 8.95967 6.04187 10.1462 5.73609C11.333 5.43031 12.1178 4.4953 12.295 5.18218C12.4719 5.86925 11.6534 6.67406 10.4669 6.97999C9.28008 7.28579 8.17463 6.9767 7.99771 6.28966Z" fill="#FC4F22"/>
<path d="M31.8856 9.82671C33.4805 8.34529 33.5727 5.85168 32.0912 4.2566C30.6099 2.66174 28.116 2.56957 26.5211 4.05097C24.9261 5.53237 24.8342 8.02623 26.3154 9.62107C27.797 11.2162 30.2906 11.3081 31.8856 9.82671ZM26.2466 7.69204C26.3765 6.99448 27.2231 7.87427 28.4277 8.09893C29.6325 8.32371 30.739 7.80823 30.6091 8.50564C30.4789 9.20306 29.3969 9.58625 28.1923 9.36177C26.9875 9.13701 26.1164 8.38947 26.2466 7.69204Z" fill="#FC4F22"/>
<path d="M34.0511 11.7747C33.4122 11.3383 32.5403 11.5018 32.1034 12.1411L27.6165 18.7069L19.2081 17.259C18.446 17.1273 17.7207 17.6395 17.5893 18.4023C17.458 19.1649 17.9698 19.8897 18.7326 20.0211L28.0279 21.6217C28.1074 21.6354 28.187 21.6421 28.2658 21.6421C28.7234 21.6421 29.1588 21.4175 29.4228 21.0314L34.4175 13.7224C34.8541 13.0835 34.69 12.2114 34.0511 11.7747Z" fill="#FC4F22"/>
</svg>
