<svg width="90" height="79" viewBox="0 0 90 79" fill="none" xmlns="http://www.w3.org/2000/svg">
<path d="M77.2824 60.9672C74.7369 60.9672 72.356 59.7148 70.9141 57.6172L67.1323 52.1163C62.6773 60.104 54.2086 65.2608 44.6522 65.2608C31.3173 65.2608 20.3161 55.0752 19.0191 42.076H21.4675C22.424 42.076 23.3021 41.546 23.7474 40.6992C24.1927 39.8525 24.1321 38.8286 23.5902 38.0405L19.8349 32.5782L14.1446 24.3012C13.6642 23.6023 12.8702 23.1846 12.0218 23.1846C11.9158 23.1846 11.8106 23.1911 11.7066 23.2038C11.6027 23.2165 11.5003 23.2357 11.3997 23.2606C11.1482 23.3232 10.9081 23.4232 10.6878 23.5566C10.3795 23.7432 10.1091 23.9953 9.89894 24.301L0.453284 38.0403C-0.0886458 38.8285 -0.14917 39.8525 0.29613 40.699C0.741429 41.5455 1.61947 42.076 2.57618 42.076H5.23437C5.84729 51.6572 9.87173 60.5807 16.7216 67.4308C24.1822 74.8913 34.1014 79 44.6522 79C55.203 79 65.1222 74.8913 72.5828 67.4308C74.5661 65.4474 76.3224 63.2717 77.8303 60.9461C77.6485 60.9588 77.4661 60.9672 77.2824 60.9672Z" fill="white"/>
<path d="M46.6158 36.9238H42.6904C41.9464 36.9238 41.3411 36.3186 41.3411 35.5745V33.6118C41.3411 32.8678 41.9464 32.2626 42.6904 32.2626H46.6158C47.3599 32.2626 47.9652 32.8678 47.9652 33.6118C47.9652 35.0345 49.1186 36.1878 50.5412 36.1878C51.9638 36.1878 53.1172 35.0343 53.1172 33.6118C53.1172 30.2339 50.5274 27.4503 47.2289 27.1401V25.761C47.2289 24.3382 46.0755 23.1849 44.6529 23.1849C43.2301 23.1849 42.0768 24.3384 42.0768 25.761V27.1401C38.7785 27.4503 36.1885 30.2339 36.1885 33.6118V35.5745C36.1885 39.1596 39.105 42.0761 42.6901 42.0761H46.6155C47.3595 42.0761 47.9648 42.6814 47.9648 43.4254V45.3882C47.9648 46.1321 47.3594 46.7375 46.6155 46.7375H42.6901C41.946 46.7375 41.3408 46.1323 41.3408 45.3884C41.3408 43.9656 40.1873 42.8123 38.7647 42.8123C37.3421 42.8123 36.1887 43.9658 36.1887 45.3884C36.1887 48.7662 38.7785 51.5498 42.077 51.86V53.239C42.077 54.6617 43.2305 55.815 44.653 55.815C46.0758 55.815 47.2291 54.6615 47.2291 53.239V51.8598C50.5272 51.5496 53.1174 48.766 53.1174 45.3882V43.4254C53.1172 39.8404 50.2009 36.9238 46.6158 36.9238Z" fill="white"/>
<path d="M89.0086 38.3007C88.5631 37.454 87.6852 36.9238 86.7285 36.9238H84.0703C83.4574 27.3426 79.433 18.4192 72.5831 11.5691C65.1227 4.10869 55.2033 0 44.6527 0C34.1021 0 24.1825 4.10869 16.7221 11.5693C14.7387 13.5526 12.9825 15.7283 11.4746 18.0539C11.6562 18.041 11.8386 18.0326 12.0223 18.0326C14.568 18.0326 16.9487 19.285 18.3906 21.3826L22.1724 26.8835C26.6274 18.8958 35.0961 13.7392 44.6525 13.7392C57.9874 13.7392 68.9886 23.9248 70.2856 36.924H67.8372C66.8807 36.924 66.0027 37.454 65.5573 38.3008C65.112 39.1475 65.1726 40.1713 65.7145 40.9596L69.4698 46.4218L75.1602 54.6988C75.2803 54.8736 75.42 55.0307 75.5753 55.1682C76.041 55.5805 76.6468 55.8154 77.2831 55.8154C78.1313 55.8154 78.9254 55.3977 79.4059 54.6988L82.8166 49.7377L88.8514 40.9597C89.3935 40.171 89.4539 39.1471 89.0086 38.3007Z" fill="white"/>
</svg>
