<svg xmlns="http://www.w3.org/2000/svg" xmlns:xlink="http://www.w3.org/1999/xlink" width="49" height="49" viewBox="0 0 49 49">
  <defs>
    <filter id="Caminho_44" x="0" y="0" width="49" height="49" filterUnits="userSpaceOnUse">
      <feOffset dy="3" input="SourceAlpha"/>
      <feGaussianBlur stdDeviation="3" result="blur"/>
      <feFlood flood-opacity="0.161"/>
      <feComposite operator="in" in2="blur"/>
      <feComposite in="SourceGraphic"/>
    </filter>
  </defs>
  <g id="Youtube" transform="translate(9 6)">
    <g transform="matrix(1, 0, 0, 1, -9, -6)" filter="url(#Caminho_44)">
      <path id="Caminho_44-2" data-name="Caminho 44" d="M15.5,0A15.5,15.5,0,1,1,0,15.5,15.5,15.5,0,0,1,15.5,0Z" transform="translate(9 6)" fill="#fc4f22"/>
    </g>
    <path id="Icon_awesome-youtube" data-name="Icon awesome-youtube" d="M16.554,6.242a1.99,1.99,0,0,0-1.4-1.409A47.019,47.019,0,0,0,8.967,4.5a47.02,47.02,0,0,0-6.186.333,1.99,1.99,0,0,0-1.4,1.409,20.872,20.872,0,0,0-.331,3.836,20.872,20.872,0,0,0,.331,3.836,1.96,1.96,0,0,0,1.4,1.387,47.02,47.02,0,0,0,6.186.333,47.02,47.02,0,0,0,6.186-.333,1.96,1.96,0,0,0,1.4-1.387,20.872,20.872,0,0,0,.331-3.836,20.872,20.872,0,0,0-.331-3.836Zm-9.206,6.19V7.724l4.139,2.354L7.348,12.433Z" transform="translate(6.671 5.484)" fill="#fff"/>
  </g>
</svg>
